<?xml version="1.0" encoding="UTF-8"?>
<!DOCTYPE svg PUBLIC "-//W3C//DTD SVG 1.1//EN" "http://www.w3.org/Graphics/SVG/1.1/DTD/svg11.dtd">
<svg xmlns="http://www.w3.org/2000/svg" version="1.1" width="1440px" height="544px" style="shape-rendering:geometricPrecision; text-rendering:geometricPrecision; image-rendering:optimizeQuality; fill-rule:evenodd; clip-rule:evenodd" xmlns:xlink="http://www.w3.org/1999/xlink">
<g><path style="opacity:0.846" fill="#074d6e" d="M 25.5,-0.5 C 57.5,-0.5 89.5,-0.5 121.5,-0.5C 108.32,38.1796 81.6531,61.3463 41.5,69C 27.247,70.415 13.247,69.2483 -0.5,65.5C -0.5,52.1667 -0.5,38.8333 -0.5,25.5C 3.83333,12.5 12.5,3.83333 25.5,-0.5 Z"/></g>
<g><path style="opacity:0.847" fill="#074869" d="M 121.5,-0.5 C 137.167,-0.5 152.833,-0.5 168.5,-0.5C 156.182,49.977 126.515,86.1437 79.5,108C 53.4238,117.984 26.7571,120.151 -0.5,114.5C -0.5,98.1667 -0.5,81.8333 -0.5,65.5C 13.247,69.2483 27.247,70.415 41.5,69C 81.6531,61.3463 108.32,38.1796 121.5,-0.5 Z"/></g>
<g><path style="opacity:0.847" fill="#064667" d="M 168.5,-0.5 C 177.833,-0.5 187.167,-0.5 196.5,-0.5C 192.874,18.881 186.374,37.2144 177,54.5C 176,52.5 175,50.5 174,48.5C 135.813,117.011 77.6467,147.011 -0.5,138.5C -0.5,130.5 -0.5,122.5 -0.5,114.5C 26.7571,120.151 53.4238,117.984 79.5,108C 126.515,86.1437 156.182,49.977 168.5,-0.5 Z"/></g>
<g><path style="opacity:0.847" fill="#064364" d="M 196.5,-0.5 C 204.5,-0.5 212.5,-0.5 220.5,-0.5C 218.691,14.4064 214.857,28.7397 209,42.5C 208.252,40.6675 207.252,39.0009 206,37.5C 199.919,54.3319 191.752,69.9986 181.5,84.5C 180.5,83.1667 179.5,81.8333 178.5,80.5C 170.012,93.4976 159.845,105.164 148,115.5C 147,114.167 146,112.833 145,111.5C 133.955,120.94 122.122,129.274 109.5,136.5C 108.5,134.833 107.167,133.5 105.5,132.5C 92.9068,138.976 79.7401,143.976 66,147.5C 64.1196,146.098 62.453,144.431 61,142.5C 40.5664,147.329 20.0664,147.662 -0.5,143.5C -0.5,141.833 -0.5,140.167 -0.5,138.5C 77.6467,147.011 135.813,117.011 174,48.5C 175,50.5 176,52.5 177,54.5C 186.374,37.2144 192.874,18.881 196.5,-0.5 Z"/></g>
<g><path style="opacity:0.847" fill="#054061" d="M 220.5,-0.5 C 238.833,-0.5 257.167,-0.5 275.5,-0.5C 269.201,48.7635 251.201,93.0968 221.5,132.5C 219.854,131.221 218.687,129.555 218,127.5C 215.636,130.69 213.136,133.69 210.5,136.5C 210.631,135.761 210.464,135.094 210,134.5C 200.142,145.357 189.975,155.857 179.5,166C 177.232,166.09 175.732,164.923 175,162.5C 163.859,171.806 152.026,180.139 139.5,187.5C 137.833,186.5 136.5,185.167 135.5,183.5C 122.546,190.727 109.046,196.727 95,201.5C 94.3128,199.445 93.1461,197.779 91.5,196.5C 61.4264,205.895 30.7597,208.562 -0.5,204.5C -0.5,184.167 -0.5,163.833 -0.5,143.5C 20.0664,147.662 40.5664,147.329 61,142.5C 62.453,144.431 64.1196,146.098 66,147.5C 79.7401,143.976 92.9068,138.976 105.5,132.5C 107.167,133.5 108.5,134.833 109.5,136.5C 122.122,129.274 133.955,120.94 145,111.5C 146,112.833 147,114.167 148,115.5C 159.845,105.164 170.012,93.4976 178.5,80.5C 179.5,81.8333 180.5,83.1667 181.5,84.5C 191.752,69.9986 199.919,54.3319 206,37.5C 207.252,39.0009 208.252,40.6675 209,42.5C 214.857,28.7397 218.691,14.4064 220.5,-0.5 Z"/></g>
<g><path style="opacity:0.847" fill="#053b5a" d="M 275.5,-0.5 C 297.5,-0.5 319.5,-0.5 341.5,-0.5C 338.052,39.4907 327.719,77.4907 310.5,113.5C 309.778,113.082 309.278,112.416 309,111.5C 300.765,128.98 291.265,145.647 280.5,161.5C 279.52,160.019 278.353,158.685 277,157.5C 268.598,169.905 259.431,181.738 249.5,193C 247.996,192.069 246.329,191.402 244.5,191C 234.603,201.567 224.103,211.4 213,220.5C 212,219.167 211,217.833 210,216.5C 198.859,225.806 187.026,234.139 174.5,241.5C 173.354,240.855 172.354,240.022 171.5,239C 170.5,238.333 169.5,238.333 168.5,239C 156.446,245.694 144.112,251.861 131.5,257.5C 129.831,256.329 128.331,254.996 127,253.5C 85.8239,269.311 43.3239,274.978 -0.5,270.5C -0.5,254.833 -0.5,239.167 -0.5,223.5C 85.2594,230.938 155.593,201.938 210.5,136.5C 213.136,133.69 215.636,130.69 218,127.5C 218.687,129.555 219.854,131.221 221.5,132.5C 251.201,93.0968 269.201,48.7635 275.5,-0.5 Z"/></g>
<g><path style="opacity:0.847" fill="#043554" d="M 341.5,-0.5 C 366.167,-0.5 390.833,-0.5 415.5,-0.5C 415.026,8.59946 413.859,17.5995 412,26.5C 411.333,25.1667 410.667,23.8333 410,22.5C 409.333,21.1667 408.667,21.1667 408,22.5C 405.409,42.4535 401.409,62.1202 396,81.5C 394.907,79.6508 393.574,77.9842 392,76.5C 387.376,94.0402 381.376,111.04 374,127.5C 373,126.167 372,124.833 371,123.5C 364.451,138.93 357.118,153.93 349,168.5C 348,167.167 347,165.833 346,164.5C 336.995,180.516 326.995,195.85 316,210.5C 314.615,209.449 313.615,208.116 313,206.5C 303.875,217.961 294.375,229.127 284.5,240C 282.613,240.163 281.113,239.329 280,237.5C 269.918,248.42 259.084,258.42 247.5,267.5C 246.573,265.054 244.906,264.221 242.5,265C 232.399,273.769 221.732,281.769 210.5,289C 209.5,289.667 208.5,289.667 207.5,289C 206.789,287.745 205.956,286.579 205,285.5C 192.648,293.846 179.648,301.18 166,307.5C 164.705,305.878 163.205,304.545 161.5,303.5C 109.807,326.707 55.8068,335.707 -0.5,330.5C -0.5,318.5 -0.5,306.5 -0.5,294.5C 103.212,301.382 189.045,265.715 257,187.5C 257.972,189.305 259.139,190.972 260.5,192.5C 281.167,168.805 297.834,142.472 310.5,113.5C 327.719,77.4907 338.052,39.4907 341.5,-0.5 Z"/></g>
<g><path style="opacity:0.847" fill="#04324f" d="M 415.5,-0.5 C 417.167,-0.5 418.833,-0.5 420.5,-0.5C 412.044,98.3617 375.211,184.695 310,258.5C 309.047,256.545 307.713,254.878 306,253.5C 223.863,343.508 121.696,385.175 -0.5,378.5C -0.5,362.5 -0.5,346.5 -0.5,330.5C 55.8068,335.707 109.807,326.707 161.5,303.5C 163.205,304.545 164.705,305.878 166,307.5C 179.648,301.18 192.648,293.846 205,285.5C 205.956,286.579 206.789,287.745 207.5,289C 208.5,289.667 209.5,289.667 210.5,289C 221.732,281.769 232.399,273.769 242.5,265C 244.906,264.221 246.573,265.054 247.5,267.5C 259.084,258.42 269.918,248.42 280,237.5C 281.113,239.329 282.613,240.163 284.5,240C 294.375,229.127 303.875,217.961 313,206.5C 313.615,208.116 314.615,209.449 316,210.5C 326.995,195.85 336.995,180.516 346,164.5C 347,165.833 348,167.167 349,168.5C 357.118,153.93 364.451,138.93 371,123.5C 372,124.833 373,126.167 374,127.5C 381.376,111.04 387.376,94.0402 392,76.5C 393.574,77.9842 394.907,79.6508 396,81.5C 401.409,62.1202 405.409,42.4535 408,22.5C 408.667,21.1667 409.333,21.1667 410,22.5C 410.667,23.8333 411.333,25.1667 412,26.5C 413.859,17.5995 415.026,8.59946 415.5,-0.5 Z"/></g>
<g><path style="opacity:0.847" fill="#042e4d" d="M 420.5,-0.5 C 445.5,-0.5 470.5,-0.5 495.5,-0.5C 495.452,6.19719 494.952,12.8639 494,19.5C 492.333,17.1667 490.667,14.8333 489,12.5C 487.489,21.9583 485.989,31.2916 484.5,40.5C 483.836,38.513 482.669,36.8463 481,35.5C 477.506,57.8025 472.673,79.8025 466.5,101.5C 465.52,100.019 464.353,98.6853 463,97.5C 457.947,114.324 452.281,130.99 446,147.5C 445.218,144.812 443.718,143.812 441.5,144.5C 435.974,159.217 429.64,173.55 422.5,187.5C 421.167,186.5 419.833,185.5 418.5,184.5C 411.597,198.372 403.93,211.705 395.5,224.5C 394.186,223.687 393.019,222.687 392,221.5C 382.159,236.517 371.825,251.184 361,265.5C 359.647,264.315 358.48,262.981 357.5,261.5C 348.418,272.754 338.752,283.588 328.5,294C 326.232,294.09 324.732,292.923 324,290.5C 313.857,300.975 303.357,311.142 292.5,321C 292.167,321.167 291.833,321.333 291.5,321.5C 290.52,320.019 289.353,318.685 288,317.5C 276.951,326.939 265.451,335.772 253.5,344C 252.833,344.667 252.167,344.667 251.5,344C 250.845,342.513 249.845,341.347 248.5,340.5C 236.359,348.961 223.692,356.628 210.5,363.5C 208.851,362.352 207.351,361.019 206,359.5C 141.207,392.959 72.3741,407.292 -0.5,402.5C -0.5,394.5 -0.5,386.5 -0.5,378.5C 121.696,385.175 223.863,343.508 306,253.5C 307.713,254.878 309.047,256.545 310,258.5C 375.211,184.695 412.044,98.3617 420.5,-0.5 Z"/></g>
<g><path style="opacity:0.847" fill="#042946" d="M 495.5,-0.5 C 515.167,-0.5 534.833,-0.5 554.5,-0.5C 554.157,16.4207 552.324,33.0874 549,49.5C 547.667,48.1667 546.333,46.8333 545,45.5C 542.601,64.1623 538.934,82.4957 534,100.5C 532.667,99.1667 531.333,97.8333 530,96.5C 525.547,116.525 519.88,136.192 513,155.5C 511.287,154.122 509.953,152.455 509,150.5C 503.833,166.499 497.833,182.165 491,197.5C 489.426,196.016 488.093,194.349 487,192.5C 480.8,207.232 473.8,221.566 466,235.5C 464.757,233.167 463.091,232.5 461,233.5C 454.256,246.662 446.756,259.328 438.5,271.5C 437.167,270.5 435.833,269.5 434.5,268.5C 424.938,283.063 414.605,297.063 403.5,310.5C 402.084,308.861 400.417,308.027 398.5,308C 389.745,319.426 380.245,330.259 370,340.5C 368.667,339.167 367.333,337.833 366,336.5C 355.637,347.197 344.971,357.53 334,367.5C 332.667,366.167 331.333,364.833 330,363.5C 318.788,373.047 307.288,382.214 295.5,391C 293.78,390.29 292.113,389.123 290.5,387.5C 278.171,396 265.504,404 252.5,411.5C 250.851,410.352 249.351,409.019 248,407.5C 171.032,451.616 88.1989,470.949 -0.5,465.5C -0.5,461.167 -0.5,456.833 -0.5,452.5C 139.892,458.117 257.725,409.784 353,307.5C 354.422,309.638 356.255,310.805 358.5,311C 427.762,233.954 469.762,143.788 484.5,40.5C 485.989,31.2916 487.489,21.9583 489,12.5C 490.667,14.8333 492.333,17.1667 494,19.5C 494.952,12.8639 495.452,6.19719 495.5,-0.5 Z"/></g>
<g><path style="opacity:0.847" fill="#042742" d="M 554.5,-0.5 C 556.5,-0.5 558.5,-0.5 560.5,-0.5C 558.874,28.8408 554.874,57.8408 548.5,86.5C 546.851,85.3523 545.351,84.019 544,82.5C 521.775,187.117 475.608,279.284 405.5,359C 403.255,358.805 401.422,357.638 400,355.5C 292.611,470.919 159.778,526.586 1.5,522.5C 1.20414,520.597 0.53747,518.93 -0.5,517.5C -0.5,500.167 -0.5,482.833 -0.5,465.5C 88.1989,470.949 171.032,451.616 248,407.5C 249.351,409.019 250.851,410.352 252.5,411.5C 265.504,404 278.171,396 290.5,387.5C 292.113,389.123 293.78,390.29 295.5,391C 307.288,382.214 318.788,373.047 330,363.5C 331.333,364.833 332.667,366.167 334,367.5C 344.971,357.53 355.637,347.197 366,336.5C 367.333,337.833 368.667,339.167 370,340.5C 380.245,330.259 389.745,319.426 398.5,308C 400.417,308.027 402.084,308.861 403.5,310.5C 414.605,297.063 424.938,283.063 434.5,268.5C 435.833,269.5 437.167,270.5 438.5,271.5C 446.756,259.328 454.256,246.662 461,233.5C 463.091,232.5 464.757,233.167 466,235.5C 473.8,221.566 480.8,207.232 487,192.5C 488.093,194.349 489.426,196.016 491,197.5C 497.833,182.165 503.833,166.499 509,150.5C 509.953,152.455 511.287,154.122 513,155.5C 519.88,136.192 525.547,116.525 530,96.5C 531.333,97.8333 532.667,99.1667 534,100.5C 538.934,82.4957 542.601,64.1623 545,45.5C 546.333,46.8333 547.667,48.1667 549,49.5C 552.324,33.0874 554.157,16.4207 554.5,-0.5 Z"/></g>
<g><path style="opacity:0.847" fill="#032340" d="M 560.5,-0.5 C 582.167,-0.5 603.833,-0.5 625.5,-0.5C 623.619,37.9987 618.286,75.9987 609.5,113.5C 607.742,112.872 606.242,111.872 605,110.5C 601.444,127.056 597.111,143.39 592,159.5C 590.667,158.167 589.333,156.833 588,155.5C 582.258,173.726 575.925,191.726 569,209.5C 567.757,207.167 566.091,206.5 564,207.5C 558.551,221.732 552.551,235.732 546,249.5C 544.667,248.167 543.333,246.833 542,245.5C 534.936,259.294 527.602,272.961 520,286.5C 518.667,285.167 517.333,283.833 516,282.5C 508.752,296.002 500.752,309.002 492,321.5C 490.488,320.743 489.154,319.743 488,318.5C 478.046,332.948 467.546,346.948 456.5,360.5C 455.084,358.861 453.417,358.027 451.5,358C 442.375,369.461 432.875,380.627 423,391.5C 421.667,390.167 420.333,388.833 419,387.5C 408.804,398.03 398.304,408.197 387.5,418C 385.5,417.333 383.5,416.667 381.5,416C 371.126,425.376 360.46,434.376 349.5,443C 348.5,443.667 347.5,443.667 346.5,443C 345.646,441.978 344.646,441.145 343.5,440.5C 331.262,449.537 318.762,458.203 306,466.5C 304.649,464.981 303.149,463.648 301.5,462.5C 217.378,515.869 125.378,542.535 25.5,542.5C 14.1867,539.857 6.18669,533.19 1.5,522.5C 159.778,526.586 292.611,470.919 400,355.5C 401.422,357.638 403.255,358.805 405.5,359C 475.608,279.284 521.775,187.117 544,82.5C 545.351,84.019 546.851,85.3523 548.5,86.5C 554.874,57.8408 558.874,28.8408 560.5,-0.5 Z"/></g>
<g><path style="opacity:0.847" fill="#02213b" d="M 625.5,-0.5 C 627.5,-0.5 629.5,-0.5 631.5,-0.5C 628.943,49.5096 620.776,98.5096 607,146.5C 605.667,145.167 604.333,143.833 603,142.5C 578.96,227.245 540.626,304.579 488,374.5C 478.708,386.127 469.041,397.461 459,408.5C 457.578,406.362 455.745,405.195 453.5,405C 401.647,463.055 340.981,509.222 271.5,543.5C 189.5,543.5 107.5,543.5 25.5,543.5C 25.5,543.167 25.5,542.833 25.5,542.5C 125.378,542.535 217.378,515.869 301.5,462.5C 303.149,463.648 304.649,464.981 306,466.5C 318.762,458.203 331.262,449.537 343.5,440.5C 344.646,441.145 345.646,441.978 346.5,443C 347.5,443.667 348.5,443.667 349.5,443C 360.46,434.376 371.126,425.376 381.5,416C 383.5,416.667 385.5,417.333 387.5,418C 398.304,408.197 408.804,398.03 419,387.5C 420.333,388.833 421.667,390.167 423,391.5C 432.875,380.627 442.375,369.461 451.5,358C 453.417,358.027 455.084,358.861 456.5,360.5C 467.546,346.948 478.046,332.948 488,318.5C 489.154,319.743 490.488,320.743 492,321.5C 500.752,309.002 508.752,296.002 516,282.5C 517.333,283.833 518.667,285.167 520,286.5C 527.602,272.961 534.936,259.294 542,245.5C 543.333,246.833 544.667,248.167 546,249.5C 552.551,235.732 558.551,221.732 564,207.5C 566.091,206.5 567.757,207.167 569,209.5C 575.925,191.726 582.258,173.726 588,155.5C 589.333,156.833 590.667,158.167 592,159.5C 597.111,143.39 601.444,127.056 605,110.5C 606.242,111.872 607.742,112.872 609.5,113.5C 618.286,75.9987 623.619,37.9987 625.5,-0.5 Z"/></g>
<g><path style="opacity:0.847" fill="#021d3a" d="M 631.5,-0.5 C 653.167,-0.5 674.833,-0.5 696.5,-0.5C 693.771,55.8732 684.771,111.207 669.5,165.5C 668.167,164.833 666.833,164.167 665.5,163.5C 661.042,178.208 656.376,192.875 651.5,207.5C 649.671,208.282 648.171,207.616 647,205.5C 646.667,200.167 646.333,194.833 646,189.5C 644.792,193.626 643.292,197.626 641.5,201.5C 640.186,200.687 639.019,199.687 638,198.5C 631.656,215.7 624.823,232.7 617.5,249.5C 616.186,248.687 615.019,247.687 614,246.5C 607.349,260.469 600.683,274.469 594,288.5C 592.488,287.743 591.154,286.743 590,285.5C 582.667,298.833 575.333,312.167 568,325.5C 566.488,324.743 565.154,323.743 564,322.5C 556.083,335.337 547.916,348.003 539.5,360.5C 538.086,359.376 536.586,358.376 535,357.5C 525.218,372.075 514.718,386.075 503.5,399.5C 502.186,398.687 501.019,397.687 500,396.5C 490.856,407.945 481.356,419.112 471.5,430C 469.322,430.165 467.489,429.332 466,427.5C 456,438.833 445.333,449.5 434,459.5C 432.29,458.055 430.456,457.222 428.5,457C 417.927,467.578 406.76,477.411 395,486.5C 393.667,485.167 392.333,483.833 391,482.5C 378.95,492.217 366.617,501.551 354,510.5C 352.578,508.362 350.745,507.195 348.5,507C 328.936,519.946 308.936,532.112 288.5,543.5C 282.833,543.5 277.167,543.5 271.5,543.5C 340.981,509.222 401.647,463.055 453.5,405C 455.745,405.195 457.578,406.362 459,408.5C 469.041,397.461 478.708,386.127 488,374.5C 540.626,304.579 578.96,227.245 603,142.5C 604.333,143.833 605.667,145.167 607,146.5C 620.776,98.5096 628.943,49.5096 631.5,-0.5 Z"/></g>
<g><path style="opacity:0.847" fill="#011a35" d="M 696.5,-0.5 C 707.167,-0.5 717.833,-0.5 728.5,-0.5C 725.009,71.9524 712.009,142.619 689.5,211.5C 687.999,210.248 686.332,209.248 684.5,208.5C 677.964,226.94 671.131,245.273 664,263.5C 663,254.167 662,244.833 661,235.5C 630.118,319.004 585.785,394.004 528,460.5C 526.3,459.073 524.467,458.24 522.5,458C 512.369,469.8 501.869,481.3 491,492.5C 477.604,505.399 464.104,518.066 450.5,530.5C 445.127,534.844 439.794,539.177 434.5,543.5C 385.833,543.5 337.167,543.5 288.5,543.5C 308.936,532.112 328.936,519.946 348.5,507C 350.745,507.195 352.578,508.362 354,510.5C 366.617,501.551 378.95,492.217 391,482.5C 392.333,483.833 393.667,485.167 395,486.5C 406.76,477.411 417.927,467.578 428.5,457C 430.456,457.222 432.29,458.055 434,459.5C 445.333,449.5 456,438.833 466,427.5C 467.489,429.332 469.322,430.165 471.5,430C 481.356,419.112 490.856,407.945 500,396.5C 501.019,397.687 502.186,398.687 503.5,399.5C 514.718,386.075 525.218,372.075 535,357.5C 536.586,358.376 538.086,359.376 539.5,360.5C 547.916,348.003 556.083,335.337 564,322.5C 565.154,323.743 566.488,324.743 568,325.5C 575.333,312.167 582.667,298.833 590,285.5C 591.154,286.743 592.488,287.743 594,288.5C 600.683,274.469 607.349,260.469 614,246.5C 615.019,247.687 616.186,248.687 617.5,249.5C 624.823,232.7 631.656,215.7 638,198.5C 639.019,199.687 640.186,200.687 641.5,201.5C 643.292,197.626 644.792,193.626 646,189.5C 646.333,194.833 646.667,200.167 647,205.5C 648.171,207.616 649.671,208.282 651.5,207.5C 656.376,192.875 661.042,178.208 665.5,163.5C 666.833,164.167 668.167,164.833 669.5,165.5C 684.771,111.207 693.771,55.8732 696.5,-0.5 Z"/></g>
<g><path style="opacity:0.847" fill="#011633" d="M 728.5,-0.5 C 757.5,-0.5 786.5,-0.5 815.5,-0.5C 813.684,50.3617 807.517,100.695 797,150.5C 796.333,144.5 795.667,138.5 795,132.5C 790.558,155.709 785.225,178.709 779,201.5C 778.98,189.344 778.313,177.344 777,165.5C 772.609,184.337 767.609,203.004 762,221.5C 760.918,210.528 760.251,199.528 760,188.5C 757.275,199.411 753.942,210.078 750,220.5C 746.492,217.765 744.325,218.765 743.5,223.5C 742.673,219.541 742.173,215.541 742,211.5C 741.751,212.624 741.251,213.624 740.5,214.5C 739.167,213.833 737.833,213.167 736.5,212.5C 731.636,227.259 726.469,241.926 721,256.5C 719.846,255.257 718.512,254.257 717,253.5C 713.137,262.754 709.471,272.088 706,281.5C 705.51,272.82 704.844,264.153 704,255.5C 698.887,269.727 693.22,283.727 687,297.5C 685.308,295.755 683.475,295.422 681.5,296.5C 675.967,309.899 669.634,322.899 662.5,335.5C 661.167,334.833 659.833,334.167 658.5,333.5C 657.081,335.336 655.914,337.336 655,339.5C 655.309,334.848 653.809,331.015 650.5,328C 649.833,327.333 649.167,327.333 648.5,328C 641.46,341.247 634.294,354.413 627,367.5C 625.428,365.437 623.595,364.771 621.5,365.5C 614.259,378.234 606.426,390.568 598,402.5C 596.488,401.743 595.154,400.743 594,399.5C 584.434,414.559 573.934,428.892 562.5,442.5C 561.086,441.376 559.586,440.376 558,439.5C 549.088,451.75 539.421,463.417 529,474.5C 527.488,473.743 526.154,472.743 525,471.5C 514.697,482.804 504.03,493.804 493,504.5C 491.29,503.055 489.456,502.222 487.5,502C 477.436,512.733 466.77,522.733 455.5,532C 453.811,531.866 452.144,531.366 450.5,530.5C 464.104,518.066 477.604,505.399 491,492.5C 501.869,481.3 512.369,469.8 522.5,458C 524.467,458.24 526.3,459.073 528,460.5C 585.785,394.004 630.118,319.004 661,235.5C 662,244.833 663,254.167 664,263.5C 671.131,245.273 677.964,226.94 684.5,208.5C 686.332,209.248 687.999,210.248 689.5,211.5C 712.009,142.619 725.009,71.9524 728.5,-0.5 Z"/></g>
<g><path style="opacity:0.847" fill="#01142e" d="M 815.5,-0.5 C 816.167,-0.5 816.833,-0.5 817.5,-0.5C 815.13,37.4625 814.297,75.4625 815,113.5C 821.215,75.7353 825.048,37.7353 826.5,-0.5C 832.5,-0.5 838.5,-0.5 844.5,-0.5C 842.274,50.6438 836.107,101.31 826,151.5C 825.667,141.5 825.333,131.5 825,121.5C 819.039,156.641 811.039,191.308 801,225.5C 799.625,212.979 798.625,200.312 798,187.5C 791.526,212.917 783.86,237.917 775,262.5C 773.963,252.173 772.963,241.84 772,231.5C 769.392,239.822 766.892,248.155 764.5,256.5C 761.901,256.451 759.734,255.451 758,253.5C 754.667,262.833 751.333,272.167 748,281.5C 747.342,271.483 746.509,261.483 745.5,251.5C 726.589,304.321 703.089,354.988 675,403.5C 674.066,396.488 673.066,389.488 672,382.5C 653.911,414.067 634.077,444.4 612.5,473.5C 611.504,473.586 610.671,473.252 610,472.5C 600.813,484.866 591.147,496.866 581,508.5C 579.534,506.675 577.701,506.175 575.5,507C 566.203,517.966 556.536,528.632 546.5,539C 544.322,539.165 542.489,538.332 541,536.5C 538.628,538.703 536.461,541.037 534.5,543.5C 501.167,543.5 467.833,543.5 434.5,543.5C 439.794,539.177 445.127,534.844 450.5,530.5C 452.144,531.366 453.811,531.866 455.5,532C 466.77,522.733 477.436,512.733 487.5,502C 489.456,502.222 491.29,503.055 493,504.5C 504.03,493.804 514.697,482.804 525,471.5C 526.154,472.743 527.488,473.743 529,474.5C 539.421,463.417 549.088,451.75 558,439.5C 559.586,440.376 561.086,441.376 562.5,442.5C 573.934,428.892 584.434,414.559 594,399.5C 595.154,400.743 596.488,401.743 598,402.5C 606.426,390.568 614.259,378.234 621.5,365.5C 623.595,364.771 625.428,365.437 627,367.5C 634.294,354.413 641.46,341.247 648.5,328C 649.167,327.333 649.833,327.333 650.5,328C 653.809,331.015 655.309,334.848 655,339.5C 655.914,337.336 657.081,335.336 658.5,333.5C 659.833,334.167 661.167,334.833 662.5,335.5C 669.634,322.899 675.967,309.899 681.5,296.5C 683.475,295.422 685.308,295.755 687,297.5C 693.22,283.727 698.887,269.727 704,255.5C 704.844,264.153 705.51,272.82 706,281.5C 709.471,272.088 713.137,262.754 717,253.5C 718.512,254.257 719.846,255.257 721,256.5C 726.469,241.926 731.636,227.259 736.5,212.5C 737.833,213.167 739.167,213.833 740.5,214.5C 741.251,213.624 741.751,212.624 742,211.5C 742.173,215.541 742.673,219.541 743.5,223.5C 744.325,218.765 746.492,217.765 750,220.5C 753.942,210.078 757.275,199.411 760,188.5C 760.251,199.528 760.918,210.528 762,221.5C 767.609,203.004 772.609,184.337 777,165.5C 778.313,177.344 778.98,189.344 779,201.5C 785.225,178.709 790.558,155.709 795,132.5C 795.667,138.5 796.333,144.5 797,150.5C 807.517,100.695 813.684,50.3617 815.5,-0.5 Z"/></g>
<g><path style="opacity:0.847" fill="#011331" d="M 817.5,-0.5 C 820.5,-0.5 823.5,-0.5 826.5,-0.5C 825.048,37.7353 821.215,75.7353 815,113.5C 814.297,75.4625 815.13,37.4625 817.5,-0.5 Z"/></g>
<g><path style="opacity:0.847" fill="#00112d" d="M 844.5,-0.5 C 856.167,-0.5 867.833,-0.5 879.5,-0.5C 883.332,14.4874 887.166,29.4874 891,44.5C 898.942,60.8934 912.109,68.0601 930.5,66C 925.083,68.7903 919.916,71.957 915,75.5C 906,64.8333 897,64.8333 888,75.5C 883.248,86.5766 886.081,95.0766 896.5,101C 900.9,101.978 905.067,101.478 909,99.5C 910.039,100.244 910.539,101.244 910.5,102.5C 910.375,127.512 910.875,152.512 912,177.5C 915.323,161.226 918.323,144.893 921,128.5C 921.895,158.194 923.229,187.861 925,217.5C 927.824,205.869 930.491,194.202 933,182.5C 934.773,206.041 936.439,229.707 938,253.5C 940.489,244.543 942.823,235.543 945,226.5C 946.554,246.53 948.387,266.53 950.5,286.5C 951.281,285.271 951.781,283.938 952,282.5C 952.499,287.489 952.666,292.489 952.5,297.5C 949.167,332.163 945.834,366.83 942.5,401.5C 939.52,401.38 936.687,400.713 934,399.5C 933.333,400.167 932.667,400.833 932,401.5C 931.093,394.819 930.093,388.152 929,381.5C 927.199,387.098 924.866,392.431 922,397.5C 921.586,397.043 921.086,396.709 920.5,396.5C 919.468,391.728 918.302,387.061 917,382.5C 915.424,386.65 913.591,390.65 911.5,394.5C 910.252,393.96 909.085,393.293 908,392.5C 906.496,381.135 904.83,369.802 903,358.5C 900.333,365.167 897.667,371.833 895,378.5C 892.854,363.852 890.854,349.185 889,334.5C 886.53,341.578 883.863,348.578 881,355.5C 879.601,346.503 878.267,337.503 877,328.5C 874.667,327.5 872.333,326.5 870,325.5C 868.473,327.221 867.473,329.221 867,331.5C 865.934,323.843 864.934,316.176 864,308.5C 862.402,312.461 860.902,316.461 859.5,320.5C 857.403,321.748 855.736,321.248 854.5,319C 853.195,306.839 851.861,294.672 850.5,282.5C 847.229,290.484 844.062,298.484 841,306.5C 839.89,293.842 838.89,281.175 838,268.5C 837.902,266.381 837.069,264.714 835.5,263.5C 830.715,275.685 826.215,288.018 822,300.5C 821.825,296.789 821.325,293.122 820.5,289.5C 818.395,294.046 816.561,298.713 815,303.5C 813.089,303.255 811.089,303.255 809,303.5C 807.47,307.09 806.136,310.757 805,314.5C 804.114,309.53 803.448,304.53 803,299.5C 802,298.833 801,298.167 800,297.5C 796,307.5 792,317.5 788,327.5C 786.466,320.337 785.466,313.004 785,305.5C 780,317.5 775,329.5 770,341.5C 769.357,334.408 768.357,327.408 767,320.5C 764.59,326.318 761.923,331.985 759,337.5C 754.753,334.681 752.42,336.014 752,341.5C 750.924,338.64 750.091,335.64 749.5,332.5C 748.167,331.833 746.833,331.167 745.5,330.5C 738.744,343.68 732.244,357.013 726,370.5C 723.958,370.123 721.791,370.123 719.5,370.5C 718,373.5 716.5,376.5 715,379.5C 714.189,373.99 712.855,368.657 711,363.5C 704.254,376.659 697.254,389.659 690,402.5C 687.789,402.623 685.622,402.623 683.5,402.5C 677.5,413.17 671,423.504 664,433.5C 663.406,427.825 662.74,422.158 662,416.5C 658.496,422.844 654.496,428.844 650,434.5C 648.308,432.755 646.475,432.422 644.5,433.5C 635.405,448.025 625.572,462.025 615,475.5C 614.005,474.934 613.172,474.267 612.5,473.5C 634.077,444.4 653.911,414.067 672,382.5C 673.066,389.488 674.066,396.488 675,403.5C 703.089,354.988 726.589,304.321 745.5,251.5C 746.509,261.483 747.342,271.483 748,281.5C 751.333,272.167 754.667,262.833 758,253.5C 759.734,255.451 761.901,256.451 764.5,256.5C 766.892,248.155 769.392,239.822 772,231.5C 772.963,241.84 773.963,252.173 775,262.5C 783.86,237.917 791.526,212.917 798,187.5C 798.625,200.312 799.625,212.979 801,225.5C 811.039,191.308 819.039,156.641 825,121.5C 825.333,131.5 825.667,141.5 826,151.5C 836.107,101.31 842.274,50.6438 844.5,-0.5 Z"/></g>
<g><path style="opacity:0.847" fill="#001433" d="M 882.5,-0.5 C 933.833,-0.5 985.167,-0.5 1036.5,-0.5C 1021.2,9.15275 1005.87,18.8194 990.5,28.5C 973.361,39.24 956.027,49.74 938.5,60C 920.633,66.1543 906.133,61.6543 895,46.5C 892.941,42.3234 891.274,37.9901 890,33.5C 887.496,22.1537 884.996,10.8204 882.5,-0.5 Z"/></g>
<g><path style="opacity:0.847" fill="#013275" d="M 1036.5,-0.5 C 1050.5,-0.5 1064.5,-0.5 1078.5,-0.5C 1060.23,30.9464 1041.73,62.2797 1023,93.5C 1020.76,114.85 1029.93,128.683 1050.5,135C 1057.83,135.5 1065.16,135.666 1072.5,135.5C 1091.32,136.721 1110.32,137.387 1129.5,137.5C 1130.5,137.5 1131.5,137.5 1132.5,137.5C 1137.31,138.487 1142.31,138.821 1147.5,138.5C 1150.2,140.11 1153.2,141.11 1156.5,141.5C 1151.13,141.608 1145.8,141.275 1140.5,140.5C 1122.84,140.011 1105.17,139.678 1087.5,139.5C 1074.17,138.684 1060.67,138.017 1047,137.5C 1039.63,137.126 1033.13,139.126 1027.5,143.5C 1014.29,152.249 1009.13,164.582 1012,180.5C 1032.85,239.521 1053.68,298.521 1074.5,357.5C 1072.25,362.392 1070.09,367.392 1068,372.5C 1065.89,360.184 1063.89,347.85 1062,335.5C 1060.7,338.375 1059.86,341.375 1059.5,344.5C 1056.16,344.533 1053,343.866 1050,342.5C 1047.08,320.781 1044.08,299.114 1041,277.5C 1038.78,287.045 1035.95,296.378 1032.5,305.5C 1030.07,289.579 1028.24,273.579 1027,257.5C 1026.77,256.263 1026.27,255.263 1025.5,254.5C 1029.72,249.988 1031.22,244.655 1030,238.5C 1022.86,218.911 1016.03,199.244 1009.5,179.5C 1008.57,156.184 1008.24,132.85 1008.5,109.5C 1014.14,98.8912 1020.31,88.5579 1027,78.5C 1030.02,64.2228 1025.85,52.3894 1014.5,43C 1007.22,38.1857 999.224,35.6857 990.5,35.5C 990.5,33.1667 990.5,30.8333 990.5,28.5C 1005.87,18.8194 1021.2,9.15275 1036.5,-0.5 Z"/></g>
<g><path style="opacity:0.847" fill="#001a3b" d="M 1078.5,-0.5 C 1081.17,-0.5 1083.83,-0.5 1086.5,-0.5C 1082.9,44.7548 1081.24,90.0881 1081.5,135.5C 1078.5,135.5 1075.5,135.5 1072.5,135.5C 1065.16,135.666 1057.83,135.5 1050.5,135C 1029.93,128.683 1020.76,114.85 1023,93.5C 1041.73,62.2797 1060.23,30.9464 1078.5,-0.5 Z"/></g>
<g><path style="opacity:0.847" fill="#001e40" d="M 1086.5,-0.5 C 1100.5,-0.5 1114.5,-0.5 1128.5,-0.5C 1130.17,1.5 1131.83,3.5 1133.5,5.5C 1130.11,49.4324 1128.78,93.4324 1129.5,137.5C 1110.32,137.387 1091.32,136.721 1072.5,135.5C 1075.5,135.5 1078.5,135.5 1081.5,135.5C 1081.24,90.0881 1082.9,44.7548 1086.5,-0.5 Z"/></g>
<g><path style="opacity:0.847" fill="#002347" d="M 1132.5,-0.5 C 1150.83,-0.5 1169.17,-0.5 1187.5,-0.5C 1186.21,19.3457 1184.54,39.0124 1182.5,58.5C 1165.13,39.4303 1148.46,19.7637 1132.5,-0.5 Z"/></g>
<g><path style="opacity:0.847" fill="#00264e" d="M 1187.5,-0.5 C 1200.83,-0.5 1214.17,-0.5 1227.5,-0.5C 1224.41,31.9299 1222.07,64.2632 1220.5,96.5C 1217.48,96.1594 1214.82,94.9927 1212.5,93C 1202.14,81.7491 1192.14,70.2491 1182.5,58.5C 1184.54,39.0124 1186.21,19.3457 1187.5,-0.5 Z"/></g>
<g><path style="opacity:0.847" fill="#002b55" d="M 1227.5,-0.5 C 1237.5,-0.5 1247.5,-0.5 1257.5,-0.5C 1254.01,31.0786 1251.67,62.7453 1250.5,94.5C 1242.08,99.1788 1233.08,100.512 1223.5,98.5C 1222.29,98.0679 1221.29,97.4013 1220.5,96.5C 1222.07,64.2632 1224.41,31.9299 1227.5,-0.5 Z"/></g>
<g><path style="opacity:0.847" fill="#002e5a" d="M 1257.5,-0.5 C 1266.17,-0.5 1274.83,-0.5 1283.5,-0.5C 1277.9,24.1082 1272.4,48.7748 1267,73.5C 1264.21,82.774 1258.71,89.774 1250.5,94.5C 1251.67,62.7453 1254.01,31.0786 1257.5,-0.5 Z"/></g>
<g><path style="opacity:0.847" fill="#003260" d="M 1285.5,-0.5 C 1293.83,-0.5 1302.17,-0.5 1310.5,-0.5C 1305.52,31.6383 1302.52,63.9716 1301.5,96.5C 1291.8,106.2 1281.8,115.534 1271.5,124.5C 1269.19,126.477 1266.85,128.477 1264.5,130.5C 1262.66,129.081 1260.66,127.914 1258.5,127C 1257.94,126.275 1257.61,125.442 1257.5,124.5C 1266.94,82.857 1276.27,41.1903 1285.5,-0.5 Z"/></g>
<g><path style="opacity:0.847" fill="#003666" d="M 1310.5,-0.5 C 1316.5,-0.5 1322.5,-0.5 1328.5,-0.5C 1323.54,26.1203 1320.87,52.787 1320.5,79.5C 1315.19,84.1396 1310.19,89.1396 1305.5,94.5C 1303.94,94.7329 1302.6,95.3995 1301.5,96.5C 1302.52,63.9716 1305.52,31.6383 1310.5,-0.5 Z"/></g>
<g><path style="opacity:0.847" fill="#003969" d="M 1328.5,-0.5 C 1332.83,-0.5 1337.17,-0.5 1341.5,-0.5C 1337.47,22.3668 1334.47,45.3668 1332.5,68.5C 1329.13,72.8755 1325.13,76.5422 1320.5,79.5C 1320.87,52.787 1323.54,26.1203 1328.5,-0.5 Z"/></g>
<g><path style="opacity:0.847" fill="#003b6d" d="M 1341.5,-0.5 C 1350.5,-0.5 1359.5,-0.5 1368.5,-0.5C 1364.98,13.6088 1362.65,27.9421 1361.5,42.5C 1359.14,45.5272 1356.47,48.1938 1353.5,50.5C 1346.5,56.5 1339.5,62.5 1332.5,68.5C 1334.47,45.3668 1337.47,22.3668 1341.5,-0.5 Z"/></g>
<g><path style="opacity:0.847" fill="#003e72" d="M 1368.5,-0.5 C 1382.17,-0.5 1395.83,-0.5 1409.5,-0.5C 1393.53,13.8047 1377.53,28.1381 1361.5,42.5C 1362.65,27.9421 1364.98,13.6088 1368.5,-0.5 Z"/></g>
<g><path style="opacity:0.846" fill="#003f73" d="M 1412.5,-0.5 C 1413.17,-0.5 1413.83,-0.5 1414.5,-0.5C 1426.34,3.34471 1434.68,11.0114 1439.5,22.5C 1439.5,41.5 1439.5,60.5 1439.5,79.5C 1429.9,82.4214 1420.23,85.2547 1410.5,88C 1385.97,89.2173 1372.31,77.5507 1369.5,53C 1369.67,45.8146 1371.84,39.3146 1376,33.5C 1388.06,21.9333 1400.23,10.6 1412.5,-0.5 Z"/></g>
<g><path style="opacity:0.847" fill="#002043" d="M 1133.5,5.5 C 1138.22,9.9437 1142.22,14.9437 1145.5,20.5C 1142.07,59.2694 1140.74,98.2694 1141.5,137.5C 1138.5,137.5 1135.5,137.5 1132.5,137.5C 1131.5,137.5 1130.5,137.5 1129.5,137.5C 1128.78,93.4324 1130.11,49.4324 1133.5,5.5 Z"/></g>
<g><path style="opacity:0.847" fill="#002247" d="M 1145.5,20.5 C 1147.8,22.2941 1149.96,24.2941 1152,26.5C 1162.38,38.7069 1172.55,51.0403 1182.5,63.5C 1182,84.8346 1181.83,106.168 1182,127.5C 1183.93,111.528 1185.6,95.5278 1187,79.5C 1186.68,98.1513 1186.52,116.818 1186.5,135.5C 1184.44,136.776 1182.1,137.61 1179.5,138C 1168.84,138.5 1158.17,138.667 1147.5,138.5C 1142.31,138.821 1137.31,138.487 1132.5,137.5C 1135.5,137.5 1138.5,137.5 1141.5,137.5C 1140.74,98.2694 1142.07,59.2694 1145.5,20.5 Z"/></g>
<g><path style="opacity:0.847" fill="#014c9d" d="M 1409.5,-0.5 C 1410.5,-0.5 1411.5,-0.5 1412.5,-0.5C 1400.23,10.6 1388.06,21.9333 1376,33.5C 1371.84,39.3146 1369.67,45.8146 1369.5,53C 1372.31,77.5507 1385.97,89.2173 1410.5,88C 1420.23,85.2547 1429.9,82.4214 1439.5,79.5C 1439.5,80.1667 1439.5,80.8333 1439.5,81.5C 1411.02,90.9918 1382.69,100.659 1354.5,110.5C 1353.5,110.5 1352.5,110.5 1351.5,110.5C 1351.15,91.4263 1352.15,72.4263 1354.5,53.5C 1354.48,52.2739 1354.15,51.2739 1353.5,50.5C 1356.47,48.1938 1359.14,45.5272 1361.5,42.5C 1377.53,28.1381 1393.53,13.8047 1409.5,-0.5 Z"/></g>
<g><path style="opacity:0.847" fill="#042c48" d="M 484.5,40.5 C 469.762,143.788 427.762,233.954 358.5,311C 356.255,310.805 354.422,309.638 353,307.5C 257.725,409.784 139.892,458.117 -0.5,452.5C -0.5,435.833 -0.5,419.167 -0.5,402.5C 72.3741,407.292 141.207,392.959 206,359.5C 207.351,361.019 208.851,362.352 210.5,363.5C 223.692,356.628 236.359,348.961 248.5,340.5C 249.845,341.347 250.845,342.513 251.5,344C 252.167,344.667 252.833,344.667 253.5,344C 265.451,335.772 276.951,326.939 288,317.5C 289.353,318.685 290.52,320.019 291.5,321.5C 291.833,321.333 292.167,321.167 292.5,321C 303.357,311.142 313.857,300.975 324,290.5C 324.732,292.923 326.232,294.09 328.5,294C 338.752,283.588 348.418,272.754 357.5,261.5C 358.48,262.981 359.647,264.315 361,265.5C 371.825,251.184 382.159,236.517 392,221.5C 393.019,222.687 394.186,223.687 395.5,224.5C 403.93,211.705 411.597,198.372 418.5,184.5C 419.833,185.5 421.167,186.5 422.5,187.5C 429.64,173.55 435.974,159.217 441.5,144.5C 443.718,143.812 445.218,144.812 446,147.5C 452.281,130.99 457.947,114.324 463,97.5C 464.353,98.6853 465.52,100.019 466.5,101.5C 472.673,79.8025 477.506,57.8025 481,35.5C 482.669,36.8463 483.836,38.513 484.5,40.5 Z"/></g>
<g><path style="opacity:0.847" fill="#001534" d="M 990.5,35.5 C 999.224,35.6857 1007.22,38.1857 1014.5,43C 1025.85,52.3894 1030.02,64.2228 1027,78.5C 1020.31,88.5579 1014.14,98.8912 1008.5,109.5C 1006.31,112.688 1003.98,115.855 1001.5,119C 987.985,115.317 979.985,120.484 977.5,134.5C 978.15,139.793 980.15,144.46 983.5,148.5C 972.013,155.552 960.013,156.385 947.5,151C 943.386,148.716 939.72,145.883 936.5,142.5C 929.235,130.974 922.735,118.974 917,106.5C 913.11,88.165 919.277,74.3317 935.5,65C 948.667,57.2508 961.667,49.2508 974.5,41C 979.543,38.2415 984.877,36.4082 990.5,35.5 Z"/></g>
<g><path style="opacity:0.847" fill="#01408a" d="M 1283.5,-0.5 C 1284.17,-0.5 1284.83,-0.5 1285.5,-0.5C 1276.27,41.1903 1266.94,82.857 1257.5,124.5C 1257.61,125.442 1257.94,126.275 1258.5,127C 1260.66,127.914 1262.66,129.081 1264.5,130.5C 1266.85,128.477 1269.19,126.477 1271.5,124.5C 1271.79,139.195 1272.46,153.862 1273.5,168.5C 1269.86,164.52 1266.19,160.52 1262.5,156.5C 1248.3,162.816 1239.63,158.316 1236.5,143C 1236.81,138.407 1238.48,134.407 1241.5,131C 1234.91,124.253 1228.91,117.086 1223.5,109.5C 1223.5,105.833 1223.5,102.167 1223.5,98.5C 1233.08,100.512 1242.08,99.1788 1250.5,94.5C 1258.71,89.774 1264.21,82.774 1267,73.5C 1272.4,48.7748 1277.9,24.1082 1283.5,-0.5 Z"/></g>
<g><path style="opacity:0.847" fill="#024898" d="M 1353.5,50.5 C 1354.15,51.2739 1354.48,52.2739 1354.5,53.5C 1352.15,72.4263 1351.15,91.4263 1351.5,110.5C 1344.6,113.451 1337.6,116.117 1330.5,118.5C 1326.22,119.261 1322.22,120.595 1318.5,122.5C 1313.76,123.706 1309.42,125.706 1305.5,128.5C 1305.5,117.167 1305.5,105.833 1305.5,94.5C 1310.19,89.1396 1315.19,84.1396 1320.5,79.5C 1325.13,76.5422 1329.13,72.8755 1332.5,68.5C 1339.5,62.5 1346.5,56.5 1353.5,50.5 Z"/></g>
<g><path style="opacity:0.847" fill="#012c6e" d="M 879.5,-0.5 C 880.5,-0.5 881.5,-0.5 882.5,-0.5C 884.996,10.8204 887.496,22.1537 890,33.5C 891.274,37.9901 892.941,42.3234 895,46.5C 906.133,61.6543 920.633,66.1543 938.5,60C 956.027,49.74 973.361,39.24 990.5,28.5C 990.5,30.8333 990.5,33.1667 990.5,35.5C 984.877,36.4082 979.543,38.2415 974.5,41C 961.667,49.2508 948.667,57.2508 935.5,65C 919.277,74.3317 913.11,88.165 917,106.5C 922.735,118.974 929.235,130.974 936.5,142.5C 935.662,142.842 935.328,143.508 935.5,144.5C 927.167,130.5 918.833,116.5 910.5,102.5C 910.539,101.244 910.039,100.244 909,99.5C 905.067,101.478 900.9,101.978 896.5,101C 886.081,95.0766 883.248,86.5766 888,75.5C 897,64.8333 906,64.8333 915,75.5C 919.916,71.957 925.083,68.7903 930.5,66C 912.109,68.0601 898.942,60.8934 891,44.5C 887.166,29.4874 883.332,14.4874 879.5,-0.5 Z"/></g>
<g><path style="opacity:0.847" fill="#00264d" d="M 1182.5,63.5 C 1187.8,68.971 1192.97,74.6377 1198,80.5C 1206.08,89.7059 1208.75,100.373 1206,112.5C 1203.23,123.41 1196.73,131.076 1186.5,135.5C 1186.52,116.818 1186.68,98.1513 1187,79.5C 1185.6,95.5278 1183.93,111.528 1182,127.5C 1181.83,106.168 1182,84.8346 1182.5,63.5 Z"/></g>
<g><path style="opacity:0.847" fill="#013a81" d="M 1128.5,-0.5 C 1129.83,-0.5 1131.17,-0.5 1132.5,-0.5C 1148.46,19.7637 1165.13,39.4303 1182.5,58.5C 1192.14,70.2491 1202.14,81.7491 1212.5,93C 1214.82,94.9927 1217.48,96.1594 1220.5,96.5C 1221.29,97.4013 1222.29,98.0679 1223.5,98.5C 1223.5,102.167 1223.5,105.833 1223.5,109.5C 1219.2,105.028 1215.03,100.361 1211,95.5C 1214.86,116.614 1207.02,131.447 1187.5,140C 1203.36,137.831 1216.86,142.331 1228,153.5C 1234.75,162.497 1237.08,172.497 1235,183.5C 1246.02,172.034 1258.85,169.034 1273.5,174.5C 1273.5,175.5 1273.5,176.5 1273.5,177.5C 1269.41,176.437 1265.24,175.77 1261,175.5C 1257.55,175.421 1254.38,176.087 1251.5,177.5C 1245.19,179.411 1239.69,182.744 1235,187.5C 1230.71,193.752 1227.21,200.418 1224.5,207.5C 1218.13,220.898 1211.8,234.231 1205.5,247.5C 1204.83,247.167 1204.17,246.833 1203.5,246.5C 1212.32,227.526 1221.15,208.526 1230,189.5C 1234.71,157.031 1220.54,141.364 1187.5,142.5C 1177.17,142.125 1166.83,141.792 1156.5,141.5C 1153.2,141.11 1150.2,140.11 1147.5,138.5C 1158.17,138.667 1168.84,138.5 1179.5,138C 1182.1,137.61 1184.44,136.776 1186.5,135.5C 1196.73,131.076 1203.23,123.41 1206,112.5C 1208.75,100.373 1206.08,89.7059 1198,80.5C 1192.97,74.6377 1187.8,68.971 1182.5,63.5C 1172.55,51.0403 1162.38,38.7069 1152,26.5C 1149.96,24.2941 1147.8,22.2941 1145.5,20.5C 1142.22,14.9437 1138.22,9.9437 1133.5,5.5C 1131.83,3.5 1130.17,1.5 1128.5,-0.5 Z"/></g>
<g><path style="opacity:0.847" fill="#003e72" d="M 1439.5,81.5 C 1439.5,148.833 1439.5,216.167 1439.5,283.5C 1435.56,281.86 1431.89,279.694 1428.5,277C 1407.31,260.636 1386.31,244.136 1365.5,227.5C 1366.14,226.903 1366.47,226.07 1366.5,225C 1363.16,207.957 1360.66,190.79 1359,173.5C 1357.67,152.174 1356.17,131.174 1354.5,110.5C 1382.69,100.659 1411.02,90.9918 1439.5,81.5 Z"/></g>
<g><path style="opacity:0.847" fill="#024491" d="M 1305.5,94.5 C 1305.5,105.833 1305.5,117.167 1305.5,128.5C 1292.24,142.206 1290.08,157.539 1299,174.5C 1302.03,178.695 1305.53,182.361 1309.5,185.5C 1308.96,185.56 1308.62,185.893 1308.5,186.5C 1309.91,196.811 1311.25,207.144 1312.5,217.5C 1310.61,216.027 1308.94,214.36 1307.5,212.5C 1301.01,204.197 1294.51,195.863 1288,187.5C 1285.5,184.152 1282.33,181.818 1278.5,180.5C 1278.16,179.662 1277.49,179.328 1276.5,179.5C 1275.5,178.833 1274.5,178.167 1273.5,177.5C 1273.5,176.5 1273.5,175.5 1273.5,174.5C 1275.17,174.751 1276.67,175.418 1278,176.5C 1278.17,176.167 1278.33,175.833 1278.5,175.5C 1276.42,173.427 1274.75,171.093 1273.5,168.5C 1272.46,153.862 1271.79,139.195 1271.5,124.5C 1281.8,115.534 1291.8,106.2 1301.5,96.5C 1302.6,95.3995 1303.94,94.7329 1305.5,94.5 Z"/></g>
<g><path style="opacity:0.847" fill="#001332" d="M 910.5,102.5 C 918.833,116.5 927.167,130.5 935.5,144.5C 941.443,155.552 947.777,166.385 954.5,177C 944.98,187.018 945.313,196.684 955.5,206C 957.087,206.862 958.754,207.529 960.5,208C 961.059,208.725 961.392,209.558 961.5,210.5C 958.953,228.419 957.287,246.419 956.5,264.5C 955.112,275.494 953.778,286.494 952.5,297.5C 952.666,292.489 952.499,287.489 952,282.5C 951.781,283.938 951.281,285.271 950.5,286.5C 948.387,266.53 946.554,246.53 945,226.5C 942.823,235.543 940.489,244.543 938,253.5C 936.439,229.707 934.773,206.041 933,182.5C 930.491,194.202 927.824,205.869 925,217.5C 923.229,187.861 921.895,158.194 921,128.5C 918.323,144.893 915.323,161.226 912,177.5C 910.875,152.512 910.375,127.512 910.5,102.5 Z"/></g>
<g><path style="opacity:0.847" fill="#012f72" d="M 1008.5,109.5 C 1008.24,132.85 1008.57,156.184 1009.5,179.5C 1007.93,175.974 1006.43,172.307 1005,168.5C 990.758,158.518 980.258,161.518 973.5,177.5C 981.44,186.763 981.44,196.096 973.5,205.5C 982.453,222.575 991.786,239.408 1001.5,256C 1009.89,260.948 1017.89,260.448 1025.5,254.5C 1026.27,255.263 1026.77,256.263 1027,257.5C 1028.24,273.579 1030.07,289.579 1032.5,305.5C 1035.95,296.378 1038.78,287.045 1041,277.5C 1044.08,299.114 1047.08,320.781 1050,342.5C 1053,343.866 1056.16,344.533 1059.5,344.5C 1059.86,341.375 1060.7,338.375 1062,335.5C 1063.89,347.85 1065.89,360.184 1068,372.5C 1070.09,367.392 1072.25,362.392 1074.5,357.5C 1075.9,360.699 1076.9,364.032 1077.5,367.5C 1080.14,386.366 1083.81,405.032 1088.5,423.5C 1090.61,418.954 1092.44,414.287 1094,409.5C 1099.15,430.114 1104.32,450.781 1109.5,471.5C 1108.17,471.5 1106.83,471.5 1105.5,471.5C 1104.42,478.556 1103.09,485.556 1101.5,492.5C 1098.87,484.319 1096.37,475.986 1094,467.5C 1092.92,469.618 1091.75,471.618 1090.5,473.5C 1086.54,469.185 1081.87,465.852 1076.5,463.5C 1075.7,458.853 1075.04,454.186 1074.5,449.5C 1084.36,438.886 1087.2,426.552 1083,412.5C 1060.92,371.34 1038.59,330.34 1016,289.5C 997.028,271.853 978.528,272.187 960.5,290.5C 959.883,290.389 959.383,290.056 959,289.5C 958.33,281.124 957.497,272.791 956.5,264.5C 957.287,246.419 958.953,228.419 961.5,210.5C 961.392,209.558 961.059,208.725 960.5,208C 958.754,207.529 957.087,206.862 955.5,206C 945.313,196.684 944.98,187.018 954.5,177C 947.777,166.385 941.443,155.552 935.5,144.5C 935.328,143.508 935.662,142.842 936.5,142.5C 939.72,145.883 943.386,148.716 947.5,151C 960.013,156.385 972.013,155.552 983.5,148.5C 980.15,144.46 978.15,139.793 977.5,134.5C 979.985,120.484 987.985,115.317 1001.5,119C 1003.98,115.855 1006.31,112.688 1008.5,109.5 Z"/></g>
<g><path style="opacity:0.847" fill="#003b6e" d="M 1351.5,110.5 C 1352.5,110.5 1353.5,110.5 1354.5,110.5C 1356.17,131.174 1357.67,152.174 1359,173.5C 1360.66,190.79 1363.16,207.957 1366.5,225C 1366.47,226.07 1366.14,226.903 1365.5,227.5C 1364.17,226.833 1362.83,226.167 1361.5,225.5C 1352.83,218.5 1344.17,211.5 1335.5,204.5C 1336.15,203.551 1336.49,202.385 1336.5,201C 1333.19,173.438 1331.19,145.938 1330.5,118.5C 1337.6,116.117 1344.6,113.451 1351.5,110.5 Z"/></g>
<g><path style="opacity:0.847" fill="#053956" d="M 310.5,113.5 C 297.834,142.472 281.167,168.805 260.5,192.5C 259.139,190.972 257.972,189.305 257,187.5C 189.045,265.715 103.212,301.382 -0.5,294.5C -0.5,286.5 -0.5,278.5 -0.5,270.5C 43.3239,274.978 85.8239,269.311 127,253.5C 128.331,254.996 129.831,256.329 131.5,257.5C 144.112,251.861 156.446,245.694 168.5,239C 169.5,238.333 170.5,238.333 171.5,239C 172.354,240.022 173.354,240.855 174.5,241.5C 187.026,234.139 198.859,225.806 210,216.5C 211,217.833 212,219.167 213,220.5C 224.103,211.4 234.603,201.567 244.5,191C 246.329,191.402 247.996,192.069 249.5,193C 259.431,181.738 268.598,169.905 277,157.5C 278.353,158.685 279.52,160.019 280.5,161.5C 291.265,145.647 300.765,128.98 309,111.5C 309.278,112.416 309.778,113.082 310.5,113.5 Z"/></g>
<g><path style="opacity:0.847" fill="#003969" d="M 1330.5,118.5 C 1331.19,145.938 1333.19,173.438 1336.5,201C 1336.49,202.385 1336.15,203.551 1335.5,204.5C 1331.14,201.136 1326.81,197.802 1322.5,194.5C 1320.24,170.555 1318.9,146.555 1318.5,122.5C 1322.22,120.595 1326.22,119.261 1330.5,118.5 Z"/></g>
<g><path style="opacity:0.847" fill="#002b55" d="M 1223.5,109.5 C 1228.91,117.086 1234.91,124.253 1241.5,131C 1238.48,134.407 1236.81,138.407 1236.5,143C 1239.63,158.316 1248.3,162.816 1262.5,156.5C 1266.19,160.52 1269.86,164.52 1273.5,168.5C 1274.75,171.093 1276.42,173.427 1278.5,175.5C 1278.33,175.833 1278.17,176.167 1278,176.5C 1276.67,175.418 1275.17,174.751 1273.5,174.5C 1258.85,169.034 1246.02,172.034 1235,183.5C 1237.08,172.497 1234.75,162.497 1228,153.5C 1216.86,142.331 1203.36,137.831 1187.5,140C 1207.02,131.447 1214.86,116.614 1211,95.5C 1215.03,100.361 1219.2,105.028 1223.5,109.5 Z"/></g>
<g><path style="opacity:0.847" fill="#003666" d="M 1318.5,122.5 C 1318.9,146.555 1320.24,170.555 1322.5,194.5C 1318.42,191.085 1314.09,188.085 1309.5,185.5C 1305.53,182.361 1302.03,178.695 1299,174.5C 1290.08,157.539 1292.24,142.206 1305.5,128.5C 1309.42,125.706 1313.76,123.706 1318.5,122.5 Z"/></g>
<g><path style="opacity:0.847" fill="#053f5c" d="M 210.5,136.5 C 155.593,201.938 85.2594,230.938 -0.5,223.5C -0.5,217.167 -0.5,210.833 -0.5,204.5C 30.7597,208.562 61.4264,205.895 91.5,196.5C 93.1461,197.779 94.3128,199.445 95,201.5C 109.046,196.727 122.546,190.727 135.5,183.5C 136.5,185.167 137.833,186.5 139.5,187.5C 152.026,180.139 163.859,171.806 175,162.5C 175.732,164.923 177.232,166.09 179.5,166C 189.975,155.857 200.142,145.357 210,134.5C 210.464,135.094 210.631,135.761 210.5,136.5 Z"/></g>
<g><path style="opacity:0.847" fill="#00193a" d="M 1087.5,139.5 C 1088.22,164.517 1089.39,189.517 1091,214.5C 1092.59,208.562 1093.92,202.562 1095,196.5C 1097.15,219.8 1099.48,243.134 1102,266.5C 1103.21,260.804 1104.54,255.137 1106,249.5C 1108,268.873 1110.34,288.206 1113,307.5C 1114.79,303.363 1116.12,299.03 1117,294.5C 1118.61,302.784 1119.95,311.117 1121,319.5C 1122.8,315.317 1124.13,310.984 1125,306.5C 1126.33,314.498 1127.67,322.498 1129,330.5C 1130.3,327.994 1131.3,325.327 1132,322.5C 1133.02,321.366 1133.68,321.699 1134,323.5C 1136.5,337.847 1139,352.18 1141.5,366.5C 1143.41,366.216 1145.08,366.549 1146.5,367.5C 1139.69,387.901 1125.69,396.567 1104.5,393.5C 1106.29,393.785 1107.95,393.452 1109.5,392.5C 1108.06,386.158 1106.56,379.824 1105,373.5C 1104.12,376.628 1102.96,379.628 1101.5,382.5C 1099.81,376.214 1098.31,369.881 1097,363.5C 1096.6,367.431 1094.76,368.431 1091.5,366.5C 1090.86,361.81 1090.03,357.144 1089,352.5C 1087.97,356.608 1086.64,360.608 1085,364.5C 1082.61,349.801 1080.11,335.134 1077.5,320.5C 1075.73,322.953 1074.23,325.619 1073,328.5C 1072.16,321.106 1070.99,313.773 1069.5,306.5C 1068.24,309.79 1067.07,313.124 1066,316.5C 1062.79,298.987 1060.46,281.321 1059,263.5C 1057.19,268.394 1055.52,273.394 1054,278.5C 1051.72,256.192 1049.72,233.858 1048,211.5C 1046.16,220.535 1044.16,229.535 1042,238.5C 1039.38,210.229 1037.72,181.896 1037,153.5C 1034.77,166.52 1032.44,179.52 1030,192.5C 1029.42,175.995 1028.59,159.662 1027.5,143.5C 1033.13,139.126 1039.63,137.126 1047,137.5C 1060.67,138.017 1074.17,138.684 1087.5,139.5 Z"/></g>
<g><path style="opacity:0.847" fill="#001e41" d="M 1087.5,139.5 C 1105.17,139.678 1122.84,140.011 1140.5,140.5C 1141.51,151.095 1142.34,161.762 1143,172.5C 1144.43,163.514 1145.76,154.514 1147,145.5C 1148,162.167 1149,178.833 1150,195.5C 1151,189.5 1152,183.5 1153,177.5C 1155.22,202.123 1157.55,226.79 1160,251.5C 1161.37,248.34 1162.37,245.006 1163,241.5C 1166.17,264.168 1169.67,286.835 1173.5,309.5C 1165.01,329.143 1156.01,348.476 1146.5,367.5C 1145.08,366.549 1143.41,366.216 1141.5,366.5C 1139,352.18 1136.5,337.847 1134,323.5C 1133.68,321.699 1133.02,321.366 1132,322.5C 1131.3,325.327 1130.3,327.994 1129,330.5C 1127.67,322.498 1126.33,314.498 1125,306.5C 1124.13,310.984 1122.8,315.317 1121,319.5C 1119.95,311.117 1118.61,302.784 1117,294.5C 1116.12,299.03 1114.79,303.363 1113,307.5C 1110.34,288.206 1108,268.873 1106,249.5C 1104.54,255.137 1103.21,260.804 1102,266.5C 1099.48,243.134 1097.15,219.8 1095,196.5C 1093.92,202.562 1092.59,208.562 1091,214.5C 1089.39,189.517 1088.22,164.517 1087.5,139.5 Z"/></g>
<g><path style="opacity:0.847" fill="#002247" d="M 1140.5,140.5 C 1145.8,141.275 1151.13,141.608 1156.5,141.5C 1166.83,141.792 1177.17,142.125 1187.5,142.5C 1187.85,182.057 1190.85,221.39 1196.5,260.5C 1189.4,277.167 1181.73,293.501 1173.5,309.5C 1169.67,286.835 1166.17,264.168 1163,241.5C 1162.37,245.006 1161.37,248.34 1160,251.5C 1157.55,226.79 1155.22,202.123 1153,177.5C 1152,183.5 1151,189.5 1150,195.5C 1149,178.833 1148,162.167 1147,145.5C 1145.76,154.514 1144.43,163.514 1143,172.5C 1142.34,161.762 1141.51,151.095 1140.5,140.5 Z"/></g>
<g><path style="opacity:0.847" fill="#00274e" d="M 1187.5,142.5 C 1220.54,141.364 1234.71,157.031 1230,189.5C 1221.15,208.526 1212.32,227.526 1203.5,246.5C 1201.54,251.416 1199.2,256.082 1196.5,260.5C 1190.85,221.39 1187.85,182.057 1187.5,142.5 Z"/></g>
<g><path style="opacity:0.847" fill="#001837" d="M 1027.5,143.5 C 1028.59,159.662 1029.42,175.995 1030,192.5C 1032.44,179.52 1034.77,166.52 1037,153.5C 1037.72,181.896 1039.38,210.229 1042,238.5C 1044.16,229.535 1046.16,220.535 1048,211.5C 1049.72,233.858 1051.72,256.192 1054,278.5C 1055.52,273.394 1057.19,268.394 1059,263.5C 1060.46,281.321 1062.79,298.987 1066,316.5C 1067.07,313.124 1068.24,309.79 1069.5,306.5C 1070.99,313.773 1072.16,321.106 1073,328.5C 1074.23,325.619 1075.73,322.953 1077.5,320.5C 1080.11,335.134 1082.61,349.801 1085,364.5C 1086.64,360.608 1087.97,356.608 1089,352.5C 1090.03,357.144 1090.86,361.81 1091.5,366.5C 1094.76,368.431 1096.6,367.431 1097,363.5C 1098.31,369.881 1099.81,376.214 1101.5,382.5C 1102.96,379.628 1104.12,376.628 1105,373.5C 1106.56,379.824 1108.06,386.158 1109.5,392.5C 1107.95,393.452 1106.29,393.785 1104.5,393.5C 1090.91,389.573 1081.91,380.906 1077.5,367.5C 1076.9,364.032 1075.9,360.699 1074.5,357.5C 1053.68,298.521 1032.85,239.521 1012,180.5C 1009.13,164.582 1014.29,152.249 1027.5,143.5 Z"/></g>
<g><path style="opacity:0.847" fill="#001b43" d="M 998.5,150.5 C 1000.1,151.799 1000.6,153.465 1000,155.5C 998.786,153.951 997.286,152.785 995.5,152C 996.737,151.768 997.737,151.268 998.5,150.5 Z"/></g>
<g><path style="opacity:0.847" fill="#001635" d="M 1009.5,179.5 C 1016.03,199.244 1022.86,218.911 1030,238.5C 1031.22,244.655 1029.72,249.988 1025.5,254.5C 1017.89,260.448 1009.89,260.948 1001.5,256C 991.786,239.408 982.453,222.575 973.5,205.5C 981.44,196.096 981.44,186.763 973.5,177.5C 980.258,161.518 990.758,158.518 1005,168.5C 1006.43,172.307 1007.93,175.974 1009.5,179.5 Z"/></g>
<g><path style="opacity:0.847" fill="#002e5a" d="M 1273.5,177.5 C 1274.5,178.167 1275.5,178.833 1276.5,179.5C 1279.8,241.503 1291.3,302.169 1311,361.5C 1315.51,374.878 1320.68,387.878 1326.5,400.5C 1319.27,402.476 1311.94,404.476 1304.5,406.5C 1298.66,387.303 1292.32,367.97 1285.5,348.5C 1284.26,349.246 1282.93,349.579 1281.5,349.5C 1266.3,292.956 1256.3,235.622 1251.5,177.5C 1254.38,176.087 1257.55,175.421 1261,175.5C 1265.24,175.77 1269.41,176.437 1273.5,177.5 Z"/></g>
<g><path style="opacity:0.847" fill="#002b55" d="M 1251.5,177.5 C 1256.3,235.622 1266.3,292.956 1281.5,349.5C 1282.93,349.579 1284.26,349.246 1285.5,348.5C 1292.32,367.97 1298.66,387.303 1304.5,406.5C 1294.5,408.832 1284.5,411.166 1274.5,413.5C 1267.57,394.052 1261.24,374.386 1255.5,354.5C 1253.93,355.309 1252.26,355.643 1250.5,355.5C 1238.57,306.609 1229.91,257.276 1224.5,207.5C 1227.21,200.418 1230.71,193.752 1235,187.5C 1239.69,182.744 1245.19,179.411 1251.5,177.5 Z"/></g>
<g><path style="opacity:0.847" fill="#00325c" d="M 1276.5,179.5 C 1277.49,179.328 1278.16,179.662 1278.5,180.5C 1282.42,236.025 1292.59,290.358 1309,343.5C 1310.36,342.62 1311.86,342.286 1313.5,342.5C 1319.37,361.79 1326.04,380.79 1333.5,399.5C 1332.04,399.433 1330.71,399.766 1329.5,400.5C 1328.5,400.5 1327.5,400.5 1326.5,400.5C 1320.68,387.878 1315.51,374.878 1311,361.5C 1291.3,302.169 1279.8,241.503 1276.5,179.5 Z"/></g>
<g><path style="opacity:0.847" fill="#003360" d="M 1278.5,180.5 C 1282.33,181.818 1285.5,184.152 1288,187.5C 1294.51,195.863 1301.01,204.197 1307.5,212.5C 1312.87,254.314 1321.87,295.314 1334.5,335.5C 1336.46,334.862 1338.29,334.862 1340,335.5C 1346.97,354.756 1354.47,373.756 1362.5,392.5C 1352.78,394.681 1343.11,397.015 1333.5,399.5C 1326.04,380.79 1319.37,361.79 1313.5,342.5C 1311.86,342.286 1310.36,342.62 1309,343.5C 1292.59,290.358 1282.42,236.025 1278.5,180.5 Z"/></g>
<g><path style="opacity:0.847" fill="#024898" d="M 1309.5,185.5 C 1314.09,188.085 1318.42,191.085 1322.5,194.5C 1326.81,197.802 1331.14,201.136 1335.5,204.5C 1344.17,211.5 1352.83,218.5 1361.5,225.5C 1365.66,251.487 1372.33,276.821 1381.5,301.5C 1381.38,302.107 1381.04,302.44 1380.5,302.5C 1369.49,289.127 1358.49,275.794 1347.5,262.5C 1341.73,254.613 1335.73,246.946 1329.5,239.5C 1323.83,232.167 1318.17,224.833 1312.5,217.5C 1311.25,207.144 1309.91,196.811 1308.5,186.5C 1308.62,185.893 1308.96,185.56 1309.5,185.5 Z"/></g>
<g><path style="opacity:0.847" fill="#00274e" d="M 1224.5,207.5 C 1229.91,257.276 1238.57,306.609 1250.5,355.5C 1252.26,355.643 1253.93,355.309 1255.5,354.5C 1261.24,374.386 1267.57,394.052 1274.5,413.5C 1262.03,416.034 1249.7,419.034 1237.5,422.5C 1230.9,402.09 1225.23,381.424 1220.5,360.5C 1218.74,360.357 1217.07,360.691 1215.5,361.5C 1215.17,360.833 1214.83,360.167 1214.5,359.5C 1207.57,328.877 1201.57,298.211 1196.5,267.5C 1199.5,260.838 1202.5,254.171 1205.5,247.5C 1211.8,234.231 1218.13,220.898 1224.5,207.5 Z"/></g>
<g><path style="opacity:0.847" fill="#003666" d="M 1307.5,212.5 C 1308.94,214.36 1310.61,216.027 1312.5,217.5C 1318.17,224.833 1323.83,232.167 1329.5,239.5C 1338.45,291.687 1354.78,341.354 1378.5,388.5C 1373.14,389.706 1367.8,391.039 1362.5,392.5C 1354.47,373.756 1346.97,354.756 1340,335.5C 1338.29,334.862 1336.46,334.862 1334.5,335.5C 1321.87,295.314 1312.87,254.314 1307.5,212.5 Z"/></g>
<g><path style="opacity:0.847" fill="#014c9d" d="M 1361.5,225.5 C 1362.83,226.167 1364.17,226.833 1365.5,227.5C 1386.31,244.136 1407.31,260.636 1428.5,277C 1431.89,279.694 1435.56,281.86 1439.5,283.5C 1439.5,288.5 1439.5,293.5 1439.5,298.5C 1427.5,299.98 1419,306.314 1414,317.5C 1409.64,339.13 1418.14,352.464 1439.5,357.5C 1439.5,366.5 1439.5,375.5 1439.5,384.5C 1434.43,381.015 1428.76,379.682 1422.5,380.5C 1420.9,380.768 1419.57,380.434 1418.5,379.5C 1425.24,377.981 1431.91,376.147 1438.5,374C 1430.33,363.833 1422.17,353.667 1414,343.5C 1414.77,346.694 1415.27,350.027 1415.5,353.5C 1415.15,357.565 1414.48,361.565 1413.5,365.5C 1411.82,364.817 1411.16,363.483 1411.5,361.5C 1413.74,352.19 1412.24,343.523 1407,335.5C 1398.16,324.47 1389.32,313.47 1380.5,302.5C 1381.04,302.44 1381.38,302.107 1381.5,301.5C 1372.33,276.821 1365.66,251.487 1361.5,225.5 Z"/></g>
<g><path style="opacity:0.847" fill="#003969" d="M 1329.5,239.5 C 1335.73,246.946 1341.73,254.613 1347.5,262.5C 1352.42,283.526 1358.59,304.192 1366,324.5C 1367.81,324.747 1369.65,325.08 1371.5,325.5C 1378.56,344.944 1387.22,363.611 1397.5,381.5C 1391.76,385.194 1385.43,387.528 1378.5,388.5C 1354.78,341.354 1338.45,291.687 1329.5,239.5 Z"/></g>
<g><path style="opacity:0.847" fill="#003b6d" d="M 1347.5,262.5 C 1358.49,275.794 1369.49,289.127 1380.5,302.5C 1389.32,313.47 1398.16,324.47 1407,335.5C 1412.24,343.523 1413.74,352.19 1411.5,361.5C 1409.31,369.877 1404.64,376.543 1397.5,381.5C 1387.22,363.611 1378.56,344.944 1371.5,325.5C 1369.65,325.08 1367.81,324.747 1366,324.5C 1358.59,304.192 1352.42,283.526 1347.5,262.5 Z"/></g>
<g><path style="opacity:0.847" fill="#000e28" d="M 942.5,401.5 C 940.569,419.472 938.903,437.472 937.5,455.5C 927.371,456.167 921.704,461.667 920.5,472C 922.358,485.222 929.691,490.555 942.5,488C 949.794,484.915 953.127,479.415 952.5,471.5C 959.143,470.446 965.81,469.946 972.5,470C 956.141,479.223 949.974,493.057 954,511.5C 957.743,520.238 961.576,528.904 965.5,537.5C 964.21,538.058 963.377,539.058 963,540.5C 961.853,538.269 960.853,535.935 960,533.5C 959.581,534.672 958.915,535.672 958,536.5C 956.476,529.071 954.643,521.738 952.5,514.5C 949.746,519.008 947.246,523.674 945,528.5C 941.954,517.606 939.287,506.606 937,495.5C 934.333,500.833 931.667,506.167 929,511.5C 927.689,505.112 926.189,498.778 924.5,492.5C 922.217,491.679 919.884,491.012 917.5,490.5C 915.971,490.529 914.804,491.196 914,492.5C 912.415,487.249 911.082,481.915 910,476.5C 908.333,479.833 906.667,483.167 905,486.5C 903.887,487.711 902.72,487.711 901.5,486.5C 898.894,476.975 896.727,467.309 895,457.5C 892.333,462.833 889.667,468.167 887,473.5C 884.772,461.794 882.438,450.127 880,438.5C 877.606,444.287 874.94,449.954 872,455.5C 870.892,449.184 869.892,442.85 869,436.5C 866,442.5 863,448.5 860,454.5C 858.121,444.847 856.287,435.18 854.5,425.5C 852.958,424.253 851.458,424.253 850,425.5C 846.755,432.324 843.255,438.991 839.5,445.5C 837.42,436.609 836.087,427.609 835.5,418.5C 833.248,417.667 831.081,417.667 829,418.5C 826.194,425.446 822.861,432.112 819,438.5C 817.917,429.418 816.417,420.418 814.5,411.5C 812.941,410.926 811.441,410.26 810,409.5C 806.333,416.167 802.667,422.833 799,429.5C 797.825,420.755 796.325,412.088 794.5,403.5C 792.452,402.23 790.452,401.897 788.5,402.5C 785.588,408.658 782.421,414.658 779,420.5C 777.748,412.15 776.415,403.816 775,395.5C 770.588,404.657 765.922,413.657 761,422.5C 759.277,417.043 758.277,411.376 758,405.5C 753.247,413.338 748.747,421.338 744.5,429.5C 742.138,429.974 739.805,430.308 737.5,430.5C 733.084,438.333 728.418,446 723.5,453.5C 722.682,450.893 722.182,448.226 722,445.5C 718.365,451.965 714.532,458.298 710.5,464.5C 708.378,464.377 706.211,464.377 704,464.5C 694.739,479.357 684.739,493.691 674,507.5C 673.456,502.656 672.456,497.99 671,493.5C 668.908,496.681 666.575,499.681 664,502.5C 662.401,500.964 660.567,500.464 658.5,501C 649.999,513.508 640.666,525.342 630.5,536.5C 628.742,535.872 627.242,534.872 626,533.5C 623.283,536.71 620.783,540.044 618.5,543.5C 590.5,543.5 562.5,543.5 534.5,543.5C 536.461,541.037 538.628,538.703 541,536.5C 542.489,538.332 544.322,539.165 546.5,539C 556.536,528.632 566.203,517.966 575.5,507C 577.701,506.175 579.534,506.675 581,508.5C 591.147,496.866 600.813,484.866 610,472.5C 610.671,473.252 611.504,473.586 612.5,473.5C 613.172,474.267 614.005,474.934 615,475.5C 625.572,462.025 635.405,448.025 644.5,433.5C 646.475,432.422 648.308,432.755 650,434.5C 654.496,428.844 658.496,422.844 662,416.5C 662.74,422.158 663.406,427.825 664,433.5C 671,423.504 677.5,413.17 683.5,402.5C 685.622,402.623 687.789,402.623 690,402.5C 697.254,389.659 704.254,376.659 711,363.5C 712.855,368.657 714.189,373.99 715,379.5C 716.5,376.5 718,373.5 719.5,370.5C 721.791,370.123 723.958,370.123 726,370.5C 732.244,357.013 738.744,343.68 745.5,330.5C 746.833,331.167 748.167,331.833 749.5,332.5C 750.091,335.64 750.924,338.64 752,341.5C 752.42,336.014 754.753,334.681 759,337.5C 761.923,331.985 764.59,326.318 767,320.5C 768.357,327.408 769.357,334.408 770,341.5C 775,329.5 780,317.5 785,305.5C 785.466,313.004 786.466,320.337 788,327.5C 792,317.5 796,307.5 800,297.5C 801,298.167 802,298.833 803,299.5C 803.448,304.53 804.114,309.53 805,314.5C 806.136,310.757 807.47,307.09 809,303.5C 811.089,303.255 813.089,303.255 815,303.5C 816.561,298.713 818.395,294.046 820.5,289.5C 821.325,293.122 821.825,296.789 822,300.5C 826.215,288.018 830.715,275.685 835.5,263.5C 837.069,264.714 837.902,266.381 838,268.5C 838.89,281.175 839.89,293.842 841,306.5C 844.062,298.484 847.229,290.484 850.5,282.5C 851.861,294.672 853.195,306.839 854.5,319C 855.736,321.248 857.403,321.748 859.5,320.5C 860.902,316.461 862.402,312.461 864,308.5C 864.934,316.176 865.934,323.843 867,331.5C 867.473,329.221 868.473,327.221 870,325.5C 872.333,326.5 874.667,327.5 877,328.5C 878.267,337.503 879.601,346.503 881,355.5C 883.863,348.578 886.53,341.578 889,334.5C 890.854,349.185 892.854,363.852 895,378.5C 897.667,371.833 900.333,365.167 903,358.5C 904.83,369.802 906.496,381.135 908,392.5C 909.085,393.293 910.252,393.96 911.5,394.5C 913.591,390.65 915.424,386.65 917,382.5C 918.302,387.061 919.468,391.728 920.5,396.5C 921.086,396.709 921.586,397.043 922,397.5C 924.866,392.431 927.199,387.098 929,381.5C 930.093,388.152 931.093,394.819 932,401.5C 932.667,400.833 933.333,400.167 934,399.5C 936.687,400.713 939.52,401.38 942.5,401.5 Z"/></g>
<g><path style="opacity:0.847" fill="#002348" d="M 1196.5,267.5 C 1201.57,298.211 1207.57,328.877 1214.5,359.5C 1214.83,360.167 1215.17,360.833 1215.5,361.5C 1217.07,360.691 1218.74,360.357 1220.5,360.5C 1225.23,381.424 1230.9,402.09 1237.5,422.5C 1227.13,424.677 1216.79,427.01 1206.5,429.5C 1199.74,408.145 1194.08,386.479 1189.5,364.5C 1187.5,364.5 1185.5,364.5 1183.5,364.5C 1180.58,348.284 1177.25,332.284 1173.5,316.5C 1181.44,300.287 1189.11,283.954 1196.5,267.5 Z"/></g>
<g><path style="opacity:0.847" fill="#001433" d="M 1074.5,449.5 C 1074.17,449.5 1073.83,449.5 1073.5,449.5C 1072.86,445.473 1072.03,441.473 1071,437.5C 1068.62,441.968 1066.62,446.635 1065,451.5C 1062.62,440.602 1060.12,429.768 1057.5,419C 1056.22,418.316 1055.05,418.483 1054,419.5C 1051.78,429.989 1050.12,429.989 1049,419.5C 1044.26,416.204 1041.59,417.538 1041,423.5C 1039.28,417.252 1037.95,410.919 1037,404.5C 1035.26,408.552 1033.43,412.552 1031.5,416.5C 1030.91,416.291 1030.41,415.957 1030,415.5C 1027.77,403.136 1025.44,390.803 1023,378.5C 1021.26,383.643 1019.26,388.643 1017,393.5C 1015.06,382.171 1013.22,370.837 1011.5,359.5C 1009.71,359.215 1008.05,359.548 1006.5,360.5C 1005.57,362.795 1004.73,365.129 1004,367.5C 1003.12,360.329 1001.79,353.329 1000,346.5C 998.326,350.021 997.16,353.687 996.5,357.5C 995.5,357.5 994.5,357.5 993.5,357.5C 991.504,343.532 989.671,329.532 988,315.5C 985.617,320.645 983.617,325.978 982,331.5C 980.537,323.505 979.037,315.505 977.5,307.5C 975.167,306.833 972.833,306.167 970.5,305.5C 969.486,300.212 968.486,300.212 967.5,305.5C 965.586,304.815 963.586,304.315 961.5,304C 960.773,302.601 960.273,301.101 960,299.5C 958.669,304.378 956.502,308.711 953.5,312.5C 953.436,304.361 955.769,297.027 960.5,290.5C 978.528,272.187 997.028,271.853 1016,289.5C 1038.59,330.34 1060.92,371.34 1083,412.5C 1087.2,426.552 1084.36,438.886 1074.5,449.5 Z"/></g>
<g><path style="opacity:0.847" fill="#003f71" d="M 1439.5,298.5 C 1439.5,318.167 1439.5,337.833 1439.5,357.5C 1418.14,352.464 1409.64,339.13 1414,317.5C 1419,306.314 1427.5,299.98 1439.5,298.5 Z"/></g>
<g><path style="opacity:0.847" fill="#00112d" d="M 967.5,305.5 C 968.193,314.24 969.36,322.907 971,331.5C 974.405,332.582 977.905,333.416 981.5,334C 982.667,334.5 983.5,335.333 984,336.5C 985.813,350.527 987.813,364.527 990,378.5C 993.197,369.908 996.197,361.242 999,352.5C 1002.46,376.259 1006.46,399.925 1011,423.5C 1014,416.167 1017,408.833 1020,401.5C 1023.9,421.504 1027.73,441.504 1031.5,461.5C 1007.49,463.701 983.492,466.034 959.5,468.5C 957.167,468.167 954.833,467.833 952.5,467.5C 950.299,461.133 945.966,456.966 939.5,455C 943.904,407.522 948.571,360.022 953.5,312.5C 956.502,308.711 958.669,304.378 960,299.5C 960.273,301.101 960.773,302.601 961.5,304C 963.586,304.315 965.586,304.815 967.5,305.5 Z"/></g>
<g><path style="opacity:0.847" fill="#00132f" d="M 1073.5,449.5 C 1070.56,452.918 1066.89,455.418 1062.5,457C 1052.27,459.157 1041.93,460.657 1031.5,461.5C 1027.73,441.504 1023.9,421.504 1020,401.5C 1017,408.833 1014,416.167 1011,423.5C 1006.46,399.925 1002.46,376.259 999,352.5C 996.197,361.242 993.197,369.908 990,378.5C 987.813,364.527 985.813,350.527 984,336.5C 983.5,335.333 982.667,334.5 981.5,334C 977.905,333.416 974.405,332.582 971,331.5C 969.36,322.907 968.193,314.24 967.5,305.5C 968.486,300.212 969.486,300.212 970.5,305.5C 972.833,306.167 975.167,306.833 977.5,307.5C 979.037,315.505 980.537,323.505 982,331.5C 983.617,325.978 985.617,320.645 988,315.5C 989.671,329.532 991.504,343.532 993.5,357.5C 994.5,357.5 995.5,357.5 996.5,357.5C 997.16,353.687 998.326,350.021 1000,346.5C 1001.79,353.329 1003.12,360.329 1004,367.5C 1004.73,365.129 1005.57,362.795 1006.5,360.5C 1008.05,359.548 1009.71,359.215 1011.5,359.5C 1013.22,370.837 1015.06,382.171 1017,393.5C 1019.26,388.643 1021.26,383.643 1023,378.5C 1025.44,390.803 1027.77,403.136 1030,415.5C 1030.41,415.957 1030.91,416.291 1031.5,416.5C 1033.43,412.552 1035.26,408.552 1037,404.5C 1037.95,410.919 1039.28,417.252 1041,423.5C 1041.59,417.538 1044.26,416.204 1049,419.5C 1050.12,429.989 1051.78,429.989 1054,419.5C 1055.05,418.483 1056.22,418.316 1057.5,419C 1060.12,429.768 1062.62,440.602 1065,451.5C 1066.62,446.635 1068.62,441.968 1071,437.5C 1072.03,441.473 1072.86,445.473 1073.5,449.5 Z"/></g>
<g><path style="opacity:0.847" fill="#002043" d="M 1173.5,316.5 C 1177.25,332.284 1180.58,348.284 1183.5,364.5C 1185.5,364.5 1187.5,364.5 1189.5,364.5C 1194.08,386.479 1199.74,408.145 1206.5,429.5C 1204.11,430.015 1201.77,430.681 1199.5,431.5C 1196.5,432.167 1193.5,432.833 1190.5,433.5C 1181.37,399.986 1173.37,366.32 1166.5,332.5C 1168.84,327.162 1171.17,321.829 1173.5,316.5 Z"/></g>
<g><path style="opacity:0.847" fill="#001e40" d="M 1166.5,332.5 C 1173.37,366.32 1181.37,399.986 1190.5,433.5C 1182.13,435.344 1173.79,437.344 1165.5,439.5C 1159.65,416.43 1153.98,393.43 1148.5,370.5C 1154.53,357.769 1160.53,345.102 1166.5,332.5 Z"/></g>
<g><path style="opacity:0.847" fill="#003d70" d="M 1418.5,379.5 C 1412.51,381.002 1406.51,382.169 1400.5,383C 1406.53,378.465 1410.86,372.632 1413.5,365.5C 1414.48,361.565 1415.15,357.565 1415.5,353.5C 1415.27,350.027 1414.77,346.694 1414,343.5C 1422.17,353.667 1430.33,363.833 1438.5,374C 1431.91,376.147 1425.24,377.981 1418.5,379.5 Z"/></g>
<g><path style="opacity:0.847" fill="#014692" d="M 1411.5,361.5 C 1411.16,363.483 1411.82,364.817 1413.5,365.5C 1410.86,372.632 1406.53,378.465 1400.5,383C 1406.51,382.169 1412.51,381.002 1418.5,379.5C 1419.57,380.434 1420.9,380.768 1422.5,380.5C 1415.2,382.261 1407.87,384.261 1400.5,386.5C 1387.58,388.898 1374.91,391.898 1362.5,395.5C 1352.58,397.214 1342.91,399.547 1333.5,402.5C 1332.17,402.5 1330.83,402.5 1329.5,402.5C 1329.5,401.833 1329.5,401.167 1329.5,400.5C 1330.71,399.766 1332.04,399.433 1333.5,399.5C 1343.11,397.015 1352.78,394.681 1362.5,392.5C 1367.8,391.039 1373.14,389.706 1378.5,388.5C 1385.43,387.528 1391.76,385.194 1397.5,381.5C 1404.64,376.543 1409.31,369.877 1411.5,361.5 Z"/></g>
<g><path style="opacity:0.847" fill="#013274" d="M 1203.5,246.5 C 1204.17,246.833 1204.83,247.167 1205.5,247.5C 1202.5,254.171 1199.5,260.838 1196.5,267.5C 1189.11,283.954 1181.44,300.287 1173.5,316.5C 1171.17,321.829 1168.84,327.162 1166.5,332.5C 1160.53,345.102 1154.53,357.769 1148.5,370.5C 1137.71,393.247 1127.04,416.08 1116.5,439C 1119.38,442.371 1122.04,445.871 1124.5,449.5C 1130.06,447.692 1135.73,446.359 1141.5,445.5C 1143.01,452.535 1144.68,459.535 1146.5,466.5C 1148.92,466.192 1151.26,466.526 1153.5,467.5C 1155.54,474.38 1157.88,481.046 1160.5,487.5C 1150.4,498.585 1147.9,511.252 1153,525.5C 1156.33,531.647 1159.83,537.647 1163.5,543.5C 1162.5,543.5 1161.5,543.5 1160.5,543.5C 1156.49,534.632 1150.49,527.465 1142.5,522C 1138.69,520.119 1134.69,518.953 1130.5,518.5C 1128.05,517.527 1125.39,517.194 1122.5,517.5C 1122.37,515.784 1122.04,514.117 1121.5,512.5C 1130.08,512.512 1138.08,514.345 1145.5,518C 1135.54,501.917 1125.71,485.75 1116,469.5C 1114.1,471.016 1111.94,471.683 1109.5,471.5C 1104.32,450.781 1099.15,430.114 1094,409.5C 1092.44,414.287 1090.61,418.954 1088.5,423.5C 1083.81,405.032 1080.14,386.366 1077.5,367.5C 1081.91,380.906 1090.91,389.573 1104.5,393.5C 1125.69,396.567 1139.69,387.901 1146.5,367.5C 1156.01,348.476 1165.01,329.143 1173.5,309.5C 1181.73,293.501 1189.4,277.167 1196.5,260.5C 1199.2,256.082 1201.54,251.416 1203.5,246.5 Z"/></g>
<g><path style="opacity:0.847" fill="#001b3b" d="M 1148.5,370.5 C 1153.98,393.43 1159.65,416.43 1165.5,439.5C 1157.31,441.213 1149.31,443.213 1141.5,445.5C 1135.73,446.359 1130.06,447.692 1124.5,449.5C 1122.04,445.871 1119.38,442.371 1116.5,439C 1127.04,416.08 1137.71,393.247 1148.5,370.5 Z"/></g>
<g><path style="opacity:0.847" fill="#003b6d" d="M 1422.5,380.5 C 1428.76,379.682 1434.43,381.015 1439.5,384.5C 1439.5,399.833 1439.5,415.167 1439.5,430.5C 1433.66,424.821 1428.32,418.654 1423.5,412C 1421.11,412.351 1418.78,412.185 1416.5,411.5C 1410.41,403.647 1405.07,395.314 1400.5,386.5C 1407.87,384.261 1415.2,382.261 1422.5,380.5 Z"/></g>
<g><path style="opacity:0.847" fill="#003867" d="M 1400.5,386.5 C 1405.07,395.314 1410.41,403.647 1416.5,411.5C 1418.78,412.185 1421.11,412.351 1423.5,412C 1428.32,418.654 1433.66,424.821 1439.5,430.5C 1439.5,450.5 1439.5,470.5 1439.5,490.5C 1419.14,471.1 1401.64,449.433 1387,425.5C 1384.67,425.167 1382.33,424.833 1380,424.5C 1375,415.167 1370,405.833 1365,396.5C 1364.33,395.748 1363.5,395.414 1362.5,395.5C 1374.91,391.898 1387.58,388.898 1400.5,386.5 Z"/></g>
<g><path style="opacity:0.846" fill="#003460" d="M 1362.5,395.5 C 1363.5,395.414 1364.33,395.748 1365,396.5C 1370,405.833 1375,415.167 1380,424.5C 1382.33,424.833 1384.67,425.167 1387,425.5C 1401.64,449.433 1419.14,471.1 1439.5,490.5C 1439.5,500.5 1439.5,510.5 1439.5,520.5C 1438.45,522.929 1437.12,525.262 1435.5,527.5C 1429.09,522.597 1423.09,517.097 1417.5,511C 1415.17,511.333 1412.83,511.667 1410.5,512C 1388.93,488.699 1370.93,462.866 1356.5,434.5C 1354.4,434.521 1352.23,434.187 1350,433.5C 1344.89,423.622 1340.06,413.622 1335.5,403.5C 1335.04,402.702 1334.38,402.369 1333.5,402.5C 1342.91,399.547 1352.58,397.214 1362.5,395.5 Z"/></g>
<g><path style="opacity:0.847" fill="#000b23" d="M 965.5,537.5 C 966.73,539.297 967.396,541.297 967.5,543.5C 851.167,543.5 734.833,543.5 618.5,543.5C 620.783,540.044 623.283,536.71 626,533.5C 627.242,534.872 628.742,535.872 630.5,536.5C 640.666,525.342 649.999,513.508 658.5,501C 660.567,500.464 662.401,500.964 664,502.5C 666.575,499.681 668.908,496.681 671,493.5C 672.456,497.99 673.456,502.656 674,507.5C 684.739,493.691 694.739,479.357 704,464.5C 706.211,464.377 708.378,464.377 710.5,464.5C 714.532,458.298 718.365,451.965 722,445.5C 722.182,448.226 722.682,450.893 723.5,453.5C 728.418,446 733.084,438.333 737.5,430.5C 739.805,430.308 742.138,429.974 744.5,429.5C 748.747,421.338 753.247,413.338 758,405.5C 758.277,411.376 759.277,417.043 761,422.5C 765.922,413.657 770.588,404.657 775,395.5C 776.415,403.816 777.748,412.15 779,420.5C 782.421,414.658 785.588,408.658 788.5,402.5C 790.452,401.897 792.452,402.23 794.5,403.5C 796.325,412.088 797.825,420.755 799,429.5C 802.667,422.833 806.333,416.167 810,409.5C 811.441,410.26 812.941,410.926 814.5,411.5C 816.417,420.418 817.917,429.418 819,438.5C 822.861,432.112 826.194,425.446 829,418.5C 831.081,417.667 833.248,417.667 835.5,418.5C 836.087,427.609 837.42,436.609 839.5,445.5C 843.255,438.991 846.755,432.324 850,425.5C 851.458,424.253 852.958,424.253 854.5,425.5C 856.287,435.18 858.121,444.847 860,454.5C 863,448.5 866,442.5 869,436.5C 869.892,442.85 870.892,449.184 872,455.5C 874.94,449.954 877.606,444.287 880,438.5C 882.438,450.127 884.772,461.794 887,473.5C 889.667,468.167 892.333,462.833 895,457.5C 896.727,467.309 898.894,476.975 901.5,486.5C 902.72,487.711 903.887,487.711 905,486.5C 906.667,483.167 908.333,479.833 910,476.5C 911.082,481.915 912.415,487.249 914,492.5C 914.804,491.196 915.971,490.529 917.5,490.5C 919.884,491.012 922.217,491.679 924.5,492.5C 926.189,498.778 927.689,505.112 929,511.5C 931.667,506.167 934.333,500.833 937,495.5C 939.287,506.606 941.954,517.606 945,528.5C 947.246,523.674 949.746,519.008 952.5,514.5C 954.643,521.738 956.476,529.071 958,536.5C 958.915,535.672 959.581,534.672 960,533.5C 960.853,535.935 961.853,538.269 963,540.5C 963.377,539.058 964.21,538.058 965.5,537.5 Z"/></g>
<g><path style="opacity:0.846" fill="#00325c" d="M 1329.5,402.5 C 1330.83,402.5 1332.17,402.5 1333.5,402.5C 1334.38,402.369 1335.04,402.702 1335.5,403.5C 1340.06,413.622 1344.89,423.622 1350,433.5C 1352.23,434.187 1354.4,434.521 1356.5,434.5C 1370.93,462.866 1388.93,488.699 1410.5,512C 1412.83,511.667 1415.17,511.333 1417.5,511C 1423.09,517.097 1429.09,522.597 1435.5,527.5C 1433.48,531.522 1430.48,534.522 1426.5,536.5C 1419.57,535.435 1412.9,533.768 1406.5,531.5C 1372.6,493.731 1346.26,451.064 1327.5,403.5C 1328.49,403.672 1329.16,403.338 1329.5,402.5 Z"/></g>
<g><path style="opacity:0.847" fill="#002f5a" d="M 1327.5,403.5 C 1346.26,451.064 1372.6,493.731 1406.5,531.5C 1395.18,529.255 1384.18,526.255 1373.5,522.5C 1355.5,497.428 1339.83,470.762 1326.5,442.5C 1324.58,442.433 1322.58,442.1 1320.5,441.5C 1315.59,431.028 1311.26,420.362 1307.5,409.5C 1306.5,409.5 1305.5,409.5 1304.5,409.5C 1311.94,407.056 1319.61,405.056 1327.5,403.5 Z"/></g>
<g><path style="opacity:0.847" fill="#002c54" d="M 1304.5,409.5 C 1305.5,409.5 1306.5,409.5 1307.5,409.5C 1311.26,420.362 1315.59,431.028 1320.5,441.5C 1322.58,442.1 1324.58,442.433 1326.5,442.5C 1339.83,470.762 1355.5,497.428 1373.5,522.5C 1356.65,518.787 1339.98,514.453 1323.5,509.5C 1313.05,490.26 1303.38,470.593 1294.5,450.5C 1292.21,449.785 1290.05,449.451 1288,449.5C 1283.77,438.279 1279.27,427.279 1274.5,416.5C 1284.25,413.565 1294.25,411.232 1304.5,409.5 Z"/></g>
<g><path style="opacity:0.847" fill="#00284e" d="M 1274.5,416.5 C 1279.27,427.279 1283.77,438.279 1288,449.5C 1290.05,449.451 1292.21,449.785 1294.5,450.5C 1303.38,470.593 1313.05,490.26 1323.5,509.5C 1320.83,509.167 1318.17,508.833 1315.5,508.5C 1300.45,504.322 1285.45,499.989 1270.5,495.5C 1265.69,483.198 1260.85,470.865 1256,458.5C 1254.33,456.302 1252.33,455.968 1250,457.5C 1246.3,448.077 1242.8,438.577 1239.5,429C 1239.16,427.97 1238.5,427.47 1237.5,427.5C 1239.65,425.254 1242.32,423.754 1245.5,423C 1255.11,420.512 1264.78,418.345 1274.5,416.5 Z"/></g>
<g><path style="opacity:0.847" fill="#01397e" d="M 1326.5,400.5 C 1327.5,400.5 1328.5,400.5 1329.5,400.5C 1329.5,401.167 1329.5,401.833 1329.5,402.5C 1329.16,403.338 1328.49,403.672 1327.5,403.5C 1319.61,405.056 1311.94,407.056 1304.5,409.5C 1294.25,411.232 1284.25,413.565 1274.5,416.5C 1264.78,418.345 1255.11,420.512 1245.5,423C 1242.32,423.754 1239.65,425.254 1237.5,427.5C 1222.54,437.97 1218.04,451.97 1224,469.5C 1227.05,477.218 1232.22,483.052 1239.5,487C 1249.62,490.612 1259.95,493.446 1270.5,495.5C 1285.45,499.989 1300.45,504.322 1315.5,508.5C 1313.3,508.409 1312.97,509.075 1314.5,510.5C 1300.88,506.678 1287.21,503.011 1273.5,499.5C 1259.77,495.985 1246.11,492.319 1232.5,488.5C 1226.22,487.434 1220.22,485.767 1214.5,483.5C 1215.1,483.265 1215.43,482.765 1215.5,482C 1209.31,465.417 1203.98,448.584 1199.5,431.5C 1201.77,430.681 1204.11,430.015 1206.5,429.5C 1216.79,427.01 1227.13,424.677 1237.5,422.5C 1249.7,419.034 1262.03,416.034 1274.5,413.5C 1284.5,411.166 1294.5,408.832 1304.5,406.5C 1311.94,404.476 1319.27,402.476 1326.5,400.5 Z"/></g>
<g><path style="opacity:0.847" fill="#002448" d="M 1237.5,427.5 C 1238.5,427.47 1239.16,427.97 1239.5,429C 1242.8,438.577 1246.3,448.077 1250,457.5C 1252.33,455.968 1254.33,456.302 1256,458.5C 1260.85,470.865 1265.69,483.198 1270.5,495.5C 1259.95,493.446 1249.62,490.612 1239.5,487C 1232.22,483.052 1227.05,477.218 1224,469.5C 1218.04,451.97 1222.54,437.97 1237.5,427.5 Z"/></g>
<g><path style="opacity:0.847" fill="#023579" d="M 1199.5,431.5 C 1203.98,448.584 1209.31,465.417 1215.5,482C 1215.43,482.765 1215.1,483.265 1214.5,483.5C 1204.56,481.181 1194.56,479.181 1184.5,477.5C 1175.23,477.918 1167.23,481.252 1160.5,487.5C 1157.88,481.046 1155.54,474.38 1153.5,467.5C 1151.26,466.526 1148.92,466.192 1146.5,466.5C 1144.68,459.535 1143.01,452.535 1141.5,445.5C 1149.31,443.213 1157.31,441.213 1165.5,439.5C 1173.79,437.344 1182.13,435.344 1190.5,433.5C 1193.5,432.833 1196.5,432.167 1199.5,431.5 Z"/></g>
<g><path style="opacity:0.847" fill="#012a67" d="M 956.5,264.5 C 957.497,272.791 958.33,281.124 959,289.5C 959.383,290.056 959.883,290.389 960.5,290.5C 955.769,297.027 953.436,304.361 953.5,312.5C 948.571,360.022 943.904,407.522 939.5,455C 945.966,456.966 950.299,461.133 952.5,467.5C 954.833,467.833 957.167,468.167 959.5,468.5C 983.492,466.034 1007.49,463.701 1031.5,461.5C 1041.93,460.657 1052.27,459.157 1062.5,457C 1066.89,455.418 1070.56,452.918 1073.5,449.5C 1073.83,449.5 1074.17,449.5 1074.5,449.5C 1075.04,454.186 1075.7,458.853 1076.5,463.5C 1067.99,461.461 1059.33,460.961 1050.5,462C 1029.99,463.917 1009.66,466.083 989.5,468.5C 973.266,469.711 962.433,478.044 957,493.5C 956.333,499.833 956.333,506.167 957,512.5C 961.515,522.859 966.015,533.193 970.5,543.5C 969.5,543.5 968.5,543.5 967.5,543.5C 967.396,541.297 966.73,539.297 965.5,537.5C 961.576,528.904 957.743,520.238 954,511.5C 949.974,493.057 956.141,479.223 972.5,470C 965.81,469.946 959.143,470.446 952.5,471.5C 953.127,479.415 949.794,484.915 942.5,488C 929.691,490.555 922.358,485.222 920.5,472C 921.704,461.667 927.371,456.167 937.5,455.5C 938.903,437.472 940.569,419.472 942.5,401.5C 945.834,366.83 949.167,332.163 952.5,297.5C 953.778,286.494 955.112,275.494 956.5,264.5 Z"/></g>
<g><path style="opacity:0.847" fill="#00122d" d="M 1076.5,463.5 C 1081.87,465.852 1086.54,469.185 1090.5,473.5C 1095.38,480.155 1098.04,487.655 1098.5,496C 1095.23,511.793 1092.23,527.626 1089.5,543.5C 1079.83,543.5 1070.17,543.5 1060.5,543.5C 1058.84,538.189 1057.17,532.856 1055.5,527.5C 1053.67,531.158 1051.84,534.824 1050,538.5C 1046.57,529.459 1044.07,520.126 1042.5,510.5C 1041.02,510.238 1039.69,510.571 1038.5,511.5C 1037.61,514.284 1036.44,516.95 1035,519.5C 1033.65,514.443 1032.15,509.443 1030.5,504.5C 1028.86,507.722 1026.19,509.056 1022.5,508.5C 1020.65,499.752 1018.48,491.085 1016,482.5C 1014.38,486.71 1012.38,490.71 1010,494.5C 1008.92,489.101 1007.59,483.768 1006,478.5C 1003.73,482.714 1001.73,487.047 1000,491.5C 998.177,483.885 996.677,476.218 995.5,468.5C 993.5,468.5 991.5,468.5 989.5,468.5C 1009.66,466.083 1029.99,463.917 1050.5,462C 1059.33,460.961 1067.99,461.461 1076.5,463.5 Z"/></g>
<g><path style="opacity:0.847" fill="#012c6a" d="M 1101.5,492.5 C 1099.26,504.548 1097.09,516.548 1095,528.5C 1101.41,519.209 1110.24,513.876 1121.5,512.5C 1122.04,514.117 1122.37,515.784 1122.5,517.5C 1125.39,517.194 1128.05,517.527 1130.5,518.5C 1111.1,516.853 1098.43,525.186 1092.5,543.5C 1091.5,543.5 1090.5,543.5 1089.5,543.5C 1092.23,527.626 1095.23,511.793 1098.5,496C 1098.04,487.655 1095.38,480.155 1090.5,473.5C 1091.75,471.618 1092.92,469.618 1094,467.5C 1096.37,475.986 1098.87,484.319 1101.5,492.5 Z"/></g>
<g><path style="opacity:0.847" fill="#000f28" d="M 989.5,468.5 C 991.5,468.5 993.5,468.5 995.5,468.5C 996.677,476.218 998.177,483.885 1000,491.5C 1001.73,487.047 1003.73,482.714 1006,478.5C 1007.59,483.768 1008.92,489.101 1010,494.5C 1012.38,490.71 1014.38,486.71 1016,482.5C 1018.48,491.085 1020.65,499.752 1022.5,508.5C 1026.19,509.056 1028.86,507.722 1030.5,504.5C 1032.15,509.443 1033.65,514.443 1035,519.5C 1036.44,516.95 1037.61,514.284 1038.5,511.5C 1039.69,510.571 1041.02,510.238 1042.5,510.5C 1044.07,520.126 1046.57,529.459 1050,538.5C 1051.84,534.824 1053.67,531.158 1055.5,527.5C 1057.17,532.856 1058.84,538.189 1060.5,543.5C 1030.5,543.5 1000.5,543.5 970.5,543.5C 966.015,533.193 961.515,522.859 957,512.5C 956.333,506.167 956.333,499.833 957,493.5C 962.433,478.044 973.266,469.711 989.5,468.5 Z"/></g>
<g><path style="opacity:0.847" fill="#001733" d="M 1121.5,512.5 C 1110.24,513.876 1101.41,519.209 1095,528.5C 1097.09,516.548 1099.26,504.548 1101.5,492.5C 1103.09,485.556 1104.42,478.556 1105.5,471.5C 1106.83,471.5 1108.17,471.5 1109.5,471.5C 1111.94,471.683 1114.1,471.016 1116,469.5C 1125.71,485.75 1135.54,501.917 1145.5,518C 1138.08,514.345 1130.08,512.512 1121.5,512.5 Z"/></g>
<g><path style="opacity:0.847" fill="#001b3b" d="M 1184.5,477.5 C 1191.38,499.801 1199.04,521.801 1207.5,543.5C 1192.83,543.5 1178.17,543.5 1163.5,543.5C 1159.83,537.647 1156.33,531.647 1153,525.5C 1147.9,511.252 1150.4,498.585 1160.5,487.5C 1167.23,481.252 1175.23,477.918 1184.5,477.5 Z"/></g>
<g><path style="opacity:0.847" fill="#002041" d="M 1184.5,477.5 C 1194.56,479.181 1204.56,481.181 1214.5,483.5C 1220.22,485.767 1226.22,487.434 1232.5,488.5C 1239.34,507.172 1247,525.505 1255.5,543.5C 1239.5,543.5 1223.5,543.5 1207.5,543.5C 1199.04,521.801 1191.38,499.801 1184.5,477.5 Z"/></g>
<g><path style="opacity:0.847" fill="#002447" d="M 1232.5,488.5 C 1246.11,492.319 1259.77,495.985 1273.5,499.5C 1279.44,513.387 1285.94,527.054 1293,540.5C 1295.07,542.648 1297.41,542.982 1300,541.5C 1300.72,542.044 1301.22,542.711 1301.5,543.5C 1286.17,543.5 1270.83,543.5 1255.5,543.5C 1247,525.505 1239.34,507.172 1232.5,488.5 Z"/></g>
<g><path style="opacity:0.847" fill="#00294f" d="M 1273.5,499.5 C 1287.21,503.011 1300.88,506.678 1314.5,510.5C 1326.77,513.818 1339.1,516.985 1351.5,520C 1362.97,523.965 1369.97,531.799 1372.5,543.5C 1348.83,543.5 1325.17,543.5 1301.5,543.5C 1301.22,542.711 1300.72,542.044 1300,541.5C 1297.41,542.982 1295.07,542.648 1293,540.5C 1285.94,527.054 1279.44,513.387 1273.5,499.5 Z"/></g>
<g><path style="opacity:0.847" fill="#013f86" d="M 1315.5,508.5 C 1318.17,508.833 1320.83,509.167 1323.5,509.5C 1339.98,514.453 1356.65,518.787 1373.5,522.5C 1384.18,526.255 1395.18,529.255 1406.5,531.5C 1412.9,533.768 1419.57,535.435 1426.5,536.5C 1426.03,537.906 1425.03,538.573 1423.5,538.5C 1405.49,533.637 1387.49,529.137 1369.5,525C 1375.32,529.99 1379.32,536.156 1381.5,543.5C 1378.5,543.5 1375.5,543.5 1372.5,543.5C 1369.97,531.799 1362.97,523.965 1351.5,520C 1339.1,516.985 1326.77,513.818 1314.5,510.5C 1312.97,509.075 1313.3,508.409 1315.5,508.5 Z"/></g>
<g><path style="opacity:0.847" fill="#001633" d="M 1130.5,518.5 C 1134.69,518.953 1138.69,520.119 1142.5,522C 1150.49,527.465 1156.49,534.632 1160.5,543.5C 1137.83,543.5 1115.17,543.5 1092.5,543.5C 1098.43,525.186 1111.1,516.853 1130.5,518.5 Z"/></g>
<g><path style="opacity:0.831" fill="#002f59" d="M 1423.5,538.5 C 1420.54,540.93 1417.21,542.597 1413.5,543.5C 1402.83,543.5 1392.17,543.5 1381.5,543.5C 1379.32,536.156 1375.32,529.99 1369.5,525C 1387.49,529.137 1405.49,533.637 1423.5,538.5 Z"/></g>
</svg>
