<svg width="55" height="25" viewBox="0 0 55 25" fill="none" xmlns="http://www.w3.org/2000/svg">
<g id="Group" style="mix-blend-mode:screen" opacity="0.8">
<g id="Group_2" style="mix-blend-mode:screen">
<g id="Group_3" style="mix-blend-mode:screen">
<path id="Vector" opacity="0.5" d="M25.9829 23.04C25.9019 35.5683 26.3611 45.7277 26.996 45.7277C27.6443 45.7277 28.2251 35.5797 28.3061 23.0514C28.3872 10.5231 27.9279 0.36377 27.2931 0.36377C26.6447 0.36377 26.064 10.5117 25.9829 23.04Z" fill="url(#paint0_radial_11_40)"/>
<path id="Vector_2" opacity="0.5" d="M23.2958 23.0286C23.2148 35.5569 24.8628 45.7277 26.9969 45.7277C29.1176 45.7277 30.9005 35.5911 30.9951 23.0628C31.0761 10.5345 29.4282 0.36377 27.2941 0.36377C25.1734 0.36377 23.3904 10.5003 23.2958 23.0286Z" fill="url(#paint1_radial_11_40)"/>
<path id="Vector_3" opacity="0.5" d="M27.1586 19.8056C42.0167 19.874 54.0517 21.3773 54.0382 23.1768C54.0382 24.965 41.9762 26.3659 27.118 26.2976C12.2599 26.2292 0.224785 24.7258 0.238293 22.9263C0.238293 21.1382 12.3005 19.7373 27.1586 19.8056Z" fill="url(#paint2_radial_11_40)"/>
<path id="Vector_4" opacity="0.5" d="M27.1315 24.0299C41.9897 24.0982 54.0382 23.7112 54.0382 23.1761C54.0382 22.6296 42.0032 22.1401 27.1451 22.0718C12.2869 22.0035 0.238281 22.3906 0.238281 22.9256C0.238281 23.4721 12.2734 23.9616 27.1315 24.0299Z" fill="url(#paint3_radial_11_40)"/>
<path id="Vector_5" d="M19.0005 29.8398C23.4444 33.6325 30.6978 33.6667 35.1958 29.9196C39.6938 26.1725 39.7343 20.0563 35.2904 16.2636C30.8464 12.471 23.593 12.4369 19.095 16.184C14.5971 19.9311 14.5565 26.0472 19.0005 29.8398Z" fill="url(#paint4_radial_11_40)"/>
<path id="Vector_6" d="M23.6468 25.9679C25.5514 27.5966 28.6716 27.6081 30.6032 26.0021C32.5347 24.3849 32.5482 21.7653 30.6437 20.1366C28.7256 18.5079 25.619 18.4966 23.6874 20.1025C21.7558 21.7197 21.7423 24.3393 23.6468 25.9679Z" fill="url(#paint5_radial_11_40)"/>
</g>
<g id="Group_4" style="mix-blend-mode:screen">
<path id="Vector_7" opacity="0.5" d="M26.6458 23.051C26.6053 28.4496 26.8079 32.8231 27.078 32.8231C27.3482 32.8231 27.6048 28.4496 27.6453 23.0624C27.6859 17.6638 27.4832 13.2903 27.2131 13.2903C26.9294 13.2903 26.6863 17.6638 26.6458 23.051Z" fill="url(#paint6_radial_11_40)"/>
<path id="Vector_8" opacity="0.5" d="M25.4841 23.0407C25.4435 28.4393 26.1595 32.8128 27.078 32.8128C27.9965 32.8128 28.7664 28.4507 28.7934 23.0521C28.8339 17.6536 28.118 13.28 27.1995 13.28C26.281 13.28 25.5111 17.6422 25.4841 23.0407Z" fill="url(#paint7_radial_11_40)"/>
<path id="Vector_9" opacity="0.5" d="M27.1587 21.651C33.5612 21.6852 38.7345 22.3341 38.7345 23.0968C38.7345 23.871 33.5342 24.4631 27.1452 24.4403C20.7427 24.4062 15.5693 23.7572 15.5693 22.9944C15.5693 22.2203 20.7697 21.6283 27.1587 21.651Z" fill="url(#paint8_radial_11_40)"/>
<path id="Vector_10" opacity="0.5" d="M27.1452 23.4726C33.5477 23.5067 38.7345 23.3359 38.7345 23.1082C38.7345 22.8805 33.5477 22.6642 27.1587 22.6301C20.7562 22.5959 15.5693 22.7667 15.5693 22.9944C15.5693 23.2221 20.7562 23.4384 27.1452 23.4726Z" fill="url(#paint9_radial_11_40)"/>
<path id="Vector_11" d="M23.6324 25.9788C25.5505 27.6074 28.6707 27.6303 30.6023 26.013C32.5338 24.3957 32.5608 21.7647 30.6428 20.136C28.7247 18.5073 25.6045 18.4846 23.673 20.1019C21.7414 21.7192 21.7144 24.3501 23.6324 25.9788Z" fill="url(#paint10_radial_11_40)"/>
<path id="Vector_12" d="M25.6319 24.3045C26.4559 25.0106 27.793 25.0106 28.6305 24.3158C29.468 23.621 29.468 22.4935 28.644 21.7874C27.8201 21.0813 26.4829 21.0812 25.6454 21.776C24.808 22.4707 24.808 23.5983 25.6319 24.3045Z" fill="url(#paint11_radial_11_40)"/>
</g>
</g>
<g id="Group_5" style="mix-blend-mode:screen">
<g id="Group_6" style="mix-blend-mode:screen">
<path id="Vector_13" opacity="0.5" d="M26.6184 23.4386C32.6021 29.0421 37.681 33.4157 37.9646 33.1993C38.2483 32.9829 33.6422 28.2563 27.6585 22.6527C21.6747 17.0491 16.5959 12.6756 16.3122 12.892C16.0286 13.1084 20.6346 17.835 26.6184 23.4386Z" fill="url(#paint12_radial_11_40)"/>
<path id="Vector_14" opacity="0.5" d="M25.4296 24.3502C31.4134 29.9538 37.0324 33.9173 37.9779 33.1998C38.9234 32.4823 34.8442 27.3457 28.874 21.7421C22.8902 16.1385 17.2711 12.175 16.3256 12.8925C15.3801 13.61 19.4593 18.7466 25.4296 24.3502Z" fill="url(#paint13_radial_11_40)"/>
<path id="Vector_15" opacity="0.5" d="M25.5921 21.5941C32.2377 16.5486 38.3295 13.109 39.1805 13.9176C40.0315 14.7149 35.3445 19.4529 28.6853 24.4984C22.0397 29.5439 15.9478 32.9835 15.0968 32.1748C14.2459 31.3776 18.9329 26.6396 25.5921 21.5941Z" fill="url(#paint14_radial_11_40)"/>
<path id="Vector_16" opacity="0.5" d="M27.6185 23.4846C34.2642 18.4391 39.451 14.1566 39.1944 13.9175C38.9377 13.6783 33.3322 17.5621 26.6865 22.6076C20.0409 27.6531 14.854 31.9355 15.1107 32.1747C15.3673 32.4138 20.9729 28.5301 27.6185 23.4846Z" fill="url(#paint15_radial_11_40)"/>
<path id="Vector_17" d="M26.7811 28.849C30.5767 29.0198 33.832 26.5597 34.0346 23.3479C34.2372 20.1475 31.3196 17.4026 27.5105 17.2318C23.7149 17.0609 20.4596 19.5211 20.257 22.7329C20.0544 25.9333 22.972 28.6781 26.7811 28.849Z" fill="url(#paint16_radial_11_40)"/>
<path id="Vector_18" d="M26.9834 25.5469C28.6178 25.6152 30.009 24.5674 30.1036 23.1893C30.1846 21.8112 28.9419 20.6381 27.3075 20.5583C25.6732 20.49 24.2819 21.5378 24.1873 22.9159C24.1063 24.2941 25.349 25.4672 26.9834 25.5469Z" fill="url(#paint17_radial_11_40)"/>
</g>
<g id="Group_7" style="mix-blend-mode:screen">
<path id="Vector_19" opacity="0.5" d="M26.916 23.2228C29.4959 25.6374 31.6842 27.5166 31.8057 27.4255C31.9273 27.3344 29.9417 25.2957 27.3618 22.8812C24.7819 20.4666 22.5937 18.5874 22.4721 18.6785C22.3505 18.7696 24.3361 20.8083 26.916 23.2228Z" fill="url(#paint18_radial_11_40)"/>
<path id="Vector_20" opacity="0.5" d="M26.4031 23.61C28.983 26.0245 31.4008 27.733 31.806 27.4141C32.2112 27.1066 30.4552 24.897 27.8888 22.4824C25.3089 20.0679 22.8911 18.3595 22.4859 18.6784C22.0807 18.9859 23.8367 21.1954 26.4031 23.61Z" fill="url(#paint19_radial_11_40)"/>
<path id="Vector_21" opacity="0.5" d="M26.4839 22.4251C29.3474 20.2497 31.9678 18.769 32.3325 19.1221C32.6972 19.4638 30.6847 21.5025 27.8211 23.6779C24.9575 25.8532 22.3371 27.3339 21.9724 26.9808C21.6077 26.6391 23.6203 24.6004 26.4839 22.4251Z" fill="url(#paint20_radial_11_40)"/>
<path id="Vector_22" opacity="0.5" d="M27.3483 23.2344C30.2118 21.059 32.4406 19.2139 32.3325 19.1114C32.2245 19.0089 29.8066 20.6832 26.9431 22.8585C24.0795 25.0339 21.8508 26.879 21.9588 26.9815C22.0669 27.084 24.4847 25.4098 27.3483 23.2344Z" fill="url(#paint21_radial_11_40)"/>
<path id="Vector_23" d="M26.9832 25.5463C28.6176 25.6146 30.0224 24.5554 30.1034 23.1773C30.1844 21.7992 28.9282 20.6147 27.2938 20.5463C25.6594 20.478 24.2547 21.5372 24.1736 22.9154C24.0926 24.2935 25.3488 25.478 26.9832 25.5463Z" fill="url(#paint22_radial_11_40)"/>
<path id="Vector_24" d="M27.0782 24.1219C27.7806 24.156 28.3884 23.7006 28.4154 23.1086C28.4559 22.5166 27.9156 22.0043 27.2132 21.9815C26.5108 21.9474 25.903 22.4028 25.876 22.9948C25.849 23.5868 26.3758 24.0991 27.0782 24.1219Z" fill="url(#paint23_radial_11_40)"/>
</g>
</g>
</g>
<defs>
<radialGradient id="paint0_radial_11_40" cx="0" cy="0" r="1" gradientUnits="userSpaceOnUse" gradientTransform="translate(54.3181 -7.88199) rotate(-179.739) scale(18.1015 16.1357)">
<stop stop-color="#FFD883"/>
<stop offset="1" stop-color="#22225B" stop-opacity="0"/>
</radialGradient>
<radialGradient id="paint1_radial_11_40" cx="0" cy="0" r="1" gradientUnits="userSpaceOnUse" gradientTransform="translate(10.362 -7.67055) rotate(-179.739) scale(60.512 16.1357)">
<stop stop-color="#FFD883"/>
<stop offset="1" stop-color="#22225B" stop-opacity="0"/>
</radialGradient>
<radialGradient id="paint2_radial_11_40" cx="0" cy="0" r="1" gradientUnits="userSpaceOnUse" gradientTransform="translate(16.272 -6.395) rotate(-89.6324) scale(51.024 19.1362)">
<stop stop-color="#FFD883"/>
<stop offset="1" stop-color="#22225B" stop-opacity="0"/>
</radialGradient>
<radialGradient id="paint3_radial_11_40" cx="0" cy="0" r="1" gradientUnits="userSpaceOnUse" gradientTransform="translate(16.7766 73.529) rotate(90.3678) scale(15.2572 19.1362)">
<stop stop-color="#FFD883"/>
<stop offset="1" stop-color="#22225B" stop-opacity="0"/>
</radialGradient>
<radialGradient id="paint4_radial_11_40" cx="0" cy="0" r="1" gradientUnits="userSpaceOnUse" gradientTransform="translate(32.6579 33.5055) rotate(140.178) scale(10.5852 10.4135)">
<stop stop-color="#FFD883"/>
<stop offset="1" stop-color="#22225B" stop-opacity="0"/>
</radialGradient>
<radialGradient id="paint5_radial_11_40" cx="0" cy="0" r="1" gradientUnits="userSpaceOnUse" gradientTransform="translate(32.6577 33.506) rotate(140.178) scale(4.54911 4.4753)">
<stop stop-color="#FFD883"/>
<stop offset="1" stop-color="#22225B" stop-opacity="0"/>
</radialGradient>
<radialGradient id="paint6_radial_11_40" cx="0" cy="0" r="1" gradientUnits="userSpaceOnUse" gradientTransform="translate(54.3192 -7.88244) rotate(-179.739) scale(7.79565 6.94904)">
<stop stop-color="#FFD883"/>
<stop offset="1" stop-color="#22225B" stop-opacity="0"/>
</radialGradient>
<radialGradient id="paint7_radial_11_40" cx="0" cy="0" r="1" gradientUnits="userSpaceOnUse" gradientTransform="translate(10.362 -7.66987) rotate(-179.739) scale(26.0602 6.94904)">
<stop stop-color="#FFD883"/>
<stop offset="1" stop-color="#22225B" stop-opacity="0"/>
</radialGradient>
<radialGradient id="paint8_radial_11_40" cx="0" cy="0" r="1" gradientUnits="userSpaceOnUse" gradientTransform="translate(16.2721 -6.38346) rotate(-89.6322) scale(21.9653 8.2412)">
<stop stop-color="#FFD883"/>
<stop offset="1" stop-color="#22225B" stop-opacity="0"/>
</radialGradient>
<radialGradient id="paint9_radial_11_40" cx="0" cy="0" r="1" gradientUnits="userSpaceOnUse" gradientTransform="translate(16.7768 73.5296) rotate(90.3678) scale(6.57068 8.2412)">
<stop stop-color="#FFD883"/>
<stop offset="1" stop-color="#22225B" stop-opacity="0"/>
</radialGradient>
<radialGradient id="paint10_radial_11_40" cx="0" cy="0" r="1" gradientUnits="userSpaceOnUse" gradientTransform="translate(32.6568 33.5055) rotate(140.178) scale(4.555 4.48108)">
<stop stop-color="#FFD883"/>
<stop offset="1" stop-color="#22225B" stop-opacity="0"/>
</radialGradient>
<radialGradient id="paint11_radial_11_40" cx="0" cy="0" r="1" gradientUnits="userSpaceOnUse" gradientTransform="translate(32.6571 33.5054) rotate(140.177) scale(1.95717 1.92541)">
<stop stop-color="#FFD883"/>
<stop offset="1" stop-color="#22225B" stop-opacity="0"/>
</radialGradient>
<radialGradient id="paint12_radial_11_40" cx="0" cy="0" r="1" gradientUnits="userSpaceOnUse" gradientTransform="translate(19.3116 -15.3401) rotate(142.813) scale(10.1682 10.4097)">
<stop stop-color="#FFD883"/>
<stop offset="1" stop-color="#22225B" stop-opacity="0"/>
</radialGradient>
<radialGradient id="paint13_radial_11_40" cx="0" cy="0" r="1" gradientUnits="userSpaceOnUse" gradientTransform="translate(-10.0376 7.38462) rotate(142.813) scale(33.9908 10.4097)">
<stop stop-color="#FFD883"/>
<stop offset="1" stop-color="#22225B" stop-opacity="0"/>
</radialGradient>
<radialGradient id="paint14_radial_11_40" cx="0" cy="0" r="1" gradientUnits="userSpaceOnUse" gradientTransform="translate(-4.40761 5.17855) rotate(-136.859) scale(33.392 10.5964)">
<stop stop-color="#FFD883"/>
<stop offset="1" stop-color="#22225B" stop-opacity="0"/>
</radialGradient>
<radialGradient id="paint15_radial_11_40" cx="0" cy="0" r="1" gradientUnits="userSpaceOnUse" gradientTransform="translate(63.9482 68.0667) rotate(43.1409) scale(9.98905 10.5964)">
<stop stop-color="#FFD883"/>
<stop offset="1" stop-color="#22225B" stop-opacity="0"/>
</radialGradient>
<radialGradient id="paint16_radial_11_40" cx="0" cy="0" r="1" gradientUnits="userSpaceOnUse" gradientTransform="translate(39.3269 28.7995) rotate(93.5921) scale(5.80596 6.87785)">
<stop stop-color="#FFD883"/>
<stop offset="1" stop-color="#22225B" stop-opacity="0"/>
</radialGradient>
<radialGradient id="paint17_radial_11_40" cx="0" cy="0" r="1" gradientUnits="userSpaceOnUse" gradientTransform="translate(39.3265 28.8004) rotate(93.5921) scale(2.49592 2.95671)">
<stop stop-color="#FFD883"/>
<stop offset="1" stop-color="#22225B" stop-opacity="0"/>
</radialGradient>
<radialGradient id="paint18_radial_11_40" cx="0" cy="0" r="1" gradientUnits="userSpaceOnUse" gradientTransform="translate(19.3121 -15.3393) rotate(142.813) scale(4.37608 4.48003)">
<stop stop-color="#FFD883"/>
<stop offset="1" stop-color="#22225B" stop-opacity="0"/>
</radialGradient>
<radialGradient id="paint19_radial_11_40" cx="0" cy="0" r="1" gradientUnits="userSpaceOnUse" gradientTransform="translate(-10.0369 7.38477) rotate(142.813) scale(14.6286 4.48002)">
<stop stop-color="#FFD883"/>
<stop offset="1" stop-color="#22225B" stop-opacity="0"/>
</radialGradient>
<radialGradient id="paint20_radial_11_40" cx="0" cy="0" r="1" gradientUnits="userSpaceOnUse" gradientTransform="translate(-4.40725 5.17805) rotate(-136.859) scale(14.3708 4.56038)">
<stop stop-color="#FFD883"/>
<stop offset="1" stop-color="#22225B" stop-opacity="0"/>
</radialGradient>
<radialGradient id="paint21_radial_11_40" cx="0" cy="0" r="1" gradientUnits="userSpaceOnUse" gradientTransform="translate(63.948 68.0672) rotate(43.141) scale(4.29898 4.56038)">
<stop stop-color="#FFD883"/>
<stop offset="1" stop-color="#22225B" stop-opacity="0"/>
</radialGradient>
<radialGradient id="paint22_radial_11_40" cx="0" cy="0" r="1" gradientUnits="userSpaceOnUse" gradientTransform="translate(39.3264 28.7998) rotate(93.5921) scale(2.50128 2.96306)">
<stop stop-color="#FFD883"/>
<stop offset="1" stop-color="#22225B" stop-opacity="0"/>
</radialGradient>
<radialGradient id="paint23_radial_11_40" cx="0" cy="0" r="1" gradientUnits="userSpaceOnUse" gradientTransform="translate(39.3268 28.7972) rotate(93.5936) scale(1.07614 1.27532)">
<stop stop-color="#FFD883"/>
<stop offset="1" stop-color="#22225B" stop-opacity="0"/>
</radialGradient>
</defs>
</svg>
