<svg width="228" height="233" viewBox="0 0 228 233" fill="none" xmlns="http://www.w3.org/2000/svg">
<g id="Group">
<g id="Group_2" style="mix-blend-mode:multiply" opacity="0.8">
<path id="Vector" opacity="0.03" d="M154.19 38.0327H27.0434C13.5018 38.0327 2.52417 48.9896 2.52417 62.5056V202.433C2.52417 215.949 13.5018 226.906 27.0434 226.906H154.19C167.732 226.906 178.709 215.949 178.709 202.433V62.5056C178.709 48.9896 167.732 38.0327 154.19 38.0327Z" fill="#EFF1F1"/>
<path id="Vector_2" opacity="0.06" d="M156.122 36.9917H28.975C15.4334 36.9917 4.45581 47.9486 4.45581 61.4646V201.338C4.45581 214.854 15.4334 225.811 28.975 225.811H156.122C169.663 225.811 180.641 214.854 180.641 201.338V61.4646C180.641 47.9486 169.663 36.9917 156.122 36.9917Z" fill="#DFE3E3"/>
<path id="Vector_3" opacity="0.09" d="M158.05 35.9536H30.9027C17.3612 35.9536 6.38354 46.9105 6.38354 60.4265V200.25C6.38354 213.766 17.3612 224.723 30.9027 224.723H158.05C171.591 224.723 182.569 213.766 182.569 200.25V60.4265C182.569 46.9105 171.591 35.9536 158.05 35.9536Z" fill="#CFD4D5"/>
<path id="Vector_4" opacity="0.12" d="M159.981 34.9126H32.8344C19.2928 34.9126 8.31519 45.8695 8.31519 59.3855V199.154C8.31519 212.67 19.2928 223.627 32.8344 223.627H159.981C173.523 223.627 184.5 212.67 184.5 199.154V59.3855C184.5 45.8695 173.523 34.9126 159.981 34.9126Z" fill="#BFC6C7"/>
<path id="Vector_5" opacity="0.16" d="M161.909 33.8706H34.762C21.2204 33.8706 10.2429 44.8275 10.2429 58.3435V198.062C10.2429 211.578 21.2204 222.535 34.762 222.535H161.909C175.451 222.535 186.428 211.578 186.428 198.062V58.3435C186.428 44.8275 175.451 33.8706 161.909 33.8706Z" fill="#AFB8B9"/>
<path id="Vector_6" opacity="0.19" d="M163.842 32.8335H36.6947C23.1532 32.8335 12.1755 43.7904 12.1755 57.3064V196.971C12.1755 210.487 23.1532 221.443 36.6947 221.443H163.842C177.383 221.443 188.361 210.487 188.361 196.971V57.3064C188.361 43.7904 177.383 32.8335 163.842 32.8335Z" fill="#9FAAAB"/>
<path id="Vector_7" opacity="0.22" d="M165.768 31.792H38.6215C25.0799 31.792 14.1023 42.7489 14.1023 56.2649V195.879C14.1023 209.395 25.0799 220.352 38.6215 220.352H165.768C179.31 220.352 190.288 209.395 190.288 195.879V56.2649C190.288 42.7489 179.31 31.792 165.768 31.792Z" fill="#8F9C9D"/>
<path id="Vector_8" opacity="0.25" d="M167.701 30.7546H40.5539C27.0123 30.7546 16.0347 41.7115 16.0347 55.2275V194.787C16.0347 208.303 27.0123 219.26 40.5539 219.26H167.701C181.242 219.26 192.22 208.303 192.22 194.787V55.2275C192.22 41.7115 181.242 30.7546 167.701 30.7546Z" fill="#808E90"/>
<path id="Vector_9" opacity="0.28" d="M169.629 29.7131H42.4816C28.94 29.7131 17.9624 40.67 17.9624 54.186V193.691C17.9624 207.207 28.94 218.164 42.4816 218.164H169.629C183.17 218.164 194.148 207.207 194.148 193.691V54.186C194.148 40.67 183.17 29.7131 169.629 29.7131Z" fill="#707F82"/>
<path id="Vector_10" opacity="0.31" d="M171.557 28.6719H44.4096C30.868 28.6719 19.8904 39.6288 19.8904 53.1448V192.6C19.8904 206.116 30.868 217.073 44.4096 217.073H171.557C185.098 217.073 196.076 206.116 196.076 192.6V53.1448C196.076 39.6288 185.098 28.6719 171.557 28.6719Z" fill="#607174"/>
<path id="Vector_11" opacity="0.34" d="M173.488 27.6343H46.341C32.7994 27.6343 21.8218 38.5912 21.8218 52.1072V191.508C21.8218 205.024 32.7994 215.981 46.341 215.981H173.488C187.029 215.981 198.007 205.024 198.007 191.508V52.1072C198.007 38.5912 187.029 27.6343 173.488 27.6343Z" fill="#506366"/>
<path id="Vector_12" opacity="0.38" d="M175.416 26.5933H48.2687C34.7271 26.5933 23.7495 37.5502 23.7495 51.0662V190.417C23.7495 203.933 34.7271 214.89 48.2687 214.89H175.416C188.957 214.89 199.935 203.933 199.935 190.417V51.0662C199.935 37.5502 188.957 26.5933 175.416 26.5933Z" fill="#405558"/>
<path id="Vector_13" opacity="0.41" d="M177.348 25.5554H50.2006C36.659 25.5554 25.6814 36.5123 25.6814 50.0283V189.324C25.6814 202.84 36.659 213.797 50.2006 213.797H177.348C190.889 213.797 201.867 202.84 201.867 189.324V50.0283C201.867 36.5123 190.889 25.5554 177.348 25.5554Z" fill="#30474A"/>
<path id="Vector_14" opacity="0.44" d="M179.275 24.5144H52.1281C38.5865 24.5144 27.6089 35.4713 27.6089 48.9873V188.233C27.6089 201.749 38.5865 212.706 52.1281 212.706H179.275C192.817 212.706 203.794 201.749 203.794 188.233V48.9873C203.794 35.4713 192.817 24.5144 179.275 24.5144Z" fill="#20383C"/>
<path id="Vector_15" opacity="0.47" d="M181.207 23.4722H54.06C40.5184 23.4722 29.5408 34.4291 29.5408 47.9451V187.137C29.5408 200.653 40.5184 211.609 54.06 211.609H181.207C194.749 211.609 205.726 200.653 205.726 187.137V47.9451C205.726 34.4291 194.749 23.4722 181.207 23.4722Z" fill="#102A2E"/>
<path id="Vector_16" opacity="0.5" d="M183.135 22.4355H55.9877C42.4461 22.4355 31.4685 33.3924 31.4685 46.9085V186.05C31.4685 199.566 42.4461 210.523 55.9877 210.523H183.135C196.676 210.523 207.654 199.566 207.654 186.05V46.9085C207.654 33.3924 196.676 22.4355 183.135 22.4355Z" fill="#001C20"/>
</g>
<path id="Vector_17" d="M185.07 20.8081H55.6354C42.0938 20.8081 31.1162 31.765 31.1162 45.281V187.714C31.1162 201.23 42.0938 212.187 55.6354 212.187H185.07C198.612 212.187 209.59 201.23 209.59 187.714V45.281C209.59 31.765 198.612 20.8081 185.07 20.8081Z" fill="#CCCCCC"/>
<path id="Vector_18" d="M183.227 21.7581H55.5563C42.0147 21.7581 31.0371 32.7149 31.0371 46.231V186.769C31.0371 200.285 42.0147 211.242 55.5563 211.242H183.227C196.769 211.242 207.746 200.285 207.746 186.769V46.231C207.746 32.7149 196.769 21.7581 183.227 21.7581Z" fill="#F2F2F2"/>
<path id="Vector_19" d="M58.3726 3.54235C58.3726 3.11572 58.0248 2.76855 57.5974 2.76855H50.6368C50.2093 2.76855 49.8615 3.11572 49.8615 3.54235C49.8615 3.96899 50.2093 4.31615 50.6368 4.31615H57.5974C58.0248 4.31615 58.3726 3.96899 58.3726 3.54235ZM62.8481 228.68H55.8876C55.4602 228.68 55.1123 229.027 55.1123 229.454C55.1123 229.88 55.4602 230.227 55.8876 230.227H62.8481C63.2756 230.227 63.6234 229.88 63.6234 229.454C63.6234 229.027 63.2756 228.68 62.8481 228.68ZM48.9312 228.68H41.9706C41.5432 228.68 41.1953 229.027 41.1953 229.454C41.1953 229.88 41.5432 230.227 41.9706 230.227H48.9312C49.3586 230.227 49.7065 229.88 49.7065 229.454C49.7065 229.027 49.3586 228.68 48.9312 228.68ZM30.6141 4.37052C30.4842 3.9648 30.0483 3.73894 29.6376 3.8686C27.3496 4.59639 25.1915 5.66716 23.2219 7.05581C22.8699 7.30259 22.7902 7.78778 23.0374 8.13494C23.1883 8.34826 23.4272 8.46119 23.6702 8.46119C23.8253 8.46119 23.9804 8.41518 24.1187 8.31898C25.9583 7.02235 27.974 6.02269 30.1112 5.34091C30.5177 5.21124 30.744 4.77625 30.6141 4.36634V4.37052ZM118.516 228.68H111.555C111.128 228.68 110.78 229.027 110.78 229.454C110.78 229.88 111.128 230.227 111.555 230.227H118.516C118.944 230.227 119.291 229.88 119.291 229.454C119.291 229.027 118.944 228.68 118.516 228.68ZM44.4556 3.54235C44.4556 3.11572 44.1078 2.76855 43.6803 2.76855H36.7198C36.2924 2.76855 35.9445 3.11572 35.9445 3.54235C35.9445 3.96899 36.2924 4.31615 36.7198 4.31615H43.6803C44.1078 4.31615 44.4556 3.96899 44.4556 3.54235ZM72.2896 3.54235C72.2896 3.11572 71.9418 2.76855 71.5144 2.76855H64.5579C64.1305 2.76855 63.7826 3.11572 63.7826 3.54235C63.7826 3.96899 64.1305 4.31615 64.5579 4.31615H71.5144C71.9418 4.31615 72.2896 3.96899 72.2896 3.54235ZM104.599 228.68H97.6385C97.2111 228.68 96.8633 229.027 96.8633 229.454C96.8633 229.88 97.2111 230.227 97.6385 230.227H104.599C105.027 230.227 105.374 229.88 105.374 229.454C105.374 229.027 105.027 228.68 104.599 228.68ZM114.041 3.54235C114.041 3.11572 113.693 2.76855 113.265 2.76855H106.305C105.877 2.76855 105.529 3.11572 105.529 3.54235C105.529 3.96899 105.877 4.31615 106.305 4.31615H113.265C113.693 4.31615 114.041 3.96899 114.041 3.54235ZM18.3524 218.696C18.1177 218.336 17.64 218.236 17.2796 218.466C16.9192 218.7 16.8187 219.181 17.0534 219.536C18.3608 221.548 19.9658 223.343 21.8222 224.873C21.9647 224.995 22.1407 225.049 22.3167 225.049C22.5388 225.049 22.761 224.953 22.916 224.769C23.1884 224.438 23.1423 223.949 22.8112 223.677C21.0763 222.247 19.576 220.569 18.3566 218.691L18.3524 218.696ZM100.124 3.54235C100.124 3.11572 99.7757 2.76855 99.3483 2.76855H92.3919C91.9644 2.76855 91.6167 3.11572 91.6167 3.54235C91.6167 3.96899 91.9644 4.31615 92.3919 4.31615H99.3483C99.7757 4.31615 100.124 3.96899 100.124 3.54235ZM90.6822 228.68H83.7257C83.2983 228.68 82.9505 229.027 82.9505 229.454C82.9505 229.88 83.2983 230.227 83.7257 230.227H90.6822C91.1096 230.227 91.4574 229.88 91.4574 229.454C91.4574 229.027 91.1096 228.68 90.6822 228.68ZM76.7652 228.68H69.8088C69.3813 228.68 69.0335 229.027 69.0335 229.454C69.0335 229.88 69.3813 230.227 69.8088 230.227H76.7652C77.1926 230.227 77.5404 229.88 77.5404 229.454C77.5404 229.027 77.1926 228.68 76.7652 228.68ZM86.2065 3.54235C86.2065 3.11572 85.8588 2.76855 85.4313 2.76855H78.4749C78.0475 2.76855 77.6997 3.11572 77.6997 3.54235C77.6997 3.96899 78.0475 4.31615 78.4749 4.31615H85.4313C85.8588 4.31615 86.2065 3.96899 86.2065 3.54235ZM35.077 228.617C32.8309 228.445 30.6393 227.935 28.5607 227.099C28.1626 226.94 27.71 227.132 27.5507 227.525C27.3915 227.923 27.5843 228.374 27.9782 228.533C30.2034 229.433 32.5544 229.976 34.9598 230.16C34.9807 230.16 35.0016 230.16 35.0184 230.16C35.4207 230.16 35.7602 229.851 35.7895 229.445C35.823 229.019 35.5004 228.646 35.0729 228.613L35.077 228.617ZM14.0528 88.6433C14.4803 88.6433 14.8281 88.2962 14.8281 87.8695V80.9221C14.8281 80.4954 14.4803 80.1483 14.0528 80.1483C13.6254 80.1483 13.2776 80.4954 13.2776 80.9221V87.8695C13.2776 88.2962 13.6254 88.6433 14.0528 88.6433ZM14.0528 102.534C14.4803 102.534 14.8281 102.187 14.8281 101.76V94.817C14.8281 94.3903 14.4803 94.0432 14.0528 94.0432C13.6254 94.0432 13.2776 94.3903 13.2776 94.817V101.76C13.2776 102.187 13.6254 102.534 14.0528 102.534ZM14.0528 74.7526C14.4803 74.7526 14.8281 74.4054 14.8281 73.9788V67.0314C14.8281 66.6047 14.4803 66.2576 14.0528 66.2576C13.6254 66.2576 13.2776 66.6047 13.2776 67.0314V73.9788C13.2776 74.4054 13.6254 74.7526 14.0528 74.7526ZM14.0528 33.0805C14.4803 33.0805 14.8281 32.7333 14.8281 32.3067V26.2167C14.8281 25.9406 14.8323 25.6646 14.8449 25.3927C14.8617 24.9661 14.5264 24.6064 14.099 24.5896C13.6757 24.5729 13.3111 24.9075 13.2943 25.3342C13.2817 25.6269 13.2776 25.9197 13.2776 26.2167V32.3067C13.2776 32.7333 13.6254 33.0805 14.0528 33.0805ZM14.0528 60.8619C14.4803 60.8619 14.8281 60.5147 14.8281 60.0881V53.1449C14.8281 52.7182 14.4803 52.3711 14.0528 52.3711C13.6254 52.3711 13.2776 52.7182 13.2776 53.1449V60.0881C13.2776 60.5147 13.6254 60.8619 14.0528 60.8619ZM14.0528 116.425C14.4803 116.425 14.8281 116.078 14.8281 115.651V108.703C14.8281 108.277 14.4803 107.93 14.0528 107.93C13.6254 107.93 13.2776 108.277 13.2776 108.703V115.651C13.2776 116.078 13.6254 116.425 14.0528 116.425ZM14.0528 46.9712C14.4803 46.9712 14.8281 46.624 14.8281 46.1974V39.25C14.8281 38.8233 14.4803 38.4762 14.0528 38.4762C13.6254 38.4762 13.2776 38.8233 13.2776 39.25V46.1974C13.2776 46.624 13.6254 46.9712 14.0528 46.9712ZM14.0528 158.097C14.4803 158.097 14.8281 157.75 14.8281 157.323V150.376C14.8281 149.949 14.4803 149.602 14.0528 149.602C13.6254 149.602 13.2776 149.949 13.2776 150.376V157.323C13.2776 157.75 13.6254 158.097 14.0528 158.097ZM14.0528 199.769C14.4803 199.769 14.8281 199.422 14.8281 198.995V192.048C14.8281 191.621 14.4803 191.274 14.0528 191.274C13.6254 191.274 13.2776 191.621 13.2776 192.048V198.995C13.2776 199.422 13.6254 199.769 14.0528 199.769ZM14.0528 185.878C14.4803 185.878 14.8281 185.531 14.8281 185.104V178.157C14.8281 177.73 14.4803 177.383 14.0528 177.383C13.6254 177.383 13.2776 177.73 13.2776 178.157V185.104C13.2776 185.531 13.6254 185.878 14.0528 185.878ZM14.8281 206.788V205.938C14.8281 205.512 14.4803 205.165 14.0528 205.165C13.6254 205.165 13.2776 205.512 13.2776 205.938V206.788C13.2776 208.9 13.5584 210.995 14.1158 213.016C14.2121 213.359 14.5222 213.584 14.8658 213.584C14.9328 213.584 15.0041 213.576 15.0711 213.555C15.486 213.442 15.7291 213.016 15.6159 212.601C15.0963 210.715 14.8323 208.758 14.8323 206.783L14.8281 206.788ZM19.1528 11.8743C18.8133 11.6149 18.3231 11.6819 18.0633 12.0207C16.6007 13.9363 15.4526 16.0486 14.6396 18.3072C14.4929 18.7088 14.7066 19.1521 15.1089 19.2985C15.1969 19.3278 15.2849 19.3445 15.3687 19.3445C15.6872 19.3445 15.9848 19.148 16.0979 18.8301C16.8522 16.722 17.9291 14.7478 19.2911 12.9618C19.5509 12.623 19.4839 12.1336 19.1445 11.8743H19.1528ZM14.0486 171.988C14.4761 171.988 14.8239 171.64 14.8239 171.214V164.271C14.8239 163.844 14.4761 163.497 14.0486 163.497C13.6212 163.497 13.2734 163.844 13.2734 164.271V171.214C13.2734 171.64 13.6212 171.988 14.0486 171.988ZM14.0486 144.206C14.4761 144.206 14.8239 143.859 14.8239 143.432V136.485C14.8239 136.058 14.4761 135.711 14.0486 135.711C13.6212 135.711 13.2734 136.058 13.2734 136.485V143.432C13.2734 143.859 13.6212 144.206 14.0486 144.206ZM14.0486 130.315C14.4761 130.315 14.8239 129.968 14.8239 129.542V122.594C14.8239 122.168 14.4761 121.82 14.0486 121.82C13.6212 121.82 13.2734 122.168 13.2734 122.594V129.542C13.2734 129.968 13.6212 130.315 14.0486 130.315ZM224.727 144.315C224.299 144.315 223.952 144.662 223.952 145.089V152.032C223.952 152.459 224.299 152.806 224.727 152.806C225.154 152.806 225.502 152.459 225.502 152.032V145.089C225.502 144.662 225.154 144.315 224.727 144.315ZM127.958 3.54235C127.958 3.11572 127.61 2.76855 127.182 2.76855H120.226C119.798 2.76855 119.451 3.11572 119.451 3.54235C119.451 3.96899 119.798 4.31615 120.226 4.31615H127.182C127.61 4.31615 127.958 3.96899 127.958 3.54235ZM224.731 158.201C224.304 158.201 223.956 158.549 223.956 158.975V165.918C223.956 166.345 224.304 166.692 224.731 166.692C225.158 166.692 225.506 166.345 225.506 165.918V158.975C225.506 158.549 225.158 158.201 224.731 158.201ZM224.731 172.092C224.304 172.092 223.956 172.439 223.956 172.866V179.813C223.956 180.24 224.304 180.587 224.731 180.587C225.158 180.587 225.506 180.24 225.506 179.813V172.866C225.506 172.439 225.158 172.092 224.731 172.092ZM224.731 199.874C224.304 199.874 223.956 200.221 223.956 200.647V206.783C223.956 207.047 223.952 207.306 223.943 207.566C223.926 207.992 224.262 208.352 224.693 208.369C224.702 208.369 224.71 208.369 224.723 208.369C225.137 208.369 225.485 208.038 225.498 207.62C225.506 207.344 225.515 207.064 225.515 206.783V200.647C225.515 200.221 225.167 199.874 224.739 199.874H224.731ZM224.731 185.983C224.304 185.983 223.956 186.33 223.956 186.757V193.7C223.956 194.127 224.304 194.474 224.731 194.474C225.158 194.474 225.506 194.127 225.506 193.7V186.757C225.506 186.33 225.158 185.983 224.731 185.983ZM224.731 116.529C224.304 116.529 223.956 116.876 223.956 117.303V124.246C223.956 124.673 224.304 125.02 224.731 125.02C225.158 125.02 225.506 124.673 225.506 124.246V117.303C225.506 116.876 225.158 116.529 224.731 116.529ZM224.731 102.639C224.304 102.639 223.956 102.986 223.956 103.412V110.36C223.956 110.786 224.304 111.134 224.731 111.134C225.158 111.134 225.506 110.786 225.506 110.36V103.412C225.506 102.986 225.158 102.639 224.731 102.639ZM224.731 47.0758C224.304 47.0758 223.956 47.4229 223.956 47.8496V54.797C223.956 55.2236 224.304 55.5708 224.731 55.5708C225.158 55.5708 225.506 55.2236 225.506 54.797V47.8496C225.506 47.4229 225.158 47.0758 224.731 47.0758ZM224.731 33.1851C224.304 33.1851 223.956 33.5322 223.956 33.9589V40.9021C223.956 41.3288 224.304 41.6759 224.731 41.6759C225.158 41.6759 225.506 41.3288 225.506 40.9021V33.9589C225.506 33.5322 225.158 33.1851 224.731 33.1851ZM224.656 19.9385C224.542 19.5244 224.115 19.2818 223.7 19.3989C223.285 19.5119 223.046 19.9385 223.16 20.3526C223.688 22.2515 223.952 24.2216 223.952 26.2083V27.0156C223.952 27.4422 224.299 27.7894 224.727 27.7894C225.154 27.7894 225.502 27.4422 225.502 27.0156V26.2083C225.502 24.0793 225.217 21.9713 224.651 19.9385H224.656ZM224.731 88.7479C224.304 88.7479 223.956 89.0951 223.956 89.5217V96.4691C223.956 96.8958 224.304 97.2429 224.731 97.2429C225.158 97.2429 225.506 96.8958 225.506 96.4691V89.5217C225.506 89.0951 225.158 88.7479 224.731 88.7479ZM223.683 213.656C223.281 213.509 222.837 213.722 222.69 214.124C221.94 216.232 220.867 218.21 219.505 220.001C219.245 220.344 219.313 220.829 219.656 221.088C219.799 221.193 219.962 221.247 220.126 221.247C220.36 221.247 220.591 221.143 220.746 220.942C222.204 219.026 223.348 216.91 224.157 214.651C224.299 214.249 224.09 213.806 223.688 213.66L223.683 213.656ZM224.731 74.8572C224.304 74.8572 223.956 75.2043 223.956 75.631V82.5742C223.956 83.0009 224.304 83.348 224.731 83.348C225.158 83.348 225.506 83.0009 225.506 82.5742V75.631C225.506 75.2043 225.158 74.8572 224.731 74.8572ZM224.731 60.9665C224.304 60.9665 223.956 61.3136 223.956 61.7403V68.6877C223.956 69.1144 224.304 69.4615 224.731 69.4615C225.158 69.4615 225.506 69.1144 225.506 68.6877V61.7403C225.506 61.3136 225.158 60.9665 224.731 60.9665ZM224.731 130.42C224.304 130.42 223.956 130.767 223.956 131.194V138.141C223.956 138.568 224.304 138.915 224.731 138.915C225.158 138.915 225.506 138.568 225.506 138.141V131.194C225.506 130.767 225.158 130.42 224.731 130.42ZM221.056 14.6181C221.202 14.6181 221.349 14.5763 221.479 14.4926C221.839 14.2584 221.94 13.7774 221.705 13.4219C220.394 11.4142 218.785 9.6198 216.924 8.09312C216.593 7.82124 216.103 7.86725 215.83 8.19768C215.558 8.52812 215.604 9.01749 215.935 9.28937C217.67 10.7157 219.174 12.3887 220.402 14.2668C220.553 14.4926 220.8 14.6181 221.052 14.6181H221.056ZM155.791 3.54235C155.791 3.11572 155.444 2.76855 155.016 2.76855H148.06C147.632 2.76855 147.285 3.11572 147.285 3.54235C147.285 3.96899 147.632 4.31615 148.06 4.31615H155.016C155.444 4.31615 155.791 3.96899 155.791 3.54235ZM169.708 3.54235C169.708 3.11572 169.361 2.76855 168.933 2.76855H161.973C161.545 2.76855 161.197 3.11572 161.197 3.54235C161.197 3.96899 161.545 4.31615 161.973 4.31615H168.933C169.361 4.31615 169.708 3.96899 169.708 3.54235ZM160.267 228.68H153.306C152.879 228.68 152.531 229.027 152.531 229.454C152.531 229.88 152.879 230.227 153.306 230.227H160.267C160.695 230.227 161.042 229.88 161.042 229.454C161.042 229.027 160.695 228.68 160.267 228.68ZM132.433 228.68H125.477C125.049 228.68 124.701 229.027 124.701 229.454C124.701 229.88 125.049 230.227 125.477 230.227H132.433C132.86 230.227 133.208 229.88 133.208 229.454C133.208 229.027 132.86 228.68 132.433 228.68ZM146.35 228.68H139.394C138.966 228.68 138.618 229.027 138.618 229.454C138.618 229.88 138.966 230.227 139.394 230.227H146.35C146.777 230.227 147.125 229.88 147.125 229.454C147.125 229.027 146.777 228.68 146.35 228.68ZM141.874 3.54235C141.874 3.11572 141.527 2.76855 141.099 2.76855H134.143C133.715 2.76855 133.368 3.11572 133.368 3.54235C133.368 3.96899 133.715 4.31615 134.143 4.31615H141.099C141.527 4.31615 141.874 3.96899 141.874 3.54235ZM174.184 228.68H167.223C166.796 228.68 166.448 229.027 166.448 229.454C166.448 229.88 166.796 230.227 167.223 230.227H174.184C174.611 230.227 174.959 229.88 174.959 229.454C174.959 229.027 174.611 228.68 174.184 228.68ZM210.475 5.93903C210.78 5.93903 211.074 5.75499 211.195 5.45384C211.355 5.05648 211.162 4.60475 210.764 4.44581C208.534 3.5549 206.188 3.01115 203.782 2.8313C203.355 2.80202 202.982 3.1199 202.952 3.54653C202.919 3.97317 203.242 4.34543 203.669 4.37471C205.915 4.54201 208.107 5.04812 210.19 5.88047C210.286 5.91812 210.382 5.93485 210.479 5.93485L210.475 5.93903ZM202.106 228.68H195.062C194.634 228.68 194.286 229.027 194.286 229.454C194.286 229.88 194.634 230.227 195.062 230.227H202.106C202.533 230.227 202.881 229.88 202.881 229.454C202.881 229.027 202.533 228.68 202.106 228.68ZM183.625 3.54235C183.625 3.11572 183.278 2.76855 182.85 2.76855H175.894C175.466 2.76855 175.119 3.11572 175.119 3.54235C175.119 3.96899 175.466 4.31615 175.894 4.31615H182.85C183.278 4.31615 183.625 3.96899 183.625 3.54235ZM214.699 224.656C212.863 225.957 210.848 226.961 208.715 227.642C208.308 227.772 208.082 228.207 208.212 228.617C208.316 228.947 208.622 229.157 208.949 229.157C209.029 229.157 209.108 229.144 209.188 229.119C211.476 228.387 213.634 227.312 215.6 225.919C215.947 225.672 216.031 225.187 215.784 224.84C215.537 224.493 215.051 224.409 214.703 224.656H214.699ZM197.542 3.54235C197.542 3.11572 197.195 2.76855 196.767 2.76855H189.811C189.383 2.76855 189.035 3.11572 189.035 3.54235C189.035 3.96899 189.383 4.31615 189.811 4.31615H196.767C197.195 4.31615 197.542 3.96899 197.542 3.54235ZM188.101 228.68H181.145C180.717 228.68 180.369 229.027 180.369 229.454C180.369 229.88 180.717 230.227 181.145 230.227H188.101C188.528 230.227 188.876 229.88 188.876 229.454C188.876 229.027 188.528 228.68 188.101 228.68Z" fill="#4D4D4D"/>
<g id="Group_3">
<path id="Vector_20" d="M202.018 232.557H168.883V226.358H202.018C212.83 226.358 221.626 217.579 221.626 206.787V26.2124C221.626 15.4211 212.83 6.64161 202.018 6.64161H169.013V0.442871H202.018C216.253 0.442871 227.836 12.0038 227.836 26.2124V206.787C227.836 220.996 216.253 232.557 202.018 232.557Z" fill="#FBB03B"/>
</g>
</g>
</svg>
