<svg width="48" height="48" viewBox="0 0 48 48" fill="none" xmlns="http://www.w3.org/2000/svg">
<g id="Isolation_Mode" clip-path="url(#clip0_1_1273)">
<path id="Vector" d="M27.1489 0C28.4656 1.28268 29.7953 2.55663 31.0991 3.85457C33.0958 5.84403 35.0731 7.85094 37.0633 9.84694C37.2344 10.0193 37.3167 10.2047 37.3167 10.449C37.3124 12.8115 37.3167 15.1718 37.3124 17.5343C37.3124 17.6782 37.3037 17.8244 37.2842 17.9662C37.2409 18.289 37.007 18.505 36.6887 18.529C36.3595 18.5552 36.065 18.3719 35.9848 18.0622C35.9415 17.8986 35.9307 17.7219 35.9307 17.5517C35.9264 15.4968 35.922 13.4441 35.9307 11.3892C35.9307 11.1362 35.8657 11.0729 35.6145 11.0751C32.771 11.086 29.9296 11.0838 27.0861 11.0794C26.523 11.0794 26.2415 10.774 26.2415 10.1894C26.2415 7.39284 26.2371 4.59626 26.2458 1.80185C26.2458 1.5379 26.196 1.45283 25.908 1.45283C18.3801 1.46155 10.8544 1.45937 3.32648 1.45501C2.92366 1.45501 2.53817 1.49209 2.18733 1.72332C1.72604 2.02654 1.45533 2.44537 1.42068 2.99509C1.39686 3.40084 1.40119 3.80876 1.40119 4.21451C1.40119 17.6782 1.40119 31.1442 1.40119 44.6079C1.40119 44.9809 1.40552 45.3518 1.59177 45.6899C1.88847 46.2221 2.28912 46.6104 2.93016 46.665C3.1359 46.6824 3.3438 46.7021 3.54954 46.7021C13.1976 46.7021 22.8457 46.7042 32.4938 46.7021C32.8663 46.7021 33.1413 46.8155 33.3102 47.158C33.49 47.5179 33.2431 48.0065 32.7796 48.0044C22.7266 47.9869 12.6714 47.9913 2.6183 47.9913C1.92095 47.9913 1.36437 47.6684 0.909583 47.1798C0.350839 46.5799 0.0216567 45.8666 0.0194911 45.0289C0.0108284 40.6181 0 36.2116 0 31.8051C0 22.5406 0 13.2761 0.00433135 4.01382C0.00433135 3.53608 -0.00216567 3.04963 0.0801299 2.5828C0.285869 1.41356 0.994044 0.641338 2.09637 0.242138C2.34326 0.1527 2.62696 0.165788 2.92149 0.128704C2.82837 0.0807126 2.75041 0.041447 2.67028 0C10.8305 0 18.9886 0 27.1489 0ZM34.798 9.68769C32.4353 7.30122 30.079 4.92347 27.7076 2.52827C27.7033 2.62861 27.6925 2.7246 27.6946 2.8184C27.699 3.16088 27.712 3.50554 27.712 3.84803C27.712 5.69351 27.7163 7.53899 27.7055 9.38229C27.7055 9.6397 27.7834 9.69424 28.0303 9.69424C30.2133 9.68987 32.3963 9.6986 34.5772 9.70296C34.6638 9.70296 34.7482 9.68987 34.8002 9.68769H34.798Z" fill="#FF0099"/>
<path id="Vector_2" d="M47.9872 30.1625C47.9872 31.6546 47.9547 33.1489 47.9937 34.641C48.0651 37.3285 47.201 39.6757 45.5486 41.7633C44.8101 42.697 43.9785 43.5412 43.0494 44.2742C41.7024 45.3343 40.3228 46.3531 38.9368 47.3609C38.1377 47.9411 37.2996 47.8648 36.4831 47.3543C34.7484 46.268 33.1674 44.9788 31.6406 43.6241C30.534 42.6403 29.5919 41.5103 28.8404 40.2298C27.8984 38.6286 27.4479 36.8901 27.4457 35.0337C27.4436 31.8859 27.4501 28.7359 27.4414 25.5881C27.4414 24.9075 27.5172 24.2683 28.1388 23.8713C28.3705 23.723 28.6802 23.5921 28.9379 23.6161C30.0944 23.7252 31.1988 23.4939 32.2947 23.1907C33.7587 22.7828 35.0429 22.0215 36.2405 21.1053C36.8448 20.6428 37.5031 20.3461 38.2741 20.5425C38.5621 20.6145 38.8523 20.7563 39.0927 20.9329C39.9525 21.5656 40.8274 22.1655 41.7847 22.6432C43.175 23.3369 44.6455 23.6619 46.1918 23.6881C46.4625 23.6924 46.7332 23.6968 47.0018 23.7339C47.7186 23.8321 48.0023 24.1745 48.0023 24.8988C48.0023 26.6548 48.0023 28.4087 48.0023 30.1647C47.998 30.1647 47.9958 30.1647 47.9915 30.1647L47.9872 30.1625ZM46.5881 25.1889C46.0705 25.1322 45.5876 25.0777 45.1025 25.0275C43.606 24.8748 42.1788 24.4647 40.8664 23.7339C39.9785 23.2409 39.1382 22.6563 38.2979 22.0826C37.9687 21.8579 37.6785 21.8252 37.3559 22.0455C37.1999 22.1524 37.0462 22.2658 36.8946 22.3771C35.6818 23.2758 34.3716 23.9804 32.9314 24.4407C31.7554 24.8159 30.5427 24.9729 29.3255 25.1104C29.0613 25.1409 29.0288 25.2434 29.031 25.4659C29.0375 28.461 29.0353 31.4561 29.0332 34.4512C29.0332 34.6039 29.0159 34.7566 29.0029 34.9115C28.9682 35.3587 28.8621 35.8146 28.9076 36.2531C29.0916 37.9655 29.8236 39.451 30.9043 40.773C31.8226 41.8964 32.8686 42.8955 34.0142 43.7812C35.0408 44.5774 36.0933 45.3409 37.1436 46.1066C37.5681 46.4163 37.8908 46.4032 38.3088 46.0978C39.2573 45.4063 40.2167 44.7323 41.1436 44.0124C42.4885 42.9697 43.7576 41.8397 44.7885 40.4741C45.9774 38.897 46.599 37.1235 46.5946 35.1318C46.5881 31.875 46.5946 28.6181 46.5968 25.3612C46.5968 25.3089 46.5925 25.2565 46.5881 25.1933V25.1889Z" fill="#FF0099"/>
<path id="Vector_3" d="M16.1752 31.9164C13.4854 31.9164 10.7957 31.9229 8.1059 31.9055C7.86335 31.9055 7.59913 31.7942 7.38906 31.6633C7.12918 31.4997 7.0967 31.1769 7.20065 30.9304C7.28078 30.7406 7.49735 30.5813 7.69009 30.4788C7.83736 30.4003 8.0431 30.4177 8.22068 30.4177C13.5721 30.4155 18.9256 30.4155 24.277 30.4177C24.97 30.4177 25.3447 30.8671 25.1368 31.4408C25.0371 31.7157 24.7015 31.9142 24.3225 31.9142C22.9516 31.9142 21.5786 31.9142 20.2077 31.9142C18.8628 31.9142 17.5179 31.9142 16.173 31.9142L16.1752 31.9164Z" fill="#FF0099"/>
<path id="Vector_4" d="M16.2335 23.2518C18.8323 23.2518 21.4289 23.2518 24.0277 23.2518C24.2161 23.2518 24.4067 23.2583 24.593 23.291C24.9763 23.3608 25.1972 23.6248 25.1972 23.976C25.1972 24.3621 24.9936 24.6152 24.5995 24.6981C24.4587 24.7264 24.3136 24.7395 24.1707 24.7395C18.9211 24.7395 13.6715 24.7395 8.42188 24.7351C8.19665 24.7351 7.96925 24.7286 7.74836 24.6893C7.36503 24.6195 7.16146 24.3316 7.17229 23.9236C7.18095 23.5921 7.41917 23.339 7.79383 23.2954C8.04289 23.2649 8.29627 23.254 8.54965 23.254C11.1116 23.2518 13.6736 23.254 16.2356 23.254L16.2335 23.2518Z" fill="#FF0099"/>
<path id="Vector_5" d="M11.4958 16.9388C10.3328 16.9388 9.1677 16.9388 8.00474 16.9388C7.4265 16.9388 7.16662 16.6705 7.17095 16.0924C7.18611 14.0462 8.74107 12.264 10.7941 11.9499C11.9852 11.7666 13.1136 11.976 14.0751 12.7068C15.1796 13.5467 15.7882 14.6875 15.8315 16.0989C15.8488 16.6486 15.5586 16.9388 15.0129 16.9388C13.8412 16.9388 12.6674 16.9388 11.4958 16.9388ZM14.3502 15.5361C14.3068 15.3638 14.2895 15.2133 14.2354 15.0802C13.7784 13.9633 12.6783 13.2369 11.498 13.2653C10.1812 13.298 9.14388 14.0244 8.71508 15.2133C8.60896 15.5056 8.63278 15.5383 8.9468 15.5383C10.5602 15.5383 12.1758 15.5383 13.7893 15.5383C13.9582 15.5383 14.1271 15.5383 14.3502 15.5383V15.5361Z" fill="#FF0099"/>
<path id="Vector_6" d="M16.1909 38.8817C13.5012 38.8817 10.8136 38.8838 8.12379 38.8773C7.92239 38.8773 7.70582 38.8468 7.5239 38.7682C7.24236 38.6483 7.12542 38.3538 7.17523 38.044C7.22071 37.7604 7.43511 37.5554 7.74263 37.5117C7.86608 37.4943 7.99385 37.4877 8.11946 37.4877C13.4882 37.4877 18.8569 37.4877 24.2256 37.4877C24.505 37.4877 24.7887 37.4834 25.0009 37.7233C25.1936 37.9415 25.2456 38.1858 25.1352 38.4519C25.029 38.705 24.8298 38.8577 24.5548 38.8708C24.2299 38.886 23.9051 38.8773 23.5802 38.8773C21.1178 38.8773 18.6533 38.8773 16.1909 38.8773V38.8817Z" fill="#FF0099"/>
<path id="Vector_7" d="M11.4587 10.9202C10.1745 10.8962 9.17825 9.8426 9.21073 8.53811C9.23889 7.33178 10.2957 6.3087 11.4999 6.31961C12.8036 6.33269 13.828 7.34924 13.8171 8.61446C13.8063 9.87314 12.7126 10.942 11.4609 10.918L11.4587 10.9202ZM12.3769 8.63628C12.3769 8.1171 12.0174 7.76371 11.4847 7.75934C10.9844 7.75498 10.6184 8.0931 10.6163 8.56429C10.6119 9.08347 11.0342 9.55247 11.4999 9.55029C11.9936 9.54593 12.3769 9.14891 12.3769 8.63628Z" fill="#FF0099"/>
<path id="Vector_8" d="M36.6628 35.9084C36.7841 35.7906 36.8988 35.6793 37.0114 35.5703C38.7483 33.8971 40.4852 32.224 42.2221 30.5508C42.3 30.4766 42.378 30.4003 42.4625 30.3327C42.7765 30.084 43.1425 30.1102 43.4067 30.3959C43.6579 30.6686 43.6752 31.0504 43.4067 31.3252C42.8631 31.8793 42.3022 32.4181 41.7434 32.9569C40.3206 34.3312 38.9043 35.7099 37.4706 37.0733C36.7342 37.7735 36.509 37.7473 35.7943 37.0231C35.0147 36.2334 34.2221 35.4525 33.4359 34.6693C33.3774 34.6126 33.319 34.5559 33.2648 34.4948C32.9335 34.1218 32.9162 33.7619 33.215 33.463C33.5312 33.1467 33.8885 33.1576 34.2567 33.5175C34.8436 34.0913 35.424 34.6759 36.0066 35.2561C36.2166 35.4655 36.4289 35.6728 36.6628 35.9062V35.9084Z" fill="#FF0099"/>
</g>
<defs>
<clipPath id="clip0_1_1273">
<rect width="48" height="48" fill="white"/>
</clipPath>
</defs>
</svg>
