<svg width="50" height="48" viewBox="0 0 50 48" fill="none" xmlns="http://www.w3.org/2000/svg">
<g id="Isolation_Mode" clip-path="url(#clip0_1_1262)">
<path id="Vector" d="M48.5669 33.7294C48.5669 33.5756 48.5669 33.4546 48.5669 33.3337C48.5669 26.0713 48.5634 18.809 48.5704 11.5485C48.5704 10.8399 48.2507 10.3196 47.7001 9.93251C47.3718 9.70092 46.9705 9.64388 46.5658 9.64388C44.8548 9.64734 43.1437 9.64388 41.4345 9.64734C41.2052 9.64734 40.9898 9.63006 40.8247 9.43994C40.6337 9.22045 40.5677 8.98195 40.6684 8.70369C40.7657 8.43753 40.9377 8.26643 41.233 8.24396C41.3546 8.23532 41.4779 8.22322 41.5995 8.22322C43.2375 8.22322 44.8773 8.23705 46.5154 8.21804C47.6723 8.20421 48.6121 8.61555 49.3225 9.52118C49.729 10.0379 49.9444 10.6377 49.9791 11.2875C50.0087 11.8181 49.993 12.3504 49.993 12.881C49.993 21.4654 49.9878 30.0482 49.9982 38.6326C49.9982 40.2313 48.8691 41.5482 47.4465 41.8455C47.0904 41.9198 46.7152 41.9267 46.3487 41.9267C32.3461 41.9302 18.3418 41.9302 4.3392 41.9267C3.80591 41.9267 3.26221 41.9579 2.74109 41.8697C1.54598 41.6692 0.700022 41.0004 0.239697 39.8614C0.0468817 39.3827 0.00345475 38.8936 0.00345475 38.3855C0.00345475 31.239 0.00171768 24.0907 -1.93982e-05 16.9442C-1.93982e-05 15.1191 -0.00523063 13.2958 0.00866598 11.4707C0.0208255 9.94979 0.918894 8.90072 2.23039 8.38741C2.60038 8.24223 3.03813 8.23014 3.4446 8.22668C5.15562 8.2094 6.86664 8.2215 8.57592 8.21804C8.90771 8.21804 9.17174 8.32174 9.31071 8.63974C9.44273 8.94047 9.37672 9.24983 9.10052 9.49698C9.00846 9.57821 8.85907 9.63179 8.73574 9.63524C8.23025 9.6508 7.72476 9.64216 7.22101 9.64216C5.92862 9.64216 4.63624 9.64216 3.34559 9.64216C2.46837 9.64216 1.8986 10.1053 1.55293 10.8641C1.46086 11.0645 1.43133 11.31 1.43133 11.5346C1.42786 15.5858 1.43481 19.6369 1.43481 23.688C1.43481 26.9701 1.43133 30.2538 1.42265 33.5359C1.42265 33.707 1.48692 33.7363 1.63804 33.7363C2.55522 33.7294 3.47066 33.7277 4.38784 33.7277C19.0401 33.7277 33.694 33.7277 48.3463 33.7277H48.5652L48.5669 33.7294ZM48.5669 35.1224H1.44523C1.44175 35.1708 1.43828 35.2071 1.43828 35.2417C1.43481 36.3772 1.42786 37.5109 1.42959 38.6464C1.42959 39.3533 1.76485 39.8683 2.35546 40.2486C2.72893 40.4888 3.13019 40.5268 3.55404 40.5268C17.8519 40.5268 32.1498 40.5268 46.4477 40.5268C46.5988 40.5268 46.7517 40.5268 46.901 40.5095C47.7765 40.4041 48.5634 39.635 48.5652 38.7294C48.5686 37.7892 48.5652 36.8473 48.5652 35.9071C48.5652 35.6496 48.5652 35.3921 48.5652 35.1224H48.5669Z" fill="#8769BB"/>
<path id="Vector_2" d="M30.9648 12.9C31.2879 13.6363 31.6127 14.3622 31.9254 15.095C32.2954 15.9626 32.1616 16.7921 31.4355 17.423C30.831 17.9484 29.6047 17.995 28.9637 17.3556C28.9081 17.3003 28.8021 17.264 28.724 17.2726C28.0205 17.3366 27.3187 17.4126 26.6152 17.4817C25.8543 17.556 25.0935 17.62 24.3326 17.6978C23.1427 17.8188 21.9528 17.9518 20.7629 18.0676C19.8805 18.154 18.9929 18.1955 18.1139 18.3096C17.7404 18.358 17.3843 18.5412 16.9883 18.6743C17.0856 18.8419 17.1585 18.9629 17.2245 19.0873C18.0357 20.6255 19.0728 21.996 20.3113 23.2145C20.6709 23.5671 21.0391 23.9162 21.4421 24.2152C22.0744 24.6835 22.1457 25.7983 21.3119 26.3496C20.8741 26.64 20.4572 26.9614 20.0351 27.2743C19.5157 27.6614 18.88 27.651 18.3884 27.2276C17.3044 26.296 16.316 25.2746 15.4336 24.1478C14.5477 23.0175 13.7955 21.8059 13.1424 20.5322C13.0833 20.4181 13.0208 20.3922 12.9062 20.4233C12.0567 20.6566 11.3706 20.3438 10.7539 19.7907C10.7053 19.7475 10.615 19.7181 10.5507 19.7268C8.97515 19.9497 7.93985 18.9733 7.70708 17.6839C7.55596 16.844 7.90164 16.1181 8.54609 15.5564C8.72154 15.4043 8.80665 15.2626 8.82229 15.0189C8.87614 14.1427 9.31388 13.4945 10.1216 13.1385C11.4227 12.5613 12.7307 11.9944 14.0509 11.4603C14.6311 11.2253 15.107 10.871 15.5674 10.4683C16.4567 9.6923 17.3618 8.9353 18.2581 8.16621C19.1874 7.36947 20.1098 6.56754 21.0391 5.77252C21.602 5.29032 22.1717 4.81504 22.738 4.3363C22.8631 4.23088 23.0003 4.13582 23.1097 4.01657C23.1636 3.95781 23.1844 3.85238 23.1879 3.76597C23.2209 2.91046 23.8966 2.13618 24.7426 1.991C25.6285 1.83891 26.5248 2.37987 26.8375 3.2181C27.0355 3.74695 27.2822 4.25853 27.5098 4.77875C27.5636 4.90319 27.6505 5.02071 27.6748 5.15206C27.7199 5.40093 27.8589 5.4234 28.0778 5.40094C29.7801 5.22638 31.4929 6.13028 32.2693 7.74796C33.0128 9.29652 32.747 11.3031 31.3278 12.5734C31.2115 12.6788 31.0951 12.7859 30.97 12.9017L30.9648 12.9ZM28.2689 16.2356C28.2497 16.1682 28.2393 16.1129 28.2185 16.0628C27.8259 15.1243 27.4351 14.1841 27.0373 13.2457C26.4171 11.7801 25.7935 10.3162 25.1699 8.85234C24.6731 7.68574 24.1746 6.51914 23.6778 5.35081C23.551 5.05009 23.5388 5.04491 23.2852 5.26094C22.5348 5.90041 21.7861 6.54161 21.0357 7.18108C19.8215 8.21979 18.6055 9.25504 17.3948 10.2972C16.8719 10.7483 16.356 11.208 15.8418 11.6695C15.7949 11.7127 15.7445 11.8077 15.7619 11.8561C15.8661 12.1465 15.9843 12.4316 16.1058 12.7134C16.693 14.077 17.2818 15.4372 17.8707 16.8008C18.0444 17.2052 18.0444 17.2104 18.4909 17.1706C19.9622 17.0393 21.4335 16.9045 22.9048 16.7697C24.0738 16.6625 25.2446 16.5571 26.4137 16.443C27.0216 16.3843 27.6279 16.3065 28.2671 16.2356H28.2689ZM14.7718 12.2882C14.4991 12.4126 14.2663 12.525 14.0283 12.6269C12.8905 13.1143 11.751 13.5948 10.6167 14.0874C9.95139 14.376 9.71862 14.9135 9.9896 15.5771C10.41 16.6055 10.8477 17.6269 11.2872 18.6466C11.3515 18.7952 11.4487 18.9352 11.5547 19.0597C11.857 19.414 12.3538 19.5349 12.729 19.3673C13.3526 19.0908 13.9779 18.8177 14.605 18.5481C15.3259 18.2387 16.045 17.9242 16.7729 17.6338C16.964 17.5578 16.9987 17.4852 16.9223 17.3089C16.521 16.3808 16.1284 15.4493 15.7289 14.5212C15.4683 13.9145 15.2008 13.3114 14.9385 12.7064C14.8829 12.5768 14.8326 12.4437 14.7718 12.2882ZM31.0655 15.9781C31.0186 15.8139 30.9822 15.6463 30.9231 15.4873C30.8623 15.3265 30.7737 15.1779 30.706 15.0189C30.032 13.4358 29.3615 11.8509 28.6875 10.2678C28.2689 9.28442 27.8467 8.30447 27.4281 7.32107C27.0182 6.35841 26.6117 5.39402 26.2017 4.43136C26.068 4.11508 25.9499 3.78843 25.7883 3.48598C25.5 2.94675 24.9267 2.88281 24.4925 3.31488C24.1833 3.62252 24.2388 3.95608 24.39 4.30692C25.0344 5.81745 25.6737 7.32971 26.3199 8.83852C26.7663 9.87895 27.2231 10.9159 27.6696 11.9564C28.281 13.3788 28.889 14.8029 29.5004 16.227C29.5473 16.3376 29.5873 16.4724 29.6742 16.5415C29.9121 16.7351 30.1849 16.8371 30.4975 16.7144C30.8293 16.583 31.0308 16.3566 31.0638 15.9781H31.0655ZM16.0398 19.1323C15.5934 19.3224 15.1644 19.5038 14.737 19.6905C14.5529 19.7717 14.374 19.8651 14.1951 19.9567C14.0995 20.005 14.0596 20.0638 14.1256 20.1796C14.3236 20.5218 14.5043 20.8727 14.7006 21.2149C15.4301 22.4852 16.3039 23.6518 17.301 24.7233C17.8238 25.285 18.3971 25.8035 18.9599 26.3289C19.2031 26.5553 19.2326 26.5397 19.4931 26.3444C19.9014 26.0368 20.3078 25.7274 20.716 25.4215C20.9071 25.2781 20.9071 25.2435 20.7386 25.0811C20.1897 24.5522 19.6269 24.0372 19.1006 23.4858C17.9732 22.3037 17.0161 20.9971 16.2674 19.5436C16.1962 19.4053 16.1145 19.2722 16.0381 19.1357L16.0398 19.1323ZM28.255 6.48631C29.0141 8.26127 29.7697 10.0276 30.5253 11.7939C31.3713 11.3878 31.8594 9.57132 31.4251 8.46521C30.8258 6.93566 29.3337 6.32557 28.2532 6.48631H28.255ZM9.14365 16.4672C8.68332 17.0116 8.64337 17.5681 8.97689 18.059C9.31214 18.5533 9.70125 18.7693 10.0851 18.6466C9.77594 17.9328 9.46848 17.2225 9.14365 16.4672Z" fill="#8769BB"/>
<path id="Vector_3" d="M24.9913 47.9965C22.4517 47.9965 19.9121 47.9931 17.3725 48C17.0251 48 16.7732 47.8738 16.6047 47.5783C16.3963 47.2136 16.6082 46.6969 17.0182 46.588C17.1623 46.5499 17.3169 46.5379 17.4663 46.5361C18.3401 46.5292 19.2121 46.5223 20.0858 46.5309C20.2821 46.5309 20.3325 46.467 20.3308 46.2821C20.3238 45.5061 20.3273 44.7318 20.329 43.9558C20.329 43.5514 20.501 43.3284 20.8866 43.2143C21.1628 43.1331 21.4651 43.261 21.6492 43.5635C21.7117 43.6671 21.7482 43.8037 21.75 43.9264C21.7586 44.6938 21.7552 45.4629 21.7552 46.2319C21.7552 46.5171 21.7552 46.5188 22.0435 46.5188C23.9404 46.524 25.839 46.5275 27.7359 46.5309C28.2449 46.5309 28.2431 46.5292 28.2431 46.0107C28.2431 45.3211 28.2431 44.6315 28.2466 43.9437C28.2484 43.5444 28.5888 43.1608 28.9432 43.1815C29.3062 43.204 29.678 43.4269 29.678 43.9247C29.678 44.7214 29.6884 45.5182 29.678 46.3149C29.6762 46.4981 29.7388 46.5292 29.9021 46.5292C30.8175 46.5258 31.7347 46.5327 32.6501 46.5378C32.8898 46.5378 33.107 46.5966 33.2668 46.7902C33.4335 46.9907 33.5725 47.2015 33.4457 47.4746C33.3102 47.7649 33.107 47.981 32.7613 47.9896C32.3357 48 31.9101 47.9948 31.4845 47.9948C29.3201 47.9948 27.1557 47.9948 24.9913 47.9948V47.9965Z" fill="#8769BB"/>
<path id="Vector_4" d="M34.5691 7.91906C34.3293 7.88104 34.1817 7.77389 34.1226 7.56822C34.0601 7.35218 34.14 7.10158 34.3189 7.00306C34.4318 6.94257 34.5569 6.90282 34.6768 6.85616C35.9136 6.39125 37.1521 5.92634 38.3889 5.46315C38.4896 5.42513 38.5939 5.39229 38.6998 5.37501C38.9482 5.33353 39.1654 5.45278 39.2418 5.66191C39.3339 5.91078 39.2713 6.1562 39.0247 6.2599C38.4636 6.49667 37.8869 6.70061 37.3171 6.91665C36.6796 7.15861 36.0421 7.40057 35.4029 7.63562C35.1284 7.73759 34.847 7.82401 34.5691 7.91733V7.91906Z" fill="#8769BB"/>
<path id="Vector_5" d="M35.4881 0.539218C35.4169 0.641188 35.3491 0.748342 35.2727 0.846855C35.1355 1.02141 34.9948 1.19424 34.8523 1.36534C34.1262 2.23813 33.3984 3.10747 32.6741 3.98026C32.6098 4.05803 32.5629 4.1479 32.4986 4.22568C32.3301 4.43307 32.0418 4.47974 31.8177 4.34147C31.5971 4.20494 31.5363 3.95952 31.6665 3.70373C31.7013 3.6346 31.7482 3.56892 31.7986 3.50843C32.7001 2.42825 33.6034 1.34806 34.5049 0.267875C34.7255 0.00517425 34.8784 -0.048403 35.139 0.0414685C35.3561 0.117514 35.4395 0.247136 35.4864 0.539218H35.4881Z" fill="#8769BB"/>
<path id="Vector_6" d="M35.0995 11.1994C35.8221 11.3273 36.543 11.4621 37.2656 11.5831C37.9188 11.6919 38.5737 11.7818 39.2285 11.882C39.3275 11.8976 39.4231 11.9374 39.5238 11.9477C39.8157 11.9754 39.9442 12.2917 39.8956 12.5302C39.8469 12.7704 39.6037 12.9294 39.3345 12.8845C38.327 12.7168 37.3212 12.5405 36.3137 12.3763C35.8517 12.3003 35.3861 12.2536 34.9258 12.1759C34.5819 12.1171 34.4325 11.844 34.5384 11.5156C34.6114 11.291 34.7573 11.2167 35.1012 11.1994H35.0995Z" fill="#8769BB"/>
<path id="Vector_7" d="M25.0106 39.3429C24.0604 39.336 23.5167 38.7622 23.4681 37.8549C23.4212 36.9804 24.1195 36.289 24.9724 36.2908C25.9173 36.2925 26.5184 36.9579 26.5357 37.829C26.5514 38.6188 25.966 39.3395 25.0106 39.3429Z" fill="#8769BB"/>
</g>
<defs>
<clipPath id="clip0_1_1262">
<rect width="50" height="48" fill="white"/>
</clipPath>
</defs>
</svg>
