<svg width="58" height="44" viewBox="0 0 58 44" fill="none" xmlns="http://www.w3.org/2000/svg">
<g id="Isolation_Mode" clip-path="url(#clip0_1_1287)">
<path id="Vector" d="M56.7026 9.87165C56.3413 9.85322 56.0842 9.8277 55.8272 9.8277C47.7122 9.8277 39.5973 9.83337 31.4823 9.83337C24.6527 9.83337 17.8232 9.83054 10.9922 9.82912C7.99297 9.82912 4.99521 9.83479 1.99745 9.81494C1.48616 9.81211 1.29193 9.94112 1.29335 10.4884C1.30906 20.5998 1.30192 30.7112 1.30764 40.8226C1.30764 42.0816 1.94175 42.6898 3.28567 42.6927C8.94985 42.704 14.614 42.6998 20.2768 42.7012C21.1808 42.7012 22.0849 42.704 22.9903 42.7083C23.4174 42.7097 23.8444 42.7508 23.8644 43.3037C23.8844 43.8907 23.4445 43.9899 22.9889 43.9913C20.4182 43.9998 17.8489 43.997 15.2781 43.997C11.5177 43.997 7.75732 44.0012 3.99834 43.9927C3.45277 43.9927 2.89578 43.9942 2.36449 43.8907C0.889178 43.6071 0.0137006 42.4431 0.0051315 40.7801C-0.00772216 37.8269 0.00370331 34.8737 0.00370331 31.9206C0.00370331 22.5889 -0.00200942 13.2573 0.0122724 3.92559C0.0122724 3.22806 0.0365516 2.48232 0.275058 1.84149C0.749216 0.574022 1.81607 0.0338577 3.14571 0.0154269C4.6453 -0.00583941 6.1449 -0.000168395 7.64306 -0.000168395C23.2545 0.00266711 38.866 0.00408487 54.4775 0.0111736C56.8826 0.0111736 57.9966 1.13403 57.9966 3.54422C57.9994 15.8758 57.998 28.2089 57.9966 40.5405C57.9966 42.8557 56.8697 43.9842 54.5389 43.9871C48.0892 43.9956 41.641 43.9942 35.1913 43.9927C34.9799 43.9927 34.7129 44.0168 34.5701 43.9063C34.3758 43.756 34.1716 43.4866 34.1687 43.2654C34.1659 43.0925 34.4387 42.8047 34.6329 42.7636C35.0442 42.6742 35.4827 42.6983 35.9111 42.6983C42.1223 42.6955 48.3335 42.6983 54.5446 42.6955C56.1385 42.6955 56.6998 42.1397 56.6998 40.5774C56.7012 30.6077 56.6998 20.6381 56.6998 10.6684C56.6998 10.4359 56.6998 10.2034 56.6998 9.87165H56.7026ZM1.31478 8.47233H56.7012C56.7012 6.67887 56.7083 4.9563 56.6983 3.23373C56.6912 1.93365 56.0771 1.31125 54.7774 1.307C50.2087 1.29566 45.6385 1.29566 41.0697 1.29566C31.6451 1.29566 22.2205 1.29566 12.796 1.29708C9.58254 1.29708 6.37055 1.29141 3.15713 1.30842C2.05315 1.31409 1.35191 1.8897 1.32763 2.88213C1.28336 4.72095 1.31478 6.56262 1.31478 8.47091V8.47233Z" fill="#49B0B0"/>
<path id="Vector_2" d="M49.2552 26.468C49.2552 29.9628 49.2552 33.4576 49.2552 36.9523C49.2552 38.6466 48.6396 39.2477 46.9201 39.2463C45.8489 39.2463 44.7792 39.2519 43.7081 39.2448C42.3256 39.2349 41.6258 38.5714 41.6229 37.2047C41.6129 31.7265 41.6215 26.2483 41.6229 20.7701C41.6229 19.1411 41.6258 17.5121 41.6315 15.8817C41.6372 14.2839 42.2085 13.7295 43.8423 13.7253C44.9849 13.7224 46.126 13.7153 47.2686 13.7281C48.5896 13.7437 49.2366 14.3817 49.2409 15.6988C49.2494 19.2885 49.2437 22.8769 49.2437 26.4666C49.248 26.4666 49.2509 26.4666 49.2552 26.4666V26.468ZM47.9584 26.4723C47.9584 26.4723 47.9512 26.4723 47.9469 26.4723C47.9469 22.9548 47.9498 19.436 47.9455 15.9185C47.9455 15.0835 47.8584 15.0112 46.9843 15.0098C45.986 15.0083 44.9863 15.0098 43.988 15.0098C42.974 15.0098 42.9297 15.0509 42.9283 16.0348C42.9226 18.8675 42.9212 21.7016 42.9197 24.5342C42.9183 28.7138 42.9269 32.8919 42.9083 37.0714C42.9055 37.7137 43.1282 37.9604 43.7824 37.9391C44.8506 37.9022 45.9232 37.9334 46.9929 37.9292C47.8998 37.9249 47.9569 37.8668 47.9584 36.9566C47.9598 33.4618 47.9584 29.9685 47.9584 26.4737V26.4723Z" fill="#49B0B0"/>
<path id="Vector_3" d="M38.2926 30.2861C38.2926 32.5516 38.2955 34.8172 38.2926 37.0828C38.2898 38.5898 37.6328 39.2406 36.1203 39.2477C34.9792 39.2519 33.8381 39.2576 32.697 39.2463C31.3859 39.2321 30.689 38.5728 30.6861 37.2912C30.6775 32.6183 30.6818 27.9453 30.6947 23.2738C30.6975 22.1085 31.3174 21.4648 32.4885 21.435C33.8181 21.401 35.152 21.3996 36.4817 21.435C37.6442 21.4648 38.2726 22.1226 38.2798 23.2795C38.294 25.616 38.284 27.9524 38.284 30.2889C38.2869 30.2889 38.2898 30.2889 38.2926 30.2889V30.2861ZM31.9857 30.2931C31.9857 30.2931 31.9786 30.2931 31.9757 30.2931C31.9757 32.5616 31.9886 34.8285 31.9672 37.0955C31.9615 37.6981 32.1628 37.9533 32.7912 37.9363C33.9324 37.9051 35.0763 37.9093 36.2175 37.9348C36.8116 37.9476 37.0058 37.6995 37.0044 37.1296C36.9887 32.5942 36.9844 28.0588 36.9987 23.5234C37.0001 22.8953 36.7445 22.6911 36.1446 22.7053C35.0506 22.7308 33.9552 22.7351 32.8612 22.7039C32.2243 22.6855 31.9672 22.901 31.9757 23.5602C32.0043 25.8045 31.9872 28.0488 31.9872 30.2917L31.9857 30.2931Z" fill="#49B0B0"/>
<path id="Vector_4" d="M27.3285 33.5015C27.3285 34.7293 27.3357 35.9557 27.3271 37.1834C27.3157 38.5544 26.6401 39.2335 25.2748 39.2449C24.0865 39.2548 22.8969 39.2576 21.7086 39.2449C20.4232 39.2293 19.7277 38.5416 19.7206 37.2586C19.7077 34.7336 19.7077 32.2071 19.7206 29.6821C19.7277 28.5139 20.4075 27.8518 21.5972 27.8348C22.8812 27.8178 24.1651 27.8149 25.449 27.8348C26.6773 27.8532 27.3142 28.5139 27.3242 29.7487C27.3342 30.9992 27.3271 32.2511 27.3271 33.5015H27.3285ZM21.0117 33.4179C21.0117 34.6683 21.0259 35.9188 21.0059 37.1693C20.9974 37.7094 21.2045 37.9419 21.76 37.932C22.9483 37.9122 24.1365 37.915 25.3248 37.9306C25.8489 37.9377 26.036 37.708 26.0332 37.2019C26.0203 34.7477 26.0203 32.2936 26.0332 29.8395C26.036 29.3333 25.8461 29.1065 25.3233 29.1136C24.1351 29.1292 22.9468 29.132 21.7586 29.1136C21.2016 29.1037 20.9988 29.3404 21.0074 29.8792C21.0274 31.0587 21.0131 32.2383 21.0131 33.4179H21.0117Z" fill="#49B0B0"/>
<path id="Vector_5" d="M16.3883 34.7903C16.3883 35.6154 16.4041 36.4405 16.3841 37.2657C16.3526 38.5459 15.6685 39.2264 14.386 39.2434C13.1507 39.2604 11.9153 39.2619 10.6813 39.2434C9.50878 39.225 8.79183 38.5615 8.76755 37.4074C8.73185 35.6636 8.73042 33.9169 8.76755 32.1731C8.79183 31.0417 9.49307 30.4108 10.647 30.3995C11.9053 30.3867 13.1649 30.3853 14.4232 30.3995C15.7 30.4137 16.3555 31.0545 16.3855 32.3163C16.4055 33.1414 16.3898 33.9666 16.3883 34.7917V34.7903ZM15.0801 34.8966C15.0801 34.0715 15.0716 33.2463 15.083 32.4226C15.0901 31.9363 14.9245 31.6769 14.3832 31.6868C13.1721 31.7081 11.9624 31.701 10.7513 31.6896C10.2757 31.6854 10.0486 31.8796 10.0501 32.3588C10.0558 33.985 10.0558 35.6111 10.0501 37.2373C10.0486 37.6995 10.2357 37.9363 10.727 37.932C11.961 37.9221 13.1964 37.9192 14.4303 37.932C14.933 37.9377 15.0944 37.6924 15.0844 37.2302C15.0701 36.4533 15.0801 35.6749 15.0816 34.8966H15.0801Z" fill="#49B0B0"/>
<path id="Vector_6" d="M29.0079 43.9702C28.628 43.9702 28.2224 44.051 27.8754 43.9447C27.5969 43.8596 27.3884 43.5506 27.1484 43.3393C27.3855 43.1238 27.6069 42.7467 27.864 42.7212C28.6395 42.6418 29.4335 42.6517 30.2105 42.7325C30.4461 42.7566 30.6461 43.1238 30.8617 43.3351C30.6475 43.5463 30.4661 43.8724 30.2119 43.9433C29.8377 44.0482 29.4121 43.9702 29.0079 43.9702Z" fill="#49B0B0"/>
<path id="Vector_7" d="M18.2777 5.97442C13.946 5.97442 9.61432 5.97442 5.28264 5.97442C5.18695 5.97442 5.09269 5.97867 4.997 5.97726C4.54998 5.973 4.15865 5.85249 4.15723 5.32651C4.15723 4.84164 4.52284 4.71262 4.9413 4.69135C5.10697 4.68285 5.27407 4.67718 5.44116 4.67718C12.3193 4.67859 19.1974 4.68143 26.0741 4.68427C27.8351 4.68427 29.596 4.68427 31.357 4.6871C31.5698 4.6871 31.834 4.63181 31.984 4.73389C32.2096 4.88559 32.4738 5.1422 32.4967 5.37613C32.5138 5.54484 32.1968 5.81563 31.9725 5.91913C31.7512 6.01979 31.4598 5.97867 31.1985 5.97867C26.8911 5.98151 22.5837 5.98009 18.2748 5.98009C18.2748 5.97867 18.2748 5.97584 18.2748 5.97442H18.2777Z" fill="#49B0B0"/>
<path id="Vector_8" d="M46.2374 5.96025C45.8118 5.96025 45.3662 6.03822 44.9706 5.93189C44.7278 5.86668 44.4422 5.53776 44.4036 5.2939C44.3779 5.13086 44.745 4.75657 44.9578 4.73814C45.779 4.66584 46.6116 4.6545 47.4328 4.72397C47.6627 4.74381 47.8627 5.11527 48.0755 5.32651C47.8398 5.53776 47.637 5.85108 47.3628 5.93615C47.0186 6.04248 46.6145 5.96167 46.2374 5.96167V5.96025Z" fill="#49B0B0"/>
<path id="Vector_9" d="M52.0074 5.95884C51.6289 5.95884 51.2233 6.03965 50.8777 5.93332C50.6035 5.84825 50.4007 5.53493 50.165 5.32226C50.3807 5.11244 50.5806 4.7424 50.8134 4.72114C51.6118 4.64883 52.4259 4.65308 53.2242 4.73248C53.4541 4.75516 53.6484 5.12803 53.8598 5.34069C53.6455 5.5491 53.4613 5.86952 53.2071 5.9404C52.8329 6.04248 52.4087 5.96734 52.006 5.96734C52.006 5.96451 52.006 5.96167 52.006 5.95884H52.0074Z" fill="#49B0B0"/>
</g>
<defs>
<clipPath id="clip0_1_1287">
<rect width="58" height="44" fill="white"/>
</clipPath>
</defs>
</svg>
