<svg width="53" height="44" viewBox="0 0 53 44" fill="none" xmlns="http://www.w3.org/2000/svg">
<g id="Isolation_Mode" clip-path="url(#clip0_1_1303)">
<path id="Vector" d="M14.4083 18.6488C15.5859 17.3302 16.6664 15.9496 17.9278 14.7592C19.198 13.5601 20.746 12.7326 22.5851 12.2901C22.391 12.0644 22.2631 11.883 22.1 11.7369C21.0327 10.759 20.2432 9.60849 19.9477 8.18363C19.026 3.73204 22.7792 -0.00711784 26.8499 0.382286C31.5734 0.833639 34.3343 5.99766 31.8689 10.0421C31.494 10.6572 30.9515 11.1705 30.4884 11.7281C30.3561 11.8874 30.2194 12.0467 30.0386 12.2635C33.686 13.3167 36.1734 15.6575 38.039 18.7949C38.3521 18.2683 38.5991 17.8081 38.8902 17.3789C39.7987 16.0513 41.7613 16.0779 42.564 17.4806C43.2961 18.7639 43.9356 20.1003 44.5575 21.441C44.9015 22.1889 45.2984 22.711 46.2158 22.7995C47.7109 22.9456 49.1972 23.1845 50.6834 23.4235C51.6405 23.5783 52.2403 24.189 52.5534 25.0873C52.9063 26.0873 52.3947 26.8307 51.7507 27.4812C50.6305 28.614 49.475 29.7114 48.3151 30.8088C48.0461 31.0655 47.9799 31.3045 48.0505 31.6762C48.3636 33.2692 48.6282 34.871 48.9105 36.4729C49.0957 37.4995 48.7473 38.3137 47.8829 38.889C47.067 39.4377 46.2113 39.4023 45.3954 38.9067C44.8089 38.5482 44.2576 38.1279 43.6886 37.7385C43.5828 37.6677 43.4769 37.5969 43.3578 37.5526C42.6345 37.2694 41.9157 36.9641 41.1747 36.7251C40.8925 36.6322 40.5044 36.5791 40.2574 36.703C38.7931 37.4243 37.3642 38.2119 35.9132 38.9465C35.5162 39.1456 35.4721 39.3978 35.5471 39.7873C35.6618 40.4112 35.825 41.0572 35.7765 41.6812C35.653 43.2476 34.1226 44.261 32.5922 43.8273C32.0541 43.6724 31.5381 43.4114 31.0353 43.1547C29.7122 42.4821 28.3979 41.7918 27.0925 41.0926C26.5632 40.8094 26.0825 40.7873 25.54 41.0838C24.1287 41.8582 22.6865 42.5794 21.2664 43.3406C20.4196 43.7963 19.564 44.0972 18.5849 43.7963C17.5044 43.46 16.737 42.3626 16.8517 41.2342C16.9002 40.7475 17.0016 40.2607 17.1119 39.7828C17.2001 39.4111 17.1251 39.15 16.7679 38.9686C15.2683 38.1987 13.782 37.4066 12.2693 36.6632C12.0532 36.557 11.6827 36.6056 11.449 36.7207C10.0377 37.4243 8.63958 38.15 7.25473 38.9022C6.13009 39.5129 5.06279 39.3801 4.21159 38.4642C3.77055 37.9907 3.57209 37.4287 3.66471 36.8004C3.88081 35.3932 4.04841 33.9728 4.40123 32.601C4.66585 31.5744 4.5159 30.8619 3.67353 30.1716C3.00756 29.6274 2.50037 28.8707 1.90057 28.2423C1.65359 27.9857 1.42866 27.7556 1.11993 27.4989C0.334891 26.844 -0.172299 26.2068 0.0526287 25.2245C0.277557 24.2554 0.877364 23.5385 1.93585 23.3881C3.29865 23.1934 4.66585 23.0429 6.02865 22.8703C6.13891 22.8571 6.24476 22.8217 6.35502 22.8172C7.24591 22.7818 7.68694 22.2685 8.02213 21.4809C8.54696 20.2551 9.19528 19.0869 9.77745 17.8877C10.267 16.8833 11.052 16.3168 12.1855 16.4142C13.3983 16.516 13.9629 17.3833 14.3333 18.4187C14.3642 18.5028 14.3863 18.5869 14.4083 18.64V18.6488ZM19.7537 34.933C19.7096 34.9595 19.6655 34.9861 19.6213 35.0126C19.6037 35.1587 19.5861 35.3047 19.5596 35.4463C19.2244 37.3668 18.8892 39.2916 18.5496 41.2121C18.4791 41.6148 18.5276 41.9953 18.8892 42.2431C19.2597 42.4954 19.639 42.4202 20.0271 42.2077C21.6678 41.3139 23.3084 40.4245 24.9667 39.5571C25.8576 39.0925 26.7793 39.1235 27.6614 39.5793C29.3021 40.4289 30.9295 41.3095 32.5657 42.1768C32.9097 42.3582 33.2493 42.5352 33.6463 42.2785C34.0344 42.0263 34.0608 41.659 33.9991 41.2608C33.7212 39.4775 33.4919 37.6854 33.1391 35.9153C32.9141 34.8002 33.1391 33.8975 33.9373 33.1143C34.7488 32.3178 35.5692 31.5346 36.3851 30.7469C36.9364 30.2115 37.4921 29.676 38.039 29.1362C38.3697 28.8087 38.4535 28.4193 38.2815 27.9768C38.1228 27.5741 37.792 27.4901 37.4039 27.4325C35.5383 27.1582 33.6727 26.8484 31.8027 26.5918C30.8633 26.4635 30.1753 25.9988 29.7607 25.1935C28.914 23.5562 28.1069 21.8968 27.3218 20.2286C27.1013 19.7595 26.8279 19.3923 26.2898 19.379C25.765 19.3657 25.4739 19.7595 25.2666 20.1799C24.4595 21.8172 23.67 23.4633 22.8674 25.1005C22.4837 25.8882 21.875 26.3971 20.993 26.5608C20.3799 26.6759 19.7713 26.8042 19.1539 26.8927C17.8484 27.0874 16.5429 27.2644 15.2331 27.4458C14.8538 27.4989 14.4701 27.521 14.2804 27.9636C14.082 28.4282 14.254 28.7822 14.5494 29.1096C14.7347 29.3132 14.9376 29.499 15.1316 29.6893C16.3753 30.9062 17.6543 32.0877 18.8495 33.3532C19.2509 33.778 19.4493 34.3976 19.7448 34.9286L19.7537 34.933ZM3.6206 27.9724C4.21159 28.5477 4.80699 29.1185 5.40238 29.6893C6.04629 30.3088 6.29327 31.0522 6.14332 31.9284C6.05952 32.4151 5.96691 32.8975 5.89193 33.3842C5.71552 34.5215 5.5391 35.6543 5.38474 36.7915C5.30094 37.411 5.60967 37.7208 6.14332 37.5836C6.31974 37.5393 6.49174 37.4641 6.65051 37.38C7.9648 36.6941 9.27908 36.0038 10.589 35.3091C11.4843 34.8356 12.3619 34.8179 13.2616 35.318C14.3025 35.8976 15.3521 36.4596 16.4062 37.0083C16.7238 37.1721 17.0722 37.2738 17.5264 37.4508C17.6279 36.672 17.6543 36.0083 17.8043 35.3799C17.9542 34.7471 17.7117 34.3533 17.2795 33.9462C16.0401 32.778 14.7964 31.6098 13.6189 30.3796C13.1822 29.9194 12.7721 29.3309 12.6177 28.7291C12.3134 27.5564 13.1778 26.313 14.4877 25.9723C15.5462 25.6979 16.6444 25.5563 17.7293 25.3926C18.6819 25.251 19.639 25.1581 20.596 25.043C20.5255 24.9058 20.4549 24.8483 20.3711 24.835C19.3567 24.6757 18.3468 24.4722 17.328 24.3793C16.0798 24.2642 15.1404 23.7952 14.5891 22.6048C13.9144 21.149 13.1646 19.7286 12.4325 18.2993C12.212 17.8656 11.7401 17.8302 11.4181 18.2108C11.3123 18.3347 11.2373 18.4851 11.1623 18.6311C10.4566 20.0516 9.74658 21.4764 9.04974 22.9013C8.67927 23.6624 8.09711 24.1403 7.25473 24.2775C6.56672 24.3925 5.8787 24.4855 5.19069 24.5961C4.17631 24.7598 3.16634 24.9191 2.16078 25.1227C1.94467 25.1669 1.62712 25.3661 1.59625 25.5342C1.55656 25.7555 1.68887 25.9856 1.81677 26.2112C1.89615 26.344 2.1299 26.459 2.22693 26.5874M31.9968 24.8749C31.9968 24.9191 31.9968 24.9678 31.9924 25.0121C32.2702 25.0652 32.5437 25.1271 32.8215 25.1714C34.5239 25.4236 36.244 25.605 37.9331 25.9413C39.3488 26.2245 40.1383 27.3573 40.0236 28.6804C39.9531 29.4946 39.3665 30.0079 38.8372 30.5345C37.5891 31.7735 36.3145 32.986 35.0664 34.225C34.8988 34.3887 34.7356 34.6586 34.7444 34.8755C34.7797 35.6012 34.8812 36.3269 34.9738 37.0526C35.0091 37.3181 35.1767 37.4376 35.4457 37.3225C35.8162 37.1632 36.191 37.0172 36.5439 36.8269C37.5494 36.2959 38.5329 35.7295 39.5473 35.2162C40.3368 34.8179 41.1394 34.8622 41.9245 35.2781C43.2829 35.995 44.6413 36.7251 46.0217 37.4022C46.3128 37.5438 46.7803 37.6013 47.0317 37.4641C47.2125 37.3623 47.2566 36.8535 47.2125 36.5481C46.9964 35.0303 46.7362 33.5214 46.4804 32.0125C46.326 31.1009 46.5421 30.3221 47.2257 29.6672C48.3636 28.5786 49.4971 27.4856 50.604 26.3617C50.8113 26.1537 51.0186 25.7864 50.9745 25.5342C50.9392 25.3395 50.5379 25.1138 50.2645 25.0651C48.862 24.8041 47.4507 24.5518 46.0349 24.3837C44.7912 24.2377 43.8739 23.7863 43.349 22.5517C42.758 21.1623 42.0171 19.8303 41.3291 18.4763C40.9983 17.8302 40.4161 17.7992 40.0016 18.3966C39.8869 18.5603 39.7899 18.7418 39.7061 18.9232C39.1107 20.1755 38.5153 21.4322 37.9287 22.6889C37.4877 23.6403 36.7732 24.2244 35.7147 24.3616C35.331 24.4102 34.9473 24.4368 34.568 24.4899C33.7124 24.6138 32.8524 24.7421 31.9968 24.8704V24.8749ZM26.2236 13.237C25.0858 13.4229 23.9082 13.4804 22.8233 13.8211C19.7404 14.7902 17.4823 16.7682 15.9652 19.6268C15.5374 20.4277 15.4933 21.0428 15.9784 21.8083C16.3312 22.3615 16.6841 22.7243 17.3633 22.7995C18.7481 22.95 20.1329 23.1358 21.509 23.3571C21.8662 23.4146 21.9721 23.3217 22.1176 23.0296C22.7924 21.6534 23.4804 20.2817 24.2125 18.932C24.5918 18.2285 25.2181 17.8568 26.0472 17.8081C27.1763 17.7373 28.0098 18.1488 28.5214 19.1666C29.0242 20.1622 29.6196 21.118 30.0077 22.1579C30.4091 23.2288 30.9912 23.4854 32.0806 23.2243C33.267 22.9367 34.5063 22.8659 35.7191 22.6579C35.9529 22.6181 36.2043 22.4101 36.3498 22.2066C36.5968 21.8703 36.7997 21.4897 36.9496 21.1003C37.0334 20.8879 37.0466 20.5914 36.9584 20.3879C35.1899 16.2947 31.2691 13.2105 26.2281 13.237H26.2236ZM26.2369 11.5909C29.2094 11.6484 31.0309 9.59522 31.1015 6.85169C31.1721 4.07277 29.0992 2.00627 26.3339 1.9753C23.6127 1.94432 21.4605 4.02409 21.4428 6.75877C21.4252 9.51556 23.5025 11.675 26.2369 11.5909Z" fill="#FF9900"/>
</g>
<defs>
<clipPath id="clip0_1_1303">
<rect width="52.6596" height="43.5778" fill="white" transform="translate(0 0.35553)"/>
</clipPath>
</defs>
</svg>
