<svg width="47" height="45" viewBox="0 0 47 45" fill="none" xmlns="http://www.w3.org/2000/svg">
<g id="Isolation_Mode" clip-path="url(#clip0_1_1248)">
<path id="Vector" d="M1.86523 22.0082C1.95829 9.94981 11.5279 -0.0439363 23.6532 2.23969e-05C35.6368 0.0439811 45.2294 10.0006 45.2483 22.0755C45.2672 34.2837 35.5937 44.3077 23.5048 44.2692C11.5482 44.2321 1.86523 34.3648 1.86523 22.0082ZM23.5655 43.4601C35.0529 43.4944 44.4418 33.9966 44.4702 22.217C44.4985 10.3152 35.1163 0.773421 23.5035 0.803643C11.9581 0.835238 2.64877 10.3702 2.65147 22.1552C2.65551 33.9087 12.035 43.5137 23.5655 43.4601Z" fill="white"/>
<path id="Vector_2" d="M34.1041 16.1438C34.1731 16.2615 34.3036 16.4294 34.3822 16.6185C34.7391 17.4773 35.0921 18.3361 35.4182 19.2065C35.4911 19.4033 35.5679 19.4708 35.7655 19.4689C36.5732 19.4631 37.3809 19.4631 38.1867 19.4747C38.9349 19.4844 39.0615 19.6117 39.0634 20.3682C39.0673 21.8484 39.0519 23.3267 39.0653 24.8069C39.0711 25.3666 38.7622 25.5113 38.3401 25.5152C37.4538 25.5229 36.5655 25.5248 35.6792 25.5209C35.541 25.5209 35.472 25.5402 35.4278 25.6966C35.1343 26.7425 34.7448 27.7519 34.1942 28.6898C34.0906 28.8673 34.1156 28.9638 34.2537 29.0989C34.9079 29.7357 35.5545 30.3822 36.1991 31.0307C36.4811 31.3144 36.4869 31.571 36.2125 31.8509C35.0998 32.9818 33.9832 34.1107 32.8589 35.232C32.5098 35.5813 32.2162 35.5543 31.8709 35.1972C31.2838 34.5932 30.6891 33.9988 30.104 33.3948C29.9409 33.2249 29.7932 33.196 29.5783 33.3137C28.667 33.8174 27.7346 34.2786 26.7159 34.5199C26.5259 34.5642 26.4876 34.6897 26.4876 34.8595C26.4876 35.7029 26.4876 36.5481 26.4876 37.3915C26.4876 37.9704 26.3629 38.1171 25.8027 38.1982C25.724 38.2097 25.6434 38.2175 25.5648 38.2175C24.1892 38.2175 22.8155 38.2213 21.44 38.2175C20.661 38.2136 20.5306 38.0669 20.5287 37.2776C20.5287 36.4574 20.5133 35.6372 20.5152 34.819C20.5152 34.6337 20.4577 34.5392 20.2754 34.4986C19.2413 34.2709 18.307 33.8 17.3881 33.2963C17.1905 33.1883 17.0562 33.2462 16.9219 33.3832C16.4019 33.9062 15.8839 34.4311 15.364 34.9541C15.2681 35.0506 15.176 35.1509 15.0743 35.2436C14.7156 35.5658 14.4815 35.5658 14.1419 35.2281C13.4781 34.5662 12.8201 33.8965 12.1582 33.2326C11.7169 32.7888 11.2757 32.3468 10.8306 31.9068C10.5601 31.6386 10.5371 31.3375 10.8076 31.0616C11.4618 30.39 12.1256 29.728 12.7932 29.068C12.9026 28.9599 12.939 28.8789 12.8469 28.7419C12.2445 27.8348 11.9203 26.8062 11.5884 25.7834C11.5289 25.602 11.4656 25.5267 11.2622 25.5287C10.3759 25.5325 9.48762 25.5345 8.60127 25.4978C8.06409 25.4746 7.95473 25.3337 7.9509 24.7895C7.93938 23.5834 7.93555 22.3772 7.93555 21.171C7.93555 20.7619 7.95857 20.3528 7.97008 19.9437C7.97775 19.6928 8.12548 19.5615 8.34995 19.5172C8.50535 19.4863 8.6665 19.4766 8.82574 19.4747C9.64878 19.4708 10.4718 19.4747 11.2949 19.4747C11.4061 19.4747 11.5001 19.4863 11.5462 19.328C11.8474 18.284 12.2234 17.2689 12.799 16.3425C12.9083 16.165 12.8872 16.0492 12.7395 15.9045C12.1179 15.2908 11.5021 14.6713 10.892 14.0441C10.5006 13.6408 10.4968 13.4246 10.892 13.0251C11.9721 11.929 13.058 10.8386 14.1477 9.75016C14.4758 9.42209 14.7789 9.45104 15.0993 9.78104C15.7151 10.4121 16.3444 11.0277 16.9679 11.653C17.0964 11.7823 17.2269 11.7707 17.3823 11.6935C17.954 11.4079 18.5238 11.1146 19.109 10.8579C19.4351 10.7151 19.7881 10.6282 20.1354 10.5356C20.4749 10.4449 20.5133 10.4198 20.5114 10.0667C20.5114 9.31016 20.5056 8.55558 20.5037 7.79908C20.5037 7.72767 20.5037 7.65434 20.5037 7.58293C20.5229 6.98854 20.6937 6.79555 21.2846 6.78976C22.7868 6.77819 24.2909 6.77819 25.7931 6.78784C26.288 6.7917 26.478 7.00398 26.4837 7.5096C26.4914 8.39347 26.4972 9.27928 26.4914 10.1632C26.4914 10.3812 26.5681 10.4642 26.783 10.5125C27.7269 10.7247 28.5864 11.157 29.4402 11.5932C29.8469 11.8016 29.8565 11.8325 30.1749 11.516C30.7486 10.9447 31.3145 10.3677 31.8728 9.78297C32.1683 9.47419 32.4599 9.41051 32.7745 9.69613C33.3194 10.1921 33.8355 10.719 34.3573 11.24C34.9578 11.8402 35.5525 12.4481 36.1492 13.0521C36.4849 13.3918 36.4926 13.6601 36.1569 14.0074C35.8019 14.378 35.4298 14.7311 35.0729 15.0997C34.7564 15.4278 34.4513 15.7694 34.0983 16.1534L34.1041 16.1438ZM25.3499 37.0634C25.3499 36.9534 25.3499 36.8588 25.3499 36.7662C25.3595 35.8746 25.3614 34.9811 25.3806 34.0895C25.3863 33.7962 25.5609 33.6225 25.8487 33.5684C27.1993 33.3233 28.4138 32.7444 29.5706 32.0284C29.8699 31.8431 30.0637 31.8431 30.3265 32.0882C30.6546 32.3951 30.9692 32.7154 31.2877 33.03C31.6062 33.3465 31.9208 33.6649 32.2393 33.9814C32.3256 34.0683 32.4004 34.1493 32.5328 34.0123C33.2503 33.279 33.9774 32.5572 34.6988 31.8258C35.0748 31.4437 35.117 31.5382 34.7103 31.104C34.1942 30.554 33.657 30.0272 33.1256 29.4926C32.7688 29.1336 32.7285 28.9638 33.0124 28.5489C33.7012 27.5396 34.0849 26.401 34.4321 25.2469C34.6719 24.4537 34.4993 24.4055 35.5506 24.3958C36.2777 24.39 37.0049 24.3997 37.732 24.4074C37.8759 24.4074 37.9545 24.3727 37.9545 24.2067C37.9488 23.097 37.943 21.9874 37.9468 20.8777C37.9468 20.6461 37.8509 20.5902 37.6303 20.5921C36.7746 20.596 35.9209 20.5921 35.0652 20.5651C34.7026 20.5535 34.5971 20.4107 34.4993 20.0595C34.3439 19.5037 34.177 18.9517 33.9928 18.4056C33.7472 17.6703 33.3769 16.9968 32.9549 16.3483C32.7515 16.0357 32.7803 15.8485 33.0316 15.5725C33.07 15.532 33.1103 15.4915 33.1486 15.4529C33.6973 14.9029 34.246 14.3529 34.7928 13.799C34.8811 13.7102 34.954 13.6079 35.0672 13.4748C34.8849 13.3069 34.7141 13.1602 34.5549 13.002C33.9007 12.3516 33.2465 11.7051 32.6019 11.0451C32.3966 10.8347 32.4081 10.8193 32.2009 11.0277C31.6119 11.6163 31.0229 12.2069 30.4301 12.7935C30.0541 13.166 29.9466 13.1699 29.492 12.8939C28.4272 12.2474 27.3106 11.7244 26.0866 11.4504C25.4381 11.3056 25.3499 11.186 25.348 10.5144C25.348 9.74244 25.3403 8.9705 25.3499 8.19856C25.3518 7.98821 25.3096 7.90522 25.0775 7.90908C24.0146 7.92066 22.9517 7.91873 21.8889 7.90908C21.6817 7.90715 21.6356 7.98049 21.6356 8.17347C21.6356 9.02647 21.6222 9.87753 21.605 10.7305C21.5954 11.2091 21.5033 11.3288 21.0447 11.4272C19.7728 11.7032 18.6044 12.2242 17.4955 12.8958C17.0351 13.1757 16.9199 13.1602 16.542 12.78C15.9473 12.1837 15.3564 11.5855 14.7712 10.9795C14.6484 10.8521 14.5755 10.8386 14.447 10.9718C13.9961 11.4388 13.5395 11.902 13.0752 12.3535C12.6858 12.7318 12.281 13.0946 11.8512 13.496C12.5649 14.2023 13.2057 14.8411 13.8503 15.4741C14.2168 15.835 14.2628 16.0087 13.9846 16.441C13.2498 17.5815 12.7951 18.834 12.4728 20.1424C12.4018 20.4319 12.2714 20.5381 11.9663 20.5612C11.7284 20.5805 11.4886 20.5902 11.2488 20.5902C10.5927 20.5921 9.93847 20.5902 9.28234 20.5882C9.14996 20.5882 9.03294 20.5805 9.03677 20.7851C9.05212 21.9256 9.05596 23.0681 9.05596 24.2086C9.05596 24.3495 9.10392 24.3958 9.23246 24.3958C9.51256 24.3958 9.79075 24.4036 10.0709 24.4055C10.6771 24.4093 11.2853 24.3958 11.8915 24.4171C12.3136 24.4325 12.3616 24.4885 12.4786 24.9111C12.8373 26.2003 13.2863 27.4489 14.0076 28.5856C14.2513 28.9696 14.211 29.1471 13.8849 29.4771C13.2709 30.0986 12.6551 30.718 12.0392 31.3395C12.0028 31.3761 11.9721 31.4205 11.9587 31.4359C12.8489 32.3372 13.7256 33.223 14.6158 34.1242C14.7213 34.0239 14.8364 33.9255 14.942 33.8174C15.4887 33.2655 16.0336 32.7097 16.5823 32.1577C16.8969 31.8412 17.106 31.8219 17.4706 32.0574C18.3512 32.6228 19.2951 33.0493 20.2946 33.3523C20.5613 33.4333 20.8375 33.4835 21.1081 33.5569C21.509 33.6688 21.6203 33.7923 21.6241 34.1628C21.6318 35.0235 21.6337 35.8843 21.6318 36.7431C21.6318 37.0538 21.6241 37.0595 21.9253 37.0595C23.0035 37.0634 24.0837 37.0634 25.1619 37.0653C25.2156 37.0653 25.2693 37.0595 25.348 37.0557L25.3499 37.0634Z" fill="white"/>
<path id="Vector_3" d="M14.6521 22.3685C14.669 17.409 18.68 12.8184 24.0255 12.9479C29.0134 13.0695 33.1712 17.4836 32.9529 22.8982C32.7515 27.8754 28.7273 32.2169 23.5418 32.0501C18.3431 31.8834 14.5881 27.3535 14.6502 22.3685H14.6521ZM23.5568 14.1053C19.1976 14.1583 15.6477 18.0231 15.7287 22.6589C15.8096 27.2182 19.4912 31.0829 24.0857 30.9083C28.5711 30.7396 31.9986 26.8827 31.8781 22.2371C31.7596 17.67 28.0911 13.917 23.5568 14.1034V14.1053Z" fill="white"/>
<path id="Vector_4" d="M23.7415 27.1116C23.2543 27.1533 22.6874 27.0897 22.1547 26.8172C21.2674 26.3638 20.856 25.5782 20.7575 24.5858C20.7328 24.3392 20.839 24.1324 21.0532 24.0071C21.2352 23.9017 21.4286 23.8977 21.5878 24.033C21.6902 24.1205 21.7679 24.2557 21.8229 24.385C21.8665 24.4864 21.8627 24.6117 21.8779 24.7251C21.9689 25.4152 22.4618 25.9084 23.1197 25.9303C23.6088 25.9481 24.0979 25.9442 24.587 25.9243C25.1444 25.9004 25.6221 25.4132 25.7567 24.7668C25.8705 24.2239 25.5766 23.5537 25.0667 23.2852C24.8562 23.1738 24.606 23.1122 24.369 23.0883C23.8059 23.0346 23.222 23.0923 22.676 22.967C21.5215 22.7065 20.8314 21.7678 20.7575 20.5606C20.6797 19.2699 21.6125 18.1025 22.8504 17.9414C23.4931 17.8579 24.1624 17.8539 24.805 17.9374C25.9501 18.0866 26.8791 19.2719 26.8525 20.4313C26.8449 20.7535 26.6478 21.0001 26.3691 21.0399C26.1075 21.0757 25.8989 20.9007 25.8212 20.5745C25.7871 20.4313 25.7643 20.2822 25.7302 20.139C25.5747 19.4926 25.0572 19.0591 24.4202 19.0591C23.9235 19.0591 23.423 19.0392 22.932 19.0988C22.3101 19.1764 21.8589 19.785 21.8476 20.4671C21.8362 21.1353 22.2893 21.7578 22.9168 21.8533C23.3206 21.9149 23.7358 21.901 24.1453 21.901C24.6515 21.901 25.1387 21.9766 25.5804 22.249C26.4677 22.7979 26.9321 23.6113 26.8468 24.6992C26.7672 25.7135 26.244 26.4374 25.3662 26.867C24.9036 27.0937 24.6647 27.1195 23.7415 27.1096V27.1116Z" fill="white"/>
<path id="Vector_5" d="M24.4151 28.0059C24.3938 28.2021 24.396 28.404 24.3449 28.5925C24.2704 28.8706 24.0596 28.9849 23.7296 28.9716C23.4678 28.9601 23.2485 28.8192 23.223 28.5659C23.1868 28.2135 23.1868 27.8536 23.2123 27.5012C23.2294 27.2688 23.5317 27.1107 23.8318 27.1241C24.115 27.1374 24.3598 27.3183 24.3832 27.5526C24.3981 27.7012 24.3853 27.8536 24.3853 28.004C24.3938 28.004 24.4045 28.004 24.413 28.004L24.4151 28.0059Z" fill="white"/>
<path id="Vector_6" d="M23.1958 16.9758C23.2076 16.7001 23.1538 16.4072 23.2969 16.1732C23.3895 16.023 23.4842 15.9963 23.5928 16.0591C23.7015 16.1219 23.7898 16.2436 23.7962 16.4566C23.8059 16.7799 23.8091 17.1071 23.7962 17.4285C23.7854 17.6986 23.6337 17.8945 23.4831 17.8754C23.327 17.8545 23.2022 17.6434 23.1958 17.379C23.1925 17.244 23.1958 17.109 23.1958 16.9758Z" fill="white"/>
</g>
<defs>
<clipPath id="clip0_1_1248">
<rect width="47" height="45" fill="white"/>
</clipPath>
</defs>
</svg>
