<svg width="68" height="68" viewBox="0 0 68 68" fill="none" xmlns="http://www.w3.org/2000/svg">
<g id="fluent-mdl2:join-online-meeting" clip-path="url(#clip0_1_2532)">
<path id="Vector" d="M30.4805 61.5366C30.2591 62.3654 30.0931 63.2051 29.9824 64.0557C29.8717 64.9062 29.7943 65.7786 29.75 66.6729C26.9167 66.3457 24.2161 65.6914 21.6484 64.71C19.0807 63.7285 16.7012 62.4744 14.5098 60.9478C12.3184 59.4211 10.3262 57.6545 8.5332 55.6479C6.74023 53.6414 5.21289 51.4604 3.95117 49.105C2.68945 46.7495 1.71549 44.2632 1.0293 41.646C0.343099 39.0288 0 36.3135 0 33.5C0 30.4248 0.398437 27.4587 1.19531 24.6016C1.99219 21.7445 3.13216 19.0728 4.61523 16.5864C6.09831 14.1001 7.86914 11.8428 9.92773 9.81445C11.9863 7.78613 14.2884 6.04134 16.834 4.58008C19.3796 3.11881 22.0801 1.99561 24.9355 1.21045C27.791 0.425293 30.8125 0.0218099 34 0C37.1211 0 40.1204 0.392578 42.998 1.17773C45.8756 1.96289 48.5872 3.09701 51.1328 4.58008C53.6784 6.06315 55.9694 7.80794 58.0059 9.81445C60.0423 11.821 61.8242 14.0892 63.3516 16.6191C64.8789 19.1491 66.0189 21.8099 66.7715 24.6016C67.5241 27.3932 67.9336 30.3594 68 33.5H65.6426C65.3327 32.9984 65.0117 32.5076 64.6797 32.0278C64.3476 31.548 63.9603 31.09 63.5176 30.6538C63.3848 28.7563 63.0417 26.9134 62.4883 25.125H21.8145C21.6374 26.5208 21.5046 27.9058 21.416 29.2798C21.3275 30.6538 21.2721 32.0605 21.25 33.5C21.25 34.9176 21.2943 36.3135 21.3828 37.6875C21.4714 39.0615 21.6152 40.4574 21.8145 41.875H34C34 42.5729 34.0553 43.2708 34.166 43.9688C34.2767 44.6667 34.4206 45.3646 34.5977 46.0625H22.5449C22.8105 47.3057 23.1647 48.6688 23.6074 50.1519C24.0501 51.6349 24.6035 53.0853 25.2676 54.5029C25.9316 55.9206 26.6953 57.251 27.5586 58.4941C28.4219 59.7373 29.3958 60.7515 30.4805 61.5366ZM60.8613 20.9375C59.998 19.1709 58.9798 17.5133 57.8066 15.9648C56.6335 14.4163 55.3053 12.9987 53.8223 11.7119C52.3392 10.4251 50.7676 9.28011 49.1074 8.27686C47.4473 7.2736 45.6543 6.45573 43.7285 5.82324C44.5254 6.91374 45.2337 8.06966 45.8535 9.29102C46.4733 10.5124 47.0378 11.7664 47.5469 13.0532C48.056 14.34 48.4876 15.6486 48.8418 16.979C49.196 18.3094 49.5059 19.6289 49.7715 20.9375H60.8613ZM34 4.1875C32.8932 4.1875 31.875 4.48193 30.9453 5.0708C30.0156 5.65967 29.1523 6.43392 28.3555 7.39355C27.5586 8.35319 26.8503 9.43278 26.2305 10.6323C25.6107 11.8319 25.0462 13.0641 24.5371 14.3291C24.028 15.5941 23.6185 16.7936 23.3086 17.9277C22.9987 19.0618 22.7441 20.0651 22.5449 20.9375H45.4551C45.278 20.0869 45.0234 19.0837 44.6914 17.9277C44.3594 16.7718 43.9499 15.5723 43.4629 14.3291C42.9759 13.0859 42.4225 11.8646 41.8027 10.665C41.1829 9.4655 40.4746 8.375 39.6777 7.39355C38.8809 6.41211 38.0065 5.63786 37.0547 5.0708C36.1029 4.50374 35.0846 4.20931 34 4.1875ZM24.3047 5.79053C22.4232 6.42301 20.6302 7.22998 18.9258 8.21143C17.2214 9.19287 15.6387 10.3379 14.1777 11.6465C12.7168 12.9551 11.3887 14.3836 10.1934 15.9321C8.99805 17.4806 7.97982 19.1491 7.13867 20.9375H18.2285C18.472 19.738 18.7708 18.4621 19.125 17.1099C19.4792 15.7576 19.9219 14.4054 20.4531 13.0532C20.9844 11.701 21.5599 10.4033 22.1797 9.16016C22.7995 7.91699 23.5078 6.79378 24.3047 5.79053ZM4.25 33.5C4.25 36.4007 4.6595 39.1924 5.47852 41.875H17.5312C17.3542 40.4792 17.2214 39.0942 17.1328 37.7202C17.0443 36.3462 17 34.9395 17 33.5C17 32.0824 17.0443 30.6865 17.1328 29.3125C17.2214 27.9385 17.3542 26.5426 17.5312 25.125H5.47852C4.6595 27.8076 4.25 30.5993 4.25 33.5ZM7.07226 46.0625C7.93555 47.8291 8.95378 49.4867 10.127 51.0352C11.3001 52.5837 12.6283 54.0122 14.1113 55.3208C15.5944 56.6294 17.1881 57.7635 18.8926 58.7231C20.597 59.6828 22.39 60.5007 24.2715 61.1768C23.4746 60.0863 22.7663 58.9303 22.1465 57.709C21.5267 56.4876 20.9622 55.2336 20.4531 53.9468C19.944 52.66 19.5124 51.3514 19.1582 50.021C18.804 48.6906 18.4831 47.3711 18.1953 46.0625H7.07226ZM58.5039 51.9839C59.9427 52.7036 61.2487 53.5869 62.4219 54.6338C63.595 55.6807 64.5911 56.8584 65.4101 58.167C66.2292 59.4756 66.8711 60.8714 67.3359 62.3545C67.8008 63.8376 68.0221 65.3861 68 67H63.75C63.75 65.277 63.418 63.6522 62.7539 62.1255C62.0898 60.5988 61.1823 59.2684 60.0312 58.1343C58.8802 57.0002 57.5189 56.0951 55.9473 55.4189C54.3756 54.7428 52.7266 54.4157 51 54.4375C49.2292 54.4375 47.5801 54.7646 46.0527 55.4189C44.5254 56.0732 43.1751 56.9674 42.0019 58.1016C40.8288 59.2357 39.9102 60.577 39.2461 62.1255C38.582 63.674 38.25 65.2988 38.25 67H34C34 65.4079 34.2214 63.8703 34.6641 62.3872C35.1068 60.9041 35.7376 59.4974 36.5566 58.167C37.3756 56.8366 38.3717 55.6589 39.5449 54.6338C40.7181 53.6087 42.0241 52.7254 43.4629 51.9839C41.8027 50.8062 40.5189 49.334 39.6113 47.5674C38.7038 45.8008 38.25 43.9033 38.25 41.875C38.25 40.152 38.582 38.5272 39.2461 37.0005C39.9102 35.4738 40.8177 34.1434 41.9687 33.0093C43.1198 31.8752 44.47 30.9701 46.0195 30.2939C47.569 29.6178 49.2292 29.2907 51 29.3125C52.7487 29.3125 54.3978 29.6396 55.9473 30.2939C57.4967 30.9482 58.847 31.8424 59.998 32.9766C61.1491 34.1107 62.0677 35.452 62.7539 37.0005C63.4401 38.549 63.7721 40.1738 63.75 41.875C63.75 43.8815 63.2962 45.7681 62.3887 47.5347C61.4811 49.3013 60.1862 50.7843 58.5039 51.9839ZM51 50.25C52.1732 50.25 53.2689 50.0319 54.2871 49.5957C55.3053 49.1595 56.2129 48.5597 57.0098 47.7964C57.8066 47.033 58.4154 46.1497 58.8359 45.1465C59.2565 44.1432 59.4779 43.0527 59.5 41.875C59.5 40.7191 59.2786 39.6395 58.8359 38.6362C58.3932 37.633 57.7845 36.7388 57.0098 35.9536C56.235 35.1685 55.3385 34.5687 54.3203 34.1543C53.3021 33.7399 52.1953 33.5218 51 33.5C49.8268 33.5 48.7311 33.7181 47.7129 34.1543C46.6947 34.5905 45.7871 35.1903 44.9902 35.9536C44.1934 36.717 43.5846 37.6003 43.1641 38.6035C42.7435 39.6068 42.5221 40.6973 42.5 41.875C42.5 43.0309 42.7213 44.1105 43.1641 45.1138C43.6068 46.117 44.2155 47.0112 44.9902 47.7964C45.765 48.5815 46.6615 49.1813 47.6797 49.5957C48.6979 50.0101 49.8047 50.2282 51 50.25Z" fill="#076AFF"/>
</g>
<defs>
<clipPath id="clip0_1_2532">
<rect width="68" height="68" fill="white"/>
</clipPath>
</defs>
</svg>
