<svg width="49" height="47" viewBox="0 0 49 47" fill="none" xmlns="http://www.w3.org/2000/svg">
<g id="Layer_1" clip-path="url(#clip0_1_1310)">
<rect width="49" height="47" fill="white"/>
<path id="Vector" d="M44.3046 37.2108C44.3046 38.5941 44.3116 39.9482 44.3018 41.3023C44.2963 42.0852 44.2237 42.8639 43.9461 43.6064C43.5429 44.6847 42.8231 45.5094 41.8703 46.1432C40.9635 46.7465 39.9688 47.0153 38.8793 46.9986C37.2443 46.9749 35.6078 46.968 33.9728 46.9721C32.8638 46.9749 31.8607 46.6629 30.9567 46.0276C30.2941 45.5623 29.7695 44.9647 29.3315 44.2904C28.5879 43.1467 28.0829 41.879 27.4398 40.6823C26.9989 39.8632 26.5707 39.0371 26.1382 38.2138C25.9792 37.9101 25.8299 37.5994 25.6625 37.2999C25.6304 37.2428 25.5272 37.1954 25.456 37.194C25.0612 37.1843 24.6678 37.1913 24.273 37.1913C16.8262 37.1913 9.37798 37.1913 1.93116 37.1913C1.09831 37.1913 0.491459 36.8096 0.16083 36.0545C0.0422505 35.7842 0.0115592 35.4583 0.0101642 35.1574C-0.00239135 33.2697 0.00318889 31.3821 0.00318889 29.4958C0.00318889 20.3196 0.00318889 11.1433 0.00318889 1.96703C0.00179383 0.837241 0.763495 0.0403941 1.88931 0.00974619C2.51011 -0.00697087 3.13091 0.00138766 3.75031 0.00138766C17.8153 0.00138766 31.8803 0.00138766 45.9452 0.00138766C46.3749 0.00138766 46.8046 -0.00836395 47.2329 0.0125324C48.2234 0.0598974 48.999 0.883212 48.999 1.8723C48.999 11.2506 48.999 20.6302 48.999 30.0085C48.999 31.7276 48.999 33.448 48.999 35.1671C48.999 35.5725 48.9446 35.964 48.7144 36.3122C48.3573 36.8486 47.8648 37.1662 47.2147 37.1801C46.3805 37.1982 45.5448 37.1871 44.7092 37.1913C44.5767 37.1913 44.4455 37.2038 44.3046 37.2108ZM41.5592 30.7315V29.9556C41.5592 24.2077 41.5592 18.4598 41.5592 12.7119C41.5592 10.6627 41.5606 8.61346 41.5647 6.56422C41.5647 6.43467 41.5396 6.37198 41.3918 6.38312C41.2132 6.39566 41.0332 6.38312 40.8533 6.38312C31.9277 6.38312 23.0035 6.38312 14.0779 6.38312C11.6366 6.38312 9.19522 6.38173 6.75387 6.38312C6.61297 6.38312 6.47207 6.39845 6.33675 6.40541V30.8764H29.651C29.651 30.7287 29.651 30.6006 29.651 30.4738C29.651 28.5639 29.651 26.6539 29.651 24.7426C29.651 24.1185 29.8323 23.5557 30.2522 23.0849C30.8451 22.4204 31.8286 22.1696 32.6336 22.4691C33.5836 22.823 34.1612 23.6142 34.164 24.595C34.1681 26.1636 34.1612 27.7322 34.1612 29.3008C34.1612 29.3649 34.1779 29.429 34.1891 29.5126C35.3916 29.0152 36.3863 29.2799 37.1898 30.2565C37.3266 30.1757 37.4437 30.1004 37.5651 30.0364C38.7244 29.4178 40.0678 29.826 40.69 30.9851C40.7375 31.0742 40.7891 31.0603 40.8588 31.0296C41.0862 30.9321 41.315 30.836 41.555 30.7343L41.5592 30.7315ZM44.3018 36.0392C45.2923 36.0392 46.2647 36.0503 47.237 36.0336C47.59 36.028 47.8411 35.7271 47.8495 35.3761C47.8537 35.1852 47.8495 34.9944 47.8495 34.8035C47.8495 24.2146 47.8495 13.6258 47.8495 3.03693C47.8495 2.63711 47.8592 2.23729 47.8383 1.83887C47.8313 1.6926 47.7783 1.53239 47.7002 1.40841C47.5858 1.22452 47.3807 1.16183 47.1729 1.15626C46.8074 1.14651 46.4419 1.14929 46.0764 1.14929C31.9472 1.14929 17.8195 1.14929 3.69033 1.14929C3.09324 1.14929 2.49616 1.14929 1.89768 1.14929C1.44986 1.14929 1.16248 1.41816 1.15132 1.85977C1.14435 2.14953 1.15132 2.4379 1.15132 2.72766C1.15132 13.1312 1.15132 23.5348 1.15132 33.9384C1.15132 34.419 1.14574 34.8996 1.15272 35.3802C1.1583 35.7397 1.38709 35.9876 1.74283 36.0378C1.8628 36.0545 1.98557 36.0657 2.10694 36.0657C2.68728 36.0657 3.26623 36.0601 3.84657 36.0601C10.7884 36.0601 17.7316 36.0629 24.6734 36.0643C24.785 36.0643 24.898 36.0503 25.004 36.0448C24.9608 35.8845 24.9147 35.7425 24.8868 35.5962C24.8589 35.4485 24.8394 35.2981 24.8352 35.149C24.8129 34.0875 25.4951 32.8574 26.9948 32.8783C27.7048 32.888 28.3117 33.168 28.8572 33.5943C29.118 33.7991 29.3636 34.0248 29.6384 34.2602V32.0438C29.531 32.0438 29.4347 32.0438 29.3371 32.0438C21.5415 32.0438 13.7473 32.0438 5.95171 32.0438C5.85964 32.0438 5.76338 32.0508 5.6741 32.0327C5.25558 31.9421 5.21233 31.8599 5.20954 31.5116C5.20396 30.7831 5.20396 30.0531 5.20396 29.3231C5.20396 21.9356 5.20396 14.5494 5.20396 7.16186C5.20396 6.68682 5.21094 6.21317 5.21652 5.73812C5.21931 5.50408 5.35184 5.35363 5.56389 5.29651C5.73409 5.25054 5.91684 5.23243 6.09401 5.23243C17.7051 5.22965 29.3175 5.22965 40.9286 5.22965C41.2592 5.22965 41.5899 5.22407 41.9205 5.23383C42.0516 5.23801 42.1911 5.25472 42.3097 5.30627C42.4952 5.38707 42.6627 5.50269 42.6668 5.7437C42.6724 6.05575 42.6892 6.3678 42.6892 6.67985C42.6892 14.5536 42.6892 22.4273 42.6892 30.2997C42.6892 30.4724 42.6892 30.6451 42.6892 30.8123C43.7592 31.155 44.3186 32.0591 44.2949 33.0886C44.2893 33.3436 44.2977 33.5985 44.2977 33.8534C44.2977 34.5764 44.2977 35.2981 44.2977 36.042L44.3018 36.0392ZM30.7907 30.2941C30.7907 30.2941 30.7949 30.2941 30.7963 30.2941C30.7963 32.1748 30.7963 34.0568 30.7963 35.9375C30.7963 36.0239 30.7879 36.1116 30.7726 36.1966C30.7307 36.4237 30.5926 36.5672 30.3722 36.6298C30.1016 36.7079 29.8435 36.5672 29.6523 36.2704C29.4529 35.9612 29.2645 35.6394 29.0246 35.3635C28.7232 35.0167 28.3898 34.6907 28.0397 34.3926C27.7788 34.1711 27.4537 34.0471 27.1008 34.0178C26.293 33.9523 25.7546 34.6377 26.0182 35.4109C26.0977 35.6449 26.2024 35.8734 26.3168 36.0935C27.1161 37.6398 27.9169 39.1862 28.7288 40.7255C29.252 41.7174 29.6789 42.7594 30.3094 43.6956C30.6512 44.2027 31.0293 44.6735 31.5217 45.0427C32.2486 45.5874 33.0688 45.827 33.9742 45.827C35.5981 45.827 37.2219 45.834 38.8458 45.8535C39.5726 45.8618 40.2645 45.7588 40.9091 45.4063C41.6875 44.9828 42.3125 44.4033 42.7226 43.6148C43.0561 42.974 43.1495 42.2719 43.1509 41.5614C43.1579 38.6847 43.1537 35.8079 43.1565 32.9298C43.1565 32.5021 42.971 32.1859 42.5971 31.9839C41.8451 31.5785 40.976 32.0661 40.9328 32.9201C40.9202 33.1625 40.9412 33.4076 40.923 33.6486C40.9119 33.8005 40.8798 33.9593 40.8198 34.1C40.7263 34.3229 40.5226 34.3786 40.2994 34.3605C40.0888 34.3438 39.9102 34.256 39.8502 34.0387C39.8098 33.891 39.7888 33.7322 39.7874 33.579C39.7791 33.0287 39.7902 32.4798 39.7763 31.9296C39.7679 31.5785 39.6396 31.2874 39.3201 31.0854C38.9239 30.8346 38.5193 30.8137 38.1148 31.0185C37.7228 31.2177 37.5526 31.5729 37.547 32.0034C37.54 32.5244 37.5456 33.0454 37.5428 33.5664C37.5428 33.7044 37.54 33.8451 37.5191 33.9816C37.4758 34.2672 37.2387 34.4525 36.9555 34.4371C36.6458 34.4204 36.4212 34.2114 36.4184 33.9133C36.4086 33.2126 36.4128 32.5133 36.403 31.8126C36.3988 31.4796 36.4519 31.1467 36.1854 30.8513C36.0124 30.6605 35.8631 30.5003 35.5995 30.4306C34.888 30.2467 34.1263 30.7566 34.1598 31.6036C34.1877 32.3377 34.1695 33.0733 34.1681 33.8088C34.1681 33.9872 34.1612 34.1683 34.1402 34.3452C34.111 34.582 33.8752 34.7534 33.6087 34.7478C33.2544 34.7408 33.094 34.628 33.0619 34.3466C33.0423 34.1738 33.0368 33.9997 33.0368 33.827C33.0368 30.9098 33.0368 27.9913 33.0368 25.0742C33.0368 24.8778 33.0382 24.6799 33.0228 24.4835C32.9782 23.9179 32.5359 23.5153 31.9277 23.4749C31.4283 23.4415 30.9163 23.8316 30.8381 24.3567C30.7865 24.7022 30.7963 25.0603 30.7949 25.4113C30.7907 27.0384 30.7935 28.6642 30.7935 30.2913L30.7907 30.2941Z" fill="#0500FF"/>
<path id="Vector_2" d="M23.2512 16.5234C22.4602 17.819 21.4432 18.8652 20.3997 19.8822C19.3088 20.9451 18.1858 21.9746 17.0697 23.0124C16.9288 23.1434 16.7586 23.2534 16.5829 23.3328C16.4155 23.4095 16.2439 23.3551 16.1016 23.2256C15.1892 22.3967 14.2685 21.5776 13.3659 20.7375C12.8832 20.2889 12.4312 19.8083 11.968 19.3389C11.4407 18.8039 10.912 18.2704 10.4572 17.6699C9.74847 16.7338 9.14441 15.7391 8.79286 14.6093C8.5264 13.7526 8.36458 12.8791 8.48455 11.9764C8.60453 11.0806 8.89749 10.2517 9.54759 9.59421C10.4181 8.71378 11.4881 8.39337 12.706 8.54104C13.6909 8.66084 14.5572 9.07877 15.3622 9.63322C15.6956 9.86308 16.0081 10.1208 16.322 10.3757C16.4001 10.4398 16.4559 10.4496 16.5326 10.3897C16.6652 10.288 16.8047 10.1932 16.933 10.086C17.8928 9.2947 18.9545 8.72074 20.203 8.53686C21.7125 8.31535 23.3768 9.05648 24.0562 10.6195C24.5445 11.7437 24.5486 12.8903 24.271 14.0521C24.1762 14.4477 24.006 14.8266 23.8832 15.2167C23.8637 15.278 23.8818 15.395 23.925 15.4243C24.1427 15.5761 24.2013 15.8143 24.285 16.0358C24.4538 16.4886 24.61 16.9469 24.7816 17.4359C24.8486 17.2534 24.9211 17.0974 24.9644 16.9344C25.3899 15.3491 25.8126 13.7623 26.2325 12.1756C26.2841 11.9778 26.3622 11.8023 26.545 11.6964C26.8505 11.5181 27.2076 11.6281 27.336 11.9625C27.4838 12.3456 27.5982 12.7398 27.7308 13.1285C27.9819 13.8668 28.2372 14.6038 28.4897 15.3421C28.4967 15.3616 28.5092 15.3769 28.5246 15.4034C28.6473 15.1178 28.7799 14.8489 28.8789 14.5689C29.0003 14.2234 29.2416 14.0786 29.5904 14.0772C30.8138 14.0744 32.0373 14.0716 33.2608 14.0744C33.3849 14.0744 33.5133 14.1064 33.6347 14.1426C33.8648 14.2123 33.9248 14.4143 33.9555 14.6163C33.9862 14.8155 33.9011 14.998 33.7295 15.0899C33.583 15.168 33.4017 15.2195 33.2357 15.2209C32.1684 15.232 31.1012 15.2292 30.034 15.2237C29.8903 15.2237 29.8122 15.2529 29.748 15.3992C29.4802 16.0205 29.19 16.6321 28.9124 17.2478C28.8147 17.4665 28.6431 17.5613 28.4157 17.5543C28.1758 17.5473 27.9707 17.4721 27.887 17.2158C27.6387 16.458 27.3918 15.7001 27.1393 14.9437C27.0639 14.7166 26.9733 14.4937 26.8505 14.2736C26.7849 14.509 26.7166 14.7431 26.6538 14.9799C26.2395 16.5151 25.8279 18.0503 25.4122 19.584C25.348 19.8209 25.1164 19.9811 24.8709 19.9825C24.6505 19.9825 24.4259 19.8209 24.345 19.5938C24.0101 18.6451 23.6781 17.6964 23.3433 16.7477C23.321 16.685 23.2917 16.6237 23.2484 16.5206L23.2512 16.5234ZM21.8841 16.6279C21.8813 16.6084 21.8785 16.5875 21.8757 16.568C21.7348 16.5513 21.5939 16.5192 21.453 16.5179C20.0677 16.5151 18.681 16.5179 17.2957 16.5165C17.152 16.5165 17.0056 16.5095 16.8633 16.483C16.6596 16.4454 16.5243 16.3256 16.4713 16.1153C16.4196 15.9077 16.4461 15.7335 16.601 15.5747C16.7712 15.402 16.9818 15.3686 17.2051 15.3686C18.9391 15.3686 20.6732 15.3686 22.4058 15.3686C22.5077 15.3686 22.5844 15.3644 22.643 15.2501C22.8941 14.757 23.0755 14.2416 23.1968 13.7038C23.3935 12.8262 23.3907 11.9611 23.0517 11.1127C22.9373 10.8285 22.7379 10.6098 22.537 10.3855C22.3403 10.1654 22.1282 9.97592 21.852 9.87143C20.8545 9.48973 19.8905 9.64157 18.9642 10.1013C18.2109 10.4732 17.5482 10.9762 16.9539 11.5724C16.6052 11.9235 16.3234 11.9207 15.9565 11.5905C15.7402 11.3955 15.5421 11.1782 15.3189 10.9929C14.8544 10.6084 14.3452 10.2908 13.7983 10.0316C13.1371 9.71819 12.4381 9.59282 11.7183 9.69033C10.7292 9.82407 10.107 10.4259 9.78335 11.3453C9.51969 12.0934 9.55317 12.8624 9.69965 13.6244C9.88798 14.5982 10.3316 15.4661 10.8603 16.2964C11.3835 17.1183 12.0475 17.8218 12.7339 18.5016C13.8402 19.5966 14.9716 20.6651 16.1002 21.7364C16.4434 22.0623 16.4671 22.0637 16.8089 21.7364C18.0058 20.5926 19.2056 19.4503 20.3816 18.2857C20.9103 17.7619 21.3833 17.1824 21.8813 16.6293L21.8841 16.6279Z" fill="#0500FF"/>
<path id="Vector_3" d="M27.7425 24.4208C27.7788 22.497 29.2911 20.7807 31.2204 20.477C32.6434 20.2527 33.871 20.6665 34.8894 21.6681C35.6511 22.4176 36.0264 23.3537 36.0961 24.4153C36.1115 24.6493 36.0738 24.8597 35.8799 25.0268C35.573 25.2915 35.0973 25.1466 35.0038 24.751C34.9745 24.627 34.9508 24.5002 34.9466 24.3749C34.9341 23.9987 34.8336 23.6421 34.6746 23.3064C34.5867 23.1225 34.457 22.9567 34.33 22.7951C34.1738 22.5959 34.0231 22.3828 33.8306 22.2239C32.5053 21.129 30.3011 21.356 29.3008 23.0208C29.0065 23.5112 28.8809 24.0391 28.853 24.6033C28.8307 25.0672 28.3982 25.2929 27.9909 25.0742C27.8221 24.9836 27.7635 24.8346 27.7453 24.6618C27.737 24.5824 27.7439 24.5002 27.7439 24.4194L27.7425 24.4208Z" fill="#0500FF"/>
<path id="Vector_4" d="M44.7213 18.5991C44.7213 17.2227 44.7213 15.845 44.7213 14.4686C44.7213 14.2248 44.784 14.034 45.0282 13.9211C45.3937 13.7526 45.8248 13.9866 45.8303 14.3906C45.8443 15.4549 45.8415 16.5192 45.8429 17.5836C45.8471 19.2385 45.8513 20.8935 45.8527 22.5471C45.8527 22.7408 45.8694 22.94 45.7243 23.1072C45.5597 23.2966 45.3449 23.3718 45.1203 23.3022C44.9166 23.2395 44.7115 23.0319 44.7129 22.7812C44.7199 21.8896 44.7171 20.9994 44.7171 20.1078C44.7171 19.6049 44.7171 19.1006 44.7171 18.5977H44.7213V18.5991Z" fill="#0500FF"/>
</g>
<defs>
<clipPath id="clip0_1_1310">
<rect width="49" height="47" fill="white"/>
</clipPath>
</defs>
</svg>
