<?xml version="1.0" encoding="UTF-8"?>
<!DOCTYPE svg PUBLIC "-//W3C//DTD SVG 1.1//EN" "http://www.w3.org/Graphics/SVG/1.1/DTD/svg11.dtd">
<svg xmlns="http://www.w3.org/2000/svg" version="1.1" width="768px" height="500px" style="shape-rendering:geometricPrecision; text-rendering:geometricPrecision; image-rendering:optimizeQuality; fill-rule:evenodd; clip-rule:evenodd" xmlns:xlink="http://www.w3.org/1999/xlink">
<g><path style="opacity:1" fill="#f7fbfe" d="M -0.5,-0.5 C 255.5,-0.5 511.5,-0.5 767.5,-0.5C 767.5,166.167 767.5,332.833 767.5,499.5C 511.5,499.5 255.5,499.5 -0.5,499.5C -0.5,332.833 -0.5,166.167 -0.5,-0.5 Z"/></g>
<g><path style="opacity:1" fill="#eea88f" d="M 257.5,10.5 C 253.102,10.2941 248.768,10.6274 244.5,11.5C 244.611,10.8826 244.944,10.3826 245.5,10C 249.689,9.18806 253.689,9.35472 257.5,10.5 Z"/></g>
<g><path style="opacity:1" fill="#ea7048" d="M 257.5,10.5 C 269.998,13.9001 281.998,18.9001 293.5,25.5C 308.619,37.1528 322.119,50.4861 334,65.5C 337.995,72.3171 342.162,78.9837 346.5,85.5C 346.5,86.8333 346.5,88.1667 346.5,89.5C 349.5,89.1667 350.833,90.5 350.5,93.5C 332.573,92.0828 315.906,95.7495 300.5,104.5C 299.824,105.602 299.158,106.602 298.5,107.5C 291.773,93.285 282.44,80.785 270.5,70C 266.12,65.952 261.454,62.2853 256.5,59C 248.508,54.1196 240.341,49.6196 232,45.5C 228.336,40.5227 227.67,35.1894 230,29.5C 233,24.8333 236,20.1667 239,15.5C 240.451,13.5359 242.284,12.2026 244.5,11.5C 248.768,10.6274 253.102,10.2941 257.5,10.5 Z"/></g>
<g><path style="opacity:1" fill="#dae5fd" d="M 433.5,27.5 C 439.449,26.9723 443.782,29.3057 446.5,34.5C 440.594,42.9106 433.761,50.5773 426,57.5C 421.576,63.8002 417.743,70.4668 414.5,77.5C 411.914,78.48 409.247,78.8134 406.5,78.5C 407.407,57.1692 416.407,40.1692 433.5,27.5 Z"/></g>
<g><path style="opacity:1" fill="#d9e5fd" d="M 437.5,84.5 C 435.579,83.6373 433.579,82.9707 431.5,82.5C 430.041,82.5674 428.708,82.2341 427.5,81.5C 436.304,61.1968 450.97,46.6968 471.5,38C 479.513,34.9237 485.68,37.0904 490,44.5C 490.711,46.8991 490.544,49.2324 489.5,51.5C 487.082,52.4146 485.082,53.9146 483.5,56C 475.365,60.0476 467.032,63.7143 458.5,67C 451.559,72.8179 444.559,78.6513 437.5,84.5 Z"/></g>
<g><path style="opacity:1" fill="#ea7148" d="M 573.5,51.5 C 573.833,54.1667 574.167,56.8333 574.5,59.5C 573.338,61.9862 572.004,64.4862 570.5,67C 541.619,81.0419 521.286,102.875 509.5,132.5C 506.443,127.934 502.776,123.767 498.5,120C 491.363,114.438 483.696,109.938 475.5,106.5C 475.5,105.833 475.5,105.167 475.5,104.5C 487.412,82.1658 503.412,63.3325 523.5,48C 528.266,46.4159 532.6,44.0825 536.5,41C 542.913,39.0835 549.413,37.5835 556,36.5C 558.591,36.5653 561.091,37.0653 563.5,38C 567.468,42.1197 570.801,46.6197 573.5,51.5 Z"/></g>
<g><path style="opacity:1" fill="#f0bdad" d="M 573.5,51.5 C 575.413,54.04 575.746,56.7067 574.5,59.5C 574.167,56.8333 573.833,54.1667 573.5,51.5 Z"/></g>
<g><path style="opacity:1" fill="#fe8c5b" d="M 427.5,81.5 C 428.708,82.2341 430.041,82.5674 431.5,82.5C 433.033,84.2451 435.033,85.2451 437.5,85.5C 447.053,89.4378 455.386,95.1044 462.5,102.5C 462.5,102.833 462.5,103.167 462.5,103.5C 440.266,99.0183 418.266,100.685 396.5,108.5C 395.817,108.137 395.15,107.804 394.5,107.5C 385.665,103.162 376.498,99.4958 367,96.5C 361.445,95.547 355.945,94.547 350.5,93.5C 350.833,90.5 349.5,89.1667 346.5,89.5C 346.5,88.1667 346.5,86.8333 346.5,85.5C 347.234,86.9293 348.401,87.9293 350,88.5C 351.44,87.8524 352.94,87.5191 354.5,87.5C 358.661,85.7565 362.994,84.5898 367.5,84C 368.056,83.6174 368.389,83.1174 368.5,82.5C 388.109,78.9545 407.776,78.6212 427.5,81.5 Z"/></g>
<g><path style="opacity:1" fill="#f2ad92" d="M 431.5,82.5 C 433.579,82.9707 435.579,83.6373 437.5,84.5C 437.5,84.8333 437.5,85.1667 437.5,85.5C 435.033,85.2451 433.033,84.2451 431.5,82.5 Z"/></g>
<g><path style="opacity:1" fill="#fbb28f" d="M 368.5,82.5 C 368.389,83.1174 368.056,83.6174 367.5,84C 362.994,84.5898 358.661,85.7565 354.5,87.5C 358.502,84.3214 363.169,82.6547 368.5,82.5 Z"/></g>
<g><path style="opacity:1" fill="#ea642f" d="M 350.5,93.5 C 355.945,94.547 361.445,95.547 367,96.5C 376.498,99.4958 385.665,103.162 394.5,107.5C 388.399,109.44 382.066,110.94 375.5,112C 369.871,114.398 365.037,117.898 361,122.5C 362.447,135.071 363.78,147.737 365,160.5C 366.214,162.049 367.714,163.215 369.5,164C 374.357,166.259 379.357,168.259 384.5,170C 403.202,170.131 420.536,174.798 436.5,184C 441.093,187.492 444.426,191.992 446.5,197.5C 446.333,197.833 446.167,198.167 446,198.5C 440.08,190.242 432.247,184.742 422.5,182C 403.259,181.517 384.592,178.351 366.5,172.5C 366.345,198.537 371.845,223.203 383,246.5C 388.423,253.017 393.09,260.017 397,267.5C 400.433,275.563 402.433,283.896 403,292.5C 395.773,278.027 386.773,264.694 376,252.5C 373.931,248.03 371.598,243.697 369,239.5C 367.756,242.638 367.089,245.972 367,249.5C 359.437,267.394 349.771,284.061 338,299.5C 341.4,291.367 345.4,283.367 350,275.5C 355.333,263.167 359.666,250.5 363,237.5C 363.667,232.167 363.667,226.833 363,221.5C 361.329,212.756 359.662,204.089 358,195.5C 357.942,178.353 355.275,161.686 350,145.5C 342.064,137.468 332.564,134.801 321.5,137.5C 317.781,138.513 314.114,139.68 310.5,141C 304.134,147.031 298.134,153.364 292.5,160C 288.783,163.385 284.783,166.385 280.5,169C 275.834,171.751 270.834,172.751 265.5,172C 264.058,171.623 263.058,170.79 262.5,169.5C 262.5,168.833 262.5,168.167 262.5,167.5C 263.649,167.209 264.316,166.376 264.5,165C 265.994,156.525 268.494,148.358 272,140.5C 274.37,135.731 277.204,131.398 280.5,127.5C 280.932,126.29 281.599,125.29 282.5,124.5C 284.587,123.415 285.92,121.749 286.5,119.5C 286.987,118.527 287.487,117.527 288,116.5C 291.519,113.384 295.019,110.384 298.5,107.5C 299.158,106.602 299.824,105.602 300.5,104.5C 315.906,95.7495 332.573,92.0828 350.5,93.5 Z"/></g>
<g><path style="opacity:1" fill="#f78348" d="M 671.5,133.5 C 668.428,133.817 665.428,133.484 662.5,132.5C 661.292,127.79 659.959,123.124 658.5,118.5C 655.732,124.14 653.898,130.14 653,136.5C 649.403,133.616 645.236,132.782 640.5,134C 639.91,135.509 639.244,137.009 638.5,138.5C 637.001,133.173 635.501,127.839 634,122.5C 633.586,122.043 633.086,121.709 632.5,121.5C 631.185,125.393 630.518,129.393 630.5,133.5C 627.5,133.5 624.5,133.5 621.5,133.5C 621.628,135.655 621.128,137.655 620,139.5C 618.88,134.118 617.547,128.784 616,123.5C 614.142,126.572 612.976,129.905 612.5,133.5C 608.833,133.5 605.167,133.5 601.5,133.5C 601.313,135.564 600.813,137.564 600,139.5C 599.667,139.167 599.333,138.833 599,138.5C 598.194,132.638 596.861,126.971 595,121.5C 593.376,125.66 592.209,129.993 591.5,134.5C 586.728,133.603 584.395,135.603 584.5,140.5C 583.046,133.102 581.379,125.769 579.5,118.5C 577.378,123.989 576.044,129.656 575.5,135.5C 572.167,135.5 568.833,135.5 565.5,135.5C 562.263,125.491 563.096,115.824 568,106.5C 570.766,103.223 573.933,100.557 577.5,98.5C 587.467,95.3952 597.134,96.0619 606.5,100.5C 610.853,104.019 614.687,108.019 618,112.5C 622.573,105.928 628.406,100.761 635.5,97C 650.818,92.6215 662.651,97.1215 671,110.5C 674.023,118.161 674.189,125.828 671.5,133.5 Z"/></g>
<g><path style="opacity:1" fill="#f8a47b" d="M 606.5,100.5 C 597.134,96.0619 587.467,95.3952 577.5,98.5C 578.842,97.207 580.509,96.3736 582.5,96C 590,94.9885 597.333,95.6552 604.5,98C 605.381,98.7083 606.047,99.5416 606.5,100.5 Z"/></g>
<g><path style="opacity:1" fill="#ea7148" d="M 261.5,114.5 C 263.239,117.243 265.573,119.243 268.5,120.5C 271.241,125.523 275.241,127.856 280.5,127.5C 277.204,131.398 274.37,135.731 272,140.5C 268.494,148.358 265.994,156.525 264.5,165C 264.316,166.376 263.649,167.209 262.5,167.5C 262.851,165.131 263.018,162.797 263,160.5C 247.777,152.108 235.277,140.775 225.5,126.5C 224.422,123.793 223.422,121.126 222.5,118.5C 222.401,115.763 222.735,113.096 223.5,110.5C 224.028,109.279 224.695,108.113 225.5,107C 227.96,106.604 229.96,105.437 231.5,103.5C 237.298,99.0205 243.298,98.5205 249.5,102C 253.731,106.062 257.731,110.229 261.5,114.5 Z"/></g>
<g><path style="opacity:1" fill="#f68147" d="M 462.5,103.5 C 466.718,104.971 471.051,105.971 475.5,106.5C 483.696,109.938 491.363,114.438 498.5,120C 502.776,123.767 506.443,127.934 509.5,132.5C 518.345,144.422 524.679,157.422 528.5,171.5C 528.517,173.565 528.85,175.565 529.5,177.5C 525.579,180.591 522.079,184.258 519,188.5C 513.313,196.035 509.146,204.369 506.5,213.5C 502.766,219.409 498.433,224.909 493.5,230C 484.71,230.306 476.044,229.306 467.5,227C 466.026,225.684 464.359,224.684 462.5,224C 455.833,223.333 449.167,223.333 442.5,224C 431.618,229.534 431.951,230.534 443.5,227C 446.833,226.333 450.167,226.333 453.5,227C 464.09,231.585 475.09,235.085 486.5,237.5C 480.854,245.971 474.854,254.138 468.5,262C 454.473,270.516 439.473,276.516 423.5,280C 429.567,280.213 435.567,279.546 441.5,278C 449.925,275.314 458.258,272.481 466.5,269.5C 465.562,284.415 462.228,298.749 456.5,312.5C 456.846,313.696 457.346,313.696 458,312.5C 465.866,301.366 470.532,289.032 472,275.5C 482.661,254.686 496.494,236.352 513.5,220.5C 517.376,216.08 520.21,211.08 522,205.5C 524.858,201.786 528.358,199.12 532.5,197.5C 532.5,196.5 532.5,195.5 532.5,194.5C 533.167,197.833 533.833,201.167 534.5,204.5C 534.5,207.167 534.5,209.833 534.5,212.5C 534.5,221.833 534.5,231.167 534.5,240.5C 533.551,245.74 533.218,251.073 533.5,256.5C 531.858,267.699 530.192,279.033 528.5,290.5C 527.883,290.611 527.383,290.944 527,291.5C 526.707,287.132 525.54,283.132 523.5,279.5C 524.038,277.883 524.371,276.216 524.5,274.5C 514.742,276.189 505.075,278.356 495.5,281C 494.978,281.561 494.645,282.228 494.5,283C 495.675,284.859 496.675,286.692 497.5,288.5C 503.074,308.64 507.74,328.973 511.5,349.5C 508.383,358.023 504.717,366.357 500.5,374.5C 499.222,363.307 499.222,351.974 500.5,340.5C 490.167,340.5 479.833,340.5 469.5,340.5C 471.797,367.453 472.131,394.453 470.5,421.5C 469.833,421.5 469.5,421.833 469.5,422.5C 466.823,426.138 463.49,429.138 459.5,431.5C 457.508,402.519 456.841,373.186 457.5,343.5C 457.5,342.833 457.5,342.167 457.5,341.5C 447.326,340.177 436.993,340.177 426.5,341.5C 426.624,342.107 426.957,342.44 427.5,342.5C 427.5,342.833 427.5,343.167 427.5,343.5C 427.5,372.833 427.5,402.167 427.5,431.5C 423.629,431.185 419.962,431.518 416.5,432.5C 416.5,437.167 416.5,441.833 416.5,446.5C 406.697,447.024 397.03,446.357 387.5,444.5C 382.265,443.435 377.598,441.435 373.5,438.5C 373.5,432.167 373.5,425.833 373.5,419.5C 382.899,424.234 392.899,426.068 403.5,425C 412.583,421.729 414.916,415.729 410.5,407C 404.499,403.749 398.332,400.915 392,398.5C 385.421,394.451 379.254,389.785 373.5,384.5C 373.459,369.291 373.459,354.291 373.5,339.5C 374.821,335.767 374.821,331.934 373.5,328C 353.503,327.5 333.503,327.333 313.5,327.5C 313.183,331.702 313.517,335.702 314.5,339.5C 314.539,354.958 314.539,370.625 314.5,386.5C 309.845,379.867 305.178,373.201 300.5,366.5C 292.31,351.009 284.643,335.343 277.5,319.5C 277.5,319.167 277.5,318.833 277.5,318.5C 282.656,309.54 286.156,299.874 288,289.5C 288.439,281.759 289.439,274.092 291,266.5C 291.5,256.172 291.666,245.839 291.5,235.5C 309.534,232.475 317.034,221.809 314,203.5C 309.797,193.229 302.13,187.895 291,187.5C 272.677,189.163 264.677,199.163 267,217.5C 267.41,218.901 267.91,220.234 268.5,221.5C 266.143,223.098 263.477,224.098 260.5,224.5C 259.833,224.5 259.167,224.5 258.5,224.5C 257.174,220.386 256.507,215.886 256.5,211C 256.723,203.49 257.056,195.99 257.5,188.5C 257.539,184.267 258.205,180.267 259.5,176.5C 260.131,174.025 261.131,171.691 262.5,169.5C 263.058,170.79 264.058,171.623 265.5,172C 270.834,172.751 275.834,171.751 280.5,169C 284.783,166.385 288.783,163.385 292.5,160C 298.134,153.364 304.134,147.031 310.5,141C 314.114,139.68 317.781,138.513 321.5,137.5C 332.564,134.801 342.064,137.468 350,145.5C 355.275,161.686 357.942,178.353 358,195.5C 359.662,204.089 361.329,212.756 363,221.5C 363.667,226.833 363.667,232.167 363,237.5C 359.666,250.5 355.333,263.167 350,275.5C 345.4,283.367 341.4,291.367 338,299.5C 349.771,284.061 359.437,267.394 367,249.5C 367.089,245.972 367.756,242.638 369,239.5C 371.598,243.697 373.931,248.03 376,252.5C 386.773,264.694 395.773,278.027 403,292.5C 402.433,283.896 400.433,275.563 397,267.5C 393.09,260.017 388.423,253.017 383,246.5C 371.845,223.203 366.345,198.537 366.5,172.5C 384.592,178.351 403.259,181.517 422.5,182C 432.247,184.742 440.08,190.242 446,198.5C 446.167,198.167 446.333,197.833 446.5,197.5C 444.426,191.992 441.093,187.492 436.5,184C 420.536,174.798 403.202,170.131 384.5,170C 379.357,168.259 374.357,166.259 369.5,164C 367.714,163.215 366.214,162.049 365,160.5C 363.78,147.737 362.447,135.071 361,122.5C 365.037,117.898 369.871,114.398 375.5,112C 382.066,110.94 388.399,109.44 394.5,107.5C 395.15,107.804 395.817,108.137 396.5,108.5C 418.266,100.685 440.266,99.0183 462.5,103.5 Z"/></g>
<g><path style="opacity:1" fill="#f6ccb9" d="M 462.5,103.5 C 462.5,103.167 462.5,102.833 462.5,102.5C 466.76,103.585 471.094,104.252 475.5,104.5C 475.5,105.167 475.5,105.833 475.5,106.5C 471.051,105.971 466.718,104.971 462.5,103.5 Z"/></g>
<g><path style="opacity:1" fill="#f2c4b5" d="M 261.5,114.5 C 264.427,115.757 266.761,117.757 268.5,120.5C 265.573,119.243 263.239,117.243 261.5,114.5 Z"/></g>
<g><path style="opacity:1" fill="#efab94" d="M 223.5,110.5 C 222.735,113.096 222.401,115.763 222.5,118.5C 221.848,117.551 221.514,116.385 221.5,115C 221.307,112.992 221.974,111.492 223.5,110.5 Z"/></g>
<g><path style="opacity:1" fill="#fe9769" d="M 447.5,116.5 C 454.841,116.334 462.174,116.5 469.5,117C 484.172,123.509 495.506,133.676 503.5,147.5C 504.652,150.106 504.818,152.773 504,155.5C 502.874,156.944 501.374,157.61 499.5,157.5C 486.257,154.879 474.591,149.045 464.5,140C 458.85,138.075 453.183,136.408 447.5,135C 436.899,128.838 436.899,122.671 447.5,116.5 Z"/></g>
<g><path style="opacity:1" fill="#ef9676" d="M 286.5,119.5 C 285.92,121.749 284.587,123.415 282.5,124.5C 283.08,122.251 284.413,120.585 286.5,119.5 Z"/></g>
<g><path style="opacity:1" fill="#f78349" d="M 669.5,138.5 C 653.908,156.535 636.742,172.869 618,187.5C 603.366,175.699 589.533,163.032 576.5,149.5C 575.167,147.5 573.5,145.833 571.5,144.5C 570.864,142.205 569.531,140.539 567.5,139.5C 570.337,137.598 573.671,136.931 577.5,137.5C 577.421,134.729 577.921,132.063 579,129.5C 581.046,136.728 582.713,144.061 584,151.5C 586.034,147.084 587.2,142.417 587.5,137.5C 592.388,138.384 594.888,136.384 595,131.5C 596.314,135.754 597.147,140.087 597.5,144.5C 597.39,147.059 598.056,149.392 599.5,151.5C 601.309,148.407 602.309,145.074 602.5,141.5C 602.286,139.856 602.62,138.356 603.5,137C 606.882,136.824 610.215,136.324 613.5,135.5C 614.098,134.205 614.598,132.872 615,131.5C 616.489,137.715 617.322,144.048 617.5,150.5C 618.5,150.5 619.5,150.5 620.5,150.5C 620.536,146.021 621.369,141.688 623,137.5C 626.057,136.549 629.223,136.216 632.5,136.5C 632.215,134.712 632.548,133.045 633.5,131.5C 635.237,136.35 636.404,141.35 637,146.5C 637.414,146.957 637.914,147.291 638.5,147.5C 640.13,144.019 641.13,140.352 641.5,136.5C 644.167,136.5 646.833,136.5 649.5,136.5C 649.268,140.98 649.935,145.313 651.5,149.5C 653.332,142.839 655.165,136.173 657,129.5C 657.667,128.167 658.333,128.167 659,129.5C 659.662,131.813 660.162,134.146 660.5,136.5C 664.012,135.945 667.012,136.612 669.5,138.5 Z"/></g>
<g><path style="opacity:1" fill="#fcd7c3" d="M 671.5,133.5 C 671.204,135.403 670.537,137.07 669.5,138.5C 667.012,136.612 664.012,135.945 660.5,136.5C 660.162,134.146 659.662,131.813 659,129.5C 658.333,128.167 657.667,128.167 657,129.5C 655.165,136.173 653.332,142.839 651.5,149.5C 649.935,145.313 649.268,140.98 649.5,136.5C 646.833,136.5 644.167,136.5 641.5,136.5C 641.13,140.352 640.13,144.019 638.5,147.5C 637.914,147.291 637.414,146.957 637,146.5C 636.404,141.35 635.237,136.35 633.5,131.5C 632.548,133.045 632.215,134.712 632.5,136.5C 629.223,136.216 626.057,136.549 623,137.5C 621.369,141.688 620.536,146.021 620.5,150.5C 619.5,150.5 618.5,150.5 617.5,150.5C 617.322,144.048 616.489,137.715 615,131.5C 614.598,132.872 614.098,134.205 613.5,135.5C 610.215,136.324 606.882,136.824 603.5,137C 602.62,138.356 602.286,139.856 602.5,141.5C 601.518,143.406 600.518,145.406 599.5,147.5C 598.824,146.398 598.158,145.398 597.5,144.5C 597.147,140.087 596.314,135.754 595,131.5C 594.888,136.384 592.388,138.384 587.5,137.5C 587.2,142.417 586.034,147.084 584,151.5C 582.713,144.061 581.046,136.728 579,129.5C 577.921,132.063 577.421,134.729 577.5,137.5C 573.671,136.931 570.337,137.598 567.5,139.5C 566.655,138.329 565.989,136.995 565.5,135.5C 568.833,135.5 572.167,135.5 575.5,135.5C 576.044,129.656 577.378,123.989 579.5,118.5C 581.379,125.769 583.046,133.102 584.5,140.5C 584.395,135.603 586.728,133.603 591.5,134.5C 592.209,129.993 593.376,125.66 595,121.5C 596.861,126.971 598.194,132.638 599,138.5C 599.333,138.833 599.667,139.167 600,139.5C 600.813,137.564 601.313,135.564 601.5,133.5C 605.167,133.5 608.833,133.5 612.5,133.5C 612.976,129.905 614.142,126.572 616,123.5C 617.547,128.784 618.88,134.118 620,139.5C 621.128,137.655 621.628,135.655 621.5,133.5C 624.5,133.5 627.5,133.5 630.5,133.5C 630.518,129.393 631.185,125.393 632.5,121.5C 633.086,121.709 633.586,122.043 634,122.5C 635.501,127.839 637.001,133.173 638.5,138.5C 639.244,137.009 639.91,135.509 640.5,134C 645.236,132.782 649.403,133.616 653,136.5C 653.898,130.14 655.732,124.14 658.5,118.5C 659.959,123.124 661.292,127.79 662.5,132.5C 665.428,133.484 668.428,133.817 671.5,133.5 Z"/></g>
<g><path style="opacity:1" fill="#d9e5fd" d="M 174.5,179.5 C 176.932,182.688 179.599,185.688 182.5,188.5C 182.5,190.167 182.5,191.833 182.5,193.5C 177.498,197.511 173.165,202.178 169.5,207.5C 167.45,209.237 165.617,211.237 164,213.5C 161.333,218.833 158.667,224.167 156,229.5C 154.921,235.066 153.255,240.399 151,245.5C 150.333,249.167 150.333,252.833 151,256.5C 153.197,260.591 154.697,264.925 155.5,269.5C 155.833,270.833 156.167,272.167 156.5,273.5C 152.818,273.665 149.152,273.499 145.5,273C 139.919,270.876 134.586,268.21 129.5,265C 123.638,258.474 117.805,251.974 112,245.5C 110.473,241.614 108.306,238.114 105.5,235C 112.218,234.775 118.885,234.108 125.5,233C 131.217,230.206 137.217,228.206 143.5,227C 147.092,224.287 150.592,221.453 154,218.5C 154.494,216.866 154.66,215.199 154.5,213.5C 138.691,212.337 122.858,212.337 107,213.5C 102.388,213.607 97.8878,213.107 93.5,212C 78.9778,197.067 75.6445,179.9 83.5,160.5C 91.8544,149.977 102.854,144.477 116.5,144C 122.83,143.181 129.164,142.848 135.5,143C 146.646,156.432 158.646,169.432 171.5,182C 175.311,184.544 176.311,183.711 174.5,179.5 Z"/></g>
<g><path style="opacity:1" fill="#d8e4fc" d="M 259.5,176.5 C 258.205,180.267 257.539,184.267 257.5,188.5C 256.683,190.969 256.183,193.635 256,196.5C 255.5,206.161 255.334,215.828 255.5,225.5C 249.858,226.857 244.025,227.857 238,228.5C 226.971,222.734 216.138,216.567 205.5,210C 204.014,207.525 202.681,205.025 201.5,202.5C 204.067,197.818 204.067,193.152 201.5,188.5C 202.79,187.942 203.623,186.942 204,185.5C 204.912,178.351 204.245,171.351 202,164.5C 201.617,163.944 201.117,163.611 200.5,163.5C 200.62,161.801 200.954,160.135 201.5,158.5C 201.471,156.971 200.804,155.804 199.5,155C 194.628,153.612 189.628,153.112 184.5,153.5C 182.102,153.259 180.102,153.926 178.5,155.5C 176.517,156.471 174.517,157.471 172.5,158.5C 170.377,153.595 167.71,148.928 164.5,144.5C 165.328,143.585 166.328,142.919 167.5,142.5C 189.34,145.628 210.673,150.628 231.5,157.5C 231.356,164.356 231.689,171.19 232.5,178C 234.766,191.519 238.1,204.685 242.5,217.5C 244.833,217.5 247.167,217.5 249.5,217.5C 250.759,206.115 250.259,194.781 248,183.5C 245.398,177.431 243.565,171.098 242.5,164.5C 242.667,164.167 242.833,163.833 243,163.5C 244.734,164.249 246.567,164.749 248.5,165C 251.921,167.377 255.588,169.21 259.5,170.5C 259.5,172.5 259.5,174.5 259.5,176.5 Z"/></g>
<g><path style="opacity:1" fill="#f7cbb5" d="M 571.5,144.5 C 573.5,145.833 575.167,147.5 576.5,149.5C 573.833,148.833 572.167,147.167 571.5,144.5 Z"/></g>
<g><path style="opacity:1" fill="#faaa81" d="M 602.5,141.5 C 602.309,145.074 601.309,148.407 599.5,151.5C 598.056,149.392 597.39,147.059 597.5,144.5C 598.158,145.398 598.824,146.398 599.5,147.5C 600.518,145.406 601.518,143.406 602.5,141.5 Z"/></g>
<g><path style="opacity:1" fill="#687da0" d="M 184.5,153.5 C 182.898,155.074 180.898,155.741 178.5,155.5C 180.102,153.926 182.102,153.259 184.5,153.5 Z"/></g>
<g><path style="opacity:1" fill="#1a3561" d="M 184.5,153.5 C 189.628,153.112 194.628,153.612 199.5,155C 200.804,155.804 201.471,156.971 201.5,158.5C 200.954,160.135 200.62,161.801 200.5,163.5C 199.467,166.986 198.633,170.653 198,174.5C 196.301,175.406 194.467,175.739 192.5,175.5C 191.527,177.948 191.194,180.615 191.5,183.5C 189.69,187.311 186.69,188.977 182.5,188.5C 179.599,185.688 176.932,182.688 174.5,179.5C 173.674,176.515 172.341,173.849 170.5,171.5C 170.323,167.766 170.656,164.099 171.5,160.5C 171.833,159.833 172.167,159.167 172.5,158.5C 174.517,157.471 176.517,156.471 178.5,155.5C 180.898,155.741 182.898,155.074 184.5,153.5 Z"/></g>
<g><path style="opacity:1" fill="#667998" d="M 171.5,160.5 C 170.656,164.099 170.323,167.766 170.5,171.5C 169.596,169.362 168.929,167.029 168.5,164.5C 168.754,162.583 169.754,161.249 171.5,160.5 Z"/></g>
<g><path style="opacity:1" fill="#d1e1f8" d="M 532.5,188.5 C 532.443,187.391 532.11,186.391 531.5,185.5C 531.59,182.848 530.924,180.515 529.5,178.5C 529.5,178.167 529.5,177.833 529.5,177.5C 528.85,175.565 528.517,173.565 528.5,171.5C 532.735,168.703 537.068,165.869 541.5,163C 549.397,160.456 554.731,162.956 557.5,170.5C 556.005,172.17 554.672,174.003 553.5,176C 547.855,179.805 541.855,182.971 535.5,185.5C 534.712,186.77 533.712,187.77 532.5,188.5 Z"/></g>
<g><path style="opacity:1" fill="#9b7273" d="M 192.5,175.5 C 193.209,176.404 194.209,176.737 195.5,176.5C 195.5,177.5 195.5,178.5 195.5,179.5C 194.5,179.5 193.5,179.5 192.5,179.5C 192.768,181.099 192.434,182.432 191.5,183.5C 191.194,180.615 191.527,177.948 192.5,175.5 Z"/></g>
<g><path style="opacity:1" fill="#f6b182" d="M 200.5,163.5 C 201.117,163.611 201.617,163.944 202,164.5C 204.245,171.351 204.912,178.351 204,185.5C 203.623,186.942 202.79,187.942 201.5,188.5C 200.508,188.328 199.842,188.662 199.5,189.5C 199.098,192.477 198.098,195.143 196.5,197.5C 191.934,195.858 187.267,194.525 182.5,193.5C 182.5,191.833 182.5,190.167 182.5,188.5C 186.69,188.977 189.69,187.311 191.5,183.5C 192.434,182.432 192.768,181.099 192.5,179.5C 193.5,179.5 194.5,179.5 195.5,179.5C 195.5,178.5 195.5,177.5 195.5,176.5C 194.209,176.737 193.209,176.404 192.5,175.5C 194.467,175.739 196.301,175.406 198,174.5C 198.633,170.653 199.467,166.986 200.5,163.5 Z"/></g>
<g><path style="opacity:1" fill="#eb6630" d="M 529.5,177.5 C 529.5,177.833 529.5,178.167 529.5,178.5C 529.41,181.152 530.076,183.485 531.5,185.5C 532.11,186.391 532.443,187.391 532.5,188.5C 532.5,190.5 532.5,192.5 532.5,194.5C 532.5,195.5 532.5,196.5 532.5,197.5C 528.358,199.12 524.858,201.786 522,205.5C 520.21,211.08 517.376,216.08 513.5,220.5C 496.494,236.352 482.661,254.686 472,275.5C 470.532,289.032 465.866,301.366 458,312.5C 457.346,313.696 456.846,313.696 456.5,312.5C 462.228,298.749 465.562,284.415 466.5,269.5C 458.258,272.481 449.925,275.314 441.5,278C 435.567,279.546 429.567,280.213 423.5,280C 439.473,276.516 454.473,270.516 468.5,262C 474.854,254.138 480.854,245.971 486.5,237.5C 475.09,235.085 464.09,231.585 453.5,227C 450.167,226.333 446.833,226.333 443.5,227C 431.951,230.534 431.618,229.534 442.5,224C 449.167,223.333 455.833,223.333 462.5,224C 464.359,224.684 466.026,225.684 467.5,227C 476.044,229.306 484.71,230.306 493.5,230C 498.433,224.909 502.766,219.409 506.5,213.5C 509.146,204.369 513.313,196.035 519,188.5C 522.079,184.258 525.579,180.591 529.5,177.5 Z"/></g>
<g><path style="opacity:1" fill="#e19078" d="M 529.5,178.5 C 530.924,180.515 531.59,182.848 531.5,185.5C 530.076,183.485 529.41,181.152 529.5,178.5 Z"/></g>
<g><path style="opacity:1" fill="#fce8d7" d="M 291.5,235.5 C 290.5,235.5 289.5,235.5 288.5,235.5C 284.189,235.674 280.189,234.674 276.5,232.5C 279.069,231.538 281.402,230.038 283.5,228C 282.748,227.329 282.414,226.496 282.5,225.5C 282.833,225.5 283.167,225.5 283.5,225.5C 283.5,226.167 283.833,226.5 284.5,226.5C 292.303,228.935 298.47,226.602 303,219.5C 305.438,203.603 298.605,196.437 282.5,198C 272.967,204.212 270.967,212.378 276.5,222.5C 274.236,223.219 271.903,223.552 269.5,223.5C 269.672,222.508 269.338,221.842 268.5,221.5C 267.91,220.234 267.41,218.901 267,217.5C 264.677,199.163 272.677,189.163 291,187.5C 302.13,187.895 309.797,193.229 314,203.5C 317.034,221.809 309.534,232.475 291.5,235.5 Z"/></g>
<g><path style="opacity:1" fill="#7487aa" d="M 201.5,188.5 C 204.067,193.152 204.067,197.818 201.5,202.5C 200.662,202.158 200.328,201.492 200.5,200.5C 200.677,196.766 200.344,193.099 199.5,189.5C 199.842,188.662 200.508,188.328 201.5,188.5 Z"/></g>
<g><path style="opacity:1" fill="#dadfe8" d="M 199.5,189.5 C 200.344,193.099 200.677,196.766 200.5,200.5C 199.128,199.488 197.795,198.488 196.5,197.5C 198.098,195.143 199.098,192.477 199.5,189.5 Z"/></g>
<g><path style="opacity:1" fill="#efcbab" d="M 284.5,226.5 C 285.873,226.657 287.207,226.49 288.5,226C 291.531,222.77 294.197,219.27 296.5,215.5C 292.506,215.497 288.506,215.497 284.5,215.5C 282.333,218.662 282,221.995 283.5,225.5C 283.167,225.5 282.833,225.5 282.5,225.5C 281.313,223.025 279.313,222.025 276.5,222.5C 270.967,212.378 272.967,204.212 282.5,198C 298.605,196.437 305.438,203.603 303,219.5C 298.47,226.602 292.303,228.935 284.5,226.5 Z"/></g>
<g><path style="opacity:1" fill="#aadcd9" d="M 182.5,193.5 C 187.267,194.525 191.934,195.858 196.5,197.5C 197.795,198.488 199.128,199.488 200.5,200.5C 200.328,201.492 200.662,202.158 201.5,202.5C 202.681,205.025 204.014,207.525 205.5,210C 216.138,216.567 226.971,222.734 238,228.5C 244.025,227.857 249.858,226.857 255.5,225.5C 256.791,225.737 257.791,225.404 258.5,224.5C 259.167,224.5 259.833,224.5 260.5,224.5C 263.713,224.81 266.713,224.477 269.5,223.5C 271.903,223.552 274.236,223.219 276.5,222.5C 279.313,222.025 281.313,223.025 282.5,225.5C 282.414,226.496 282.748,227.329 283.5,228C 281.402,230.038 279.069,231.538 276.5,232.5C 269.776,234.403 263.443,237.069 257.5,240.5C 249.884,242.188 242.384,244.188 235,246.5C 228.038,246.056 221.205,245.056 214.5,243.5C 213.828,242.733 212.995,242.066 212,241.5C 211.601,241.728 211.435,242.062 211.5,242.5C 210.837,244.473 210.504,246.639 210.5,249C 212.985,284.817 213.152,320.65 211,356.5C 209.736,358.607 207.903,359.607 205.5,359.5C 197.315,360.929 189.315,360.596 181.5,358.5C 179.485,357.076 177.152,356.41 174.5,356.5C 170.065,355.446 165.732,354.113 161.5,352.5C 160.738,350.738 159.404,349.738 157.5,349.5C 153.979,344.698 152.646,339.198 153.5,333C 153.837,314.258 155.17,295.592 157.5,277C 157.486,275.615 157.152,274.449 156.5,273.5C 156.167,272.167 155.833,270.833 155.5,269.5C 156.79,270.058 157.623,271.058 158,272.5C 159.968,249.823 164.801,227.823 172.5,206.5C 172.333,206.167 172.167,205.833 172,205.5C 171.292,206.381 170.458,207.047 169.5,207.5C 173.165,202.178 177.498,197.511 182.5,193.5 Z"/></g>
<g><path style="opacity:1" fill="#cfe0f8" d="M 534.5,212.5 C 534.5,209.833 534.5,207.167 534.5,204.5C 544.641,199.035 555.308,194.869 566.5,192C 574.786,190.546 583.119,190.213 591.5,191C 595.773,191.466 599.273,193.299 602,196.5C 603.319,200.108 604.486,203.775 605.5,207.5C 604.958,213.541 601.625,216.708 595.5,217C 582.833,217.333 570.167,217.667 557.5,218C 550.376,220.708 543.209,223.208 536,225.5C 535.825,220.981 535.325,216.647 534.5,212.5 Z"/></g>
<g><path style="opacity:1" fill="#95d0d1" d="M 155.5,269.5 C 154.697,264.925 153.197,260.591 151,256.5C 150.333,252.833 150.333,249.167 151,245.5C 153.255,240.399 154.921,235.066 156,229.5C 158.667,224.167 161.333,218.833 164,213.5C 165.617,211.237 167.45,209.237 169.5,207.5C 170.458,207.047 171.292,206.381 172,205.5C 172.167,205.833 172.333,206.167 172.5,206.5C 164.801,227.823 159.968,249.823 158,272.5C 157.623,271.058 156.79,270.058 155.5,269.5 Z"/></g>
<g><path style="opacity:1" fill="#fdb482" d="M 284.5,226.5 C 283.833,226.5 283.5,226.167 283.5,225.5C 282,221.995 282.333,218.662 284.5,215.5C 288.506,215.497 292.506,215.497 296.5,215.5C 294.197,219.27 291.531,222.77 288.5,226C 287.207,226.49 285.873,226.657 284.5,226.5 Z"/></g>
<g><path style="opacity:1" fill="#e9ac95" d="M 257.5,188.5 C 257.056,195.99 256.723,203.49 256.5,211C 256.507,215.886 257.174,220.386 258.5,224.5C 257.791,225.404 256.791,225.737 255.5,225.5C 255.334,215.828 255.5,206.161 256,196.5C 256.183,193.635 256.683,190.969 257.5,188.5 Z"/></g>
<g><path style="opacity:1" fill="#dfa985" d="M 268.5,221.5 C 269.338,221.842 269.672,222.508 269.5,223.5C 266.713,224.477 263.713,224.81 260.5,224.5C 263.477,224.098 266.143,223.098 268.5,221.5 Z"/></g>
<g><path style="opacity:1" fill="#f68248" d="M 276.5,232.5 C 280.189,234.674 284.189,235.674 288.5,235.5C 288.622,251.186 288.122,266.853 287,282.5C 285.367,291.297 283.2,299.963 280.5,308.5C 279.272,311.013 277.605,313.013 275.5,314.5C 275.037,311.779 274.371,309.112 273.5,306.5C 272.871,303.603 271.871,300.936 270.5,298.5C 269.341,296.145 268.341,293.812 267.5,291.5C 267.341,287.709 266.675,284.042 265.5,280.5C 265.31,277.145 264.31,274.145 262.5,271.5C 262.167,268.833 261.833,266.167 261.5,263.5C 260.913,257.963 259.913,252.63 258.5,247.5C 258.007,245.194 257.674,242.861 257.5,240.5C 263.443,237.069 269.776,234.403 276.5,232.5 Z"/></g>
<g><path style="opacity:1" fill="#b7483f" d="M 575.5,240.5 C 577.158,251.823 582.825,260.49 592.5,266.5C 592.511,268.547 592.844,270.547 593.5,272.5C 593.253,273.713 592.586,274.38 591.5,274.5C 584.994,273.717 578.661,272.384 572.5,270.5C 572.027,269.094 571.027,268.427 569.5,268.5C 567.488,265.244 565.654,261.911 564,258.5C 560.816,258.872 558.649,259.872 557.5,261.5C 554.269,260.273 551.269,258.606 548.5,256.5C 547.447,259.815 547.447,263.148 548.5,266.5C 547.5,265.833 546.5,265.167 545.5,264.5C 544.701,261.57 544.368,258.57 544.5,255.5C 545.146,251.203 546.646,247.203 549,243.5C 552.176,240.61 555.01,237.444 557.5,234C 561.857,234.114 566.191,234.781 570.5,236C 571.651,238.2 573.318,239.7 575.5,240.5 Z"/></g>
<g><path style="opacity:1" fill="#d9e4fc" d="M 575.5,240.5 C 584.674,241.03 593.84,241.697 603,242.5C 612.746,245.061 622.579,247.228 632.5,249C 634.411,250.496 636.411,251.829 638.5,253C 627.205,260.612 615.871,268.279 604.5,276C 603.748,276.671 603.414,277.504 603.5,278.5C 600.794,278.425 598.127,278.092 595.5,277.5C 595.795,275.265 595.461,273.265 594.5,271.5C 594.598,269.447 593.931,267.78 592.5,266.5C 582.825,260.49 577.158,251.823 575.5,240.5 Z"/></g>
<g><path style="opacity:1" fill="#d9e5fc" d="M 257.5,240.5 C 257.674,242.861 258.007,245.194 258.5,247.5C 258.227,253.216 259.227,258.549 261.5,263.5C 261.833,266.167 262.167,268.833 262.5,271.5C 262.517,273.565 262.85,275.565 263.5,277.5C 261.845,275.014 259.678,273.014 257,271.5C 253.179,275.565 249.012,279.398 244.5,283C 239.96,286.124 234.96,287.957 229.5,288.5C 223.109,273.995 218.109,258.995 214.5,243.5C 221.205,245.056 228.038,246.056 235,246.5C 242.384,244.188 249.884,242.188 257.5,240.5 Z"/></g>
<g><path style="opacity:1" fill="#dddfef" d="M 534.5,240.5 C 538.514,240.334 542.514,240.501 546.5,241C 544.714,241.785 543.214,242.951 542,244.5C 539.51,249.524 536.676,253.524 533.5,256.5C 533.218,251.073 533.551,245.74 534.5,240.5 Z"/></g>
<g><path style="opacity:1" fill="#e7b9aa" d="M 258.5,247.5 C 259.913,252.63 260.913,257.963 261.5,263.5C 259.227,258.549 258.227,253.216 258.5,247.5 Z"/></g>
<g><path style="opacity:1" fill="#faad7b" d="M 569.5,268.5 C 566.984,271.534 564.984,274.868 563.5,278.5C 563.158,277.662 562.492,277.328 561.5,277.5C 561.586,276.504 561.252,275.671 560.5,275C 554.723,274.729 550.723,271.896 548.5,266.5C 547.447,263.148 547.447,259.815 548.5,256.5C 551.269,258.606 554.269,260.273 557.5,261.5C 558.649,259.872 560.816,258.872 564,258.5C 565.654,261.911 567.488,265.244 569.5,268.5 Z"/></g>
<g><path style="opacity:1" fill="#d9afab" d="M 544.5,255.5 C 544.368,258.57 544.701,261.57 545.5,264.5C 544.883,264.389 544.383,264.056 544,263.5C 543.199,260.633 543.366,257.966 544.5,255.5 Z"/></g>
<g><path style="opacity:1" fill="#d9e5fd" d="M 662.5,348.5 C 663.117,348.389 663.617,348.056 664,347.5C 663.533,329.771 657.033,314.604 644.5,302C 637.782,296.651 630.782,291.817 623.5,287.5C 632.017,282.923 640.684,278.423 649.5,274C 652.405,272.714 655.405,271.714 658.5,271C 663.582,264.149 669.915,262.815 677.5,267C 689.901,272.961 701.068,280.794 711,290.5C 715.015,296.034 717.515,302.2 718.5,309C 716.705,327.444 708.705,342.444 694.5,354C 690.606,354.964 686.773,356.131 683,357.5C 675.348,356.032 668.515,353.032 662.5,348.5 Z"/></g>
<g><path style="opacity:1" fill="#d9e3fa" d="M 545.5,264.5 C 546.5,265.167 547.5,265.833 548.5,266.5C 550.723,271.896 554.723,274.729 560.5,275C 561.252,275.671 561.586,276.504 561.5,277.5C 555.172,283.041 553.839,289.708 557.5,297.5C 557.493,300.038 557.159,302.538 556.5,305C 556.862,306.434 557.528,307.601 558.5,308.5C 555.608,313.319 553.441,318.652 552,324.5C 547.602,328.729 543.436,333.062 539.5,337.5C 535.013,323.45 531.013,309.117 527.5,294.5C 527.846,293.151 528.179,291.817 528.5,290.5C 529.901,290.029 531.234,289.362 532.5,288.5C 537.903,281.023 542.237,273.023 545.5,264.5 Z"/></g>
<g><path style="opacity:1" fill="#e9f1f9" d="M 263.5,277.5 C 263.932,278.71 264.599,279.71 265.5,280.5C 266.675,284.042 267.341,287.709 267.5,291.5C 255.926,290.817 244.926,292.817 234.5,297.5C 233.087,294.339 231.42,291.339 229.5,288.5C 234.96,287.957 239.96,286.124 244.5,283C 249.012,279.398 253.179,275.565 257,271.5C 259.678,273.014 261.845,275.014 263.5,277.5 Z"/></g>
<g><path style="opacity:1" fill="#c48683" d="M 592.5,266.5 C 593.931,267.78 594.598,269.447 594.5,271.5C 594.5,272.833 594.5,274.167 594.5,275.5C 593.209,275.737 592.209,275.404 591.5,274.5C 592.586,274.38 593.253,273.713 593.5,272.5C 592.844,270.547 592.511,268.547 592.5,266.5 Z"/></g>
<g><path style="opacity:1" fill="#aadcd9" d="M 572.5,270.5 C 578.661,272.384 584.994,273.717 591.5,274.5C 592.209,275.404 593.209,275.737 594.5,275.5C 594.5,274.167 594.5,272.833 594.5,271.5C 595.461,273.265 595.795,275.265 595.5,277.5C 598.127,278.092 600.794,278.425 603.5,278.5C 603.577,279.75 604.244,280.583 605.5,281C 611.42,283.477 617.42,285.643 623.5,287.5C 630.782,291.817 637.782,296.651 644.5,302C 657.033,314.604 663.533,329.771 664,347.5C 663.617,348.056 663.117,348.389 662.5,348.5C 660.847,348.66 659.514,349.326 658.5,350.5C 652.5,350.5 646.5,350.5 640.5,350.5C 636.821,350.276 633.154,349.942 629.5,349.5C 625.59,348.148 621.59,346.982 617.5,346C 615.561,344.568 614.228,342.735 613.5,340.5C 611.962,332.976 609.128,325.976 605,319.5C 604.817,322.365 604.317,325.031 603.5,327.5C 603.74,324.421 603.407,321.421 602.5,318.5C 597.986,313.895 592.653,312.228 586.5,313.5C 585.181,316.442 584.015,319.442 583,322.5C 582.329,323.252 581.496,323.586 580.5,323.5C 574.119,322.781 569.785,319.448 567.5,313.5C 566.5,312.833 565.5,312.167 564.5,311.5C 565.5,311.5 566.5,311.5 567.5,311.5C 566.977,307.127 566.143,302.794 565,298.5C 562.594,287.544 565.094,278.211 572.5,270.5 Z"/></g>
<g><path style="opacity:1" fill="#ecb9a5" d="M 262.5,271.5 C 264.31,274.145 265.31,277.145 265.5,280.5C 264.599,279.71 263.932,278.71 263.5,277.5C 262.85,275.565 262.517,273.565 262.5,271.5 Z"/></g>
<g><path style="opacity:1" fill="#f6cfae" d="M 523.5,279.5 C 525.54,283.132 526.707,287.132 527,291.5C 527.383,290.944 527.883,290.611 528.5,290.5C 528.179,291.817 527.846,293.151 527.5,294.5C 531.013,309.117 535.013,323.45 539.5,337.5C 539.34,339.199 539.506,340.866 540,342.5C 540.417,343.756 541.25,344.423 542.5,344.5C 541.859,345.482 541.193,346.482 540.5,347.5C 541.841,351.384 542.675,355.384 543,359.5C 543.417,360.756 544.25,361.423 545.5,361.5C 543.573,365.334 541.907,365.334 540.5,361.5C 538.869,350.601 536.202,339.934 532.5,329.5C 525.532,328.503 518.532,328.17 511.5,328.5C 514.095,342.773 517.595,356.773 522,370.5C 525.942,375.847 530.776,376.847 536.5,373.5C 539.337,371.828 540.004,372.494 538.5,375.5C 538.957,376.298 539.624,376.631 540.5,376.5C 540.389,377.117 540.056,377.617 539.5,378C 534.114,379.789 528.78,379.789 523.5,378C 521.3,375.766 519.467,373.266 518,370.5C 516.294,363.224 514.127,356.224 511.5,349.5C 507.74,328.973 503.074,308.64 497.5,288.5C 497.33,287.178 497.663,286.011 498.5,285C 506.732,282.541 515.066,280.707 523.5,279.5 Z"/></g>
<g><path style="opacity:1" fill="#f3c29c" d="M 523.5,279.5 C 515.066,280.707 506.732,282.541 498.5,285C 497.663,286.011 497.33,287.178 497.5,288.5C 496.675,286.692 495.675,284.859 494.5,283C 494.645,282.228 494.978,281.561 495.5,281C 505.075,278.356 514.742,276.189 524.5,274.5C 524.371,276.216 524.038,277.883 523.5,279.5 Z"/></g>
<g><path style="opacity:1" fill="#b64940" d="M 561.5,277.5 C 562.492,277.328 563.158,277.662 563.5,278.5C 561.735,285 559.735,291.333 557.5,297.5C 553.839,289.708 555.172,283.041 561.5,277.5 Z"/></g>
<g><path style="opacity:1" fill="#e8f0f9" d="M 226.5,287.5 C 232.124,300.557 240.124,312.057 250.5,322C 254.785,324.706 259.452,325.873 264.5,325.5C 263.305,330.731 260.305,331.897 255.5,329C 243.369,321.28 232.036,312.614 221.5,303C 218.826,303.153 216.16,303.653 213.5,304.5C 213.5,300.833 213.5,297.167 213.5,293.5C 217.56,292.99 221.56,292.156 225.5,291C 226.337,289.989 226.67,288.822 226.5,287.5 Z"/></g>
<g><path style="opacity:1" fill="#d2e2f8" d="M 267.5,291.5 C 268.341,293.812 269.341,296.145 270.5,298.5C 270.345,301.716 271.345,304.383 273.5,306.5C 274.371,309.112 275.037,311.779 275.5,314.5C 275.5,314.833 275.5,315.167 275.5,315.5C 273.582,319.797 270.249,322.13 265.5,322.5C 261.045,323.378 257.711,321.878 255.5,318C 250.667,315.311 246,312.478 241.5,309.5C 238.648,305.796 236.315,301.796 234.5,297.5C 244.926,292.817 255.926,290.817 267.5,291.5 Z"/></g>
<g><path style="opacity:1" fill="#f3b38a" d="M 288.5,235.5 C 289.5,235.5 290.5,235.5 291.5,235.5C 291.666,245.839 291.5,256.172 291,266.5C 289.439,274.092 288.439,281.759 288,289.5C 286.156,299.874 282.656,309.54 277.5,318.5C 276.833,317.5 276.167,316.5 275.5,315.5C 275.5,315.167 275.5,314.833 275.5,314.5C 277.605,313.013 279.272,311.013 280.5,308.5C 283.2,299.963 285.367,291.297 287,282.5C 288.122,266.853 288.622,251.186 288.5,235.5 Z"/></g>
<g><path style="opacity:1" fill="#98cacb" d="M 569.5,268.5 C 571.027,268.427 572.027,269.094 572.5,270.5C 565.094,278.211 562.594,287.544 565,298.5C 566.143,302.794 566.977,307.127 567.5,311.5C 566.5,311.5 565.5,311.5 564.5,311.5C 562.03,311.346 560.03,310.346 558.5,308.5C 557.528,307.601 556.862,306.434 556.5,305C 557.159,302.538 557.493,300.038 557.5,297.5C 559.735,291.333 561.735,285 563.5,278.5C 564.984,274.868 566.984,271.534 569.5,268.5 Z"/></g>
<g><path style="opacity:1" fill="#e8ad98" d="M 270.5,298.5 C 271.871,300.936 272.871,303.603 273.5,306.5C 271.345,304.383 270.345,301.716 270.5,298.5 Z"/></g>
<g><path style="opacity:1" fill="#d2e1f8" d="M 211.5,242.5 C 215.458,257.707 220.458,272.707 226.5,287.5C 226.67,288.822 226.337,289.989 225.5,291C 221.56,292.156 217.56,292.99 213.5,293.5C 213.5,297.167 213.5,300.833 213.5,304.5C 216.16,303.653 218.826,303.153 221.5,303C 232.036,312.614 243.369,321.28 255.5,329C 260.305,331.897 263.305,330.731 264.5,325.5C 266.564,325.313 268.564,324.813 270.5,324C 272.734,322.25 275.068,320.75 277.5,319.5C 284.643,335.343 292.31,351.009 300.5,366.5C 300.536,370.45 299.869,374.283 298.5,378C 290.741,393.414 280.408,406.747 267.5,418C 264.574,419.379 261.74,420.879 259,422.5C 256.36,422.527 255.027,421.193 255,418.5C 254.169,410.112 254.503,401.779 256,393.5C 259.484,386.534 263.484,379.868 268,373.5C 269.868,370.395 271.035,367.062 271.5,363.5C 269.473,363.338 267.473,363.505 265.5,364C 259.811,369.347 255.311,375.514 252,382.5C 251.319,391.6 249.986,400.6 248,409.5C 245.228,415.231 241.394,420.065 236.5,424C 233.226,425.202 229.893,426.202 226.5,427C 218.227,427.337 210.06,427.504 202,427.5C 201.333,431.167 201.333,434.833 202,438.5C 202.333,438.167 202.667,437.833 203,437.5C 204.552,438.966 206.386,439.966 208.5,440.5C 209.425,441.357 210.092,442.357 210.5,443.5C 205.872,443.193 202.205,441.193 199.5,437.5C 198.743,419.858 200.076,402.525 203.5,385.5C 204.034,376.822 204.701,368.156 205.5,359.5C 207.903,359.607 209.736,358.607 211,356.5C 213.152,320.65 212.985,284.817 210.5,249C 210.504,246.639 210.837,244.473 211.5,242.5 Z"/></g>
<g><path style="opacity:1" fill="#ed9962" d="M 558.5,308.5 C 560.03,310.346 562.03,311.346 564.5,311.5C 565.5,312.167 566.5,312.833 567.5,313.5C 566.651,317.894 565.651,322.228 564.5,326.5C 562.786,330.082 560.453,333.248 557.5,336C 552.611,339.061 547.611,341.895 542.5,344.5C 541.25,344.423 540.417,343.756 540,342.5C 539.506,340.866 539.34,339.199 539.5,337.5C 543.436,333.062 547.602,328.729 552,324.5C 553.441,318.652 555.608,313.319 558.5,308.5 Z"/></g>
<g><path style="opacity:1" fill="#d8e4fc" d="M 603.5,327.5 C 602.246,331.848 602.246,336.182 603.5,340.5C 599.074,353.202 595.741,366.202 593.5,379.5C 592.217,386.8 591.217,394.133 590.5,401.5C 590.657,400.127 590.49,398.793 590,397.5C 581.025,389.879 574.025,380.879 569,370.5C 566.024,366.024 562.857,361.691 559.5,357.5C 560.127,356.583 560.461,355.583 560.5,354.5C 565.85,349.15 570.85,343.483 575.5,337.5C 577.184,332.807 578.851,328.14 580.5,323.5C 581.496,323.586 582.329,323.252 583,322.5C 584.015,319.442 585.181,316.442 586.5,313.5C 592.653,312.228 597.986,313.895 602.5,318.5C 603.407,321.421 603.74,324.421 603.5,327.5 Z"/></g>
<g><path style="opacity:1" fill="#e8eef5" d="M 241.5,309.5 C 246,312.478 250.667,315.311 255.5,318C 257.711,321.878 261.045,323.378 265.5,322.5C 260.622,323.957 255.955,323.123 251.5,320C 247.963,316.631 244.629,313.131 241.5,309.5 Z"/></g>
<g><path style="opacity:1" fill="#edd2be" d="M 214.5,243.5 C 218.109,258.995 223.109,273.995 229.5,288.5C 231.42,291.339 233.087,294.339 234.5,297.5C 236.315,301.796 238.648,305.796 241.5,309.5C 244.629,313.131 247.963,316.631 251.5,320C 255.955,323.123 260.622,323.957 265.5,322.5C 270.249,322.13 273.582,319.797 275.5,315.5C 276.167,316.5 276.833,317.5 277.5,318.5C 277.5,318.833 277.5,319.167 277.5,319.5C 275.068,320.75 272.734,322.25 270.5,324C 268.564,324.813 266.564,325.313 264.5,325.5C 259.452,325.873 254.785,324.706 250.5,322C 240.124,312.057 232.124,300.557 226.5,287.5C 220.458,272.707 215.458,257.707 211.5,242.5C 211.435,242.062 211.601,241.728 212,241.5C 212.995,242.066 213.828,242.733 214.5,243.5 Z"/></g>
<g><path style="opacity:1" fill="#fcb280" d="M 567.5,313.5 C 569.785,319.448 574.119,322.781 580.5,323.5C 578.851,328.14 577.184,332.807 575.5,337.5C 570.85,343.483 565.85,349.15 560.5,354.5C 556.5,357.833 552.833,361.5 549.5,365.5C 548.542,365.953 547.708,366.619 547,367.5C 546.945,372.172 544.779,375.172 540.5,376.5C 539.624,376.631 538.957,376.298 538.5,375.5C 540.004,372.494 539.337,371.828 536.5,373.5C 537.833,369.5 539.167,365.5 540.5,361.5C 541.907,365.334 543.573,365.334 545.5,361.5C 550.572,351.69 556.405,342.357 563,333.5C 563.97,331.726 564.804,329.893 565.5,328C 565.43,327.235 565.097,326.735 564.5,326.5C 565.651,322.228 566.651,317.894 567.5,313.5 Z"/></g>
<g><path style="opacity:1" fill="#92cbce" d="M 613.5,340.5 C 612.883,340.389 612.383,340.056 612,339.5C 611.751,340.624 611.251,341.624 610.5,342.5C 608.55,341.628 606.55,340.961 604.5,340.5C 604.167,340.5 603.833,340.5 603.5,340.5C 602.246,336.182 602.246,331.848 603.5,327.5C 604.317,325.031 604.817,322.365 605,319.5C 609.128,325.976 611.962,332.976 613.5,340.5 Z"/></g>
<g><path style="opacity:1" fill="#5d608d" d="M 373.5,339.5 C 372.508,339.328 371.842,339.662 371.5,340.5C 353.167,340.5 334.833,340.5 316.5,340.5C 316.5,340.167 316.5,339.833 316.5,339.5C 334.503,339.667 352.503,339.5 370.5,339C 372.362,335.851 373.029,332.351 372.5,328.5C 353.167,328.5 333.833,328.5 314.5,328.5C 314.5,332.167 314.5,335.833 314.5,339.5C 313.517,335.702 313.183,331.702 313.5,327.5C 333.503,327.333 353.503,327.5 373.5,328C 374.821,331.934 374.821,335.767 373.5,339.5 Z"/></g>
<g><path style="opacity:1" fill="#2a468b" d="M 316.5,339.5 C 315.833,339.5 315.167,339.5 314.5,339.5C 314.5,335.833 314.5,332.167 314.5,328.5C 333.833,328.5 353.167,328.5 372.5,328.5C 373.029,332.351 372.362,335.851 370.5,339C 352.503,339.5 334.503,339.667 316.5,339.5 Z"/></g>
<g><path style="opacity:1" fill="#d24b44" d="M 540.5,361.5 C 539.167,365.5 537.833,369.5 536.5,373.5C 530.776,376.847 525.942,375.847 522,370.5C 517.595,356.773 514.095,342.773 511.5,328.5C 518.532,328.17 525.532,328.503 532.5,329.5C 536.202,339.934 538.869,350.601 540.5,361.5 Z"/></g>
<g><path style="opacity:1" fill="#e1e4ef" d="M 564.5,326.5 C 565.097,326.735 565.43,327.235 565.5,328C 564.804,329.893 563.97,331.726 563,333.5C 556.405,342.357 550.572,351.69 545.5,361.5C 544.25,361.423 543.417,360.756 543,359.5C 542.675,355.384 541.841,351.384 540.5,347.5C 541.193,346.482 541.859,345.482 542.5,344.5C 547.611,341.895 552.611,339.061 557.5,336C 560.453,333.248 562.786,330.082 564.5,326.5 Z"/></g>
<g><path style="opacity:1" fill="#afc2fd" d="M 316.5,340.5 C 334.833,340.5 353.167,340.5 371.5,340.5C 372.479,373.136 372.812,405.802 372.5,438.5C 372.327,441.179 371.327,443.513 369.5,445.5C 355.85,446.499 342.183,446.833 328.5,446.5C 329.388,443.946 329.721,441.279 329.5,438.5C 330.451,439.919 330.784,441.585 330.5,443.5C 333.541,443.594 335.207,442.094 335.5,439C 333.986,437.561 333.653,436.061 334.5,434.5C 336.956,437.458 339.622,440.291 342.5,443C 347.59,443.829 349.424,441.662 348,436.5C 346.647,435.315 345.48,433.981 344.5,432.5C 345,432.167 345.5,431.833 346,431.5C 349.093,435.273 352.26,439.106 355.5,443C 358.14,443.839 360.473,443.339 362.5,441.5C 366.741,443.38 369.408,442.046 370.5,437.5C 369.079,432.564 367.079,427.898 364.5,423.5C 365.447,421.6 366.947,420.267 369,419.5C 369.667,414.833 369.667,410.167 369,405.5C 366.401,402.764 366.401,399.764 369,396.5C 370.167,391 368,388.833 362.5,390C 361.331,392.007 360.665,394.173 360.5,396.5C 356.111,394.397 351.445,392.897 346.5,392C 345.773,389.876 345.106,387.709 344.5,385.5C 342.235,384.353 339.902,384.186 337.5,385C 335.093,387.285 332.593,389.451 330,391.5C 329.667,394.5 329.333,397.5 329,400.5C 328.586,400.957 328.086,401.291 327.5,401.5C 327.513,397.771 327.013,394.104 326,390.5C 323.088,388.995 320.755,389.662 319,392.5C 318.103,396.152 317.27,399.819 316.5,403.5C 316.638,406.82 318.305,408.487 321.5,408.5C 320.016,413.749 319.516,419.082 320,424.5C 321.022,425.354 321.855,426.354 322.5,427.5C 321.37,428.622 320.703,429.956 320.5,431.5C 318.181,431.008 316.181,430.008 314.5,428.5C 314.5,414.5 314.5,400.5 314.5,386.5C 315.197,371.295 315.863,355.962 316.5,340.5 Z"/></g>
<g><path style="opacity:1" fill="#f6b98f" d="M 457.5,341.5 C 447.319,341.173 437.319,341.506 427.5,342.5C 426.957,342.44 426.624,342.107 426.5,341.5C 436.993,340.177 447.326,340.177 457.5,341.5 Z"/></g>
<g><path style="opacity:1" fill="#f4c29b" d="M 500.5,374.5 C 500.5,374.833 500.5,375.167 500.5,375.5C 500.167,375.5 499.833,375.5 499.5,375.5C 498.506,365.681 498.173,355.681 498.5,345.5C 489.874,344.589 481.208,344.255 472.5,344.5C 473.157,370.522 472.491,396.188 470.5,421.5C 472.131,394.453 471.797,367.453 469.5,340.5C 479.833,340.5 490.167,340.5 500.5,340.5C 499.222,351.974 499.222,363.307 500.5,374.5 Z"/></g>
<g><path style="opacity:1" fill="#243a65" d="M 613.5,340.5 C 614.228,342.735 615.561,344.568 617.5,346C 621.59,346.982 625.59,348.148 629.5,349.5C 630.562,351.099 630.562,352.766 629.5,354.5C 626.151,360.535 622.818,366.535 619.5,372.5C 616.417,370.245 613.75,367.412 611.5,364C 608.462,356.342 606.129,348.509 604.5,340.5C 606.55,340.961 608.55,341.628 610.5,342.5C 611.251,341.624 611.751,340.624 612,339.5C 612.383,340.056 612.883,340.389 613.5,340.5 Z"/></g>
<g><path style="opacity:1" fill="#c9a7b0" d="M 314.5,339.5 C 315.167,339.5 315.833,339.5 316.5,339.5C 316.5,339.833 316.5,340.167 316.5,340.5C 315.863,355.962 315.197,371.295 314.5,386.5C 314.539,370.625 314.539,354.958 314.5,339.5 Z"/></g>
<g><path style="opacity:1" fill="#f5cdab" d="M 457.5,341.5 C 457.5,342.167 457.5,342.833 457.5,343.5C 457.167,343.5 456.833,343.5 456.5,343.5C 452.162,343.622 451.828,343.955 455.5,344.5C 455.169,373.671 455.502,402.671 456.5,431.5C 456.5,431.833 456.5,432.167 456.5,432.5C 455.167,432.5 453.833,432.5 452.5,432.5C 452.5,418.5 452.5,404.5 452.5,390.5C 445.833,390.5 439.167,390.5 432.5,390.5C 432.5,404.5 432.5,418.5 432.5,432.5C 431.167,432.5 429.833,432.5 428.5,432.5C 428.5,432.167 428.5,431.833 428.5,431.5C 429.498,402.671 429.831,373.671 429.5,344.5C 431.527,344.662 433.527,344.495 435.5,344C 433.19,343.503 430.857,343.337 428.5,343.5C 428.167,343.5 427.833,343.5 427.5,343.5C 427.5,343.167 427.5,342.833 427.5,342.5C 437.319,341.506 447.319,341.173 457.5,341.5 Z"/></g>
<g><path style="opacity:1" fill="#f6d0ae" d="M 499.5,375.5 C 499.5,394.5 499.5,413.5 499.5,432.5C 498.167,432.5 496.833,432.5 495.5,432.5C 495.5,418.5 495.5,404.5 495.5,390.5C 488.5,390.5 481.5,390.5 474.5,390.5C 474.5,404.5 474.5,418.5 474.5,432.5C 473.5,432.5 472.5,432.5 471.5,432.5C 472.069,428.671 471.402,425.337 469.5,422.5C 469.5,421.833 469.833,421.5 470.5,421.5C 472.491,396.188 473.157,370.522 472.5,344.5C 481.208,344.255 489.874,344.589 498.5,345.5C 498.173,355.681 498.506,365.681 499.5,375.5 Z"/></g>
<g><path style="opacity:1" fill="#f49360" d="M 427.5,343.5 C 427.833,343.5 428.167,343.5 428.5,343.5C 428.5,372.833 428.5,402.167 428.5,431.5C 428.5,431.833 428.5,432.167 428.5,432.5C 424.5,432.5 420.5,432.5 416.5,432.5C 419.962,431.518 423.629,431.185 427.5,431.5C 427.5,402.167 427.5,372.833 427.5,343.5 Z"/></g>
<g><path style="opacity:1" fill="#f6bd96" d="M 428.5,343.5 C 430.857,343.337 433.19,343.503 435.5,344C 433.527,344.495 431.527,344.662 429.5,344.5C 429.831,373.671 429.498,402.671 428.5,431.5C 428.5,402.167 428.5,372.833 428.5,343.5 Z"/></g>
<g><path style="opacity:1" fill="#f6bf98" d="M 456.5,343.5 C 456.5,372.833 456.5,402.167 456.5,431.5C 455.502,402.671 455.169,373.671 455.5,344.5C 451.828,343.955 452.162,343.622 456.5,343.5 Z"/></g>
<g><path style="opacity:1" fill="#f58f59" d="M 456.5,343.5 C 456.833,343.5 457.167,343.5 457.5,343.5C 456.841,373.186 457.508,402.519 459.5,431.5C 459.5,431.833 459.5,432.167 459.5,432.5C 458.5,432.5 457.5,432.5 456.5,432.5C 456.5,432.167 456.5,431.833 456.5,431.5C 456.5,402.167 456.5,372.833 456.5,343.5 Z"/></g>
<g><path style="opacity:1" fill="#2c468b" d="M 603.5,340.5 C 603.833,340.5 604.167,340.5 604.5,340.5C 606.129,348.509 608.462,356.342 611.5,364C 613.75,367.412 616.417,370.245 619.5,372.5C 615.765,379.635 611.765,386.635 607.5,393.5C 606.635,399.004 605.968,404.671 605.5,410.5C 602.881,421.406 597.881,431.072 590.5,439.5C 588.167,439.5 585.833,439.5 583.5,439.5C 584.008,435.803 584.674,432.136 585.5,428.5C 586.924,426.485 587.59,424.152 587.5,421.5C 588.924,419.485 589.59,417.152 589.5,414.5C 589.5,413.833 589.5,413.167 589.5,412.5C 591.092,411.398 591.925,412.065 592,414.5C 592.5,412.5 593,410.5 593.5,408.5C 593.196,398.878 593.196,389.211 593.5,379.5C 595.741,366.202 599.074,353.202 603.5,340.5 Z"/></g>
<g><path style="opacity:1" fill="#d0dff6" d="M 157.5,349.5 C 159.404,349.738 160.738,350.738 161.5,352.5C 160.939,360.303 159.606,367.97 157.5,375.5C 155.42,380.855 154.42,386.522 154.5,392.5C 153.586,407.142 153.253,421.809 153.5,436.5C 152.507,428.35 152.174,420.017 152.5,411.5C 149.813,410.336 147.48,408.503 145.5,406C 144.552,405.517 143.552,405.351 142.5,405.5C 139.776,401.057 137.276,396.391 135,391.5C 134.071,384.979 134.737,378.646 137,372.5C 139.827,369.671 141.827,366.337 143,362.5C 147.441,357.55 152.274,353.216 157.5,349.5 Z"/></g>
<g><path style="opacity:1" fill="#7da5bc" d="M 640.5,350.5 C 646.5,350.5 652.5,350.5 658.5,350.5C 658.5,350.833 658.5,351.167 658.5,351.5C 654.507,351.832 650.507,352.165 646.5,352.5C 644.048,352.461 642.048,351.794 640.5,350.5 Z"/></g>
<g><path style="opacity:1" fill="#2d478b" d="M 629.5,349.5 C 633.154,349.942 636.821,350.276 640.5,350.5C 642.048,351.794 644.048,352.461 646.5,352.5C 650.507,352.165 654.507,351.832 658.5,351.5C 659.7,363.802 660.534,376.135 661,388.5C 664.519,391.935 667.019,395.935 668.5,400.5C 668.528,403.916 669.528,406.916 671.5,409.5C 672.164,414.473 672.497,419.473 672.5,424.5C 672.666,428.846 672.499,433.179 672,437.5C 670.556,439.155 668.722,439.822 666.5,439.5C 664.292,434.205 662.292,428.871 660.5,423.5C 659.085,419.916 657.918,416.249 657,412.5C 656.617,411.944 656.117,411.611 655.5,411.5C 653.996,404.157 650.663,397.824 645.5,392.5C 640.248,381.58 636.082,370.247 633,358.5C 632.26,356.681 631.093,355.348 629.5,354.5C 630.562,352.766 630.562,351.099 629.5,349.5 Z"/></g>
<g><path style="opacity:1" fill="#d9e4fc" d="M 511.5,349.5 C 514.127,356.224 516.294,363.224 518,370.5C 519.467,373.266 521.3,375.766 523.5,378C 528.78,379.789 534.114,379.789 539.5,378C 540.056,377.617 540.389,377.117 540.5,376.5C 544.779,375.172 546.945,372.172 547,367.5C 547.708,366.619 548.542,365.953 549.5,365.5C 552.253,366.714 554.92,368.214 557.5,370C 561.857,374.739 566.024,379.572 570,384.5C 571.964,390.689 574.297,396.689 577,402.5C 577.667,405.167 577.667,407.833 577,410.5C 576.25,411.126 575.416,411.626 574.5,412C 569.5,412.667 564.5,412.667 559.5,412C 537.44,405.061 517.94,393.894 501,378.5C 500.517,377.552 500.351,376.552 500.5,375.5C 500.5,375.167 500.5,374.833 500.5,374.5C 504.717,366.357 508.383,358.023 511.5,349.5 Z"/></g>
<g><path style="opacity:1" fill="#233964" d="M 161.5,352.5 C 165.732,354.113 170.065,355.446 174.5,356.5C 175.514,357.674 176.847,358.34 178.5,358.5C 178.813,370.913 178.479,383.247 177.5,395.5C 175.859,400.439 174.526,405.439 173.5,410.5C 168.549,399.989 163.216,389.656 157.5,379.5C 157.5,378.167 157.5,376.833 157.5,375.5C 159.606,367.97 160.939,360.303 161.5,352.5 Z"/></g>
<g><path style="opacity:1" fill="#7299b2" d="M 174.5,356.5 C 177.152,356.41 179.485,357.076 181.5,358.5C 180.5,358.5 179.5,358.5 178.5,358.5C 176.847,358.34 175.514,357.674 174.5,356.5 Z"/></g>
<g><path style="opacity:1" fill="#e9f2fa" d="M 560.5,354.5 C 560.461,355.583 560.127,356.583 559.5,357.5C 562.857,361.691 566.024,366.024 569,370.5C 574.025,380.879 581.025,389.879 590,397.5C 590.49,398.793 590.657,400.127 590.5,401.5C 590.448,405.198 590.114,408.865 589.5,412.5C 589.5,413.167 589.5,413.833 589.5,414.5C 588.076,416.515 587.41,418.848 587.5,421.5C 586.076,423.515 585.41,425.848 585.5,428.5C 584.674,432.136 584.008,435.803 583.5,439.5C 581.786,442.213 579.453,444.213 576.5,445.5C 575.167,445.5 574.5,446.167 574.5,447.5C 564.47,446.189 554.47,446.189 544.5,447.5C 544.5,442.5 544.5,437.5 544.5,432.5C 529.5,432.5 514.5,432.5 499.5,432.5C 499.5,413.5 499.5,394.5 499.5,375.5C 499.833,375.5 500.167,375.5 500.5,375.5C 500.351,376.552 500.517,377.552 501,378.5C 517.94,393.894 537.44,405.061 559.5,412C 564.5,412.667 569.5,412.667 574.5,412C 575.416,411.626 576.25,411.126 577,410.5C 577.667,407.833 577.667,405.167 577,402.5C 574.297,396.689 571.964,390.689 570,384.5C 566.024,379.572 561.857,374.739 557.5,370C 554.92,368.214 552.253,366.714 549.5,365.5C 552.833,361.5 556.5,357.833 560.5,354.5 Z"/></g>
<g><path style="opacity:1" fill="#d4e0f9" d="M 629.5,354.5 C 631.093,355.348 632.26,356.681 633,358.5C 636.082,370.247 640.248,381.58 645.5,392.5C 640.12,393.434 635.12,395.434 630.5,398.5C 623.673,400.835 616.673,402.168 609.5,402.5C 609.665,399.482 609.498,396.482 609,393.5C 608.821,397.025 608.321,400.359 607.5,403.5C 607.5,400.167 607.5,396.833 607.5,393.5C 611.765,386.635 615.765,379.635 619.5,372.5C 622.818,366.535 626.151,360.535 629.5,354.5 Z"/></g>
<g><path style="opacity:1" fill="#2c478b" d="M 178.5,358.5 C 179.5,358.5 180.5,358.5 181.5,358.5C 189.315,360.596 197.315,360.929 205.5,359.5C 204.701,368.156 204.034,376.822 203.5,385.5C 200.076,402.525 198.743,419.858 199.5,437.5C 195.13,438.512 190.797,438.512 186.5,437.5C 184.824,436.817 184.157,435.483 184.5,433.5C 184.237,428.876 183.237,424.542 181.5,420.5C 181.492,417.455 181.159,414.455 180.5,411.5C 180.317,405.757 179.317,400.423 177.5,395.5C 178.479,383.247 178.813,370.913 178.5,358.5 Z"/></g>
<g><path style="opacity:1" fill="#e9f1f9" d="M 300.5,366.5 C 305.178,373.201 309.845,379.867 314.5,386.5C 314.5,400.5 314.5,414.5 314.5,428.5C 307.374,425.437 300.374,422.104 293.5,418.5C 286.175,417.992 283.342,421.326 285,428.5C 286.914,430.856 289.081,432.856 291.5,434.5C 286.833,434.5 282.167,434.5 277.5,434.5C 271.974,434.179 266.64,434.512 261.5,435.5C 257.826,437.221 256.493,440.221 257.5,444.5C 250.904,445.795 244.071,446.462 237,446.5C 230.256,446.491 223.589,446.158 217,445.5C 216.722,446.416 216.222,447.082 215.5,447.5C 215.672,446.508 215.338,445.842 214.5,445.5C 214.158,444.662 213.492,444.328 212.5,444.5C 211.508,444.672 210.842,444.338 210.5,443.5C 210.092,442.357 209.425,441.357 208.5,440.5C 206.386,439.966 204.552,438.966 203,437.5C 202.667,437.833 202.333,438.167 202,438.5C 201.333,434.833 201.333,431.167 202,427.5C 210.06,427.504 218.227,427.337 226.5,427C 229.893,426.202 233.226,425.202 236.5,424C 241.394,420.065 245.228,415.231 248,409.5C 249.986,400.6 251.319,391.6 252,382.5C 255.311,375.514 259.811,369.347 265.5,364C 267.473,363.505 269.473,363.338 271.5,363.5C 271.035,367.062 269.868,370.395 268,373.5C 263.484,379.868 259.484,386.534 256,393.5C 254.503,401.779 254.169,410.112 255,418.5C 255.027,421.193 256.36,422.527 259,422.5C 261.74,420.879 264.574,419.379 267.5,418C 280.408,406.747 290.741,393.414 298.5,378C 299.869,374.283 300.536,370.45 300.5,366.5 Z"/></g>
<g><path style="opacity:1" fill="#5e73a8" d="M 157.5,375.5 C 157.5,376.833 157.5,378.167 157.5,379.5C 157.118,384.092 156.118,388.425 154.5,392.5C 154.42,386.522 155.42,380.855 157.5,375.5 Z"/></g>
<g><path style="opacity:1" fill="#2b468a" d="M 157.5,379.5 C 163.216,389.656 168.549,399.989 173.5,410.5C 172.626,413.789 171.959,417.123 171.5,420.5C 170.076,422.515 169.41,424.848 169.5,427.5C 168.903,430.941 168.237,434.275 167.5,437.5C 162.843,438.741 158.177,438.741 153.5,437.5C 153.5,437.167 153.5,436.833 153.5,436.5C 153.253,421.809 153.586,407.142 154.5,392.5C 156.118,388.425 157.118,384.092 157.5,379.5 Z"/></g>
<g><path style="opacity:1" fill="#eaf3fb" d="M 203.5,385.5 C 205.042,384.699 206.708,384.366 208.5,384.5C 207.837,391.163 206.003,397.497 203,403.5C 202.832,397.505 202.998,391.505 203.5,385.5 Z"/></g>
<g><path style="opacity:1" fill="#9db0f5" d="M 329.5,438.5 C 329.5,437.833 329.167,437.5 328.5,437.5C 326.191,435.013 323.524,433.013 320.5,431.5C 320.703,429.956 321.37,428.622 322.5,427.5C 321.855,426.354 321.022,425.354 320,424.5C 319.516,419.082 320.016,413.749 321.5,408.5C 318.305,408.487 316.638,406.82 316.5,403.5C 317.27,399.819 318.103,396.152 319,392.5C 320.755,389.662 323.088,388.995 326,390.5C 327.013,394.104 327.513,397.771 327.5,401.5C 328.086,401.291 328.586,400.957 329,400.5C 329.333,397.5 329.667,394.5 330,391.5C 332.593,389.451 335.093,387.285 337.5,385C 339.902,384.186 342.235,384.353 344.5,385.5C 345.106,387.709 345.773,389.876 346.5,392C 351.445,392.897 356.111,394.397 360.5,396.5C 360.665,394.173 361.331,392.007 362.5,390C 368,388.833 370.167,391 369,396.5C 366.401,399.764 366.401,402.764 369,405.5C 369.667,410.167 369.667,414.833 369,419.5C 366.947,420.267 365.447,421.6 364.5,423.5C 367.079,427.898 369.079,432.564 370.5,437.5C 369.408,442.046 366.741,443.38 362.5,441.5C 360.473,443.339 358.14,443.839 355.5,443C 352.26,439.106 349.093,435.273 346,431.5C 345.5,431.833 345,432.167 344.5,432.5C 345.48,433.981 346.647,435.315 348,436.5C 349.424,441.662 347.59,443.829 342.5,443C 339.622,440.291 336.956,437.458 334.5,434.5C 333.653,436.061 333.986,437.561 335.5,439C 335.207,442.094 333.541,443.594 330.5,443.5C 330.784,441.585 330.451,439.919 329.5,438.5 Z"/></g>
<g><path style="opacity:1" fill="#d69387" d="M 373.5,339.5 C 373.459,354.291 373.459,369.291 373.5,384.5C 373.5,396.167 373.5,407.833 373.5,419.5C 373.5,425.833 373.5,432.167 373.5,438.5C 373.167,438.5 372.833,438.5 372.5,438.5C 372.812,405.802 372.479,373.136 371.5,340.5C 371.842,339.662 372.508,339.328 373.5,339.5 Z"/></g>
<g><path style="opacity:1" fill="#e8672d" d="M 373.5,384.5 C 379.254,389.785 385.421,394.451 392,398.5C 398.332,400.915 404.499,403.749 410.5,407C 414.916,415.729 412.583,421.729 403.5,425C 392.899,426.068 382.899,424.234 373.5,419.5C 373.5,407.833 373.5,396.167 373.5,384.5 Z"/></g>
<g><path style="opacity:1" fill="#d04842" d="M 452.5,432.5 C 445.833,432.5 439.167,432.5 432.5,432.5C 432.5,418.5 432.5,404.5 432.5,390.5C 439.167,390.5 445.833,390.5 452.5,390.5C 452.5,404.5 452.5,418.5 452.5,432.5 Z"/></g>
<g><path style="opacity:1" fill="#d14b44" d="M 495.5,432.5 C 488.5,432.5 481.5,432.5 474.5,432.5C 474.5,418.5 474.5,404.5 474.5,390.5C 481.5,390.5 488.5,390.5 495.5,390.5C 495.5,404.5 495.5,418.5 495.5,432.5 Z"/></g>
<g><path style="opacity:1" fill="#e8f1fa" d="M 645.5,392.5 C 650.663,397.824 653.996,404.157 655.5,411.5C 655.693,416.25 657.36,420.25 660.5,423.5C 662.292,428.871 664.292,434.205 666.5,439.5C 665.581,442.089 663.914,444.089 661.5,445.5C 659.517,445.157 658.183,445.824 657.5,447.5C 635.863,446.176 614.196,446.176 592.5,447.5C 592.5,447.167 592.5,446.833 592.5,446.5C 592.116,444.071 591.449,441.737 590.5,439.5C 597.881,431.072 602.881,421.406 605.5,410.5C 606.924,408.485 607.59,406.152 607.5,403.5C 608.321,400.359 608.821,397.025 609,393.5C 609.498,396.482 609.665,399.482 609.5,402.5C 616.673,402.168 623.673,400.835 630.5,398.5C 635.12,395.434 640.12,393.434 645.5,392.5 Z"/></g>
<g><path style="opacity:1" fill="#bccbe5" d="M 177.5,395.5 C 179.317,400.423 180.317,405.757 180.5,411.5C 179.778,411.082 179.278,410.416 179,409.5C 178.428,412.707 176.595,414.374 173.5,414.5C 173.405,416.786 172.738,418.786 171.5,420.5C 171.959,417.123 172.626,413.789 173.5,410.5C 174.526,405.439 175.859,400.439 177.5,395.5 Z"/></g>
<g><path style="opacity:1" fill="#8a9ac2" d="M 668.5,400.5 C 670.253,403.146 671.253,406.146 671.5,409.5C 669.528,406.916 668.528,403.916 668.5,400.5 Z"/></g>
<g><path style="opacity:1" fill="#455b9a" d="M 593.5,379.5 C 593.196,389.211 593.196,398.878 593.5,408.5C 593,410.5 592.5,412.5 592,414.5C 591.925,412.065 591.092,411.398 589.5,412.5C 590.114,408.865 590.448,405.198 590.5,401.5C 591.217,394.133 592.217,386.8 593.5,379.5 Z"/></g>
<g><path style="opacity:1" fill="#6a7eb0" d="M 607.5,393.5 C 607.5,396.833 607.5,400.167 607.5,403.5C 607.59,406.152 606.924,408.485 605.5,410.5C 605.968,404.671 606.635,399.004 607.5,393.5 Z"/></g>
<g><path style="opacity:1" fill="#e5eef7" d="M 180.5,411.5 C 181.159,414.455 181.492,417.455 181.5,420.5C 181.952,424.163 182.452,427.83 183,431.5C 183.278,432.416 183.778,433.082 184.5,433.5C 184.157,435.483 184.824,436.817 186.5,437.5C 187.341,439.379 187.675,441.379 187.5,443.5C 187.5,444.5 187.5,445.5 187.5,446.5C 187.5,446.833 187.5,447.167 187.5,447.5C 186.448,447.649 185.448,447.483 184.5,447C 186.922,444.299 187.089,441.465 185,438.5C 184.796,441.797 183.963,444.797 182.5,447.5C 182.672,446.508 182.338,445.842 181.5,445.5C 178.313,444.269 174.98,443.103 171.5,442C 169.959,440.629 168.625,439.129 167.5,437.5C 168.237,434.275 168.903,430.941 169.5,427.5C 171.163,425.562 171.829,423.228 171.5,420.5C 172.738,418.786 173.405,416.786 173.5,414.5C 176.595,414.374 178.428,412.707 179,409.5C 179.278,410.416 179.778,411.082 180.5,411.5 Z"/></g>
<g><path style="opacity:1" fill="#b0bdd8" d="M 655.5,411.5 C 656.117,411.611 656.617,411.944 657,412.5C 657.918,416.249 659.085,419.916 660.5,423.5C 657.36,420.25 655.693,416.25 655.5,411.5 Z"/></g>
<g><path style="opacity:1" fill="#7689b7" d="M 589.5,414.5 C 589.59,417.152 588.924,419.485 587.5,421.5C 587.41,418.848 588.076,416.515 589.5,414.5 Z"/></g>
<g><path style="opacity:1" fill="#e86a34" d="M 293.5,418.5 C 293.167,419.167 292.833,419.833 292.5,420.5C 292.414,421.496 292.748,422.329 293.5,423C 296.613,424.417 299.613,425.917 302.5,427.5C 301.36,430.72 300.026,433.72 298.5,436.5C 296.254,435.545 293.921,434.878 291.5,434.5C 289.081,432.856 286.914,430.856 285,428.5C 283.342,421.326 286.175,417.992 293.5,418.5 Z"/></g>
<g><path style="opacity:1" fill="#8394be" d="M 171.5,420.5 C 171.829,423.228 171.163,425.562 169.5,427.5C 169.41,424.848 170.076,422.515 171.5,420.5 Z"/></g>
<g><path style="opacity:1" fill="#8899c1" d="M 181.5,420.5 C 183.237,424.542 184.237,428.876 184.5,433.5C 183.778,433.082 183.278,432.416 183,431.5C 182.452,427.83 181.952,424.163 181.5,420.5 Z"/></g>
<g><path style="opacity:1" fill="#96a6c9" d="M 587.5,421.5 C 587.59,424.152 586.924,426.485 585.5,428.5C 585.41,425.848 586.076,423.515 587.5,421.5 Z"/></g>
<g><path style="opacity:1" fill="#f8a77c" d="M 292.5,420.5 C 303.09,425.128 313.423,430.295 323.5,436C 321.833,436.667 320.167,436.667 318.5,436C 313.33,432.914 307.996,430.081 302.5,427.5C 299.613,425.917 296.613,424.417 293.5,423C 292.748,422.329 292.414,421.496 292.5,420.5 Z"/></g>
<g><path style="opacity:1" fill="#f5844c" d="M 293.5,418.5 C 300.374,422.104 307.374,425.437 314.5,428.5C 316.181,430.008 318.181,431.008 320.5,431.5C 323.524,433.013 326.191,435.013 328.5,437.5C 328.632,440.57 328.299,443.57 327.5,446.5C 327.167,446.5 326.833,446.5 326.5,446.5C 322.434,446.693 318.434,446.36 314.5,445.5C 310.749,444.027 307.083,442.36 303.5,440.5C 303.5,439.833 303.167,439.5 302.5,439.5C 301.486,438.326 300.153,437.66 298.5,437.5C 298.5,437.167 298.5,436.833 298.5,436.5C 300.026,433.72 301.36,430.72 302.5,427.5C 307.996,430.081 313.33,432.914 318.5,436C 320.167,436.667 321.833,436.667 323.5,436C 313.423,430.295 303.09,425.128 292.5,420.5C 292.833,419.833 293.167,419.167 293.5,418.5 Z"/></g>
<g><path style="opacity:1" fill="#ebecef" d="M 469.5,422.5 C 471.402,425.337 472.069,428.671 471.5,432.5C 467.5,432.5 463.5,432.5 459.5,432.5C 459.5,432.167 459.5,431.833 459.5,431.5C 463.49,429.138 466.823,426.138 469.5,422.5 Z"/></g>
<g><path style="opacity:1" fill="#6f82b1" d="M 495.5,433.5 C 495.5,433.167 495.5,432.833 495.5,432.5C 496.833,432.5 498.167,432.5 499.5,432.5C 514.5,432.5 529.5,432.5 544.5,432.5C 544.5,437.5 544.5,442.5 544.5,447.5C 542.833,447.5 541.167,447.5 539.5,447.5C 539.5,443.833 539.5,440.167 539.5,436.5C 540.479,439.625 540.813,442.958 540.5,446.5C 541.5,446.5 542.5,446.5 543.5,446.5C 543.5,442.167 543.5,437.833 543.5,433.5C 527.5,433.5 511.5,433.5 495.5,433.5 Z"/></g>
<g><path style="opacity:1" fill="#697fb0" d="M 261.5,435.5 C 266.64,434.512 271.974,434.179 277.5,434.5C 277.672,435.492 277.338,436.158 276.5,436.5C 271.695,435.513 266.695,435.179 261.5,435.5 Z"/></g>
<g><path style="opacity:1" fill="#2d468b" d="M 495.5,433.5 C 511.5,433.5 527.5,433.5 543.5,433.5C 543.5,437.833 543.5,442.167 543.5,446.5C 542.5,446.5 541.5,446.5 540.5,446.5C 540.813,442.958 540.479,439.625 539.5,436.5C 525.5,436.5 511.5,436.5 497.5,436.5C 496.167,436.5 494.833,436.5 493.5,436.5C 488.167,436.5 482.833,436.5 477.5,436.5C 475.833,436.5 474.167,436.5 472.5,436.5C 466.833,436.5 461.167,436.5 455.5,436.5C 453.833,436.5 452.167,436.5 450.5,436.5C 445.167,436.5 439.833,436.5 434.5,436.5C 433.167,436.5 431.833,436.5 430.5,436.5C 427.5,436.5 424.5,436.5 421.5,436.5C 420.521,439.625 420.187,442.958 420.5,446.5C 419.5,446.5 418.5,446.5 417.5,446.5C 417.5,442.167 417.5,437.833 417.5,433.5C 443.5,433.5 469.5,433.5 495.5,433.5 Z"/></g>
<g><path style="opacity:1" fill="#6a587d" d="M 416.5,432.5 C 420.5,432.5 424.5,432.5 428.5,432.5C 429.833,432.5 431.167,432.5 432.5,432.5C 439.167,432.5 445.833,432.5 452.5,432.5C 453.833,432.5 455.167,432.5 456.5,432.5C 457.5,432.5 458.5,432.5 459.5,432.5C 463.5,432.5 467.5,432.5 471.5,432.5C 472.5,432.5 473.5,432.5 474.5,432.5C 481.5,432.5 488.5,432.5 495.5,432.5C 495.5,432.833 495.5,433.167 495.5,433.5C 469.5,433.5 443.5,433.5 417.5,433.5C 417.5,437.833 417.5,442.167 417.5,446.5C 417.167,446.5 416.833,446.5 416.5,446.5C 416.5,441.833 416.5,437.167 416.5,432.5 Z"/></g>
<g><path style="opacity:1" fill="#354e90" d="M 261.5,435.5 C 266.695,435.179 271.695,435.513 276.5,436.5C 276.167,436.5 275.833,436.5 275.5,436.5C 271.445,436.176 267.445,436.509 263.5,437.5C 267.107,438.489 270.774,438.823 274.5,438.5C 274.401,441.237 274.735,443.904 275.5,446.5C 270.156,446.666 264.823,446.499 259.5,446C 258.956,445.283 258.289,444.783 257.5,444.5C 256.493,440.221 257.826,437.221 261.5,435.5 Z"/></g>
<g><path style="opacity:1" fill="#6c82b2" d="M 275.5,436.5 C 275.167,437.167 274.833,437.833 274.5,438.5C 270.774,438.823 267.107,438.489 263.5,437.5C 267.445,436.509 271.445,436.176 275.5,436.5 Z"/></g>
<g><path style="opacity:1" fill="#8cb4f1" d="M 277.5,434.5 C 282.167,434.5 286.833,434.5 291.5,434.5C 293.921,434.878 296.254,435.545 298.5,436.5C 298.5,436.833 298.5,437.167 298.5,437.5C 290.555,438.437 282.555,438.77 274.5,438.5C 274.833,437.833 275.167,437.167 275.5,436.5C 275.833,436.5 276.167,436.5 276.5,436.5C 277.338,436.158 277.672,435.492 277.5,434.5 Z"/></g>
<g><path style="opacity:1" fill="#6ba1f1" d="M 298.5,437.5 C 300.153,437.66 301.486,438.326 302.5,439.5C 302.756,441.792 302.423,443.959 301.5,446C 292.84,446.5 284.173,446.666 275.5,446.5C 274.735,443.904 274.401,441.237 274.5,438.5C 282.555,438.77 290.555,438.437 298.5,437.5 Z"/></g>
<g><path style="opacity:1" fill="#f78348" d="M 430.5,437.5 C 432.227,440.824 434.56,443.491 437.5,445.5C 432.5,445.5 427.5,445.5 422.5,445.5C 422.5,442.833 422.5,440.167 422.5,437.5C 425.167,437.5 427.833,437.5 430.5,437.5 Z"/></g>
<g><path style="opacity:1" fill="#1f3a67" d="M 153.5,437.5 C 158.177,438.741 162.843,438.741 167.5,437.5C 168.625,439.129 169.959,440.629 171.5,442C 174.98,443.103 178.313,444.269 181.5,445.5C 172.598,446.815 163.598,446.815 154.5,445.5C 154.425,442.794 154.092,440.127 153.5,437.5 Z"/></g>
<g><path style="opacity:1" fill="#183562" d="M 186.5,437.5 C 190.797,438.512 195.13,438.512 199.5,437.5C 202.205,441.193 205.872,443.193 210.5,443.5C 210.842,444.338 211.508,444.672 212.5,444.5C 208.681,445.166 204.681,445.499 200.5,445.5C 195.914,445.435 191.58,444.768 187.5,443.5C 187.675,441.379 187.341,439.379 186.5,437.5 Z"/></g>
<g><path style="opacity:1" fill="#e4855a" d="M 421.5,436.5 C 424.5,436.5 427.5,436.5 430.5,436.5C 430.5,436.833 430.5,437.167 430.5,437.5C 427.833,437.5 425.167,437.5 422.5,437.5C 422.5,440.167 422.5,442.833 422.5,445.5C 427.5,445.5 432.5,445.5 437.5,445.5C 437.5,445.833 437.5,446.167 437.5,446.5C 436.833,446.5 436.167,446.5 435.5,446.5C 430.833,446.5 426.167,446.5 421.5,446.5C 421.5,443.167 421.5,439.833 421.5,436.5 Z"/></g>
<g><path style="opacity:1" fill="#e9f1f9" d="M 455.5,436.5 C 461.167,436.5 466.833,436.5 472.5,436.5C 477.688,444.846 484.688,446.68 493.5,442C 495.464,440.549 496.797,438.716 497.5,436.5C 511.5,436.5 525.5,436.5 539.5,436.5C 539.5,440.167 539.5,443.833 539.5,447.5C 505.427,447.826 471.427,447.493 437.5,446.5C 437.5,446.167 437.5,445.833 437.5,445.5C 445.296,445.748 451.296,442.748 455.5,436.5 Z"/></g>
<g><path style="opacity:1" fill="#f3caaa" d="M 430.5,436.5 C 431.833,436.5 433.167,436.5 434.5,436.5C 434.833,437.5 435.5,438.167 436.5,438.5C 436.611,439.117 436.944,439.617 437.5,440C 441.475,440.987 445.141,440.487 448.5,438.5C 449.5,438.167 450.167,437.5 450.5,436.5C 452.167,436.5 453.833,436.5 455.5,436.5C 451.296,442.748 445.296,445.748 437.5,445.5C 434.56,443.491 432.227,440.824 430.5,437.5C 430.5,437.167 430.5,436.833 430.5,436.5 Z"/></g>
<g><path style="opacity:1" fill="#d65248" d="M 448.5,438.5 C 445.141,440.487 441.475,440.987 437.5,440C 436.944,439.617 436.611,439.117 436.5,438.5C 440.5,437.167 444.5,437.167 448.5,438.5 Z"/></g>
<g><path style="opacity:1" fill="#b44e55" d="M 434.5,436.5 C 439.833,436.5 445.167,436.5 450.5,436.5C 450.167,437.5 449.5,438.167 448.5,438.5C 444.5,437.167 440.5,437.167 436.5,438.5C 435.5,438.167 434.833,437.5 434.5,436.5 Z"/></g>
<g><path style="opacity:1" fill="#f3cdae" d="M 472.5,436.5 C 474.167,436.5 475.833,436.5 477.5,436.5C 477.5,437.167 477.833,437.5 478.5,437.5C 479.692,439.922 481.692,440.922 484.5,440.5C 487.078,440.558 489.411,439.891 491.5,438.5C 492.5,438.167 493.167,437.5 493.5,436.5C 494.833,436.5 496.167,436.5 497.5,436.5C 496.797,438.716 495.464,440.549 493.5,442C 484.688,446.68 477.688,444.846 472.5,436.5 Z"/></g>
<g><path style="opacity:1" fill="#d65248" d="M 478.5,437.5 C 483.032,437.182 487.366,437.515 491.5,438.5C 489.411,439.891 487.078,440.558 484.5,440.5C 481.692,440.922 479.692,439.922 478.5,437.5 Z"/></g>
<g><path style="opacity:1" fill="#b24d54" d="M 477.5,436.5 C 482.833,436.5 488.167,436.5 493.5,436.5C 493.167,437.5 492.5,438.167 491.5,438.5C 487.366,437.515 483.032,437.182 478.5,437.5C 477.833,437.5 477.5,437.167 477.5,436.5 Z"/></g>
<g><path style="opacity:1" fill="#2f436d" d="M 583.5,439.5 C 585.833,439.5 588.167,439.5 590.5,439.5C 591.449,441.737 592.116,444.071 592.5,446.5C 586.974,446.821 581.64,446.488 576.5,445.5C 579.453,444.213 581.786,442.213 583.5,439.5 Z"/></g>
<g><path style="opacity:1" fill="#374b76" d="M 672.5,424.5 C 673.328,430.319 673.828,436.319 674,442.5C 674.383,443.056 674.883,443.389 675.5,443.5C 675.5,444.5 675.5,445.5 675.5,446.5C 670.637,446.819 665.97,446.486 661.5,445.5C 663.914,444.089 665.581,442.089 666.5,439.5C 668.722,439.822 670.556,439.155 672,437.5C 672.499,433.179 672.666,428.846 672.5,424.5 Z"/></g>
<g><path style="opacity:1" fill="#3c557b" d="M 187.5,443.5 C 191.58,444.768 195.914,445.435 200.5,445.5C 204.681,445.499 208.681,445.166 212.5,444.5C 213.492,444.328 214.158,444.662 214.5,445.5C 205.682,446.493 196.682,446.827 187.5,446.5C 187.5,445.5 187.5,444.5 187.5,443.5 Z"/></g>
<g><path style="opacity:1" fill="#d0a8a4" d="M 328.5,437.5 C 329.167,437.5 329.5,437.833 329.5,438.5C 329.721,441.279 329.388,443.946 328.5,446.5C 328.167,446.5 327.833,446.5 327.5,446.5C 328.299,443.57 328.632,440.57 328.5,437.5 Z"/></g>
<g><path style="opacity:1" fill="#99a7bc" d="M 154.5,445.5 C 163.598,446.815 172.598,446.815 181.5,445.5C 182.338,445.842 182.672,446.508 182.5,447.5C 172.773,448.139 163.44,447.472 154.5,445.5 Z"/></g>
<g><path style="opacity:1" fill="#98a7bc" d="M 214.5,445.5 C 215.338,445.842 215.672,446.508 215.5,447.5C 206.167,447.5 196.833,447.5 187.5,447.5C 187.5,447.167 187.5,446.833 187.5,446.5C 196.682,446.827 205.682,446.493 214.5,445.5 Z"/></g>
<g><path style="opacity:1" fill="#b5cbee" d="M 302.5,439.5 C 303.167,439.5 303.5,439.833 303.5,440.5C 303.756,442.792 303.423,444.959 302.5,447C 287.833,447.667 273.167,447.667 258.5,447C 257.748,446.329 257.414,445.496 257.5,444.5C 258.289,444.783 258.956,445.283 259.5,446C 264.823,446.499 270.156,446.666 275.5,446.5C 284.173,446.666 292.84,446.5 301.5,446C 302.423,443.959 302.756,441.792 302.5,439.5 Z"/></g>
<g><path style="opacity:1" fill="#f7c8b0" d="M 314.5,445.5 C 318.434,446.36 322.434,446.693 326.5,446.5C 323.024,447.643 319.358,447.81 315.5,447C 314.944,446.617 314.611,446.117 314.5,445.5 Z"/></g>
<g><path style="opacity:1" fill="#f6cab4" d="M 387.5,444.5 C 397.03,446.357 406.697,447.024 416.5,446.5C 408.344,447.657 400.01,447.823 391.5,447C 389.563,446.878 388.23,446.045 387.5,444.5 Z"/></g>
<g><path style="opacity:1" fill="#d8ab9d" d="M 421.5,436.5 C 421.5,439.833 421.5,443.167 421.5,446.5C 426.167,446.5 430.833,446.5 435.5,446.5C 430.5,447.833 425.5,447.833 420.5,446.5C 420.187,442.958 420.521,439.625 421.5,436.5 Z"/></g>
<g><path style="opacity:1" fill="#9da9be" d="M 576.5,445.5 C 581.64,446.488 586.974,446.821 592.5,446.5C 592.5,446.833 592.5,447.167 592.5,447.5C 586.5,447.5 580.5,447.5 574.5,447.5C 574.5,446.167 575.167,445.5 576.5,445.5 Z"/></g>
<g><path style="opacity:1" fill="#9eaabf" d="M 675.5,443.5 C 676.434,444.568 676.768,445.901 676.5,447.5C 670.167,447.5 663.833,447.5 657.5,447.5C 658.183,445.824 659.517,445.157 661.5,445.5C 665.97,446.486 670.637,446.819 675.5,446.5C 675.5,445.5 675.5,444.5 675.5,443.5 Z"/></g>
</svg>
