<svg width="186" height="39" viewBox="0 0 186 39" fill="none" xmlns="http://www.w3.org/2000/svg">
<g id="logo(1) (1) 1">
<path id="Vector" d="M17.4806 29.5089C23.14 29.5089 27.7278 24.9119 27.7278 19.2412C27.7278 13.5705 23.14 8.97351 17.4806 8.97351C11.8212 8.97351 7.2334 13.5705 7.2334 19.2412C7.2334 24.9119 11.8212 29.5089 17.4806 29.5089Z" fill="white"/>
<path id="Vector_2" d="M54.3359 6.12609C49.9442 6.12609 43.2276 4.0553 43.2276 4.0553C43.2276 4.0553 41.7637 7.85176 41.7637 13.0288C41.7637 18.2057 46.0692 31.8385 54.7664 35.2898C54.7664 35.2898 67.1665 27.438 67.1665 13.719C67.1665 5.52211 65.9609 4.0553 65.9609 4.0553C65.9609 4.0553 58.7276 6.12609 54.3359 6.12609Z" fill="white"/>
<path id="Vector_3" d="M79.9111 16.7389V1.89819H85.5084C88.1778 1.72563 90.8472 2.84731 90.8472 5.78094C90.8472 7.42032 89.7278 8.542 88.2639 9.0597C90.1584 9.49111 91.5361 10.7854 91.5361 12.9424C91.5361 15.8761 87.8334 16.9977 85.5945 16.8252H79.9111V16.7389ZM85.5945 7.85173C86.9722 7.85173 87.6611 7.33403 87.6611 6.12607C87.6611 4.9181 86.8861 4.4004 85.5945 4.4004H83.0972V7.93801H85.5945V7.85173ZM85.5945 14.2367C87.0584 14.2367 88.0917 13.9778 88.0917 12.2522C88.0917 10.5265 87.0584 10.2677 85.5945 10.2677H83.0972V14.2367H85.5945ZM96.6167 1.89819V16.7389H93.5167V1.89819H96.6167ZM106.003 15.4447C105.314 16.3938 104.367 16.9977 102.817 16.9977C101.783 16.9977 99.8028 16.2212 99.4584 14.7544C99.2861 14.1504 99.2861 13.4601 99.2861 13.115V6.38492H102.386V12.5973C102.386 13.719 102.731 15.0132 104.194 15.0132C105.142 15.0132 106.003 14.1504 106.003 12.5973V6.38492H109.103V14.8407C109.103 15.4447 109.189 16.0486 109.189 16.6526H106.089L106.003 15.4447ZM114.528 12.4247C114.528 13.8053 114.7 15.0132 116.336 15.0132C117.369 15.0132 117.972 14.5818 118.231 13.6327H120.986C120.728 16.2212 118.747 16.9977 116.336 16.9977C112.806 16.9977 111.342 15.0132 111.342 11.5619C111.342 8.45571 113.15 6.03978 116.336 6.03978C118.231 6.03978 119.867 6.73005 120.728 8.542C120.986 9.14598 121.158 9.74996 121.244 10.3539C121.331 10.9579 121.331 11.6482 121.331 12.3385H114.528V12.4247ZM118.144 10.3539C118.144 9.23226 117.8 8.19686 116.336 8.19686C114.958 8.19686 114.614 9.23226 114.528 10.3539H118.144ZM131.75 6.64377C131.75 5.09067 130.803 3.79642 128.908 3.79642C126.669 3.79642 126.067 7.16147 126.067 9.23226C126.067 11.3031 126.669 14.6681 128.908 14.6681C130.803 14.6681 131.75 13.3739 131.75 11.8208H135.108C134.936 15.5309 132.267 16.9115 128.908 16.9115C124.603 16.9115 122.708 13.5464 122.708 9.14598C122.708 4.83182 124.603 1.38049 128.908 1.38049C132.353 1.38049 135.022 2.76102 135.108 6.4712H131.75V6.64377ZM139.586 6.38492L139.672 8.28315C140.361 6.64377 141.653 6.21235 143.203 6.29864V9.0597H141.825C141.308 9.0597 140.619 9.40483 140.361 9.83624C140.017 10.4402 139.931 10.9579 139.931 11.6482V16.7389H136.831V8.45571C136.831 8.0243 136.744 7.16147 136.744 6.38492H139.586ZM149.919 17.084C146.561 17.084 144.494 14.8407 144.494 11.5619C144.494 8.28315 146.475 6.03978 149.919 6.03978C153.278 6.03978 155.344 8.28315 155.344 11.5619C155.344 14.8407 153.278 17.084 149.919 17.084ZM149.919 15.0132C151.814 15.0132 152.158 13.2013 152.158 11.5619C152.158 9.92253 151.814 8.11058 149.919 8.11058C148.025 8.11058 147.681 9.92253 147.681 11.5619C147.767 13.2013 148.025 15.0132 149.919 15.0132ZM162.75 9.14598C162.75 8.45571 162.061 8.11058 161.372 8.11058C160.511 8.11058 160.167 8.36943 160.167 9.0597C160.167 10.6991 166.108 9.74996 166.108 13.6327C166.108 15.8761 163.353 16.9977 161.458 16.9977C159.047 16.9977 156.981 16.0486 156.894 13.719H159.736C159.822 14.4955 160.511 15.0132 161.458 15.0132C162.319 15.0132 162.922 14.6681 162.922 13.8916C162.922 13.0287 161.458 12.6836 160.856 12.5973C158.875 12.1659 157.067 11.6482 157.067 9.31855C157.067 7.16147 159.65 6.21235 161.458 6.21235C163.611 6.21235 165.506 6.9889 165.592 9.31855H162.75V9.14598ZM172.997 9.14598C172.997 8.45571 172.308 8.11058 171.619 8.11058C170.758 8.11058 170.414 8.36943 170.414 9.0597C170.414 10.6991 176.356 9.74996 176.356 13.6327C176.356 15.8761 173.6 16.9977 171.706 16.9977C169.294 16.9977 167.228 16.0486 167.142 13.719H169.983C170.069 14.4955 170.758 15.0132 171.706 15.0132C172.567 15.0132 173.169 14.6681 173.169 13.8916C173.169 13.0287 171.706 12.6836 171.103 12.5973C169.122 12.1659 167.314 11.6482 167.314 9.31855C167.314 7.16147 169.897 6.21235 171.706 6.21235C173.858 6.21235 175.753 6.9889 175.839 9.31855H172.997V9.14598ZM79.9111 36.9292V22.0885H85.5084C88.1778 21.9159 90.8472 23.0376 90.8472 25.9712C90.8472 27.6106 89.7278 28.7323 88.2639 29.25C90.1584 29.6814 91.5361 30.9756 91.5361 33.1327C91.5361 36.0663 87.8334 37.188 85.5945 37.0154H79.9111V36.9292ZM85.5945 28.042C86.9722 28.042 87.6611 27.5243 87.6611 26.3163C87.6611 25.1084 86.8861 24.5907 85.5945 24.5907H83.0972V28.1283L85.5945 28.042ZM85.5945 34.427C87.0584 34.427 88.0917 34.1681 88.0917 32.4424C88.0917 30.7168 87.0584 30.4579 85.5945 30.4579H83.0972V34.427H85.5945ZM96.6167 22.0885V36.9292H93.5167V22.0885H96.6167ZM106.003 35.6349C105.314 36.584 104.367 37.188 102.817 37.188C101.783 37.188 99.8028 36.4115 99.4584 34.8584C99.2861 34.2544 99.2861 33.5641 99.2861 33.219V26.4889H102.386V32.7876C102.386 33.9093 102.731 35.2035 104.194 35.2035C105.142 35.2035 106.003 34.3407 106.003 32.7876V26.5752H109.103V35.0309C109.103 35.6349 109.189 36.2389 109.189 36.8429H106.089L106.003 35.6349ZM114.528 32.615C114.528 33.9955 114.7 35.2035 116.336 35.2035C117.369 35.2035 117.972 34.7721 118.231 33.823H120.986C120.728 36.4115 118.747 37.188 116.336 37.188C112.806 37.188 111.342 35.2035 111.342 31.7522C111.342 28.646 113.15 26.23 116.336 26.23C118.231 26.23 119.867 26.9203 120.728 28.7323C120.986 29.3362 121.158 29.9402 121.244 30.5442C121.331 31.1482 121.331 31.8385 121.331 32.5287L114.528 32.615ZM118.144 30.5442C118.144 29.4225 117.8 28.3871 116.336 28.3871C114.958 28.3871 114.614 29.4225 114.528 30.5442H118.144ZM131.319 26.3163C131.233 24.8495 130.372 24.073 128.822 24.073C127.617 24.073 126.497 24.677 126.497 25.9712C126.497 27.6106 127.961 27.7831 129.253 28.042C131.492 28.646 134.85 29.25 134.85 32.2699C134.85 35.9801 131.664 37.2743 128.478 37.2743C125.119 37.2743 122.708 35.98 122.794 32.1836H126.067C125.981 33.823 126.928 34.9447 128.564 34.9447C129.856 34.9447 131.492 34.5132 131.492 32.9601C131.492 31.2345 129.339 31.0619 128.133 30.7168C126.067 30.1991 123.225 29.25 123.225 26.5752C123.225 23.2101 126.325 21.657 129.425 21.657C132.267 21.657 134.506 23.2101 134.506 26.23L131.319 26.3163ZM137.003 36.9292V22.0885H140.103V27.8694C140.706 26.9203 141.739 26.3163 143.289 26.3163C144.322 26.3163 146.303 27.0929 146.647 28.5597C146.819 29.1637 146.819 29.8539 146.819 30.1991V36.9292H143.806V30.7168C143.806 29.5951 143.461 28.3871 141.997 28.3871C141.05 28.3871 140.189 29.25 140.189 30.7168V36.9292H137.003ZM152.761 22.0885V24.7632H149.489V22.0885H152.761ZM152.589 26.5752V36.9292H149.489V26.5752H152.589ZM158.014 32.615C158.014 33.9955 158.186 35.2035 159.822 35.2035C160.856 35.2035 161.458 34.7721 161.717 33.823H164.472C164.214 36.4115 162.233 37.188 159.822 37.188C156.292 37.188 154.828 35.2035 154.828 31.7522C154.828 28.646 156.636 26.23 159.822 26.23C161.717 26.23 163.353 26.9203 164.214 28.7323C164.472 29.3362 164.644 29.9402 164.731 30.5442C164.817 31.1482 164.817 31.8385 164.817 32.5287L158.014 32.615ZM161.544 30.5442C161.544 29.4225 161.2 28.3871 159.736 28.3871C158.358 28.3871 158.014 29.4225 157.928 30.5442H161.544ZM169.725 22.0885V36.9292H166.625V22.0885H169.725ZM179.542 22.0885H182.642V34.9447C182.642 35.6349 182.728 36.3252 182.728 37.0154H179.628C179.628 36.4978 179.542 36.0663 179.542 35.5486C178.853 36.7566 177.733 37.3606 176.356 37.3606C173.342 37.3606 171.878 34.5132 171.878 31.8385C171.878 29.0774 173.514 26.3163 176.7 26.3163C177.733 26.3163 178.853 26.9203 179.456 27.7831L179.542 22.0885ZM177.303 35.2035C178.939 35.2035 179.542 33.219 179.542 31.7522C179.542 30.3716 179.025 28.3008 177.303 28.3008C175.322 28.3008 175.064 30.1128 175.064 31.7522C175.064 33.3053 175.322 35.2035 177.303 35.2035ZM177.819 16.7389C177.303 16.7389 176.872 16.3075 176.872 15.7898C176.872 15.2721 177.303 14.8407 177.819 14.8407C178.336 14.8407 178.767 15.2721 178.767 15.7898C178.767 16.3075 178.422 16.7389 177.819 16.7389ZM177.819 14.5818C177.217 14.5818 176.7 15.0995 176.7 15.7035C176.7 16.3075 177.217 16.8252 177.819 16.8252C178.422 16.8252 178.939 16.3075 178.939 15.7035C178.939 15.0995 178.422 14.5818 177.819 14.5818Z" fill="#231F20"/>
<path id="Vector_4" d="M177.819 15.7036H177.561V15.2722H177.905C178.078 15.2722 178.25 15.2722 178.25 15.4447C178.25 15.7036 177.991 15.7036 177.819 15.7036ZM178.422 15.4447C178.422 15.1859 178.336 15.0996 177.991 15.0996H177.389V16.3939H177.561V15.7899H177.819L178.25 16.3939H178.422L178.078 15.7899C178.25 15.7899 178.422 15.7036 178.422 15.4447ZM184.45 36.843C183.933 36.843 183.503 36.4116 183.503 35.8939C183.503 35.3762 183.933 34.9447 184.45 34.9447C184.966 34.9447 185.397 35.3762 185.397 35.8939C185.397 36.4116 184.966 36.843 184.45 36.843ZM184.45 34.6859C183.847 34.6859 183.33 35.2036 183.33 35.8076C183.33 36.4116 183.847 36.9293 184.45 36.9293C185.053 36.9293 185.569 36.4116 185.569 35.8076C185.569 35.2036 185.053 34.6859 184.45 34.6859Z" fill="#231F20"/>
<path id="Vector_5" d="M184.364 35.8075H184.106V35.3761H184.45C184.622 35.3761 184.795 35.3761 184.795 35.5486C184.795 35.8075 184.622 35.8075 184.364 35.8075ZM185.053 35.5486C185.053 35.2898 184.967 35.2035 184.622 35.2035H184.02V36.4977H184.192V35.8938H184.45L184.795 36.4977H184.967L184.622 35.8938C184.881 35.8938 185.053 35.8075 185.053 35.5486Z" fill="#231F20"/>
<g id="Group">
<path id="Vector_6" d="M33.0665 33.1328C31.9471 33.1328 31.0859 33.9956 31.0859 35.1173C31.0859 36.239 31.9471 37.1018 33.0665 37.1018C34.0998 37.1018 35.0471 36.239 35.0471 35.1173C35.0471 33.9956 34.1859 33.1328 33.0665 33.1328ZM33.0665 36.7567C32.1193 36.7567 31.4304 36.0664 31.4304 35.1173C31.4304 34.1682 32.1193 33.4779 33.0665 33.4779C34.0137 33.4779 34.7026 34.1682 34.7026 35.1173C34.7026 36.0664 34.0998 36.7567 33.0665 36.7567Z" fill="#008BCC"/>
<path id="Vector_7" d="M34.1 34.5997C34.1 34.1682 33.9278 33.9957 33.325 33.9957H32.3778V36.239H32.6361V35.2899H33.1528L33.7555 36.239H34.1L33.4111 35.2899C33.8416 35.2036 34.1 35.0311 34.1 34.5997ZM33.0666 34.9448H32.6361V34.2545H33.2389C33.4972 34.2545 33.7555 34.2545 33.7555 34.5997C33.8416 35.0311 33.325 34.9448 33.0666 34.9448ZM17.5666 21.916C17.4805 21.916 17.4805 21.916 17.3944 22.0023L14.1222 27.0067C15.1555 27.4381 16.275 27.697 17.4805 27.697C18.6861 27.697 19.8055 27.4381 20.8389 27.0067L17.5666 22.0023C17.6528 21.916 17.5666 21.916 17.5666 21.916ZM14.3805 17.7744L9.4722 17.343C9.29998 17.947 9.21387 18.6373 9.21387 19.3275C9.21387 21.3983 9.98887 23.2966 11.1944 24.7634L14.6389 18.2058C14.8111 18.0333 14.725 17.8607 14.3805 17.7744Z" fill="#008BCC"/>
<path id="Vector_8" d="M25.3167 11.4757V1.72571H9.73056V11.4757H0V27.093H9.73056V36.843H25.3167V27.093H35.0472V11.4757H25.3167ZM17.5667 9.66376C21.4417 9.66376 24.8 11.9071 26.2639 15.2722H19.375C18.4278 15.2722 17.9972 14.6682 17.9111 14.2368C17.9111 13.7191 17.9972 13.5465 18.4278 12.9425C18.9444 12.2523 18.6 11.0443 17.4806 10.958C16.3611 10.958 16.0167 12.2523 16.5333 12.9425C16.9639 13.5465 17.05 13.7191 17.05 14.2368C17.05 14.6682 16.6194 15.2722 15.5861 15.2722H8.69722C10.3333 11.9934 13.6917 9.66376 17.5667 9.66376ZM7.92222 19.3275C7.92222 18.1195 8.18056 16.9978 8.525 15.9624L14.9833 16.5664C16.1889 16.739 16.3611 17.9469 16.0167 18.6372L11.625 27.0067C9.38611 25.1947 7.92222 22.4337 7.92222 19.3275ZM22.8194 27.4381C21.2694 28.4735 19.4611 28.9912 17.4806 28.9912C15.5 28.9912 13.6917 28.3872 12.1417 27.4381L16.8778 20.4492C17.2222 19.9315 17.7389 20.0177 18.0833 20.4492L22.8194 27.4381ZM23.5083 26.9204L19.1167 18.6372C18.7722 17.9469 18.9444 16.739 20.15 16.5664L26.6083 15.9624C27.0389 16.9978 27.2111 18.2058 27.2111 19.3275C27.2111 22.4337 25.7472 25.1947 23.5083 26.9204Z" fill="#008BCC"/>
<path id="Vector_9" d="M23.8525 13.8916C22.8192 12.6836 21.4414 11.7345 19.8914 11.3031C20.4081 12.0796 19.9775 13.2013 19.5469 13.719C19.4608 13.8053 19.5469 13.8916 19.5469 13.8916H23.8525ZM20.7525 17.7743C20.4081 17.7743 20.4081 17.9469 20.4942 18.1195L23.9386 24.677C25.1442 23.2102 25.9192 21.3119 25.9192 19.2412C25.9192 18.5509 25.8331 17.8606 25.6608 17.2566L20.7525 17.7743ZM15.2414 11.3894C13.6914 11.8208 12.3136 12.7699 11.2803 13.9779H15.5858C15.6719 13.9779 15.6719 13.8916 15.5858 13.8053C15.1553 13.2013 14.7247 12.1659 15.2414 11.3894Z" fill="#008BCC"/>
</g>
<g id="Group_2">
<path id="Vector_10" d="M66.3913 1.72571C62.6024 3.62394 58.8135 4.65934 54.4219 4.65934C50.0302 4.65934 46.2413 3.62394 42.4524 1.72571C39.9552 6.64385 39.6108 14.5819 41.7635 21.2257C43.8302 27.6107 47.8774 33.4779 54.4219 37.1018C61.0524 33.4779 65.0135 27.6107 67.0802 21.2257C69.3191 14.5819 68.8885 6.64385 66.3913 1.72571ZM64.6691 20.4492C62.7747 25.885 59.933 30.7169 54.508 34.0819C49.083 30.7169 46.1552 25.885 44.3469 20.4492C42.7108 15.6173 42.2802 9.92261 44.0885 5.52217C46.8441 6.47128 48.3941 6.73013 49.858 6.98898C51.2358 7.24783 52.4413 7.33412 54.508 7.33412C56.4885 7.33412 57.7802 7.16155 59.158 6.98898C60.6219 6.73013 62.258 6.47128 64.9274 5.52217C66.6497 9.92261 66.3052 15.6173 64.6691 20.4492Z" fill="#008BCC"/>
<path id="Vector_11" d="M59.1575 8.1969C57.6075 8.36946 55.9714 8.54203 54.4214 8.54203C52.8714 8.54203 51.3214 8.36946 49.6853 8.1969C48.1353 7.93805 46.5853 7.59291 44.9492 7.1615C43.8297 10.4403 44.002 14.5819 44.9492 18.2057C46.5853 25.1084 50.8047 30.3717 54.4214 32.7013C58.1242 30.3717 62.2575 25.1084 63.8936 18.2057C64.7547 14.4956 65.0131 10.4403 63.8936 7.1615C62.2575 7.59291 60.7936 8.02433 59.1575 8.1969ZM53.5603 29.5088C53.4742 29.854 53.6464 30.0265 53.6464 30.1991C53.5603 30.458 53.3881 30.3717 53.302 30.1991C53.1297 29.9403 53.0436 29.7677 53.0436 29.3363C52.9575 28.646 53.302 28.3872 53.4742 28.2146C53.6464 28.042 53.8186 27.9557 53.8186 27.9557L53.9047 29.0774C53.7325 29.0774 53.5603 29.1637 53.5603 29.5088ZM55.0242 30.6305C55.0242 30.8031 54.9381 30.9757 54.5936 30.9757C54.3353 30.9757 54.1631 30.8894 54.1631 30.5442C54.077 29.1637 54.077 26.6615 54.077 26.6615C54.077 26.6615 54.4214 26.7478 54.6797 26.9204C54.7659 26.9204 54.9381 27.0929 55.1103 27.2655C55.1103 27.3518 55.1964 27.3518 55.1964 27.438C55.1103 28.3872 55.0242 30.1991 55.0242 30.6305ZM56.1436 28.042C55.7992 28.3009 55.4547 28.3872 55.4547 28.3872V27.3518C55.4547 27.3518 55.5409 27.2655 55.5409 27.0929C55.4547 26.9203 54.7659 26.4026 54.4214 26.2301C53.9909 26.0575 53.4742 25.885 53.1297 25.7987C52.2686 25.4535 51.9242 24.677 52.2686 23.8142C52.3547 23.469 52.7853 23.2965 52.9575 23.2102C53.1297 23.1239 53.4742 23.0376 53.4742 23.0376L53.5603 24.2456C53.5603 24.2456 53.4742 24.2456 53.3881 24.4181C53.302 24.5907 53.4742 24.7633 53.5603 24.7633C54.1631 25.0221 54.9381 25.3673 55.5409 25.7124C56.3159 26.1438 56.5742 26.4889 56.5742 27.0929C56.6603 27.5243 56.402 27.8695 56.1436 28.042ZM53.9909 22.4336C54.5936 22.5199 54.7659 22.5199 55.2825 22.6062L55.1964 25.0221L54.6797 24.7633L54.1631 24.5044L53.9909 22.4336ZM57.4353 22.9513C57.3492 23.3827 57.0909 23.7279 56.6603 23.9867C56.2297 24.2456 55.7131 24.2456 55.7131 24.2456V22.7788C55.7131 22.7788 55.7992 22.7788 55.8853 22.6925C55.9714 22.6062 55.9714 22.5199 55.9714 22.4336C55.9714 22.3473 55.8853 22.2611 55.7992 22.1748C55.627 22.0885 55.4548 22.0885 55.3686 22.0885L53.302 21.8296C52.0964 21.6571 51.1492 20.8805 51.2353 19.6726C51.3214 18.896 52.0964 18.6372 52.6992 18.3783L53.1297 19.2411C53.2159 19.5863 53.302 19.7588 53.302 19.7588C53.302 19.7588 53.0436 19.8451 53.0436 20.0177C53.0436 20.1903 53.302 20.2765 53.3881 20.2765C54.2492 20.3628 55.4547 20.5354 56.0575 20.7942C56.4881 20.9668 56.8325 21.1394 57.0909 21.4845C57.4353 22.0885 57.5214 22.5199 57.4353 22.9513ZM53.4742 17.3429C53.4742 17.3429 53.7325 17.3429 54.5075 17.4292C55.0242 17.4292 55.4547 17.6018 55.4547 17.6018L55.3686 20.1903C54.7659 20.104 54.4214 20.0177 53.9047 19.9314C53.7325 18.9823 53.4742 18.6372 53.1297 17.9469C53.0436 17.7743 53.1297 17.688 53.1297 17.688C53.2159 17.6018 53.5603 17.5155 53.5603 17.5155L53.4742 17.3429ZM55.7992 19.9314C55.7992 19.9314 55.8853 18.7234 55.8853 18.1195C56.2297 18.0332 56.3159 17.688 56.1436 17.4292C56.0575 17.2566 55.7992 17.1703 55.7131 17.1703C55.0242 16.9978 54.4214 16.9978 53.7325 16.9115C53.1297 16.8252 52.6131 16.7389 52.0964 16.6526C50.977 16.3938 49.9436 15.7898 49.427 14.7544C48.8242 13.4602 49.3409 11.8208 50.6325 11.2168C51.5797 10.6991 52.6131 10.7854 53.5603 11.2168C53.9047 11.3031 54.077 11.6482 54.2492 11.9071C54.3353 11.9934 54.5075 12.0796 54.5936 12.2522C54.6797 12.3385 54.5075 12.3385 54.5075 12.3385C54.3353 12.4248 53.5603 12.4248 53.3881 12.3385H52.3547C52.6131 12.5111 52.9575 12.6836 53.302 12.8562C53.4742 12.9425 53.6464 12.9425 53.8186 13.0288C53.9047 13.0288 54.077 13.115 54.077 13.2013C54.077 13.2876 53.9047 13.2876 53.7325 13.3739C53.4742 13.4602 53.1297 13.4602 52.7853 13.3739C52.2686 13.2876 52.0103 12.9425 51.6659 13.115C51.4075 13.2876 51.4075 13.5465 51.4936 13.8916C51.5797 14.4093 52.0964 14.5819 52.527 14.7544C53.9909 15.2721 55.627 14.927 57.0047 15.7035C57.5214 15.9624 58.2103 16.5664 58.2964 17.1703C58.727 19.5863 55.7992 19.9314 55.7992 19.9314ZM58.3825 11.9071C58.2964 12.1659 58.2103 12.1659 58.0381 12.3385C57.6936 12.6836 57.177 13.0288 56.6603 13.4602C56.3159 13.719 56.0575 13.8916 55.7992 14.323C55.7131 14.4093 55.627 14.5819 55.627 14.5819C54.7659 14.4093 53.9909 14.4093 53.302 14.2367V13.5465C53.302 13.5465 54.077 13.5465 54.1631 13.0288C54.1631 13.0288 54.1631 12.8562 54.077 12.7699C53.9909 12.6836 53.7325 12.5973 53.6464 12.5973C54.2492 12.6836 54.852 12.9425 55.4547 13.2013C55.4547 13.115 55.3686 12.8562 55.3686 12.8562C55.2825 12.7699 55.1964 12.6836 54.9381 12.5973C54.5936 12.5111 53.6464 12.4248 53.6464 12.4248H54.4214C54.5936 12.4248 54.852 12.3385 54.852 12.2522C54.9381 12.1659 54.852 11.9934 54.6797 11.8208L54.4214 11.5619C54.3353 11.3894 54.1631 11.2168 54.077 11.0442C53.9047 10.7854 53.2159 10.5265 53.2159 10.5265C53.2159 10.5265 53.1297 10.0951 53.302 9.92256C53.3881 9.74999 53.7325 9.74999 53.8186 9.83628C54.2492 10.0951 54.852 10.354 55.4547 10.5265C55.627 10.6128 55.627 10.6128 55.627 10.8717C55.7131 11.3031 55.5409 11.9071 55.627 12.1659C55.627 12.2522 55.7992 12.2522 55.7992 12.2522C56.402 11.9071 56.7464 11.3894 57.3492 11.1305C57.7797 10.958 58.5548 11.3031 58.3825 11.9071ZM66.5631 33.219C65.5298 33.219 64.6686 34.0819 64.6686 35.1173C64.6686 36.1527 65.5298 37.0155 66.5631 37.0155C67.5964 37.0155 68.4575 36.1527 68.4575 35.1173C68.4575 34.0819 67.5964 33.219 66.5631 33.219ZM66.5631 36.7566C65.6159 36.7566 64.927 36.0664 64.927 35.1173C64.927 34.1681 65.6159 33.4779 66.5631 33.4779C67.5103 33.4779 68.1992 34.1681 68.1992 35.1173C68.1992 36.0664 67.5103 36.7566 66.5631 36.7566Z" fill="#008BCC"/>
<path id="Vector_12" d="M67.5973 34.5996C67.5973 34.1682 67.4251 33.9957 66.8223 33.9957H65.8751V36.239H66.1334V35.2899H66.564L67.1668 36.239H67.5112L66.8223 35.2899C67.2529 35.2036 67.5973 35.0311 67.5973 34.5996ZM66.564 35.0311H66.1334V34.3408H66.7362C66.9945 34.3408 67.2529 34.3408 67.2529 34.6859C67.2529 35.0311 66.8223 35.0311 66.564 35.0311ZM52.614 11.3032C52.7862 11.4757 52.7862 11.6483 53.0445 11.6483C53.2168 11.6483 53.3029 11.562 53.389 11.4757H53.5612C53.3029 11.2169 52.7001 11.2169 52.2695 11.1306C52.4418 11.3032 52.5279 11.2169 52.614 11.3032Z" fill="#008BCC"/>
</g>
</g>
</svg>
