<svg width="155" height="31" viewBox="0 0 155 31" fill="none" xmlns="http://www.w3.org/2000/svg">
<g id="logo(5) (1) 1" clip-path="url(#clip0_1_1060)">
<g id="Group">
<g id="Group_2">
<path id="Vector" d="M70.6605 20.2177C77.9053 20.2177 81.6239 17.951 81.6239 13.076C81.6239 8.86769 78.5571 6.06769 71.8972 6.06769C63.8251 6.06769 60.5996 9.65936 59.8642 16.0927C58.686 16.0177 57.3991 15.9927 55.6443 15.9844C55.6443 15.6344 55.6527 15.2844 55.6527 14.926C55.6527 8.40103 52.9452 6.04269 45.7254 6.04269C42.1991 6.04269 39.0906 6.56769 37.1937 7.33436L37.4778 12.5427C39.1324 11.6677 41.5975 10.826 43.9372 10.826C47.2379 10.826 48.2407 12.1844 48.2407 15.4427L48.2323 15.926C48.0067 15.9177 47.4218 15.9177 47.1042 15.9177C38.8817 15.9177 35.0712 18.401 35.0712 23.001C35.0712 27.7427 37.4361 30.5344 44.1795 30.5344C47.7309 30.5344 51.2406 30.0344 55.7613 30.0344C55.4271 28.1344 55.4187 25.401 55.4187 23.526C55.4187 22.5344 55.4688 21.351 55.519 20.0094C57.4493 20.026 58.8698 20.076 59.8057 20.1177C60.5076 27.7344 64.4685 30.551 72.7161 30.551C75.7661 30.551 78.8496 30.0344 80.4624 29.2844L80.1782 24.076C78.5738 25.001 76.3427 25.7594 73.8943 25.7594C69.8416 25.7594 67.6439 23.651 67.6439 20.3177V20.1594C68.3709 20.1927 69.8165 20.2177 70.6605 20.2177ZM45.9344 25.9844C43.4275 25.9844 42.3579 25.151 42.3579 23.0594C42.3579 21.0427 43.7199 19.901 47.146 19.901C47.4635 19.901 47.8479 19.8927 48.1237 19.9177C48.107 21.8677 48.0652 24.1427 48.1738 25.726C47.5805 25.8844 46.7031 25.9844 45.9344 25.9844ZM67.6105 16.1927V16.076C67.6105 12.8094 68.6466 10.4094 71.6549 10.4094C73.3596 10.4094 74.4542 11.301 74.4542 12.9177C74.4542 15.1927 72.9334 16.251 69.7747 16.251C69.0143 16.251 68.2038 16.2427 67.6105 16.1927ZM96.4395 25.3344C94.0162 25.3344 93.3059 24.376 93.3059 20.8677V11.8094H98.0857V6.77603H93.3811C93.3811 4.99269 93.5232 2.35936 93.6736 0.551025H89.2448C88.6598 4.95103 87.3813 7.21769 83.3536 7.88436C83.3369 9.06769 83.4038 10.6844 83.3536 11.8094H86.036C85.9942 14.3094 85.919 18.876 85.919 23.0344C85.919 28.3427 88.6766 30.5177 93.8574 30.5177C96.381 30.5177 98.2361 30.151 98.8545 29.976L98.5369 24.801C98.0857 25.1094 97.1916 25.3344 96.4395 25.3344ZM146.861 14.926C146.861 8.40103 144.154 6.04269 136.942 6.04269C133.408 6.04269 130.307 6.56769 128.41 7.33436L128.695 12.5427C130.349 11.6677 132.806 10.826 135.154 10.826C138.455 10.826 139.457 12.1844 139.457 15.4427V15.926C139.223 15.9177 138.647 15.9177 138.329 15.9177C130.098 15.9177 126.296 18.401 126.296 23.001C126.296 27.7427 128.661 30.5344 135.405 30.5344C138.956 30.5344 142.466 30.0344 146.978 30.0344C146.652 28.1344 146.644 25.401 146.644 23.526C146.635 21.401 146.861 18.4177 146.861 14.926ZM137.151 25.9844C134.636 25.9844 133.575 25.151 133.575 23.0594C133.575 21.0427 134.937 19.901 138.363 19.901C138.672 19.901 139.056 19.8927 139.332 19.9177C139.324 21.8677 139.274 24.1427 139.391 25.726C138.797 25.8844 137.912 25.9844 137.151 25.9844ZM123.28 19.1844C123.28 17.2177 123.322 14.601 123.322 14.601C123.322 8.70936 120.731 6.06769 113.403 6.06769C109.291 6.06769 106.358 6.78436 101.771 6.78436C102.03 10.9177 102.038 16.026 102.021 19.1927C102.038 22.4094 101.913 28.176 101.771 30.0344H109.642C109.459 28.1677 109.308 22.8094 109.325 19.1927C109.325 17.1344 109.35 14.6427 109.433 11.301C110.219 11.0344 111.213 10.8344 112.291 10.8344C115.049 10.8344 115.935 12.126 115.935 15.6677C115.935 15.6677 115.976 17.8927 115.976 19.201C115.976 22.4177 115.868 28.1844 115.726 30.0427H123.597C123.413 28.1594 123.255 22.801 123.28 19.1844ZM25.7791 5.00936C25.0437 4.27603 24.0828 3.90936 23.1302 3.90936C22.1692 3.90936 21.1999 4.27603 20.4645 5.01769L16.1026 9.37603L11.7322 5.01769C10.9885 4.26769 10.0276 3.90103 9.0666 3.90103C8.10563 3.90103 7.14466 4.26769 6.40931 5.00103L1.09474 10.301C-0.367605 11.7594 -0.367605 14.1344 1.10309 15.601L16.0942 30.551L31.0853 15.601C32.556 14.1427 32.5476 11.7677 31.0853 10.301L25.7791 5.00936ZM153.112 7.40103C153.112 6.60936 152.627 6.27603 151.683 6.27603H150.195V10.176H150.839V8.50936H151.44L152.451 10.176H153.178L152.084 8.45936C152.677 8.40102 153.112 8.10936 153.112 7.40103ZM150.839 7.96769V6.82603H151.616C152 6.82603 152.468 6.88436 152.468 7.35103C152.468 7.91769 152.042 7.95936 151.566 7.95936H150.839V7.96769ZM151.541 4.64269C149.669 4.64269 148.064 6.05103 148.064 8.16769C148.064 10.176 149.51 11.6927 151.541 11.6927C153.396 11.6927 155 10.2927 155 8.16769C155 6.04269 153.396 4.64269 151.541 4.64269ZM151.541 11.076C149.861 11.076 148.816 9.76769 148.816 8.16769C148.816 6.45103 150.003 5.25936 151.541 5.25936C153.053 5.25936 154.24 6.45936 154.24 8.16769C154.24 9.89269 153.053 11.076 151.541 11.076Z" fill="#7D3F98"/>
</g>
</g>
</g>
<defs>
<clipPath id="clip0_1_1060">
<rect width="155" height="30" fill="white" transform="translate(0 0.551025)"/>
</clipPath>
</defs>
</svg>
