<?xml version="1.0" encoding="UTF-8"?>
<!DOCTYPE svg PUBLIC "-//W3C//DTD SVG 1.1//EN" "http://www.w3.org/Graphics/SVG/1.1/DTD/svg11.dtd">
<svg xmlns="http://www.w3.org/2000/svg" version="1.1" width="937px" height="939px" style="shape-rendering:geometricPrecision; text-rendering:geometricPrecision; image-rendering:optimizeQuality; fill-rule:evenodd; clip-rule:evenodd" xmlns:xlink="http://www.w3.org/1999/xlink">
<g><path style="opacity:1" fill="#e1e6fa" d="M -0.5,-0.5 C 311.833,-0.5 624.167,-0.5 936.5,-0.5C 936.5,312.5 936.5,625.5 936.5,938.5C 624.167,938.5 311.833,938.5 -0.5,938.5C -0.5,625.5 -0.5,312.5 -0.5,-0.5 Z"/></g>
<g><path style="opacity:1" fill="#825cc4" d="M 459.5,92.5 C 461.509,94.0652 463.843,95.0652 466.5,95.5C 480.909,103.111 483.243,113.444 473.5,126.5C 468.101,130.189 462.767,133.856 457.5,137.5C 456.163,138.315 455.163,139.482 454.5,141C 452.866,141.494 451.199,141.66 449.5,141.5C 447.302,141.88 445.635,141.213 444.5,139.5C 444.448,137.097 444.781,134.764 445.5,132.5C 447.412,129.025 450.078,126.192 453.5,124C 457.793,122.576 461.626,120.409 465,117.5C 467.989,111.656 466.489,107.656 460.5,105.5C 457.481,103.663 454.148,103.163 450.5,104C 449.058,104.377 448.058,105.21 447.5,106.5C 445.833,107.833 444.167,109.167 442.5,110.5C 439.833,110.167 437.167,109.833 434.5,109.5C 433.5,109.5 432.5,109.5 431.5,109.5C 431.338,107.473 431.505,105.473 432,103.5C 438.672,94.0218 447.839,90.3551 459.5,92.5 Z"/></g>
<g><path style="opacity:1" fill="#bdafe4" d="M 459.5,92.5 C 462.491,92.1663 464.824,93.1663 466.5,95.5C 463.843,95.0652 461.509,94.0652 459.5,92.5 Z"/></g>
<g><path style="opacity:1" fill="#c5bbe8" d="M 460.5,105.5 C 456.102,105.294 451.768,105.627 447.5,106.5C 448.058,105.21 449.058,104.377 450.5,104C 454.148,103.163 457.481,103.663 460.5,105.5 Z"/></g>
<g><path style="opacity:1" fill="#ad99db" d="M 434.5,109.5 C 437.167,109.833 439.833,110.167 442.5,110.5C 439.66,111.917 436.993,111.584 434.5,109.5 Z"/></g>
<g><path style="opacity:1" fill="#fea8a7" d="M 374.5,138.5 C 374.528,140.582 373.861,142.416 372.5,144C 365.833,148.333 359.167,152.667 352.5,157C 344.885,164.785 337.218,172.285 329.5,179.5C 327.147,181.101 324.98,183.101 323,185.5C 314.799,196.068 306.966,206.901 299.5,218C 309.023,226.248 319.023,233.748 329.5,240.5C 333.568,244.899 338.235,248.565 343.5,251.5C 343.5,252.167 343.833,252.5 344.5,252.5C 347.521,255.875 349.521,259.875 350.5,264.5C 352.182,271.712 352.848,279.045 352.5,286.5C 351.718,295.949 346.718,300.949 337.5,301.5C 336.78,297.055 334.78,293.388 331.5,290.5C 331.158,289.662 330.492,289.328 329.5,289.5C 307.27,271.447 285.437,252.781 264,233.5C 260.846,230.348 258.513,226.681 257,222.5C 256.454,219.101 256.787,215.768 258,212.5C 275.232,195.265 293.066,178.765 311.5,163C 316.593,156.151 321.926,149.484 327.5,143C 341.283,137.037 355.616,134.537 370.5,135.5C 371.852,136.524 373.185,137.524 374.5,138.5 Z"/></g>
<g><path style="opacity:1" fill="#a086d3" d="M 445.5,132.5 C 444.781,134.764 444.448,137.097 444.5,139.5C 443.853,138.726 443.52,137.726 443.5,136.5C 443.34,134.645 444.007,133.312 445.5,132.5 Z"/></g>
<g><path style="opacity:1" fill="#273339" d="M 374.5,138.5 C 398.764,136.545 416.598,146.212 428,167.5C 429.283,171.414 430.116,175.414 430.5,179.5C 430.831,208.671 430.498,237.671 429.5,266.5C 423.597,257.264 415.263,251.597 404.5,249.5C 400.702,248.517 396.702,248.183 392.5,248.5C 392.5,244.5 392.5,240.5 392.5,236.5C 398.472,237.474 404.472,237.641 410.5,237C 415.144,234.359 418.311,230.525 420,225.5C 422.047,219.673 423.213,213.673 423.5,207.5C 428.354,204.018 429.688,199.351 427.5,193.5C 426.378,192.37 425.044,191.703 423.5,191.5C 423.5,191.167 423.5,190.833 423.5,190.5C 423.089,185.662 422.422,180.995 421.5,176.5C 421.513,170.856 419.179,166.523 414.5,163.5C 409.402,169.556 403.069,173.889 395.5,176.5C 393.033,176.755 391.033,177.755 389.5,179.5C 383.027,180.089 377.694,182.756 373.5,187.5C 371.787,188.635 371.12,190.302 371.5,192.5C 370.662,192.842 370.328,193.508 370.5,194.5C 366.167,194.5 361.833,194.5 357.5,194.5C 351.311,191.982 346.811,193.648 344,199.5C 341.756,208.009 344.589,214.009 352.5,217.5C 354.607,218.468 356.941,218.802 359.5,218.5C 359.5,229.167 359.5,239.833 359.5,250.5C 354.155,250.687 348.822,251.02 343.5,251.5C 338.235,248.565 333.568,244.899 329.5,240.5C 329.5,220.167 329.5,199.833 329.5,179.5C 337.218,172.285 344.885,164.785 352.5,157C 359.167,152.667 365.833,148.333 372.5,144C 373.861,142.416 374.528,140.582 374.5,138.5 Z"/></g>
<g><path style="opacity:1" fill="#ccbee8" d="M 525.5,138.5 C 536.939,138.961 545.105,144.294 550,154.5C 552.068,164.441 548.235,170.941 538.5,174C 532.395,174.154 526.561,175.321 521,177.5C 511.207,174.409 511.041,170.575 520.5,166C 526.205,165.145 531.871,164.145 537.5,163C 540.947,156.871 539.28,152.538 532.5,150C 528.859,149.356 525.359,149.856 522,151.5C 518.451,150.782 515.951,148.782 514.5,145.5C 514.529,143.971 515.196,142.804 516.5,142C 519.459,140.396 522.459,139.229 525.5,138.5 Z"/></g>
<g><path style="opacity:1" fill="#beb2e5" d="M 457.5,137.5 C 456.523,142.322 453.856,143.655 449.5,141.5C 451.199,141.66 452.866,141.494 454.5,141C 455.163,139.482 456.163,138.315 457.5,137.5 Z"/></g>
<g><path style="opacity:1" fill="#845fc5" d="M 441.5,145.5 C 445.5,146.5 449.5,147.5 453.5,148.5C 453.048,152.163 452.548,155.83 452,159.5C 451.5,160 451,160.5 450.5,161C 447.134,161.33 443.801,160.997 440.5,160C 439.196,159.196 438.529,158.029 438.5,156.5C 439.125,152.693 440.125,149.027 441.5,145.5 Z"/></g>
<g><path style="opacity:1" fill="#f6a4a3" d="M 421.5,176.5 C 422.01,179.388 421.344,181.721 419.5,183.5C 417.833,183.5 416.167,183.5 414.5,183.5C 414.157,185.483 414.824,186.817 416.5,187.5C 416.611,188.117 416.944,188.617 417.5,189C 415.618,189.198 413.952,189.698 412.5,190.5C 409.684,192.41 406.684,194.077 403.5,195.5C 402.5,195.333 401.5,195.167 400.5,195C 397.757,191.297 394.09,189.797 389.5,190.5C 384.91,189.797 381.243,191.297 378.5,195C 376.19,195.497 373.857,195.663 371.5,195.5C 371.5,194.5 371.5,193.5 371.5,192.5C 372.537,191.07 373.204,189.403 373.5,187.5C 377.694,182.756 383.027,180.089 389.5,179.5C 391.967,179.245 393.967,178.245 395.5,176.5C 403.069,173.889 409.402,169.556 414.5,163.5C 419.179,166.523 421.513,170.856 421.5,176.5 Z"/></g>
<g><path style="opacity:1" fill="#4b5f69" d="M 742.5,446.5 C 742.5,447.167 742.167,447.5 741.5,447.5C 741.5,356.5 741.5,265.5 741.5,174.5C 739.436,174.687 737.436,175.187 735.5,176C 688.246,204.125 640.579,231.458 592.5,258C 589.94,259.773 587.607,261.773 585.5,264C 575.416,269.709 565.082,274.876 554.5,279.5C 550.407,278.287 546.741,276.287 543.5,273.5C 542.334,292.158 542.167,310.824 543,329.5C 546.529,332.17 550.362,334.17 554.5,335.5C 542.977,350.864 530.144,365.198 516,378.5C 515.385,380.116 514.385,381.449 513,382.5C 512.51,383.793 512.343,385.127 512.5,386.5C 507.861,383.845 503.194,381.179 498.5,378.5C 497.588,377.262 497.421,375.928 498,374.5C 512.405,359.598 526.572,344.598 540.5,329.5C 541.167,310.5 541.833,291.5 542.5,272.5C 543.719,271.737 544.719,270.737 545.5,269.5C 601.102,237.361 656.769,205.194 712.5,173C 717.706,170.312 722.872,167.812 728,165.5C 733.135,167.399 737.801,170.066 742,173.5C 742.5,264.499 742.667,355.499 742.5,446.5 Z"/></g>
<g><path style="opacity:1" fill="#6b4da0" d="M 484.5,177.5 C 486.278,181.565 486.945,185.899 486.5,190.5C 484.538,193.474 482.538,196.474 480.5,199.5C 478.95,201.3 477.95,203.467 477.5,206C 474.854,206.497 472.187,206.664 469.5,206.5C 469.365,199.102 472.199,193.102 478,188.5C 479.753,182.747 477.586,180.081 471.5,180.5C 468.372,180.561 466.039,181.894 464.5,184.5C 463.053,185.622 462.053,187.122 461.5,189C 459.19,189.497 456.857,189.663 454.5,189.5C 454.993,187.194 455.326,184.861 455.5,182.5C 460.163,174.506 467.163,171.34 476.5,173C 479.633,173.86 482.3,175.36 484.5,177.5 Z"/></g>
<g><path style="opacity:1" fill="#37474f" d="M 741.5,447.5 C 740.972,448.721 740.305,449.887 739.5,451C 679.665,485.364 619.998,519.864 560.5,554.5C 558.883,555.038 557.216,555.371 555.5,555.5C 555.5,498.5 555.5,441.5 555.5,384.5C 551.167,384.5 546.833,384.5 542.5,384.5C 542.5,438.833 542.5,493.167 542.5,547.5C 541.833,547.5 541.5,547.167 541.5,546.5C 541.5,492.833 541.5,439.167 541.5,385.5C 537.833,385.5 534.167,385.5 530.5,385.5C 524.509,385.966 518.509,386.299 512.5,386.5C 512.343,385.127 512.51,383.793 513,382.5C 514.385,381.449 515.385,380.116 516,378.5C 530.144,365.198 542.977,350.864 554.5,335.5C 555.825,316.931 555.825,298.264 554.5,279.5C 565.082,274.876 575.416,269.709 585.5,264C 587.607,261.773 589.94,259.773 592.5,258C 640.579,231.458 688.246,204.125 735.5,176C 737.436,175.187 739.436,174.687 741.5,174.5C 741.5,265.5 741.5,356.5 741.5,447.5 Z"/></g>
<g><path style="opacity:1" fill="#8e6b6e" d="M 395.5,176.5 C 393.967,178.245 391.967,179.245 389.5,179.5C 391.033,177.755 393.033,176.755 395.5,176.5 Z"/></g>
<g><path style="opacity:1" fill="#ccbfe8" d="M 508.5,177.5 C 512.662,178.413 515.996,180.58 518.5,184C 516.597,187.064 514.264,189.564 511.5,191.5C 509.041,189.697 506.374,188.363 503.5,187.5C 503.343,186.127 503.51,184.793 504,183.5C 506.102,181.905 507.602,179.905 508.5,177.5 Z"/></g>
<g><path style="opacity:1" fill="#e0e2f5" d="M 329.5,179.5 C 329.5,199.833 329.5,220.167 329.5,240.5C 319.023,233.748 309.023,226.248 299.5,218C 306.966,206.901 314.799,196.068 323,185.5C 324.98,183.101 327.147,181.101 329.5,179.5 Z"/></g>
<g><path style="opacity:1" fill="#3f3f43" d="M 385.5,182.5 C 387.5,182.5 389.5,182.5 391.5,182.5C 391.5,183.5 391.5,184.5 391.5,185.5C 389.071,185.585 387.071,186.585 385.5,188.5C 384.306,186.484 384.306,184.484 385.5,182.5 Z"/></g>
<g><path style="opacity:1" fill="#383b40" d="M 419.5,183.5 C 420.942,184.82 421.608,186.486 421.5,188.5C 419.784,188.371 418.117,188.038 416.5,187.5C 414.824,186.817 414.157,185.483 414.5,183.5C 416.167,183.5 417.833,183.5 419.5,183.5 Z"/></g>
<g><path style="opacity:1" fill="#907bbb" d="M 484.5,177.5 C 485.458,177.953 486.292,178.619 487,179.5C 487.499,183.152 487.665,186.818 487.5,190.5C 487.167,190.5 486.833,190.5 486.5,190.5C 486.945,185.899 486.278,181.565 484.5,177.5 Z"/></g>
<g><path style="opacity:1" fill="#68707c" d="M 430.5,179.5 C 431.498,208.995 431.831,238.662 431.5,268.5C 430.5,268.167 429.833,267.5 429.5,266.5C 430.498,237.671 430.831,208.671 430.5,179.5 Z"/></g>
<g><path style="opacity:1" fill="#a290c8" d="M 455.5,182.5 C 455.326,184.861 454.993,187.194 454.5,189.5C 453.133,186.988 453.466,184.655 455.5,182.5 Z"/></g>
<g><path style="opacity:1" fill="#836567" d="M 373.5,187.5 C 373.204,189.403 372.537,191.07 371.5,192.5C 371.12,190.302 371.787,188.635 373.5,187.5 Z"/></g>
<g><path style="opacity:1" fill="#c78e8f" d="M 421.5,176.5 C 422.422,180.995 423.089,185.662 423.5,190.5C 419.833,190.5 416.167,190.5 412.5,190.5C 413.952,189.698 415.618,189.198 417.5,189C 416.944,188.617 416.611,188.117 416.5,187.5C 418.117,188.038 419.784,188.371 421.5,188.5C 421.608,186.486 420.942,184.82 419.5,183.5C 421.344,181.721 422.01,179.388 421.5,176.5 Z"/></g>
<g><path style="opacity:1" fill="#bab0dc" d="M 464.5,184.5 C 463.85,186.435 463.517,188.435 463.5,190.5C 460.287,190.81 457.287,190.477 454.5,189.5C 456.857,189.663 459.19,189.497 461.5,189C 462.053,187.122 463.053,185.622 464.5,184.5 Z"/></g>
<g><path style="opacity:1" fill="#c5bfe4" d="M 486.5,190.5 C 486.833,190.5 487.167,190.5 487.5,190.5C 486.306,194.363 483.973,197.363 480.5,199.5C 482.538,196.474 484.538,193.474 486.5,190.5 Z"/></g>
<g><path style="opacity:1" fill="#fba6a5" d="M 357.5,194.5 C 358.262,196.262 359.596,197.262 361.5,197.5C 362.455,199.746 363.122,202.079 363.5,204.5C 367.133,204.201 369.133,202.201 369.5,198.5C 372.073,197.445 374.739,197.278 377.5,198C 380.854,209.405 387.52,212.072 397.5,206C 398.752,203.367 400.086,200.867 401.5,198.5C 402.167,203.681 402.833,209.015 403.5,214.5C 406.399,213.358 409.399,212.692 412.5,212.5C 412.5,211.167 412.5,209.833 412.5,208.5C 415.272,209.767 417.939,209.767 420.5,208.5C 421.391,207.89 422.391,207.557 423.5,207.5C 423.213,213.673 422.047,219.673 420,225.5C 418.311,230.525 415.144,234.359 410.5,237C 404.472,237.641 398.472,237.474 392.5,236.5C 391.167,240.833 391.167,245.167 392.5,249.5C 394.766,253.313 396.932,257.313 399,261.5C 399.932,264.823 399.432,267.823 397.5,270.5C 392.509,271.752 387.509,271.752 382.5,270.5C 372.8,266.462 365.8,259.795 361.5,250.5C 361.5,239.167 361.5,227.833 361.5,216.5C 360.209,216.263 359.209,216.596 358.5,217.5C 356.5,217.5 354.5,217.5 352.5,217.5C 344.589,214.009 341.756,208.009 344,199.5C 346.811,193.648 351.311,191.982 357.5,194.5 Z"/></g>
<g><path style="opacity:1" fill="#434f57" d="M 357.5,194.5 C 361.833,194.5 366.167,194.5 370.5,194.5C 370.443,195.609 370.11,196.609 369.5,197.5C 366.833,197.5 364.167,197.5 361.5,197.5C 359.596,197.262 358.262,196.262 357.5,194.5 Z"/></g>
<g><path style="opacity:1" fill="#2e363b" d="M 361.5,197.5 C 364.167,197.5 366.833,197.5 369.5,197.5C 369.5,197.833 369.5,198.167 369.5,198.5C 369.133,202.201 367.133,204.201 363.5,204.5C 363.122,202.079 362.455,199.746 361.5,197.5 Z"/></g>
<g><path style="opacity:1" fill="#776e75" d="M 412.5,190.5 C 416.167,190.5 419.833,190.5 423.5,190.5C 423.5,190.833 423.5,191.167 423.5,191.5C 423.5,191.833 423.5,192.167 423.5,192.5C 419.486,192.334 415.486,192.501 411.5,193C 407.562,197.42 407.896,201.753 412.5,206C 415.146,206.497 417.813,206.664 420.5,206.5C 419.048,207.302 417.382,207.802 415.5,208C 417.134,208.494 418.801,208.66 420.5,208.5C 417.939,209.767 415.272,209.767 412.5,208.5C 408.807,205.795 406.807,202.128 406.5,197.5C 404.585,197.216 402.919,197.549 401.5,198.5C 400.086,200.867 398.752,203.367 397.5,206C 387.52,212.072 380.854,209.405 377.5,198C 374.739,197.278 372.073,197.445 369.5,198.5C 369.5,198.167 369.5,197.833 369.5,197.5C 370.11,196.609 370.443,195.609 370.5,194.5C 370.328,193.508 370.662,192.842 371.5,192.5C 371.5,193.5 371.5,194.5 371.5,195.5C 373.857,195.663 376.19,195.497 378.5,195C 381.243,191.297 384.91,189.797 389.5,190.5C 394.09,189.797 397.757,191.297 400.5,195C 401.5,195.167 402.5,195.333 403.5,195.5C 406.684,194.077 409.684,192.41 412.5,190.5 Z"/></g>
<g><path style="opacity:1" fill="#f2a3a2" d="M 383.5,192.5 C 388.267,192.191 392.934,192.691 397.5,194C 399.461,204.366 395.127,208.366 384.5,206C 379.731,201.554 379.398,197.054 383.5,192.5 Z"/></g>
<g><path style="opacity:1" fill="#3a3c41" d="M 388.5,196.5 C 393.014,196.693 394.347,198.86 392.5,203C 387.57,203.427 386.237,201.26 388.5,196.5 Z"/></g>
<g><path style="opacity:1" fill="#f0a3a2" d="M 423.5,192.5 C 423.666,196.846 423.499,201.179 423,205.5C 422.329,206.252 421.496,206.586 420.5,206.5C 417.813,206.664 415.146,206.497 412.5,206C 407.896,201.753 407.562,197.42 411.5,193C 415.486,192.501 419.486,192.334 423.5,192.5 Z"/></g>
<g><path style="opacity:1" fill="#f09090" d="M 401.5,198.5 C 402.919,197.549 404.585,197.216 406.5,197.5C 406.807,202.128 408.807,205.795 412.5,208.5C 412.5,209.833 412.5,211.167 412.5,212.5C 409.399,212.692 406.399,213.358 403.5,214.5C 402.833,209.015 402.167,203.681 401.5,198.5 Z"/></g>
<g><path style="opacity:1" fill="#404c54" d="M 423.5,191.5 C 425.044,191.703 426.378,192.37 427.5,193.5C 429.688,199.351 428.354,204.018 423.5,207.5C 422.391,207.557 421.391,207.89 420.5,208.5C 418.801,208.66 417.134,208.494 415.5,208C 417.382,207.802 419.048,207.302 420.5,206.5C 421.496,206.586 422.329,206.252 423,205.5C 423.499,201.179 423.666,196.846 423.5,192.5C 423.5,192.167 423.5,191.833 423.5,191.5 Z"/></g>
<g><path style="opacity:1" fill="#3d3d42" d="M 414.5,197.5 C 418.677,196.842 420.177,198.508 419,202.5C 417.333,205.167 415.667,205.167 414,202.5C 413.36,200.735 413.527,199.068 414.5,197.5 Z"/></g>
<g><path style="opacity:1" fill="#6d4fa1" d="M 479.5,210.5 C 480.078,213.612 480.078,216.612 479.5,219.5C 476.833,219.5 474.167,219.5 471.5,219.5C 468.452,211.545 471.119,208.545 479.5,210.5 Z"/></g>
<g><path style="opacity:1" fill="#b3a7d7" d="M 479.5,210.5 C 480.94,211.946 481.607,213.779 481.5,216C 481.392,217.681 480.725,218.848 479.5,219.5C 480.078,216.612 480.078,213.612 479.5,210.5 Z"/></g>
<g><path style="opacity:1" fill="#4a4449" d="M 352.5,217.5 C 354.5,217.5 356.5,217.5 358.5,217.5C 360.477,228.116 361.144,239.116 360.5,250.5C 360.167,250.5 359.833,250.5 359.5,250.5C 359.5,239.833 359.5,229.167 359.5,218.5C 356.941,218.802 354.607,218.468 352.5,217.5 Z"/></g>
<g><path style="opacity:1" fill="#ab7b7d" d="M 358.5,217.5 C 359.209,216.596 360.209,216.263 361.5,216.5C 361.5,227.833 361.5,239.167 361.5,250.5C 361.167,250.5 360.833,250.5 360.5,250.5C 361.144,239.116 360.477,228.116 358.5,217.5 Z"/></g>
<g><path style="opacity:1" fill="#bc6f71" d="M 393.5,219.5 C 397.691,218.869 399.525,220.535 399,224.5C 393.42,226.752 391.587,225.085 393.5,219.5 Z"/></g>
<g><path style="opacity:1" fill="#f49292" d="M 366.5,225.5 C 373.259,231.539 381.259,234.873 390.5,235.5C 390.785,237.288 390.452,238.955 389.5,240.5C 384.669,238.209 379.669,236.375 374.5,235C 370.492,232.837 367.826,229.67 366.5,225.5 Z"/></g>
<g><path style="opacity:1" fill="#574f55" d="M 392.5,236.5 C 392.5,240.5 392.5,244.5 392.5,248.5C 396.702,248.183 400.702,248.517 404.5,249.5C 403.5,249.5 402.5,249.5 401.5,249.5C 398.5,249.5 395.5,249.5 392.5,249.5C 391.167,245.167 391.167,240.833 392.5,236.5 Z"/></g>
<g><path style="opacity:1" fill="#cabbe6" d="M 392.5,249.5 C 395.5,249.5 398.5,249.5 401.5,249.5C 416.769,260.281 428.269,274.281 436,291.5C 438.242,301.714 436.075,310.714 429.5,318.5C 428.125,325.453 427.459,332.619 427.5,340C 427.675,352.39 428.675,364.557 430.5,376.5C 429.354,380.4 428.02,384.233 426.5,388C 416.87,392.605 406.87,395.438 396.5,396.5C 386.14,396.704 375.806,396.371 365.5,395.5C 360.785,394.757 356.119,393.757 351.5,392.5C 343.938,390.37 336.771,387.37 330,383.5C 329.617,384.056 329.117,384.389 328.5,384.5C 329.207,378.005 330.707,371.671 333,365.5C 336.268,359.297 339.268,352.963 342,346.5C 342.499,342.179 342.666,337.846 342.5,333.5C 337.968,333.818 333.634,333.485 329.5,332.5C 334.167,332.5 338.833,332.5 343.5,332.5C 343.354,328.613 342.687,324.946 341.5,321.5C 341.449,316.813 340.449,312.479 338.5,308.5C 338.552,306.097 338.219,303.764 337.5,301.5C 346.718,300.949 351.718,295.949 352.5,286.5C 355.407,278.898 354.74,271.565 350.5,264.5C 349.521,259.875 347.521,255.875 344.5,252.5C 350.069,252.624 355.402,251.957 360.5,250.5C 360.833,250.5 361.167,250.5 361.5,250.5C 365.8,259.795 372.8,266.462 382.5,270.5C 384.848,271.952 387.514,272.618 390.5,272.5C 393.205,272.684 395.538,272.017 397.5,270.5C 399.432,267.823 399.932,264.823 399,261.5C 396.932,257.313 394.766,253.313 392.5,249.5 Z"/></g>
<g><path style="opacity:1" fill="#7d57c0" d="M 675.5,251.5 C 678.104,253.6 680.604,255.933 683,258.5C 684.027,261.662 685.194,264.662 686.5,267.5C 686.477,275.183 686.143,282.85 685.5,290.5C 684.049,294.368 682.715,298.368 681.5,302.5C 680.094,302.973 679.427,303.973 679.5,305.5C 677.914,309.678 675.581,313.345 672.5,316.5C 673.552,310.743 671.885,306.076 667.5,302.5C 667.389,301.883 667.056,301.383 666.5,301C 663.304,300.195 660.304,300.362 657.5,301.5C 637.063,309.034 626.396,323.701 625.5,345.5C 622.383,345.358 619.883,344.024 618,341.5C 610.578,330.868 608.578,319.201 612,306.5C 612.822,301.811 614.322,297.477 616.5,293.5C 617.376,293.631 618.043,293.298 618.5,292.5C 619.705,289.55 620.705,286.55 621.5,283.5C 628.4,270.931 638.067,260.931 650.5,253.5C 658.612,250.389 666.946,249.722 675.5,251.5 Z"/></g>
<g><path style="opacity:1" fill="#8e8da8" d="M 359.5,250.5 C 359.833,250.5 360.167,250.5 360.5,250.5C 355.402,251.957 350.069,252.624 344.5,252.5C 343.833,252.5 343.5,252.167 343.5,251.5C 348.822,251.02 354.155,250.687 359.5,250.5 Z"/></g>
<g><path style="opacity:1" fill="#fca8a8" d="M 401.5,249.5 C 402.5,249.5 403.5,249.5 404.5,249.5C 415.263,251.597 423.597,257.264 429.5,266.5C 429.833,267.5 430.5,268.167 431.5,268.5C 446.094,288.022 460.927,307.356 476,326.5C 477.015,330.765 477.515,335.098 477.5,339.5C 477.101,350.007 476.434,360.341 475.5,370.5C 475.5,366.167 475.5,361.833 475.5,357.5C 473.435,357.483 471.435,357.15 469.5,356.5C 470.432,352.687 471.432,348.853 472.5,345C 472.472,343.93 472.139,343.097 471.5,342.5C 471.5,341.833 471.167,341.5 470.5,341.5C 469.903,340.861 469.07,340.528 468,340.5C 463.63,341.202 459.464,342.202 455.5,343.5C 453.401,344.612 451.067,345.279 448.5,345.5C 448.856,342.436 448.023,339.769 446,337.5C 439.427,331.784 433.927,325.45 429.5,318.5C 436.075,310.714 438.242,301.714 436,291.5C 428.269,274.281 416.769,260.281 401.5,249.5 Z"/></g>
<g><path style="opacity:1" fill="#645198" d="M 675.5,251.5 C 666.946,249.722 658.612,250.389 650.5,253.5C 652.385,251.689 654.719,250.522 657.5,250C 662.5,249.333 667.5,249.333 672.5,250C 673.737,250.232 674.737,250.732 675.5,251.5 Z"/></g>
<g><path style="opacity:1" fill="#e3b2c9" d="M 382.5,270.5 C 387.509,271.752 392.509,271.752 397.5,270.5C 395.538,272.017 393.205,272.684 390.5,272.5C 387.514,272.618 384.848,271.952 382.5,270.5 Z"/></g>
<g><path style="opacity:1" fill="#faf9fd" d="M 659.5,288.5 C 658.094,288.973 657.427,289.973 657.5,291.5C 656.588,293.595 655.421,295.595 654,297.5C 651.876,298.622 650.043,300.122 648.5,302C 645.594,303.318 642.594,303.652 639.5,303C 638.177,302.184 637.511,301.017 637.5,299.5C 637.413,294.463 637.746,289.463 638.5,284.5C 639.906,284.027 640.573,283.027 640.5,281.5C 641.167,280.5 641.833,279.5 642.5,278.5C 644.749,277.92 646.415,276.587 647.5,274.5C 650.95,270.959 654.783,270.625 659,273.5C 660.827,278.433 660.993,283.433 659.5,288.5 Z"/></g>
<g><path style="opacity:1" fill="#eaafbf" d="M 350.5,264.5 C 354.74,271.565 355.407,278.898 352.5,286.5C 352.848,279.045 352.182,271.712 350.5,264.5 Z"/></g>
<g><path style="opacity:1" fill="#4b4a70" d="M 686.5,267.5 C 687.872,275.223 687.539,282.889 685.5,290.5C 686.143,282.85 686.477,275.183 686.5,267.5 Z"/></g>
<g><path style="opacity:1" fill="#253238" d="M 554.5,279.5 C 555.825,298.264 555.825,316.931 554.5,335.5C 550.362,334.17 546.529,332.17 543,329.5C 542.167,310.824 542.334,292.158 543.5,273.5C 546.741,276.287 550.407,278.287 554.5,279.5 Z"/></g>
<g><path style="opacity:1" fill="#d3c6ea" d="M 647.5,274.5 C 646.415,276.587 644.749,277.92 642.5,278.5C 643.585,276.413 645.251,275.08 647.5,274.5 Z"/></g>
<g><path style="opacity:1" fill="#b49fdc" d="M 640.5,281.5 C 640.573,283.027 639.906,284.027 638.5,284.5C 638.427,282.973 639.094,281.973 640.5,281.5 Z"/></g>
<g><path style="opacity:1" fill="#59646e" d="M 329.5,289.5 C 330.492,289.328 331.158,289.662 331.5,290.5C 330.504,303.99 330.171,317.656 330.5,331.5C 334.555,331.824 338.555,331.491 342.5,330.5C 341.593,327.579 341.26,324.579 341.5,321.5C 342.687,324.946 343.354,328.613 343.5,332.5C 338.833,332.5 334.167,332.5 329.5,332.5C 329.5,318.167 329.5,303.833 329.5,289.5 Z"/></g>
<g><path style="opacity:1" fill="#c2b3e3" d="M 659.5,288.5 C 659.573,290.027 658.906,291.027 657.5,291.5C 657.427,289.973 658.094,288.973 659.5,288.5 Z"/></g>
<g><path style="opacity:1" fill="#273339" d="M 331.5,290.5 C 334.78,293.388 336.78,297.055 337.5,301.5C 338.219,303.764 338.552,306.097 338.5,308.5C 338.763,313.124 339.763,317.458 341.5,321.5C 341.26,324.579 341.593,327.579 342.5,330.5C 338.555,331.491 334.555,331.824 330.5,331.5C 330.171,317.656 330.504,303.99 331.5,290.5 Z"/></g>
<g><path style="opacity:1" fill="#6a52a1" d="M 621.5,283.5 C 620.705,286.55 619.705,289.55 618.5,292.5C 618.043,293.298 617.376,293.631 616.5,293.5C 617.675,289.817 619.341,286.484 621.5,283.5 Z"/></g>
<g><path style="opacity:1" fill="#dacfed" d="M 638.5,284.5 C 637.746,289.463 637.413,294.463 637.5,299.5C 636.838,297.696 636.505,295.696 636.5,293.5C 636.343,290.186 637.009,287.186 638.5,284.5 Z"/></g>
<g><path style="opacity:1" fill="#fbfafc" d="M 657.5,301.5 C 660.902,301.342 664.236,301.676 667.5,302.5C 671.885,306.076 673.552,310.743 672.5,316.5C 665.395,331.098 654.062,340.931 638.5,346C 633.98,346.814 629.646,346.647 625.5,345.5C 626.396,323.701 637.063,309.034 657.5,301.5 Z"/></g>
<g><path style="opacity:1" fill="#af99da" d="M 657.5,301.5 C 660.304,300.362 663.304,300.195 666.5,301C 667.056,301.383 667.389,301.883 667.5,302.5C 664.236,301.676 660.902,301.342 657.5,301.5 Z"/></g>
<g><path style="opacity:1" fill="#584f84" d="M 681.5,302.5 C 681.573,304.027 680.906,305.027 679.5,305.5C 679.427,303.973 680.094,302.973 681.5,302.5 Z"/></g>
<g><path style="opacity:1" fill="#b9abd3" d="M 361.5,310.5 C 368.337,322.585 378.67,327.752 392.5,326C 407.426,319.452 408.093,320.452 394.5,329C 379.973,333.054 369.139,328.554 362,315.5C 361.506,313.866 361.34,312.199 361.5,310.5 Z"/></g>
<g><path style="opacity:1" fill="#72768b" d="M 338.5,308.5 C 340.449,312.479 341.449,316.813 341.5,321.5C 339.763,317.458 338.763,313.124 338.5,308.5 Z"/></g>
<g><path style="opacity:1" fill="#dfe3f7" d="M 429.5,318.5 C 433.927,325.45 439.427,331.784 446,337.5C 448.023,339.769 448.856,342.436 448.5,345.5C 445.864,346.119 443.364,347.119 441,348.5C 436.892,357.591 433.392,366.924 430.5,376.5C 428.675,364.557 427.675,352.39 427.5,340C 427.459,332.619 428.125,325.453 429.5,318.5 Z"/></g>
<g><path style="opacity:1" fill="#7c7177" d="M 470.5,341.5 C 468.214,341.595 466.214,342.262 464.5,343.5C 461.5,343.5 458.5,343.5 455.5,343.5C 459.464,342.202 463.63,341.202 468,340.5C 469.07,340.528 469.903,340.861 470.5,341.5 Z"/></g>
<g><path style="opacity:1" fill="#5e548b" d="M 470.5,341.5 C 471.167,341.5 471.5,341.833 471.5,342.5C 469.236,343.219 466.903,343.552 464.5,343.5C 466.214,342.262 468.214,341.595 470.5,341.5 Z"/></g>
<g><path style="opacity:1" fill="#7e57be" d="M 471.5,342.5 C 472.139,343.097 472.472,343.93 472.5,345C 471.432,348.853 470.432,352.687 469.5,356.5C 467.324,361.017 464.99,365.517 462.5,370C 456.144,373.452 449.477,376.118 442.5,378C 437.473,381.231 434.973,385.731 435,391.5C 440.622,394.948 446.789,396.615 453.5,396.5C 453.423,397.75 452.756,398.583 451.5,399C 447.001,400.039 442.668,401.206 438.5,402.5C 435.008,402.446 432.008,403.446 429.5,405.5C 427.833,405.5 426.167,405.5 424.5,405.5C 424.338,403.473 424.505,401.473 425,399.5C 430.682,383.784 436.348,368.118 442,352.5C 443.351,350.981 444.851,349.648 446.5,348.5C 452.688,347.071 458.688,345.405 464.5,343.5C 466.903,343.552 469.236,343.219 471.5,342.5 Z"/></g>
<g><path style="opacity:1" fill="#daddde" d="M 689.5,359.5 C 689.5,353.833 689.5,348.167 689.5,342.5C 690.973,341.928 692.307,341.095 693.5,340C 694.833,339.333 696.167,339.333 697.5,340C 699.047,345.649 698.547,351.149 696,356.5C 694.007,357.914 691.84,358.914 689.5,359.5 Z"/></g>
<g><path style="opacity:1" fill="#4a5860" d="M 692.5,343.5 C 693.833,343.5 695.167,343.5 696.5,343.5C 696.665,346.518 696.498,349.518 696,352.5C 694.89,354.037 693.39,354.703 691.5,354.5C 691.244,350.731 691.577,347.064 692.5,343.5 Z"/></g>
<g><path style="opacity:1" fill="#879298" d="M 678.5,349.5 C 678.179,355.026 678.512,360.36 679.5,365.5C 679.44,366.043 679.107,366.376 678.5,366.5C 677.184,360.68 677.184,355.013 678.5,349.5 Z"/></g>
<g><path style="opacity:1" fill="#526067" d="M 689.5,342.5 C 689.5,348.167 689.5,353.833 689.5,359.5C 688.778,359.082 688.278,358.416 688,357.5C 687.802,359.382 687.302,361.048 686.5,362.5C 686.679,360.046 686.013,357.879 684.5,356C 686.177,353.453 686.844,350.62 686.5,347.5C 687.317,349.969 687.817,352.635 688,355.5C 688.175,350.981 688.675,346.647 689.5,342.5 Z"/></g>
<g><path style="opacity:1" fill="#f08f91" d="M 469.5,356.5 C 471.435,357.15 473.435,357.483 475.5,357.5C 475.5,361.833 475.5,366.167 475.5,370.5C 475.5,373.167 475.5,375.833 475.5,378.5C 472.867,386.304 467.867,392.138 460.5,396C 458.19,396.497 455.857,396.663 453.5,396.5C 446.789,396.615 440.622,394.948 435,391.5C 434.973,385.731 437.473,381.231 442.5,378C 449.477,376.118 456.144,373.452 462.5,370C 464.99,365.517 467.324,361.017 469.5,356.5 Z"/></g>
<g><path style="opacity:1" fill="#dbdedf" d="M 686.5,347.5 C 686.844,350.62 686.177,353.453 684.5,356C 686.013,357.879 686.679,360.046 686.5,362.5C 685.5,362.5 684.5,362.5 683.5,362.5C 683.778,360.654 683.111,359.32 681.5,358.5C 680.832,360.969 680.165,363.302 679.5,365.5C 678.512,360.36 678.179,355.026 678.5,349.5C 680.715,346.66 683.382,345.993 686.5,347.5 Z"/></g>
<g><path style="opacity:1" fill="#45535a" d="M 684.5,350.5 C 684.771,352.38 684.104,353.713 682.5,354.5C 681.624,354.631 680.957,354.298 680.5,353.5C 681.283,351.712 682.616,350.712 684.5,350.5 Z"/></g>
<g><path style="opacity:1" fill="#868f94" d="M 684.5,350.5 C 682.616,350.712 681.283,351.712 680.5,353.5C 680.957,354.298 681.624,354.631 682.5,354.5C 681.791,355.404 680.791,355.737 679.5,355.5C 679.147,351.176 680.814,349.509 684.5,350.5 Z"/></g>
<g><path style="opacity:1" fill="#bbc0c3" d="M 663.5,363.5 C 662.715,365.374 662.048,367.374 661.5,369.5C 660.603,370.598 659.77,370.598 659,369.5C 658.667,368.167 658.333,366.833 658,365.5C 657.86,369.234 658.36,372.901 659.5,376.5C 658.732,375.737 658.232,374.737 658,373.5C 657.802,375.382 657.302,377.048 656.5,378.5C 656.039,374.788 655.373,371.121 654.5,367.5C 655.67,365.721 657.336,364.721 659.5,364.5C 659.343,365.873 659.51,367.207 660,368.5C 660.333,365.5 660.667,362.5 661,359.5C 661.414,359.043 661.914,358.709 662.5,358.5C 663.452,360.045 663.785,361.712 663.5,363.5 Z"/></g>
<g><path style="opacity:1" fill="#cfd3d5" d="M 670.5,352.5 C 674.954,353.161 676.621,355.828 675.5,360.5C 675.302,363.702 674.469,366.702 673,369.5C 670.506,371.901 668.173,371.901 666,369.5C 664.268,362.84 665.768,357.174 670.5,352.5 Z"/></g>
<g><path style="opacity:1" fill="#3d4c54" d="M 670.5,356.5 C 671.777,357.694 672.444,359.36 672.5,361.5C 672.333,363.167 672.167,364.833 672,366.5C 671.29,367.973 670.124,368.64 668.5,368.5C 668.016,364.173 668.682,360.173 670.5,356.5 Z"/></g>
<g><path style="opacity:1" fill="#c8ccce" d="M 644.5,372.5 C 643.596,373.209 643.263,374.209 643.5,375.5C 642.833,374.833 642.167,374.167 641.5,373.5C 641.5,373.167 641.5,372.833 641.5,372.5C 642.65,369.862 644.483,367.862 647,366.5C 648.442,367.212 649.275,368.379 649.5,370C 647.657,370.188 645.99,371.021 644.5,372.5 Z"/></g>
<g><path style="opacity:1" fill="#f5f6f6" d="M 661.5,369.5 C 661.5,371.833 661.5,374.167 661.5,376.5C 660.833,376.5 660.167,376.5 659.5,376.5C 658.36,372.901 657.86,369.234 658,365.5C 658.333,366.833 658.667,368.167 659,369.5C 659.77,370.598 660.603,370.598 661.5,369.5 Z"/></g>
<g><path style="opacity:1" fill="#677379" d="M 652.5,364.5 C 652.765,368.853 653.265,373.187 654,377.5C 654.278,378.416 654.778,379.082 655.5,379.5C 654.434,380.692 653.601,380.359 653,378.5C 651.511,373.711 651.344,369.044 652.5,364.5 Z"/></g>
<g><path style="opacity:1" fill="#e8e9ea" d="M 654.5,367.5 C 655.373,371.121 656.039,374.788 656.5,378.5C 656.5,379.167 656.167,379.5 655.5,379.5C 654.778,379.082 654.278,378.416 654,377.5C 653.265,373.187 652.765,368.853 652.5,364.5C 652.56,363.957 652.893,363.624 653.5,363.5C 654.429,364.689 654.762,366.022 654.5,367.5 Z"/></g>
<g><path style="opacity:1" fill="#7d878d" d="M 663.5,363.5 C 663.72,368.1 663.054,372.433 661.5,376.5C 661.5,374.167 661.5,371.833 661.5,369.5C 662.048,367.374 662.715,365.374 663.5,363.5 Z"/></g>
<g><path style="opacity:1" fill="#f4f4f4" d="M 695.5,372.5 C 696.833,372.5 698.167,372.5 699.5,372.5C 699.717,377.23 699.383,381.897 698.5,386.5C 671.333,401.916 644.333,417.582 617.5,433.5C 615.326,433.75 613.659,434.75 612.5,436.5C 608.531,438.151 604.865,440.318 601.5,443C 599.934,443.765 598.601,443.598 597.5,442.5C 597.294,438.102 597.627,433.768 598.5,429.5C 601.586,426.777 604.92,424.277 608.5,422C 629.523,410.157 650.523,398.323 671.5,386.5C 673.848,386.408 675.514,385.408 676.5,383.5C 682.697,379.569 689.031,375.902 695.5,372.5 Z"/></g>
<g><path style="opacity:1" fill="#7d868c" d="M 644.5,372.5 C 645.802,374.028 647.469,375.028 649.5,375.5C 647.5,375.5 645.5,375.5 643.5,375.5C 643.263,374.209 643.596,373.209 644.5,372.5 Z"/></g>
<g><path style="opacity:1" fill="#a8afb4" d="M 695.5,372.5 C 697.223,371.193 699.057,371.193 701,372.5C 701.667,375.5 701.667,378.5 701,381.5C 700.901,383.653 700.067,385.319 698.5,386.5C 699.383,381.897 699.717,377.23 699.5,372.5C 698.167,372.5 696.833,372.5 695.5,372.5 Z"/></g>
<g><path style="opacity:1" fill="#4c5a61" d="M 641.5,372.5 C 641.5,372.833 641.5,373.167 641.5,373.5C 641.5,375.167 641.5,376.833 641.5,378.5C 643.5,378.5 645.5,378.5 647.5,378.5C 647.241,382.068 645.241,383.401 641.5,382.5C 641.5,383.5 641.5,384.5 641.5,385.5C 640.167,386.833 638.833,388.167 637.5,389.5C 638.265,386.904 638.599,384.237 638.5,381.5C 636.5,381.5 634.5,381.5 632.5,381.5C 632.759,377.932 634.759,376.599 638.5,377.5C 638.5,376.5 638.5,375.5 638.5,374.5C 636.833,374.5 635.167,374.5 633.5,374.5C 636.053,373.745 638.72,373.078 641.5,372.5 Z"/></g>
<g><path style="opacity:1" fill="#efefef" d="M 475.5,378.5 C 483.167,378.5 490.833,378.5 498.5,378.5C 503.194,381.179 507.861,383.845 512.5,386.5C 515.962,387.482 519.629,387.815 523.5,387.5C 529.161,387.093 534.828,386.76 540.5,386.5C 540.168,440.003 540.501,493.336 541.5,546.5C 541.5,547.167 541.833,547.5 542.5,547.5C 543.117,549.229 544.117,550.729 545.5,552C 547.727,552.941 549.727,554.108 551.5,555.5C 553.966,556.634 556.633,556.801 559.5,556C 560.056,555.617 560.389,555.117 560.5,554.5C 619.998,519.864 679.665,485.364 739.5,451C 740.305,449.887 740.972,448.721 741.5,447.5C 742.167,447.5 742.5,447.167 742.5,446.5C 743.268,445.737 743.768,444.737 744,443.5C 757.259,451.211 770.093,459.544 782.5,468.5C 783.386,469.325 783.719,470.325 783.5,471.5C 779.185,475.462 775.852,480.129 773.5,485.5C 771.755,487.033 770.755,489.033 770.5,491.5C 759.919,511.895 755.252,533.728 756.5,557C 756.776,565.839 757.109,574.672 757.5,583.5C 757.28,588.1 757.946,592.433 759.5,596.5C 760.833,597.167 762.167,597.833 763.5,598.5C 763.5,598.833 763.5,599.167 763.5,599.5C 764.671,600.345 766.005,601.011 767.5,601.5C 769.938,603.267 772.605,604.601 775.5,605.5C 775.5,606.167 775.833,606.5 776.5,606.5C 777.671,607.345 779.005,608.011 780.5,608.5C 781.807,609.153 783.14,609.82 784.5,610.5C 786.855,601.43 790.189,592.764 794.5,584.5C 796.931,582.954 798.264,580.621 798.5,577.5C 802.728,570.432 807.561,563.765 813,557.5C 820.697,549.469 828.697,541.802 837,534.5C 837.697,532.416 838.864,530.749 840.5,529.5C 844.78,535.099 848.614,541.099 852,547.5C 854.082,554.749 856.749,561.749 860,568.5C 860.739,574.866 862.239,581.033 864.5,587C 866.962,602.129 867.129,617.296 865,632.5C 856.483,667.34 839.816,697.674 815,723.5C 789.645,747.51 761.479,767.677 730.5,784C 653.88,819.732 572.88,838.732 487.5,841C 400.521,844.279 316.521,830.945 235.5,801C 198.405,785.645 164.072,765.645 132.5,741C 114.19,724.857 98.1896,706.69 84.5,686.5C 54.1232,632.163 55.6232,578.83 89,526.5C 93.4226,519.989 98.0892,513.655 103,507.5C 105.731,505.582 108.231,503.582 110.5,501.5C 116.528,507.66 117.028,514.327 112,521.5C 108.667,525.5 105.333,529.5 102,533.5C 100,538.167 100,542.833 102,547.5C 106.036,551.704 110.202,555.704 114.5,559.5C 116.178,562.552 116.845,565.885 116.5,569.5C 116.5,570.5 116.5,571.5 116.5,572.5C 114.105,577.274 112.772,582.441 112.5,588C 112.336,590.544 113.003,592.71 114.5,594.5C 114.5,595.167 114.5,595.833 114.5,596.5C 114.427,598.027 115.094,599.027 116.5,599.5C 119.574,603.904 123.574,607.237 128.5,609.5C 129.312,610.993 130.645,611.66 132.5,611.5C 133.726,611.48 134.726,611.147 135.5,610.5C 140.328,606.919 145.328,603.585 150.5,600.5C 152.027,600.573 153.027,599.906 153.5,598.5C 154.29,597.599 155.29,596.932 156.5,596.5C 157.167,595.833 157.833,595.167 158.5,594.5C 159.492,594.672 160.158,594.338 160.5,593.5C 165.477,590.2 170.477,586.867 175.5,583.5C 178.899,580.772 182.566,578.439 186.5,576.5C 187.496,576.586 188.329,576.252 189,575.5C 190.237,571.94 190.737,568.273 190.5,564.5C 192.164,543.073 191.831,521.74 189.5,500.5C 189.741,498.102 189.074,496.102 187.5,494.5C 186.457,488.592 184.79,482.925 182.5,477.5C 182.573,475.973 181.906,474.973 180.5,474.5C 177.261,467.688 173.261,461.355 168.5,455.5C 168.628,453.91 169.295,452.577 170.5,451.5C 193.776,437.783 218.109,425.95 243.5,416C 262.974,409.006 282.807,403.172 303,398.5C 304.724,398.045 306.224,397.212 307.5,396C 313.176,395.664 318.676,394.497 324,392.5C 324.765,392.57 325.265,392.903 325.5,393.5C 321.291,417.986 320.291,442.652 322.5,467.5C 322.334,473.509 322.501,479.509 323,485.5C 323.278,486.416 323.778,487.082 324.5,487.5C 324.593,493.516 324.926,499.516 325.5,505.5C 325.527,511.051 326.194,516.384 327.5,521.5C 327.703,527.08 326.703,532.414 324.5,537.5C 323.883,537.611 323.383,537.944 323,538.5C 321.69,542.07 320.857,545.737 320.5,549.5C 318.467,556 317.467,562.666 317.5,569.5C 316.339,584.995 316.172,600.661 317,616.5C 317.944,620.609 318.778,624.609 319.5,628.5C 319.5,629.167 319.5,629.833 319.5,630.5C 319.5,631.833 319.5,633.167 319.5,634.5C 294.092,640.279 272.592,652.613 255,671.5C 240.021,691.594 238.687,712.594 251,734.5C 259.423,745.933 269.923,754.767 282.5,761C 283.833,762.333 285.167,763.667 286.5,765C 299.775,770.909 313.442,775.909 327.5,780C 376.159,790.497 423.492,786.497 469.5,768C 483.658,760.821 496.158,751.321 507,739.5C 522.66,718.958 523.66,697.625 510,675.5C 487.961,650.007 460.128,635.007 426.5,630.5C 426.5,628.833 426.5,627.167 426.5,625.5C 426.5,620.5 426.5,615.5 426.5,610.5C 427.719,600.226 428.719,589.892 429.5,579.5C 431.61,563.04 432.943,546.373 433.5,529.5C 433.5,509.167 433.5,488.833 433.5,468.5C 432.928,453.162 432.262,437.829 431.5,422.5C 431.299,416.807 431.132,411.14 431,405.5C 433.94,405.154 436.44,404.154 438.5,402.5C 442.668,401.206 447.001,400.039 451.5,399C 452.756,398.583 453.423,397.75 453.5,396.5C 455.857,396.663 458.19,396.497 460.5,396C 467.867,392.138 472.867,386.304 475.5,378.5 Z"/></g>
<g><path style="opacity:1" fill="#747f85" d="M 649.5,375.5 C 650.152,376.449 650.486,377.615 650.5,379C 650.693,381.008 650.026,382.508 648.5,383.5C 649.265,380.904 649.599,378.237 649.5,375.5 Z"/></g>
<g><path style="opacity:1" fill="#e0e2e3" d="M 641.5,373.5 C 642.167,374.167 642.833,374.833 643.5,375.5C 645.5,375.5 647.5,375.5 649.5,375.5C 649.599,378.237 649.265,380.904 648.5,383.5C 647.373,384.122 646.373,384.955 645.5,386C 643.934,386.765 642.601,386.598 641.5,385.5C 641.5,384.5 641.5,383.5 641.5,382.5C 645.241,383.401 647.241,382.068 647.5,378.5C 645.5,378.5 643.5,378.5 641.5,378.5C 641.5,376.833 641.5,375.167 641.5,373.5 Z"/></g>
<g><path style="opacity:1" fill="#243238" d="M 555.5,555.5 C 554.167,555.5 552.833,555.5 551.5,555.5C 549.727,554.108 547.727,552.941 545.5,552C 544.117,550.729 543.117,549.229 542.5,547.5C 542.5,493.167 542.5,438.833 542.5,384.5C 546.833,384.5 551.167,384.5 555.5,384.5C 555.5,441.5 555.5,498.5 555.5,555.5 Z"/></g>
<g><path style="opacity:1" fill="#b0b6b9" d="M 676.5,383.5 C 675.514,385.408 673.848,386.408 671.5,386.5C 672.659,384.75 674.326,383.75 676.5,383.5 Z"/></g>
<g><path style="opacity:1" fill="#455a64" d="M 455.5,343.5 C 458.5,343.5 461.5,343.5 464.5,343.5C 458.688,345.405 452.688,347.071 446.5,348.5C 444.851,349.648 443.351,350.981 442,352.5C 436.348,368.118 430.682,383.784 425,399.5C 424.505,401.473 424.338,403.473 424.5,405.5C 426.167,405.5 427.833,405.5 429.5,405.5C 430.032,411.152 430.365,416.819 430.5,422.5C 430.631,438.04 431.631,453.373 433.5,468.5C 433.5,488.833 433.5,509.167 433.5,529.5C 430.93,545.919 429.596,562.586 429.5,579.5C 428.719,589.892 427.719,600.226 426.5,610.5C 424.973,610.427 423.973,611.094 423.5,612.5C 422.167,613.167 420.833,613.833 419.5,614.5C 411.48,615.761 403.48,615.761 395.5,614.5C 393.565,609.429 392.232,604.095 391.5,598.5C 391.247,594.96 390.581,591.627 389.5,588.5C 386.236,574.974 385.903,561.308 388.5,547.5C 390.074,545.898 390.741,543.898 390.5,541.5C 393.215,532.947 392.882,524.614 389.5,516.5C 389.59,513.848 388.924,511.515 387.5,509.5C 387.042,505.462 386.376,501.462 385.5,497.5C 386.268,498.263 386.768,499.263 387,500.5C 387.287,490.423 386.453,480.423 384.5,470.5C 386.238,455.687 388.738,441.021 392,426.5C 401.982,424.421 410.482,419.588 417.5,412C 412.352,413.388 407.352,415.388 402.5,418C 396.514,419.127 390.681,420.627 385,422.5C 382.171,439.115 380.671,455.782 380.5,472.5C 379.069,473.78 378.402,475.447 378.5,477.5C 376.862,482.248 375.862,487.248 375.5,492.5C 374.11,500.785 373.11,509.118 372.5,517.5C 370.532,523.886 369.532,530.552 369.5,537.5C 368.356,541.964 367.69,546.63 367.5,551.5C 365.551,555.479 364.551,559.813 364.5,564.5C 364.5,565.167 364.5,565.833 364.5,566.5C 363.475,569.974 362.808,573.64 362.5,577.5C 362.007,579.806 361.674,582.139 361.5,584.5C 359.252,590.516 357.918,596.85 357.5,603.5C 356.619,607.454 355.952,611.454 355.5,615.5C 354.076,617.515 353.41,619.848 353.5,622.5C 352.994,625.391 351.994,628.058 350.5,630.5C 350.158,631.338 349.492,631.672 348.5,631.5C 341.93,633.672 335.264,634.005 328.5,632.5C 325.5,631.833 322.5,631.167 319.5,630.5C 319.5,629.833 319.5,629.167 319.5,628.5C 317.869,608.873 317.203,589.206 317.5,569.5C 317.467,562.666 318.467,556 320.5,549.5C 322.294,545.878 323.627,541.878 324.5,537.5C 326.703,532.414 327.703,527.08 327.5,521.5C 327.624,515.931 326.957,510.598 325.5,505.5C 324.926,499.516 324.593,493.516 324.5,487.5C 324.603,480.614 323.936,473.947 322.5,467.5C 320.291,442.652 321.291,417.986 325.5,393.5C 326.184,390.408 327.184,387.408 328.5,384.5C 329.117,384.389 329.617,384.056 330,383.5C 336.771,387.37 343.938,390.37 351.5,392.5C 356.119,393.757 360.785,394.757 365.5,395.5C 366.609,396.29 367.942,396.79 369.5,397C 378.676,397.824 387.676,397.657 396.5,396.5C 406.87,395.438 416.87,392.605 426.5,388C 428.02,384.233 429.354,380.4 430.5,376.5C 433.392,366.924 436.892,357.591 441,348.5C 443.364,347.119 445.864,346.119 448.5,345.5C 451.067,345.279 453.401,344.612 455.5,343.5 Z"/></g>
<g><path style="opacity:1" fill="#6f7b81" d="M 530.5,385.5 C 528.167,386.167 525.833,386.833 523.5,387.5C 519.629,387.815 515.962,387.482 512.5,386.5C 518.509,386.299 524.509,385.966 530.5,385.5 Z"/></g>
<g><path style="opacity:1" fill="#acb1b5" d="M 530.5,385.5 C 534.167,385.5 537.833,385.5 541.5,385.5C 541.5,439.167 541.5,492.833 541.5,546.5C 540.501,493.336 540.168,440.003 540.5,386.5C 534.828,386.76 529.161,387.093 523.5,387.5C 525.833,386.833 528.167,386.167 530.5,385.5 Z"/></g>
<g><path style="opacity:1" fill="#ccd0d2" d="M 621.5,381.5 C 622.675,381.281 623.675,381.614 624.5,382.5C 626.33,386.157 627.663,389.99 628.5,394C 627.513,396.994 626.18,397.161 624.5,394.5C 621.105,395.727 618.939,398.06 618,401.5C 618.193,394.646 619.36,387.979 621.5,381.5 Z"/></g>
<g><path style="opacity:1" fill="#d5d8da" d="M 633.5,374.5 C 635.167,374.5 636.833,374.5 638.5,374.5C 638.5,375.5 638.5,376.5 638.5,377.5C 634.759,376.599 632.759,377.932 632.5,381.5C 634.5,381.5 636.5,381.5 638.5,381.5C 638.599,384.237 638.265,386.904 637.5,389.5C 635.814,391.016 633.981,392.35 632,393.5C 630.699,392.902 629.865,391.902 629.5,390.5C 638.195,388.203 638.362,386.203 630,384.5C 629.182,380.469 630.349,377.136 633.5,374.5 Z"/></g>
<g><path style="opacity:1" fill="#69747a" d="M 622.5,386.5 C 623.793,388.364 623.793,390.364 622.5,392.5C 621.769,390.599 621.769,388.599 622.5,386.5 Z"/></g>
<g><path style="opacity:1" fill="#d4d7d9" d="M 610.5,399.5 C 609.691,401.292 609.191,403.292 609,405.5C 608.501,400.177 608.334,394.844 608.5,389.5C 614.523,384.557 617.023,385.89 616,393.5C 614.669,395.996 612.836,397.996 610.5,399.5 Z"/></g>
<g><path style="opacity:1" fill="#425057" d="M 610.5,390.5 C 611.833,390.5 613.167,390.5 614.5,390.5C 614.756,392.912 613.756,394.579 611.5,395.5C 610.548,393.955 610.215,392.288 610.5,390.5 Z"/></g>
<g><path style="opacity:1" fill="#70798e" d="M 365.5,395.5 C 375.806,396.371 386.14,396.704 396.5,396.5C 387.676,397.657 378.676,397.824 369.5,397C 367.942,396.79 366.609,396.29 365.5,395.5 Z"/></g>
<g><path style="opacity:1" fill="#adb3b6" d="M 608.5,389.5 C 608.334,394.844 608.501,400.177 609,405.5C 609.191,403.292 609.691,401.292 610.5,399.5C 610.5,401.833 610.5,404.167 610.5,406.5C 609.5,406.5 608.5,406.5 607.5,406.5C 607.178,400.642 607.511,394.975 608.5,389.5 Z"/></g>
<g><path style="opacity:1" fill="#d1cfda" d="M 438.5,402.5 C 436.44,404.154 433.94,405.154 431,405.5C 431.132,411.14 431.299,416.807 431.5,422.5C 431.167,422.5 430.833,422.5 430.5,422.5C 430.365,416.819 430.032,411.152 429.5,405.5C 432.008,403.446 435.008,402.446 438.5,402.5 Z"/></g>
<g><path style="opacity:1" fill="#2a383e" d="M 385.5,497.5 C 384.624,493.538 383.958,489.538 383.5,485.5C 383.741,483.102 383.074,481.102 381.5,479.5C 381.702,477.05 381.369,474.717 380.5,472.5C 380.671,455.782 382.171,439.115 385,422.5C 390.681,420.627 396.514,419.127 402.5,418C 407.352,415.388 412.352,413.388 417.5,412C 410.482,419.588 401.982,424.421 392,426.5C 388.738,441.021 386.238,455.687 384.5,470.5C 386.453,480.423 387.287,490.423 387,500.5C 386.768,499.263 386.268,498.263 385.5,497.5 Z"/></g>
<g><path style="opacity:1" fill="#7b56be" d="M 652.5,469.5 C 650.326,469.75 648.659,470.75 647.5,472.5C 640.79,475.71 634.456,479.544 628.5,484C 626.26,484.977 623.927,485.477 621.5,485.5C 621.236,478.11 621.57,470.777 622.5,463.5C 624.094,462.017 625.76,460.517 627.5,459C 641.48,451.033 655.48,443.033 669.5,435C 671.677,433.798 674.011,433.298 676.5,433.5C 676.666,440.508 676.5,447.508 676,454.5C 674.261,456.283 672.428,457.95 670.5,459.5C 664.186,462.53 658.186,465.863 652.5,469.5 Z"/></g>
<g><path style="opacity:1" fill="#99a1a6" d="M 598.5,429.5 C 597.627,433.768 597.294,438.102 597.5,442.5C 596.355,438.689 596.188,434.689 597,430.5C 597.383,429.944 597.883,429.611 598.5,429.5 Z"/></g>
<g><path style="opacity:1" fill="#79858b" d="M 617.5,433.5 C 616.514,435.408 614.848,436.408 612.5,436.5C 613.659,434.75 615.326,433.75 617.5,433.5 Z"/></g>
<g><path style="opacity:1" fill="#a08dca" d="M 143.5,441.5 C 140.482,441.335 137.482,441.502 134.5,442C 133.529,443.481 132.196,444.315 130.5,444.5C 131.29,443.206 132.29,442.039 133.5,441C 137.027,440.192 140.36,440.359 143.5,441.5 Z"/></g>
<g><path style="opacity:1" fill="#6d4da6" d="M 143.5,441.5 C 153.154,443.826 161.487,448.493 168.5,455.5C 173.261,461.355 177.261,467.688 180.5,474.5C 180.427,476.027 181.094,477.027 182.5,477.5C 184.79,482.925 186.457,488.592 187.5,494.5C 187.259,496.898 187.926,498.898 189.5,500.5C 191.831,521.74 192.164,543.073 190.5,564.5C 189.791,568.653 188.458,572.653 186.5,576.5C 182.566,578.439 178.899,580.772 175.5,583.5C 178.802,577.447 181.636,571.113 184,564.5C 184.667,559.5 184.667,554.5 184,549.5C 182.975,547.313 181.475,545.646 179.5,544.5C 180.801,536.254 180.467,527.921 178.5,519.5C 178.435,516.572 177.768,513.905 176.5,511.5C 174.97,506.239 173.637,500.905 172.5,495.5C 172.065,492.843 171.065,490.509 169.5,488.5C 164.538,473.226 156.538,459.892 145.5,448.5C 144.5,447.167 143.5,447.167 142.5,448.5C 153.923,460.681 162.256,474.681 167.5,490.5C 167.796,492.403 168.463,494.07 169.5,495.5C 169.557,496.609 169.89,497.609 170.5,498.5C 170.41,501.152 171.076,503.485 172.5,505.5C 173.386,509.083 174.386,512.75 175.5,516.5C 175.198,519.059 175.532,521.393 176.5,523.5C 177.307,529.464 177.64,535.464 177.5,541.5C 175.215,540.043 173.382,538.043 172,535.5C 171.763,527.823 171.763,520.156 172,512.5C 169.821,509.989 167.321,507.822 164.5,506C 159.664,505.32 154.997,504.486 150.5,503.5C 151.376,503.631 152.043,503.298 152.5,502.5C 152,501.5 151.5,500.5 151,499.5C 146.055,492.584 140.889,485.917 135.5,479.5C 132.421,473.673 129.588,467.673 127,461.5C 126.333,457.167 126.333,452.833 127,448.5C 127.66,446.676 128.827,445.343 130.5,444.5C 132.196,444.315 133.529,443.481 134.5,442C 137.482,441.502 140.482,441.335 143.5,441.5 Z"/></g>
<g><path style="opacity:1" fill="#96a0a5" d="M 430.5,422.5 C 430.833,422.5 431.167,422.5 431.5,422.5C 432.262,437.829 432.928,453.162 433.5,468.5C 431.631,453.373 430.631,438.04 430.5,422.5 Z"/></g>
<g><path style="opacity:1" fill="#6d4da6" d="M 817.5,495.5 C 815.801,497.566 814.468,499.9 813.5,502.5C 808.674,509.476 804.341,516.809 800.5,524.5C 800.624,525.107 800.957,525.44 801.5,525.5C 796.818,529.02 792.984,533.353 790,538.5C 778.089,559.301 773.255,581.634 775.5,605.5C 772.605,604.601 769.938,603.267 767.5,601.5C 765.743,560.092 775.576,521.759 797,486.5C 800.69,482.311 804.19,477.978 807.5,473.5C 806.998,472.479 806.332,472.312 805.5,473C 796.974,482.546 789.807,493.046 784,504.5C 776.123,520.969 770.957,538.302 768.5,556.5C 766.783,559.845 766.116,563.511 766.5,567.5C 765.658,572.787 765.324,578.12 765.5,583.5C 764.833,588.5 764.167,593.5 763.5,598.5C 762.167,597.833 760.833,597.167 759.5,596.5C 759.376,591.951 758.709,587.618 757.5,583.5C 757.109,574.672 756.776,565.839 756.5,557C 755.252,533.728 759.919,511.895 770.5,491.5C 772.245,489.967 773.245,487.967 773.5,485.5C 775.852,480.129 779.185,475.462 783.5,471.5C 791.231,462.756 800.897,459.256 812.5,461C 816.765,462.011 820.265,464.178 823,467.5C 824.974,474.012 824.807,480.512 822.5,487C 820.188,489.413 818.521,492.246 817.5,495.5 Z"/></g>
<g><path style="opacity:1" fill="#524d7a" d="M 622.5,463.5 C 621.57,470.777 621.236,478.11 621.5,485.5C 620.345,478.679 620.179,471.679 621,464.5C 621.383,463.944 621.883,463.611 622.5,463.5 Z"/></g>
<g><path style="opacity:1" fill="#dbd4e9" d="M 169.5,488.5 C 169.869,490.993 169.203,491.66 167.5,490.5C 162.256,474.681 153.923,460.681 142.5,448.5C 143.5,447.167 144.5,447.167 145.5,448.5C 156.538,459.892 164.538,473.226 169.5,488.5 Z"/></g>
<g><path style="opacity:1" fill="#4e4b74" d="M 652.5,469.5 C 651.514,471.408 649.848,472.408 647.5,472.5C 648.659,470.75 650.326,469.75 652.5,469.5 Z"/></g>
<g><path style="opacity:1" fill="#ab9aca" d="M 180.5,474.5 C 181.906,474.973 182.573,475.973 182.5,477.5C 181.094,477.027 180.427,476.027 180.5,474.5 Z"/></g>
<g><path style="opacity:1" fill="#e8e5ed" d="M 135.5,479.5 C 140.889,485.917 146.055,492.584 151,499.5C 151.5,500.5 152,501.5 152.5,502.5C 152.043,503.298 151.376,503.631 150.5,503.5C 142.886,498.219 135.886,492.219 129.5,485.5C 129.047,484.542 128.381,483.708 127.5,483C 129.641,481.692 131.641,480.192 133.5,478.5C 134.183,478.863 134.85,479.196 135.5,479.5 Z"/></g>
<g><path style="opacity:1" fill="#ededed" d="M 380.5,472.5 C 381.369,474.717 381.702,477.05 381.5,479.5C 381.259,481.898 381.926,483.898 383.5,485.5C 383.958,489.538 384.624,493.538 385.5,497.5C 386.376,501.462 387.042,505.462 387.5,509.5C 387.41,512.152 388.076,514.485 389.5,516.5C 392.882,524.614 393.215,532.947 390.5,541.5C 388.926,543.102 388.259,545.102 388.5,547.5C 385.903,561.308 386.236,574.974 389.5,588.5C 389.336,591.187 389.503,593.854 390,596.5C 390.278,597.416 390.778,598.082 391.5,598.5C 392.232,604.095 393.565,609.429 395.5,614.5C 395.5,614.833 395.5,615.167 395.5,615.5C 395.216,618.777 395.549,621.943 396.5,625C 382.452,625.205 368.452,626.039 354.5,627.5C 354.5,625.833 354.5,624.167 354.5,622.5C 354.993,620.194 355.326,617.861 355.5,615.5C 355.952,611.454 356.619,607.454 357.5,603.5C 359.748,597.484 361.082,591.15 361.5,584.5C 361.674,582.139 362.007,579.806 362.5,577.5C 364.217,574.155 364.884,570.489 364.5,566.5C 364.5,565.833 364.5,565.167 364.5,564.5C 366.118,560.425 367.118,556.092 367.5,551.5C 367.69,546.63 368.356,541.964 369.5,537.5C 371.246,531.074 372.246,524.407 372.5,517.5C 373.11,509.118 374.11,500.785 375.5,492.5C 377.322,487.795 378.322,482.795 378.5,477.5C 378.402,475.447 379.069,473.78 380.5,472.5 Z"/></g>
<g><path style="opacity:1" fill="#bdafe4" d="M 126.5,484.5 C 121.365,482.247 116.032,481.914 110.5,483.5C 110.611,482.883 110.944,482.383 111.5,482C 115.833,481.333 120.167,481.333 124.5,482C 125.381,482.708 126.047,483.542 126.5,484.5 Z"/></g>
<g><path style="opacity:1" fill="#7f58c2" d="M 126.5,484.5 C 127.391,485.11 128.391,485.443 129.5,485.5C 135.886,492.219 142.886,498.219 150.5,503.5C 154.997,504.486 159.664,505.32 164.5,506C 167.321,507.822 169.821,509.989 172,512.5C 171.763,520.156 171.763,527.823 172,535.5C 173.382,538.043 175.215,540.043 177.5,541.5C 178.167,542.5 178.833,543.5 179.5,544.5C 181.475,545.646 182.975,547.313 184,549.5C 184.667,554.5 184.667,559.5 184,564.5C 181.636,571.113 178.802,577.447 175.5,583.5C 170.477,586.867 165.477,590.2 160.5,593.5C 159.833,591.167 159.167,588.833 158.5,586.5C 158.46,581.807 158.127,577.141 157.5,572.5C 157.706,569.505 157.04,566.838 155.5,564.5C 152.208,543.124 145.041,523.124 134,504.5C 130.882,499.714 127.382,495.214 123.5,491C 122.365,490.251 121.365,490.417 120.5,491.5C 132.974,505.937 141.974,522.437 147.5,541C 141.182,540.393 134.849,539.56 128.5,538.5C 124.366,537.515 120.032,537.182 115.5,537.5C 115.285,539.179 115.952,540.179 117.5,540.5C 125.208,540.807 132.875,541.474 140.5,542.5C 142.838,544.04 145.505,544.706 148.5,544.5C 149.698,548.767 150.698,553.1 151.5,557.5C 151.259,559.898 151.926,561.898 153.5,563.5C 155.112,574.395 156.112,585.395 156.5,596.5C 155.29,596.932 154.29,597.599 153.5,598.5C 151.973,598.427 150.973,599.094 150.5,600.5C 145.328,603.585 140.328,606.919 135.5,610.5C 133.097,610.552 130.764,610.219 128.5,609.5C 123.574,607.237 119.574,603.904 116.5,599.5C 116.573,597.973 115.906,596.973 114.5,596.5C 114.5,595.833 114.5,595.167 114.5,594.5C 114.152,587.045 114.818,579.712 116.5,572.5C 116.5,571.5 116.5,570.5 116.5,569.5C 117.634,567.034 117.801,564.367 117,561.5C 116.292,560.619 115.458,559.953 114.5,559.5C 110.202,555.704 106.036,551.704 102,547.5C 100,542.833 100,538.167 102,533.5C 105.333,529.5 108.667,525.5 112,521.5C 117.028,514.327 116.528,507.66 110.5,501.5C 108.287,498.029 106.954,494.196 106.5,490C 106.398,486.938 107.731,484.771 110.5,483.5C 116.032,481.914 121.365,482.247 126.5,484.5 Z"/></g>
<g><path style="opacity:1" fill="#bec4c6" d="M 322.5,467.5 C 323.936,473.947 324.603,480.614 324.5,487.5C 323.778,487.082 323.278,486.416 323,485.5C 322.501,479.509 322.334,473.509 322.5,467.5 Z"/></g>
<g><path style="opacity:1" fill="#7f888d" d="M 381.5,479.5 C 383.074,481.102 383.741,483.102 383.5,485.5C 381.926,483.898 381.259,481.898 381.5,479.5 Z"/></g>
<g><path style="opacity:1" fill="#d6cee6" d="M 767.5,601.5 C 766.005,601.011 764.671,600.345 763.5,599.5C 765.446,594.604 766.113,589.271 765.5,583.5C 765.324,578.12 765.658,572.787 766.5,567.5C 767.525,564.026 768.192,560.36 768.5,556.5C 770.957,538.302 776.123,520.969 784,504.5C 789.807,493.046 796.974,482.546 805.5,473C 806.332,472.312 806.998,472.479 807.5,473.5C 804.19,477.978 800.69,482.311 797,486.5C 775.576,521.759 765.743,560.092 767.5,601.5 Z"/></g>
<g><path style="opacity:1" fill="#957ebe" d="M 773.5,485.5 C 773.245,487.967 772.245,489.967 770.5,491.5C 770.755,489.033 771.755,487.033 773.5,485.5 Z"/></g>
<g><path style="opacity:1" fill="#b8a9d4" d="M 169.5,488.5 C 171.065,490.509 172.065,492.843 172.5,495.5C 171.21,494.942 170.377,493.942 170,492.5C 169.517,493.448 169.351,494.448 169.5,495.5C 168.463,494.07 167.796,492.403 167.5,490.5C 169.203,491.66 169.869,490.993 169.5,488.5 Z"/></g>
<g><path style="opacity:1" fill="#959fa5" d="M 378.5,477.5 C 378.322,482.795 377.322,487.795 375.5,492.5C 375.862,487.248 376.862,482.248 378.5,477.5 Z"/></g>
<g><path style="opacity:1" fill="#ab99ca" d="M 187.5,494.5 C 189.074,496.102 189.741,498.102 189.5,500.5C 187.926,498.898 187.259,496.898 187.5,494.5 Z"/></g>
<g><path style="opacity:1" fill="#e9e7ed" d="M 816.5,498.5 C 819.449,501.788 822.449,505.121 825.5,508.5C 824.398,509.176 823.398,509.842 822.5,510.5C 814.103,513.567 807.103,518.567 801.5,525.5C 800.957,525.44 800.624,525.107 800.5,524.5C 804.341,516.809 808.674,509.476 813.5,502.5C 815.262,501.738 816.262,500.404 816.5,498.5 Z"/></g>
<g><path style="opacity:1" fill="#b6a7d1" d="M 817.5,495.5 C 817.443,496.609 817.11,497.609 816.5,498.5C 816.262,500.404 815.262,501.738 813.5,502.5C 814.468,499.9 815.801,497.566 817.5,495.5 Z"/></g>
<g><path style="opacity:1" fill="#9c87c3" d="M 170.5,498.5 C 171.924,500.515 172.59,502.848 172.5,505.5C 171.076,503.485 170.41,501.152 170.5,498.5 Z"/></g>
<g><path style="opacity:1" fill="#8059c2" d="M 822.5,510.5 C 827.4,510.033 832.067,510.699 836.5,512.5C 837.5,514.167 838.833,515.5 840.5,516.5C 840.5,520.167 840.5,523.833 840.5,527.5C 840.5,528.167 840.5,528.833 840.5,529.5C 838.864,530.749 837.697,532.416 837,534.5C 828.697,541.802 820.697,549.469 813,557.5C 807.561,563.765 802.728,570.432 798.5,577.5C 796.412,579.336 795.079,581.669 794.5,584.5C 790.189,592.764 786.855,601.43 784.5,610.5C 783.14,609.82 781.807,609.153 780.5,608.5C 780.808,590.275 785.641,573.275 795,557.5C 804.739,542.429 816.572,529.262 830.5,518C 830.333,517.5 830.167,517 830,516.5C 804.027,535.588 787.194,560.588 779.5,591.5C 778.532,596.394 777.198,601.061 775.5,605.5C 773.255,581.634 778.089,559.301 790,538.5C 792.984,533.353 796.818,529.02 801.5,525.5C 807.103,518.567 814.103,513.567 822.5,510.5 Z"/></g>
<g><path style="opacity:1" fill="#e0d9ec" d="M 172.5,495.5 C 173.637,500.905 174.97,506.239 176.5,511.5C 176.784,513.415 176.451,515.081 175.5,516.5C 174.386,512.75 173.386,509.083 172.5,505.5C 172.59,502.848 171.924,500.515 170.5,498.5C 169.89,497.609 169.557,496.609 169.5,495.5C 169.351,494.448 169.517,493.448 170,492.5C 170.377,493.942 171.21,494.942 172.5,495.5 Z"/></g>
<g><path style="opacity:1" fill="#b39fdd" d="M 836.5,512.5 C 838.833,512.833 840.167,514.167 840.5,516.5C 838.833,515.5 837.5,514.167 836.5,512.5 Z"/></g>
<g><path style="opacity:1" fill="#9ba3a7" d="M 387.5,509.5 C 388.924,511.515 389.59,513.848 389.5,516.5C 388.076,514.485 387.41,512.152 387.5,509.5 Z"/></g>
<g><path style="opacity:1" fill="#beb0d8" d="M 176.5,511.5 C 177.768,513.905 178.435,516.572 178.5,519.5C 177.778,519.082 177.278,518.416 177,517.5C 176.505,519.473 176.338,521.473 176.5,523.5C 175.532,521.393 175.198,519.059 175.5,516.5C 176.451,515.081 176.784,513.415 176.5,511.5 Z"/></g>
<g><path style="opacity:1" fill="#99a2a7" d="M 325.5,505.5 C 326.957,510.598 327.624,515.931 327.5,521.5C 326.194,516.384 325.527,511.051 325.5,505.5 Z"/></g>
<g><path style="opacity:1" fill="#9779ce" d="M 840.5,516.5 C 843.167,520.167 843.167,523.833 840.5,527.5C 840.5,523.833 840.5,520.167 840.5,516.5 Z"/></g>
<g><path style="opacity:1" fill="#a9b1b5" d="M 372.5,517.5 C 372.246,524.407 371.246,531.074 369.5,537.5C 369.532,530.552 370.532,523.886 372.5,517.5 Z"/></g>
<g><path style="opacity:1" fill="#a084d2" d="M 128.5,538.5 C 124.351,537.92 120.684,538.586 117.5,540.5C 115.952,540.179 115.285,539.179 115.5,537.5C 120.032,537.182 124.366,537.515 128.5,538.5 Z"/></g>
<g><path style="opacity:1" fill="#dad3e9" d="M 178.5,519.5 C 180.467,527.921 180.801,536.254 179.5,544.5C 178.833,543.5 178.167,542.5 177.5,541.5C 177.64,535.464 177.307,529.464 176.5,523.5C 176.338,521.473 176.505,519.473 177,517.5C 177.278,518.416 177.778,519.082 178.5,519.5 Z"/></g>
<g><path style="opacity:1" fill="#b9a5dd" d="M 140.5,542.5 C 143.428,542.565 146.095,543.232 148.5,544.5C 145.505,544.706 142.838,544.04 140.5,542.5 Z"/></g>
<g><path style="opacity:1" fill="#ded4ee" d="M 780.5,608.5 C 779.005,608.011 777.671,607.345 776.5,606.5C 777.649,606.209 778.316,605.376 778.5,604C 779.329,599.874 779.663,595.707 779.5,591.5C 787.194,560.588 804.027,535.588 830,516.5C 830.167,517 830.333,517.5 830.5,518C 816.572,529.262 804.739,542.429 795,557.5C 785.641,573.275 780.808,590.275 780.5,608.5 Z"/></g>
<g><path style="opacity:1" fill="#8d989e" d="M 390.5,541.5 C 390.741,543.898 390.074,545.898 388.5,547.5C 388.259,545.102 388.926,543.102 390.5,541.5 Z"/></g>
<g><path style="opacity:1" fill="#7f8b92" d="M 324.5,537.5 C 323.627,541.878 322.294,545.878 320.5,549.5C 320.857,545.737 321.69,542.07 323,538.5C 323.383,537.944 323.883,537.611 324.5,537.5 Z"/></g>
<g><path style="opacity:1" fill="#b1b8bb" d="M 433.5,529.5 C 432.943,546.373 431.61,563.04 429.5,579.5C 429.596,562.586 430.93,545.919 433.5,529.5 Z"/></g>
<g><path style="opacity:1" fill="#acb2b5" d="M 560.5,554.5 C 560.389,555.117 560.056,555.617 559.5,556C 556.633,556.801 553.966,556.634 551.5,555.5C 552.833,555.5 554.167,555.5 555.5,555.5C 557.216,555.371 558.883,555.038 560.5,554.5 Z"/></g>
<g><path style="opacity:1" fill="#79878e" d="M 367.5,551.5 C 367.118,556.092 366.118,560.425 364.5,564.5C 364.551,559.813 365.551,555.479 367.5,551.5 Z"/></g>
<g><path style="opacity:1" fill="#b19ada" d="M 151.5,557.5 C 153.074,559.102 153.741,561.102 153.5,563.5C 151.926,561.898 151.259,559.898 151.5,557.5 Z"/></g>
<g><path style="opacity:1" fill="#e1d9f0" d="M 155.5,564.5 C 155.565,567.428 156.232,570.095 157.5,572.5C 158.127,577.141 158.46,581.807 158.5,586.5C 158.5,589.167 158.5,591.833 158.5,594.5C 157.833,595.167 157.167,595.833 156.5,596.5C 156.112,585.395 155.112,574.395 153.5,563.5C 153.741,561.102 153.074,559.102 151.5,557.5C 150.698,553.1 149.698,548.767 148.5,544.5C 146.095,543.232 143.428,542.565 140.5,542.5C 132.875,541.474 125.208,540.807 117.5,540.5C 120.684,538.586 124.351,537.92 128.5,538.5C 134.849,539.56 141.182,540.393 147.5,541C 141.974,522.437 132.974,505.937 120.5,491.5C 121.365,490.417 122.365,490.251 123.5,491C 127.382,495.214 130.882,499.714 134,504.5C 145.041,523.124 152.208,543.124 155.5,564.5 Z"/></g>
<g><path style="opacity:1" fill="#9b84c2" d="M 768.5,556.5 C 768.192,560.36 767.525,564.026 766.5,567.5C 766.116,563.511 766.783,559.845 768.5,556.5 Z"/></g>
<g><path style="opacity:1" fill="#c5b7de" d="M 114.5,559.5 C 115.458,559.953 116.292,560.619 117,561.5C 117.801,564.367 117.634,567.034 116.5,569.5C 116.845,565.885 116.178,562.552 114.5,559.5 Z"/></g>
<g><path style="opacity:1" fill="#b19bda" d="M 155.5,564.5 C 157.04,566.838 157.706,569.505 157.5,572.5C 156.232,570.095 155.565,567.428 155.5,564.5 Z"/></g>
<g><path style="opacity:1" fill="#abb2b6" d="M 364.5,566.5 C 364.884,570.489 364.217,574.155 362.5,577.5C 362.808,573.64 363.475,569.974 364.5,566.5 Z"/></g>
<g><path style="opacity:1" fill="#c4b9d8" d="M 190.5,564.5 C 190.737,568.273 190.237,571.94 189,575.5C 188.329,576.252 187.496,576.586 186.5,576.5C 188.458,572.653 189.791,568.653 190.5,564.5 Z"/></g>
<g><path style="opacity:1" fill="#cfc2e4" d="M 798.5,577.5 C 798.264,580.621 796.931,582.954 794.5,584.5C 795.079,581.669 796.412,579.336 798.5,577.5 Z"/></g>
<g><path style="opacity:1" fill="#a084d1" d="M 116.5,572.5 C 114.818,579.712 114.152,587.045 114.5,594.5C 113.003,592.71 112.336,590.544 112.5,588C 112.772,582.441 114.105,577.274 116.5,572.5 Z"/></g>
<g><path style="opacity:1" fill="#a186d2" d="M 158.5,586.5 C 159.167,588.833 159.833,591.167 160.5,593.5C 160.158,594.338 159.492,594.672 158.5,594.5C 158.5,591.833 158.5,589.167 158.5,586.5 Z"/></g>
<g><path style="opacity:1" fill="#8f9aa0" d="M 361.5,584.5 C 361.082,591.15 359.748,597.484 357.5,603.5C 357.918,596.85 359.252,590.516 361.5,584.5 Z"/></g>
<g><path style="opacity:1" fill="#b7a8d2" d="M 757.5,583.5 C 758.709,587.618 759.376,591.951 759.5,596.5C 757.946,592.433 757.28,588.1 757.5,583.5 Z"/></g>
<g><path style="opacity:1" fill="#8c73b9" d="M 765.5,583.5 C 766.113,589.271 765.446,594.604 763.5,599.5C 763.5,599.167 763.5,598.833 763.5,598.5C 764.167,593.5 764.833,588.5 765.5,583.5 Z"/></g>
<g><path style="opacity:1" fill="#a7afb4" d="M 389.5,588.5 C 390.581,591.627 391.247,594.96 391.5,598.5C 390.778,598.082 390.278,597.416 390,596.5C 389.503,593.854 389.336,591.187 389.5,588.5 Z"/></g>
<g><path style="opacity:1" fill="#bfaedf" d="M 114.5,596.5 C 115.906,596.973 116.573,597.973 116.5,599.5C 115.094,599.027 114.427,598.027 114.5,596.5 Z"/></g>
<g><path style="opacity:1" fill="#c2b1de" d="M 153.5,598.5 C 153.027,599.906 152.027,600.573 150.5,600.5C 150.973,599.094 151.973,598.427 153.5,598.5 Z"/></g>
<g><path style="opacity:1" fill="#ad94d9" d="M 779.5,591.5 C 779.663,595.707 779.329,599.874 778.5,604C 778.316,605.376 777.649,606.209 776.5,606.5C 775.833,606.5 775.5,606.167 775.5,605.5C 777.198,601.061 778.532,596.394 779.5,591.5 Z"/></g>
<g><path style="opacity:1" fill="#ae96d5" d="M 128.5,609.5 C 130.764,610.219 133.097,610.552 135.5,610.5C 134.726,611.147 133.726,611.48 132.5,611.5C 130.645,611.66 129.312,610.993 128.5,609.5 Z"/></g>
<g><path style="opacity:1" fill="#cdd0d2" d="M 317.5,569.5 C 317.203,589.206 317.869,608.873 319.5,628.5C 318.778,624.609 317.944,620.609 317,616.5C 316.172,600.661 316.339,584.995 317.5,569.5 Z"/></g>
<g><path style="opacity:1" fill="#fca8a7" d="M 423.5,612.5 C 425.43,616.373 426.097,620.706 425.5,625.5C 423.576,639.294 423.076,653.294 424,667.5C 424.278,668.416 424.778,669.082 425.5,669.5C 433.041,679.541 442.041,688.041 452.5,695C 454.728,697.057 456.728,699.224 458.5,701.5C 457.508,701.328 456.842,701.662 456.5,702.5C 451.463,702.587 446.463,702.254 441.5,701.5C 432.692,696.261 424.026,690.761 415.5,685C 410.971,681.636 406.971,677.803 403.5,673.5C 403.802,670.941 403.468,668.607 402.5,666.5C 400.176,649.905 398.176,633.238 396.5,616.5C 402.145,617.387 407.812,617.554 413.5,617C 415.723,616.434 417.723,615.6 419.5,614.5C 420.833,613.833 422.167,613.167 423.5,612.5 Z"/></g>
<g><path style="opacity:1" fill="#d29596" d="M 395.5,615.5 C 395.5,615.167 395.5,614.833 395.5,614.5C 403.48,615.761 411.48,615.761 419.5,614.5C 417.723,615.6 415.723,616.434 413.5,617C 407.812,617.554 402.145,617.387 396.5,616.5C 396.5,615.833 396.167,615.5 395.5,615.5 Z"/></g>
<g><path style="opacity:1" fill="#edc6c7" d="M 426.5,610.5 C 426.5,615.5 426.5,620.5 426.5,625.5C 426.167,625.5 425.833,625.5 425.5,625.5C 426.097,620.706 425.43,616.373 423.5,612.5C 423.973,611.094 424.973,610.427 426.5,610.5 Z"/></g>
<g><path style="opacity:1" fill="#909aa0" d="M 355.5,615.5 C 355.326,617.861 354.993,620.194 354.5,622.5C 354.167,622.5 353.833,622.5 353.5,622.5C 353.41,619.848 354.076,617.515 355.5,615.5 Z"/></g>
<g><path style="opacity:1" fill="#dfdfdf" d="M 395.5,615.5 C 396.167,615.5 396.5,615.833 396.5,616.5C 398.176,633.238 400.176,649.905 402.5,666.5C 401.351,666.791 400.684,667.624 400.5,669C 399.923,671.137 399.59,673.304 399.5,675.5C 398.03,680.621 397.53,685.954 398,691.5C 402.803,697.319 408.969,700.652 416.5,701.5C 422.688,704.761 428.355,708.761 433.5,713.5C 433.973,714.906 434.973,715.573 436.5,715.5C 446.331,720.585 456.331,720.752 466.5,716C 469.887,713.998 471.387,711.165 471,707.5C 467.01,705.088 462.843,703.088 458.5,701.5C 456.728,699.224 454.728,697.057 452.5,695C 442.041,688.041 433.041,679.541 425.5,669.5C 424.698,654.856 424.698,640.19 425.5,625.5C 425.833,625.5 426.167,625.5 426.5,625.5C 426.5,627.167 426.5,628.833 426.5,630.5C 460.128,635.007 487.961,650.007 510,675.5C 523.66,697.625 522.66,718.958 507,739.5C 496.158,751.321 483.658,760.821 469.5,768C 423.492,786.497 376.159,790.497 327.5,780C 313.442,775.909 299.775,770.909 286.5,765C 285.167,763.667 283.833,762.333 282.5,761C 269.923,754.767 259.423,745.933 251,734.5C 238.687,712.594 240.021,691.594 255,671.5C 272.592,652.613 294.092,640.279 319.5,634.5C 320.62,643.207 321.786,651.874 323,660.5C 323.5,669.16 323.666,677.827 323.5,686.5C 321.781,694.381 321.114,702.381 321.5,710.5C 319.222,720.687 319.056,731.02 321,741.5C 323.392,747.226 327.226,751.726 332.5,755C 336.829,756.151 340.662,755.318 344,752.5C 348.316,742.998 349.65,732.998 348,722.5C 347.001,715.137 346.167,707.804 345.5,700.5C 345.192,696.64 344.525,692.974 343.5,689.5C 343.431,681.798 343.931,674.131 345,666.5C 348.504,654.532 350.337,642.532 350.5,630.5C 351.994,628.058 352.994,625.391 353.5,622.5C 353.833,622.5 354.167,622.5 354.5,622.5C 354.5,624.167 354.5,625.833 354.5,627.5C 368.452,626.039 382.452,625.205 396.5,625C 395.549,621.943 395.216,618.777 395.5,615.5 Z"/></g>
<g><path style="opacity:1" fill="#fda7a6" d="M 319.5,630.5 C 322.5,631.167 325.5,631.833 328.5,632.5C 328.611,633.117 328.944,633.617 329.5,634C 334.5,634.667 339.5,634.667 344.5,634C 346.32,633.8 347.653,632.966 348.5,631.5C 349.492,631.672 350.158,631.338 350.5,630.5C 350.337,642.532 348.504,654.532 345,666.5C 343.931,674.131 343.431,681.798 343.5,689.5C 343.183,693.702 343.517,697.702 344.5,701.5C 344.667,712.172 344.5,722.839 344,733.5C 338.466,740.076 332.799,740.076 327,733.5C 324.856,728.742 324.023,723.742 324.5,718.5C 324.828,707.654 324.494,696.987 323.5,686.5C 323.666,677.827 323.5,669.16 323,660.5C 321.786,651.874 320.62,643.207 319.5,634.5C 319.5,633.167 319.5,631.833 319.5,630.5 Z"/></g>
<g><path style="opacity:1" fill="#cc9394" d="M 348.5,631.5 C 347.653,632.966 346.32,633.8 344.5,634C 339.5,634.667 334.5,634.667 329.5,634C 328.944,633.617 328.611,633.117 328.5,632.5C 335.264,634.005 341.93,633.672 348.5,631.5 Z"/></g>
<g><path style="opacity:1" fill="#ebcdcd" d="M 425.5,625.5 C 424.698,640.19 424.698,654.856 425.5,669.5C 424.778,669.082 424.278,668.416 424,667.5C 423.076,653.294 423.576,639.294 425.5,625.5 Z"/></g>
<g><path style="opacity:1" fill="#56595e" d="M 402.5,666.5 C 403.468,668.607 403.802,670.941 403.5,673.5C 402.883,673.389 402.383,673.056 402,672.5C 401.623,673.942 400.79,674.942 399.5,675.5C 399.59,673.304 399.923,671.137 400.5,669C 400.684,667.624 401.351,666.791 402.5,666.5 Z"/></g>
<g><path style="opacity:1" fill="#29353b" d="M 403.5,673.5 C 406.971,677.803 410.971,681.636 415.5,685C 424.026,690.761 432.692,696.261 441.5,701.5C 441.918,702.222 442.584,702.722 443.5,703C 448.02,703.814 452.354,703.647 456.5,702.5C 456.842,701.662 457.508,701.328 458.5,701.5C 462.843,703.088 467.01,705.088 471,707.5C 471.387,711.165 469.887,713.998 466.5,716C 456.331,720.752 446.331,720.585 436.5,715.5C 436.027,714.094 435.027,713.427 433.5,713.5C 428.355,708.761 422.688,704.761 416.5,701.5C 408.969,700.652 402.803,697.319 398,691.5C 397.53,685.954 398.03,680.621 399.5,675.5C 400.79,674.942 401.623,673.942 402,672.5C 402.383,673.056 402.883,673.389 403.5,673.5 Z"/></g>
<g><path style="opacity:1" fill="#806a6e" d="M 343.5,689.5 C 344.525,692.974 345.192,696.64 345.5,700.5C 344.833,700.5 344.5,700.833 344.5,701.5C 343.517,697.702 343.183,693.702 343.5,689.5 Z"/></g>
<g><path style="opacity:1" fill="#856669" d="M 441.5,701.5 C 446.463,702.254 451.463,702.587 456.5,702.5C 452.354,703.647 448.02,703.814 443.5,703C 442.584,702.722 441.918,702.222 441.5,701.5 Z"/></g>
<g><path style="opacity:1" fill="#6d6266" d="M 323.5,686.5 C 324.494,696.987 324.828,707.654 324.5,718.5C 324.098,715.523 323.098,712.857 321.5,710.5C 321.114,702.381 321.781,694.381 323.5,686.5 Z"/></g>
<g><path style="opacity:1" fill="#7b8488" d="M 433.5,713.5 C 435.027,713.427 436.027,714.094 436.5,715.5C 434.973,715.573 433.973,714.906 433.5,713.5 Z"/></g>
<g><path style="opacity:1" fill="#2e3a3f" d="M 345.5,700.5 C 346.167,707.804 347.001,715.137 348,722.5C 349.65,732.998 348.316,742.998 344,752.5C 340.662,755.318 336.829,756.151 332.5,755C 327.226,751.726 323.392,747.226 321,741.5C 319.056,731.02 319.222,720.687 321.5,710.5C 323.098,712.857 324.098,715.523 324.5,718.5C 324.023,723.742 324.856,728.742 327,733.5C 332.799,740.076 338.466,740.076 344,733.5C 344.5,722.839 344.667,712.172 344.5,701.5C 344.5,700.833 344.833,700.5 345.5,700.5 Z"/></g>
</svg>
