<svg width="67" height="67" viewBox="0 0 67 67" fill="none" xmlns="http://www.w3.org/2000/svg">
<g id="lets-icons:setting-line">
<path id="Vector" d="M57.6148 39.463L57.3384 36.6853L57.2463 36.6937L57.157 36.7104L57.6148 39.463ZM57.6148 39.463L57.894 42.2407L57.9861 42.2323L58.0754 42.2184L57.6148 39.463ZM46.3365 54.7669L48.1036 52.6062L48.0813 52.5894L46.3365 54.7669ZM46.3365 54.7669L44.5693 56.9277L44.5917 56.9472L46.3365 54.7669ZM20.6643 54.7669L18.8972 52.6089L18.8525 52.6452L18.8106 52.6815L20.6643 54.7669ZM20.6643 54.7669L22.4314 56.9304L22.4761 56.8942L22.518 56.8551L20.6643 54.7669ZM9.38317 27.537V24.7453H9.24359L9.1068 24.7593L9.38317 27.537ZM9.38317 27.537V30.3287H9.52276L9.66234 30.3147L9.38317 27.537ZM42.2411 9.10361C42.1944 8.56671 42.1283 8.03138 42.0485 7.4984C41.9614 6.91196 41.7824 6.34291 41.518 5.81224L36.5573 8.37499C36.493 8.24936 36.507 8.20469 36.5433 8.42524C36.5852 8.67369 36.6215 9.01986 36.6857 9.66194L42.2411 9.10361ZM42.5063 11.7557C42.6822 11.9846 42.6236 12.0879 42.5258 11.5435C42.4337 11.0243 42.3611 10.2957 42.2411 9.10361L36.6829 9.65915C36.7946 10.7591 36.8895 11.7473 37.0318 12.5346C37.1686 13.2883 37.4087 14.2794 38.0648 15.1392L42.5063 11.7557ZM42.5063 11.7557L38.0648 15.1392C38.6622 15.9232 39.4566 16.5351 40.3671 16.9127C41.2777 17.2902 42.2719 17.42 43.2489 17.2888L42.5063 11.7557ZM44.5665 10.0667C43.9409 10.5955 43.2975 11.1029 42.6375 11.5882C42.1825 11.9037 42.2188 11.792 42.5063 11.7557L43.2489 17.2888C44.3209 17.1436 45.1919 16.6132 45.8228 16.1721C46.4788 15.7199 47.2466 15.0889 48.1008 14.3882L44.5665 10.0667ZM47.4029 8.25215C46.8413 8.43996 46.3128 8.71505 45.8368 9.06732C45.4459 9.34649 45.0076 9.70661 44.5665 10.0667L48.1008 14.3882C48.6005 13.9807 48.8713 13.7601 49.0779 13.6149C49.2593 13.4837 49.2342 13.5284 49.103 13.5703L47.4029 8.25215ZM51.3224 8.44757C50.0826 7.9103 48.69 7.84087 47.4029 8.25215L49.103 13.5703L51.3224 8.44757ZM53.9633 10.5357C53.5876 10.1491 53.1993 9.77479 52.7992 9.41349C52.3598 9.01577 51.8605 8.68979 51.3196 8.44757L49.103 13.5703C48.9746 13.5144 48.9551 13.4698 49.1226 13.6177C49.3124 13.7852 49.5608 14.0281 50.0159 14.4832L53.9633 10.5357ZM56.4591 13.0315L53.9633 10.5357L50.0159 14.4832L52.5116 16.9789L56.4591 13.0315ZM58.5472 15.6724C58.305 15.1315 57.979 14.6322 57.5813 14.1928C57.2192 13.7943 56.845 13.407 56.4591 13.0315L52.5116 16.9817C52.9667 17.4367 53.2096 17.6852 53.3771 17.875C53.525 18.0425 53.4803 18.023 53.4245 17.8946L58.5472 15.6724ZM58.7426 19.5919C59.1539 18.3048 59.0845 16.9122 58.5472 15.6724L53.4245 17.8946L58.7426 19.5919ZM56.9281 22.4282C57.2755 22.0163 57.6088 21.5926 57.9275 21.158C58.2234 20.7449 58.5416 20.2312 58.7426 19.5919L53.4245 17.8946C53.4664 17.7634 53.5083 17.7354 53.3798 17.9197C53.2347 18.1235 53.0169 18.3943 52.6066 18.894L56.9281 22.4282ZM55.2391 24.4913C55.2028 24.7788 55.0911 24.8123 55.4066 24.3573C55.7053 23.9246 56.1687 23.3551 56.9281 22.4282L52.6066 18.894C51.9086 19.7482 51.2749 20.5159 50.8199 21.172C50.3816 21.8029 49.8512 22.6739 49.706 23.7459L55.2391 24.4913ZM55.2391 24.4913L49.706 23.7459C49.5748 24.7229 49.7046 25.7171 50.0821 26.6277C50.4597 27.5382 51.0716 28.3326 51.8556 28.93L55.2391 24.4913ZM57.8912 24.7565C57.0749 24.6882 56.2611 24.5923 55.4513 24.4689C54.9069 24.3712 55.0102 24.3154 55.2391 24.4913L51.8556 28.93C52.7154 29.5861 53.7037 29.8262 54.463 29.9629C55.2475 30.1025 56.2357 30.2002 57.3356 30.3119L57.8912 24.7565ZM61.1826 25.4767C60.6519 25.2124 60.0828 25.0334 59.4964 24.9463C58.9634 24.8665 58.4281 24.8032 57.8912 24.7565L57.3356 30.3119C57.749 30.3483 58.1613 30.3949 58.5723 30.4515C58.7957 30.4906 58.7482 30.5045 58.6226 30.4403L61.1826 25.4767ZM63.8151 28.3884C63.3189 27.1312 62.3836 26.0967 61.1826 25.4767L58.6254 30.4459L63.8151 28.3884ZM64.2059 31.7329C64.2059 31.1634 64.2059 30.5967 64.1752 30.1165C64.1462 29.524 64.0237 28.9399 63.8123 28.3857L58.6254 30.4459C58.5751 30.3147 58.5919 30.27 58.6086 30.4934C58.6254 30.7446 58.6254 31.0936 58.6254 31.7384L64.2059 31.7329ZM64.2059 35.2615V31.7329H58.6226V35.2615H64.2059ZM63.8151 38.6059C64.0608 37.9834 64.1417 37.386 64.1752 36.8751C64.2059 36.3977 64.2059 35.831 64.2059 35.2615H58.6226C58.6226 35.9064 58.6226 36.2554 58.6058 36.5066C58.5891 36.7299 58.5723 36.6853 58.6226 36.5541L63.8151 38.6059ZM61.1826 41.5177C62.3836 40.8977 63.3189 39.8632 63.8151 38.6059L58.6254 36.5569L61.1826 41.5177ZM57.8912 42.2379C58.4607 42.1821 59.0218 42.1262 59.4964 42.0481C59.9989 41.9643 60.5851 41.8247 61.1826 41.5177L58.6254 36.5569C58.7482 36.4927 58.7957 36.5066 58.5751 36.5429C58.1644 36.6023 57.752 36.6498 57.3384 36.6853L57.8912 42.2379ZM55.2419 42.5031C55.0102 42.679 54.9069 42.6232 55.4513 42.5254C55.9705 42.4333 56.6991 42.3579 57.8912 42.2379L57.3356 36.6825C56.2385 36.7942 55.2475 36.8891 54.463 37.0314C53.7065 37.1682 52.7154 37.4083 51.8556 38.0644L55.2419 42.5031ZM55.2419 42.5031L51.8556 38.0644C51.0716 38.6618 50.4597 39.4562 50.0821 40.3667C49.7046 41.2773 49.5748 42.2715 49.706 43.2485L55.2419 42.5031ZM56.9281 44.5634C56.3994 43.9385 55.892 43.2961 55.4066 42.6371C55.0911 42.1821 55.2056 42.2156 55.2419 42.5031L49.706 43.2485C49.8512 44.3205 50.3816 45.1915 50.8227 45.8224C51.2777 46.4784 51.9086 47.2462 52.6066 48.1004L56.9281 44.5634ZM58.7426 47.3997C58.5546 46.8391 58.2795 46.3115 57.9275 45.8364C57.6483 45.4427 57.2882 45.0072 56.9281 44.5634L52.6066 48.1004C53.0141 48.6001 53.2347 48.8681 53.3798 49.0747C53.5111 49.2562 53.4692 49.2338 53.4245 49.1026L58.7426 47.3997ZM58.5472 51.322C59.0852 50.0814 59.1546 48.6877 58.7426 47.3997L53.4245 49.1026L58.5472 51.322ZM56.4591 53.9629C56.8638 53.5581 57.2631 53.1617 57.5813 52.7988C57.9163 52.4135 58.2792 51.9362 58.5472 51.3192L53.4245 49.0998C53.4803 48.9714 53.525 48.9547 53.3771 49.1222C53.2096 49.312 52.9667 49.5577 52.5116 50.0155L56.4591 53.9629ZM53.9633 56.4559L56.4591 53.9629L52.5116 50.0155L50.0159 52.5084L53.9633 56.4559ZM51.3224 58.5468C51.8635 58.3037 52.3628 57.9768 52.802 57.5781C53.1621 57.2627 53.5613 56.8607 53.9633 56.4559L50.0159 52.5084C49.7263 52.8053 49.4284 53.0939 49.1226 53.3739C48.9551 53.5246 48.9746 53.4799 49.103 53.4241L51.3224 58.5468ZM47.4029 58.7422C48.69 59.1535 50.0826 59.0841 51.3224 58.5468L49.103 53.4241L47.4029 58.7422ZM44.5665 56.9277C45.0076 57.2878 45.4431 57.6479 45.8368 57.9271C46.2499 58.2202 46.7636 58.5384 47.4029 58.7422L49.103 53.4241C49.2342 53.466 49.2593 53.5079 49.0751 53.3794C48.743 53.1311 48.4181 52.8732 48.1008 52.6062L44.5665 56.9277ZM42.5063 55.2415C42.2188 55.1996 42.1825 55.0879 42.6375 55.4034C43.0702 55.7049 43.6369 56.1655 44.5638 56.9249L48.1008 52.6062C47.2466 51.9054 46.4788 51.2745 45.8228 50.8195C45.1919 50.3784 44.3209 49.8508 43.2489 49.7056L42.5063 55.2415ZM42.5063 55.2415L43.2489 49.7056C42.2719 49.5744 41.2777 49.7042 40.3671 50.0817C39.4566 50.4593 38.6622 51.0712 38.0648 51.8552L42.5063 55.2415ZM42.2383 57.8908C42.3583 56.6987 42.4337 55.9673 42.5258 55.4509C42.6236 54.9065 42.6794 55.007 42.5035 55.2387L38.0648 51.8524C37.4087 52.7122 37.1686 53.7033 37.0318 54.4598C36.8923 55.2471 36.7973 56.2353 36.6857 57.3352L42.2383 57.8908ZM41.5153 61.1822C41.8223 60.5847 41.9619 59.9985 42.0457 59.496C42.1294 59.0214 42.1797 58.4603 42.2383 57.8908L36.6857 57.3352C36.6484 57.7496 36.6 58.1602 36.5405 58.5719C36.5042 58.7953 36.4903 58.7478 36.5545 58.6222L41.5153 61.1822ZM38.6091 63.8147C39.8643 63.3174 40.8967 62.3822 41.5153 61.1822L36.5573 58.625L38.6091 63.8147ZM35.2591 64.2055C35.8314 64.2055 36.3981 64.2055 36.8783 64.1748C37.3864 64.1413 37.9838 64.0659 38.6091 63.8147L36.5573 58.625C36.6885 58.5747 36.7331 58.5915 36.5098 58.6082C36.095 58.6257 35.6798 58.6313 35.2647 58.625L35.2591 64.2055ZM31.7333 64.2055H35.2591L35.2619 58.6222H31.7333V64.2055ZM28.3888 63.8147C29.0114 64.0604 29.6088 64.1413 30.1197 64.1748C30.597 64.2055 31.1638 64.2055 31.7333 64.2055V58.6222C31.0884 58.6222 30.7394 58.6222 30.4882 58.6054C30.2648 58.5887 30.3095 58.5719 30.4407 58.6222L28.3888 63.8147ZM25.4771 61.1822C26.0971 62.3832 27.1316 63.3185 28.3888 63.8147L30.4407 58.6222L25.4771 61.1822ZM24.7569 57.8908C24.8127 58.4603 24.8685 59.0214 24.9467 59.496C25.0305 59.9985 25.17 60.5847 25.4771 61.1822L30.4463 58.625C30.5105 58.7478 30.4965 58.7953 30.4603 58.5747C30.4008 58.164 30.3533 57.7516 30.3179 57.338L24.7569 57.8908ZM24.4917 55.2387C24.3158 55.0098 24.3716 54.9037 24.4693 55.4509C24.5615 55.9673 24.6368 56.6987 24.7569 57.8908L30.3123 57.3352C30.2006 56.2353 30.1057 55.2471 29.9633 54.4598C29.8265 53.7061 29.5865 52.715 28.9304 51.8552L24.4917 55.2387ZM24.4917 55.2387L28.9304 51.8552C28.333 51.0712 27.5386 50.4593 26.6281 50.0817C25.7175 49.7042 24.7232 49.5744 23.7463 49.7056L24.4917 55.2387ZM22.4286 56.9277C23.3583 56.1683 23.925 55.7049 24.3577 55.4062C24.8127 55.0907 24.7792 55.2024 24.4917 55.2387L23.7463 49.7056C22.6743 49.8508 21.8033 50.3812 21.1724 50.8223C20.5163 51.2745 19.7486 51.9054 18.8944 52.6062L22.4286 56.9277ZM19.5923 58.7422C20.1539 58.5544 20.6824 58.2793 21.1584 57.9271C21.5493 57.6479 21.9876 57.2878 22.4286 56.9277L18.8972 52.6089C18.579 52.876 18.2559 53.1339 17.9229 53.3822C17.7414 53.5134 17.7665 53.4716 17.8978 53.4269L19.5923 58.7422ZM15.6728 58.5468C16.9126 59.0841 18.3052 59.1535 19.5923 58.7422L17.8922 53.4241L15.6728 58.5468ZM13.0291 56.4587C13.4339 56.8634 13.8331 57.2627 14.196 57.5809C14.5785 57.9159 15.0558 58.2816 15.6756 58.5496L17.8922 53.4241C18.0206 53.4799 18.0401 53.5246 17.8726 53.3767C17.5666 53.0969 17.2687 52.8083 16.9793 52.5112L13.0291 56.4587ZM10.5361 53.9629L13.0319 56.4587L16.9793 52.5112L14.4836 50.0155L10.5361 53.9629ZM8.44797 51.322C8.71317 51.9362 9.07888 52.4163 9.41388 52.8016C9.73213 53.1617 10.1313 53.5609 10.5361 53.9629L14.4836 50.0155C14.1866 49.7261 13.898 49.4282 13.6181 49.1222C13.4702 48.9547 13.5148 48.9742 13.5707 49.1026L8.44797 51.322ZM8.25255 47.4025C7.84126 48.6896 7.9107 50.0822 8.44797 51.322L13.5707 49.1026L8.25255 47.4025ZM10.0671 44.5662C9.71973 44.9781 9.3864 45.4018 9.06772 45.8364C8.71545 46.3124 8.44036 46.8409 8.25255 47.4025L13.5707 49.1026C13.526 49.2338 13.4869 49.2589 13.6153 49.0747C13.7605 48.8709 13.9783 48.6001 14.3886 48.1004L10.0671 44.5662ZM11.7533 42.5031C11.7924 42.2156 11.904 42.1821 11.5886 42.6371C11.2899 43.0698 10.8265 43.6393 10.0671 44.5662L14.3886 48.1004C15.0865 47.2462 15.7203 46.4784 16.1753 45.8224C16.6136 45.1915 17.144 44.3205 17.2892 43.2485L11.7533 42.5031ZM11.7533 42.5031L17.2892 43.2485C17.4204 42.2715 17.2906 41.2773 16.9131 40.3667C16.5355 39.4562 15.9236 38.6618 15.1396 38.0644L11.7533 42.5031ZM9.10122 42.2379C10.296 42.3579 11.0275 42.4333 11.5439 42.5254C12.0883 42.6232 11.985 42.679 11.7533 42.5031L15.1396 38.0644C14.2798 37.4083 13.2915 37.1682 12.5322 37.0314C11.7477 36.8919 10.7595 36.7942 9.65676 36.6825L9.10122 42.2379ZM5.81263 41.5177C6.41005 41.8247 6.9963 41.9643 7.4988 42.0481C7.97338 42.1262 8.53451 42.1849 9.10401 42.2407L9.65676 36.6825C9.24326 36.6479 8.83364 36.6014 8.42284 36.5429C8.19951 36.5038 8.24697 36.4899 8.37259 36.5541L5.81263 41.5177ZM3.18288 38.6087C3.67905 39.8659 4.61441 40.9005 5.81542 41.5204L8.37538 36.5569L3.18288 38.6087ZM2.79205 35.2643C2.79205 35.8338 2.79205 36.4005 2.82276 36.8807C2.85626 37.3888 2.93442 37.9862 3.18567 38.6115L8.37538 36.5541C8.42563 36.6853 8.40888 36.7299 8.39492 36.5066C8.37651 36.0928 8.37 35.6785 8.37538 35.2643H2.79205ZM2.79205 31.7357V35.2643H8.37538V31.7357H2.79205ZM3.18288 28.3884C2.97259 28.9429 2.85105 29.527 2.82276 30.1193C2.78926 30.5994 2.79205 31.1662 2.79205 31.7384H8.37538C8.37538 31.0908 8.37538 30.7418 8.39492 30.4906C8.40888 30.2672 8.42563 30.3119 8.37538 30.4431L3.18288 28.3884ZM5.81542 25.4823C4.61542 26.1009 3.68018 27.1333 3.18288 28.3884L8.37538 30.4431L5.81542 25.4823ZM9.1068 24.7565C8.5373 24.8151 7.97617 24.8682 7.50159 24.9519C6.99909 25.0357 6.41284 25.1752 5.81542 25.4823L8.37538 30.4431C8.24976 30.5073 8.20509 30.4934 8.42563 30.4571C8.8364 30.3976 9.24881 30.3501 9.66234 30.3147L9.1068 24.7565ZM11.7589 24.4941C11.9906 24.3182 12.0939 24.374 11.5467 24.4717C11.0303 24.5639 10.2988 24.6392 9.1068 24.7593L9.66234 30.3147C10.7595 30.203 11.7505 30.1081 12.5378 29.9657C13.2943 29.8289 14.2853 29.5889 15.1452 28.9328L11.7589 24.4941ZM11.7589 24.4941L15.1452 28.9328C15.9287 28.3351 16.54 27.5406 16.9171 26.63C17.2942 25.7195 17.4235 24.7254 17.292 23.7487L11.7589 24.4941ZM10.0699 22.431C10.8293 23.3579 11.2927 23.9274 11.5942 24.3601C11.9096 24.8151 11.798 24.7816 11.7589 24.4941L17.292 23.7487C17.1468 22.6767 16.6192 21.8085 16.1781 21.1748C15.7231 20.5187 15.0893 19.751 14.3914 18.8968L10.0699 22.431ZM8.25534 19.5919C8.45913 20.234 8.77459 20.7449 9.07051 21.1608C9.34967 21.5517 9.7098 21.9899 10.0699 22.431L14.3914 18.8968C14.1243 18.5786 13.8665 18.2555 13.6181 17.9225C13.4869 17.741 13.5316 17.7634 13.5735 17.8946L8.25534 19.5919ZM8.45076 15.6752C7.91418 16.9142 7.84476 18.3057 8.25534 19.5919L13.5735 17.8946L8.45076 15.6752ZM10.5389 13.0315C10.1341 13.4363 9.73492 13.8327 9.41667 14.1956C9.01895 14.635 8.69298 15.1343 8.45076 15.6752L13.5735 17.8946C13.5176 18.023 13.473 18.0425 13.6209 17.8722C13.7884 17.6824 14.0313 17.4367 14.4863 16.9789L10.5389 13.0315ZM13.0347 10.5385L10.5389 13.0315L14.4863 16.9789L16.9849 14.4859L13.0347 10.5385ZM15.6756 8.44757C15.1345 8.69065 14.6352 9.01757 14.196 9.41628C13.7975 9.77834 13.4102 10.1526 13.0347 10.5385L16.9849 14.4859C17.4399 14.0281 17.6856 13.7852 17.8754 13.6205C18.0429 13.4698 18.0234 13.5144 17.895 13.5703L15.6756 8.44757ZM19.5951 8.25215C18.308 7.84087 16.9154 7.9103 15.6756 8.44757L17.895 13.5703L19.5951 8.25215ZM22.4286 10.0667C21.9876 9.70661 21.5548 9.34928 21.1612 9.07011C20.6854 8.71686 20.1569 8.44082 19.5951 8.25215L17.895 13.5703C17.7638 13.5284 17.7386 13.4865 17.9229 13.6149C18.1267 13.7629 18.3975 13.9807 18.8972 14.391L22.4286 10.0667ZM24.4945 11.7557C24.782 11.7948 24.8155 11.9064 24.3605 11.591C23.7014 11.1057 23.059 10.5982 22.4342 10.0695L18.8972 14.391C19.7514 15.0889 20.5163 15.7199 21.1724 16.1777C21.8033 16.616 22.6743 17.1436 23.7463 17.2888L24.4945 11.7557ZM24.4945 11.7557L23.7491 17.2888C24.726 17.42 25.7203 17.2902 26.6309 16.9127C27.5414 16.5351 28.3358 15.9232 28.9332 15.1392L24.4945 11.7557ZM24.7597 9.10361C24.6396 10.2984 24.5643 11.0299 24.4721 11.5463C24.3744 12.0907 24.3186 11.9874 24.4945 11.7557L28.9332 15.1392C29.5893 14.2794 29.8293 13.2911 29.9661 12.5346C30.1057 11.7501 30.2062 10.7591 30.3151 9.65915L24.7597 9.10361ZM25.4799 5.81503C25.2156 6.34571 25.0366 6.91475 24.9495 7.50119C24.8713 7.97578 24.8155 8.5369 24.7597 9.1064L30.3151 9.65915C30.3515 9.24584 30.3981 8.83627 30.4547 8.42524C30.4938 8.2019 30.5077 8.25215 30.4435 8.37499L25.4799 5.81503ZM28.3916 3.18249C27.1344 3.67865 26.0999 4.61401 25.4799 5.81503L30.4435 8.37499L28.3916 3.18249ZM31.736 2.79165C31.1665 2.79165 30.5998 2.79165 30.1197 2.82236C29.5274 2.85066 28.9433 2.97219 28.3888 3.18249L30.4463 8.37499C30.3151 8.42524 30.2704 8.40849 30.4938 8.39453C30.745 8.37778 31.094 8.37499 31.7388 8.37499L31.736 2.79165ZM35.2647 2.79165H31.736V8.37499H35.2647V2.79165ZM38.6091 3.18249C38.0547 2.97219 37.4706 2.85066 36.8783 2.82236C36.4037 2.78886 35.837 2.79165 35.2675 2.79165V8.37499C35.9124 8.37499 36.2613 8.37499 36.5126 8.39453C36.7359 8.40849 36.6885 8.42524 36.5573 8.37499L38.6091 3.18249ZM41.5208 5.81503C40.9009 4.61401 39.8663 3.67865 38.6091 3.18249L36.5573 8.37499L41.5208 5.81503ZM41.8754 33.5C41.8754 35.7212 40.993 37.8514 39.4224 39.422C37.8518 40.9926 35.7216 41.875 33.5004 41.875V47.4583C37.2024 47.4583 40.7527 45.9877 43.3704 43.37C45.9881 40.7523 47.4587 37.202 47.4587 33.5H41.8754ZM33.5004 25.125C35.7216 25.125 37.8518 26.0073 39.4224 27.578C40.993 29.1486 41.8754 31.2788 41.8754 33.5H47.4587C47.4587 29.798 45.9881 26.2477 43.3704 23.63C40.7527 21.0123 37.2024 19.5417 33.5004 19.5417V25.125ZM25.1254 33.5C25.1254 31.2788 26.0077 29.1486 27.5784 27.578C29.149 26.0073 31.2792 25.125 33.5004 25.125V19.5417C29.7984 19.5417 26.248 21.0123 23.6304 23.63C21.0127 26.2477 19.542 29.798 19.542 33.5H25.1254ZM33.5004 41.875C31.2792 41.875 29.149 40.9926 27.5784 39.422C26.0077 37.8514 25.1254 35.7212 25.1254 33.5H19.542C19.542 37.202 21.0127 40.7523 23.6304 43.37C26.248 45.9877 29.7984 47.4583 33.5004 47.4583V41.875Z" fill="#076AFF"/>
</g>
</svg>
