<svg width="67" height="67" viewBox="0 0 67 67" fill="none" xmlns="http://www.w3.org/2000/svg">
<g id="material-symbols:stars-outline-rounded">
<path id="Vector" d="M33.4997 41.7354L41.2466 47.5979C41.8049 47.9701 42.3632 47.9822 42.9216 47.6342C43.4799 47.2862 43.6427 46.7855 43.4101 46.1323L40.4788 36.4312L48.0861 30.9875C48.6445 30.5687 48.8073 30.0448 48.5747 29.4158C48.342 28.7867 47.9 28.4731 47.2486 28.475H37.9663L34.8257 18.2854C34.5931 17.634 34.1511 17.3083 33.4997 17.3083C32.8483 17.3083 32.4063 17.634 32.1736 18.2854L29.033 28.475H19.7507C19.0993 28.475 18.6573 28.7895 18.4247 29.4186C18.192 30.0476 18.3549 30.5706 18.9132 30.9875L26.5205 36.4312L23.5893 46.1323C23.3566 46.7837 23.5195 47.2843 24.0778 47.6342C24.6361 47.9841 25.1945 47.972 25.7528 47.5979L33.4997 41.7354ZM33.4997 61.4166C29.6379 61.4166 26.0087 60.6834 22.6122 59.2168C19.2157 57.7503 16.2611 55.7617 13.7486 53.251C11.2361 50.7404 9.24754 47.7859 7.78285 44.3875C6.31815 40.9891 5.58487 37.3599 5.58301 33.5C5.58115 29.64 6.31443 26.0109 7.78285 22.6125C9.25126 19.2141 11.2399 16.2596 13.7486 13.7489C16.2574 11.2383 19.2119 9.2497 22.6122 7.78315C26.0124 6.31659 29.6416 5.58331 33.4997 5.58331C37.3578 5.58331 40.9869 6.31659 44.3872 7.78315C47.7874 9.2497 50.7419 11.2383 53.2507 13.7489C55.7595 16.2596 57.749 19.2141 59.2193 22.6125C60.6896 26.0109 61.4219 29.64 61.4163 33.5C61.4108 37.3599 60.6775 40.9891 59.2165 44.3875C57.7555 47.7859 55.7669 50.7404 53.2507 53.251C50.7345 55.7617 47.78 57.7512 44.3872 59.2196C40.9944 60.688 37.3652 61.4204 33.4997 61.4166ZM33.4997 55.8333C39.6879 55.8333 44.9576 53.6586 49.3089 49.3092C53.6602 44.9598 55.8349 39.69 55.833 33.5C55.8312 27.3099 53.6564 22.0402 49.3089 17.6908C44.9613 13.3414 39.6916 11.1666 33.4997 11.1666C27.3078 11.1666 22.038 13.3423 17.6905 17.6936C13.3429 22.0448 11.1682 27.3136 11.1663 33.5C11.1645 39.6863 13.3401 44.9561 17.6933 49.3092C22.0464 53.6623 27.3152 55.837 33.4997 55.8333Z" fill="#076AFF"/>
</g>
</svg>
