<svg width="45" height="45" viewBox="0 0 45 45" fill="none" xmlns="http://www.w3.org/2000/svg">
<g id="foundation:results-demographics">
<path id="Vector" d="M12.5788 20.9276C11.952 19.6388 11.6262 18.2244 11.6262 16.7912C11.6262 16.0068 11.7396 15.2009 11.9718 14.3306C12.0757 13.9391 12.2062 13.5647 12.3529 13.2015C11.79 12.8942 11.1712 12.7052 10.5075 12.7052C8.04596 12.7052 6.05336 15.024 6.05336 17.8878C6.05336 19.8912 7.03256 21.6251 8.46266 22.4877L2.42591 25.2975C2.04971 25.4744 1.80176 25.8992 1.80176 26.3739V31.1385C1.80176 31.7771 2.24771 32.2946 2.79626 32.2946H6.36431V27.2951C6.36431 25.8384 7.17521 24.5177 8.43386 23.9286L13.0518 21.7781C12.879 21.5032 12.7212 21.2193 12.5788 20.9276ZM27.0616 15.6603H42.403H42.4057C42.8436 15.6603 43.1982 15.3053 43.1982 14.8679V11.9739C43.1982 11.5361 42.8431 11.1815 42.4057 11.1815L42.403 11.1819V11.1797H25.2598C26.0148 12.173 26.5551 13.3123 26.8465 14.5254C26.9433 14.9255 27.0135 15.2994 27.0616 15.6603ZM43.1982 29.8961C43.1982 29.4582 42.8431 29.1036 42.4057 29.1036L42.403 29.1041V29.1018H32.4031V33.1919C32.4031 33.3237 32.3959 33.4538 32.3829 33.582H42.403H42.4057C42.8436 33.582 43.1982 33.227 43.1982 32.7896V29.8961ZM42.4057 20.1428L42.403 20.1432V20.141H26.5248C26.4532 20.3295 26.3776 20.5172 26.2935 20.703C26.1322 21.059 25.9482 21.4043 25.7427 21.7367L30.3723 23.9453C30.7197 24.1167 31.0358 24.3453 31.3074 24.6216H42.403H42.4057C42.8436 24.6216 43.1982 24.2666 43.1982 23.8292V20.9352C43.1982 20.4974 42.8431 20.1428 42.4057 20.1428Z" fill="white"/>
<path id="Vector_2" d="M29.3953 25.9658L24.1973 23.4863L21.9991 22.4378C22.9593 21.833 23.7388 20.8997 24.2491 19.7752C24.6745 18.8379 24.8947 17.8205 24.8948 16.7912C24.8948 16.1846 24.7989 15.6091 24.6644 15.0529C24.0105 12.3605 21.9077 10.3765 19.3832 10.3765C16.9064 10.3765 14.8355 12.2894 14.1416 14.9057C13.9814 15.5056 13.8707 16.1297 13.8707 16.7908C13.8707 17.9392 14.1389 19.0093 14.5947 19.9408C15.1217 21.0208 15.9024 21.9113 16.8528 22.4837L14.7477 23.4638L9.38105 25.9631C8.9144 26.1814 8.6084 26.7074 8.6084 27.2947V33.1919C8.6084 33.9821 9.1592 34.6234 9.83915 34.6234H28.9268C29.6067 34.6234 30.1575 33.9826 30.1575 33.1919V27.2951C30.1584 26.7097 29.8569 26.189 29.3953 25.9658Z" fill="white"/>
</g>
</svg>
