<svg width="45" height="45" viewBox="0 0 45 45" fill="none" xmlns="http://www.w3.org/2000/svg">
<g id="material-symbols-light:nest-connect-outline">
<path id="Vector" d="M22.4944 34.6875C24.8281 34.6875 26.8188 33.865 28.4663 32.22C30.1138 30.575 30.9375 28.585 30.9375 26.25V18.75C30.9375 16.415 30.1156 14.425 28.4719 12.78C26.8269 11.135 24.8381 10.3125 22.5056 10.3125C20.1731 10.3125 18.1825 11.135 16.5338 12.78C14.885 14.425 14.0613 16.415 14.0625 18.75V26.25C14.0625 28.585 14.885 30.575 16.53 32.22C18.1725 33.865 20.1606 34.6875 22.4944 34.6875ZM22.4944 32.8125C20.6719 32.8125 19.1231 32.175 17.8481 30.9C16.5744 29.6212 15.9375 28.0712 15.9375 26.25V18.75C15.9375 16.9275 16.5763 15.3775 17.8538 14.1C19.13 12.825 20.68 12.1875 22.5038 12.1875C24.3275 12.1875 25.8769 12.825 27.1519 14.1C28.4269 15.375 29.0638 16.925 29.0625 18.75V26.25C29.0625 28.0725 28.4237 29.6225 27.1462 30.9C25.87 32.175 24.32 32.8125 22.4963 32.8125M22.5 18.3187C22.8875 18.3187 23.225 18.175 23.5125 17.8875C23.8 17.6 23.9438 17.2625 23.9438 16.875C23.9438 16.4875 23.8 16.15 23.5125 15.8625C23.225 15.575 22.8875 15.4312 22.5 15.4312C22.1125 15.4312 21.775 15.575 21.4875 15.8625C21.2 16.15 21.0562 16.4875 21.0562 16.875C21.0562 17.2625 21.2 17.6 21.4875 17.8875C21.775 18.175 22.1125 18.3187 22.5 18.3187ZM10.53 41.25C9.69625 41.25 8.98312 40.9531 8.39062 40.3594C7.79812 39.7656 7.50125 39.0537 7.5 38.2237V6.77812C7.5 5.94562 7.79687 5.23312 8.39062 4.64062C8.98437 4.04812 9.69687 3.75125 10.5281 3.75H34.4719C35.3044 3.75 36.0169 4.04687 36.6094 4.64062C37.2019 5.23437 37.4988 5.94625 37.5 6.77625V38.22C37.5 39.0525 37.2031 39.765 36.6094 40.3575C36.0156 40.95 35.3031 41.2469 34.4719 41.2481L10.53 41.25ZM10.53 39.375H34.4719C34.8081 39.375 35.0844 39.2669 35.3006 39.0506C35.5169 38.8344 35.625 38.5581 35.625 38.2219V6.77812C35.625 6.44187 35.5169 6.16562 35.3006 5.94937C35.0844 5.73312 34.8081 5.625 34.4719 5.625H10.5281C10.1919 5.625 9.91562 5.73312 9.69937 5.94937C9.48312 6.16562 9.375 6.4425 9.375 6.78V38.2219C9.375 38.5581 9.48312 38.8344 9.69937 39.0506C9.91562 39.2669 10.1925 39.375 10.53 39.375Z" fill="white"/>
</g>
</svg>
