<svg width="237" height="23" viewBox="0 0 237 23" fill="none" xmlns="http://www.w3.org/2000/svg">
<g id="text 1" clip-path="url(#clip0_1_4696)">
<path id="Vector" d="M4.60355 10.065H3.41092V15.3921C3.45712 15.9495 3.28955 16.5037 2.94135 16.9451C2.78251 17.1123 2.58882 17.2436 2.37361 17.3299C2.1584 17.4162 1.92679 17.4555 1.69471 17.445C1.46063 17.456 1.22705 17.415 1.01126 17.3249C0.795463 17.2348 0.602978 17.098 0.448058 16.9246C0.119375 16.4838 -0.0396902 15.942 -0.000734006 15.3962V2.62768C-0.0532228 2.05934 0.124562 1.49362 0.493769 1.05415C0.939436 0.690079 1.51313 0.514764 2.08948 0.566523H7.63705C8.29351 0.561738 8.94971 0.593208 9.6026 0.660775C10.1103 0.715491 10.6064 0.846776 11.0736 1.05005C11.5998 1.26659 12.0761 1.58578 12.474 1.98843C12.8798 2.39375 13.1954 2.87802 13.4007 3.41034C13.6136 3.95826 13.7207 4.54057 13.7165 5.12729C13.7734 6.21721 13.3911 7.28512 12.6527 8.09814C11.7617 8.92828 10.6382 9.47508 9.42807 9.66756C10.0882 10.0273 10.6756 10.5038 11.1609 11.0731C11.7096 11.6882 12.2032 12.349 12.6361 13.0482C13.02 13.6536 13.3575 14.2864 13.6459 14.9413C13.8295 15.306 13.9516 15.6976 14.0074 16.101C14.0024 16.3338 13.9287 16.5602 13.7955 16.7525C13.6517 16.9707 13.4507 17.1463 13.2137 17.2606C12.9554 17.3866 12.6708 17.4512 12.3826 17.4491C12.0411 17.4602 11.7045 17.3672 11.4185 17.1828C11.1533 17.0025 10.9249 16.7745 10.7454 16.5108C10.5584 16.2403 10.3049 15.8387 9.98075 15.3101L8.59697 13.0687C8.21904 12.4031 7.77945 11.7735 7.28384 11.1878C6.96385 10.8081 6.56022 10.5054 6.10368 10.3027C5.6227 10.1333 5.11415 10.0527 4.60355 10.065ZM6.55247 3.09891H3.40677V7.66378H6.46105C7.15967 7.67748 7.85737 7.6073 8.5388 7.4548C9.02992 7.35332 9.47707 7.10423 9.81869 6.7418C10.1349 6.34536 10.2918 5.84783 10.2592 5.34447C10.2689 4.90848 10.1443 4.47984 9.9018 4.11515C9.66149 3.75932 9.3163 3.48471 8.91279 3.32839C8.14541 3.11757 7.34722 3.03721 6.55247 3.09072V3.09891Z" fill="#234CA1"/>
<path id="Vector_2" d="M19.0485 0.565682H23.4948C24.496 0.549228 25.4954 0.655219 26.4702 0.881215C27.3061 1.09513 28.0782 1.5025 28.7224 2.06955C30.4761 3.54746 31.3529 5.79712 31.3529 8.8185C31.3615 9.73488 31.2723 10.6496 31.0869 11.5476C30.9229 12.3257 30.6428 13.0755 30.2558 13.7726C29.8857 14.4359 29.4085 15.0351 28.8429 15.547C28.4019 15.9397 27.9031 16.2643 27.3636 16.5099C26.8131 16.755 26.2317 16.926 25.6349 17.018C24.9474 17.1213 24.2526 17.1707 23.5572 17.1656H19.1191C18.6357 17.1946 18.1529 17.0985 17.7187 16.8869C17.417 16.7163 17.1959 16.435 17.1037 16.1043C16.9965 15.6768 16.9476 15.2372 16.9583 14.7971V2.62275C16.9058 2.05441 17.0835 1.48868 17.4528 1.04921C17.8995 0.687401 18.4728 0.513687 19.0485 0.565682ZM20.3699 3.2251V14.4938H22.9546C23.5198 14.4938 23.9644 14.4938 24.2885 14.4488C24.6292 14.415 24.9643 14.3393 25.2859 14.2234C25.6147 14.1111 25.9192 13.9387 26.1834 13.7153C27.3276 12.7646 27.8983 11.1255 27.8955 8.79801C27.8955 7.15892 27.6448 5.9296 27.1434 5.11006C26.7475 4.37857 26.0853 3.82218 25.29 3.55293C24.4235 3.31312 23.5261 3.19991 22.6263 3.21691H20.3699V3.2251Z" fill="#234CA1"/>
<path id="Vector_3" d="M47.1441 12.1962C47.1575 13.1542 46.8843 14.0948 46.3588 14.9007C45.7925 15.7344 44.9927 16.3879 44.0566 16.7815C42.9218 17.2599 41.6959 17.4919 40.4621 17.4617C39.0328 17.5161 37.6145 17.1951 36.3523 16.5315C35.5951 16.0926 34.9554 15.4815 34.4865 14.7491C34.0414 14.1092 33.7919 13.3569 33.7676 12.5814C33.7659 12.384 33.8045 12.1883 33.881 12.0059C33.9576 11.8236 34.0705 11.6583 34.2132 11.5199C34.3559 11.3815 34.5254 11.2728 34.7116 11.2003C34.8977 11.1278 35.0968 11.093 35.2969 11.098C35.6348 11.0903 35.9625 11.2122 36.2111 11.4381C36.4982 11.7219 36.7157 12.0667 36.8469 12.4461C37.0276 12.9113 37.2604 13.3553 37.5408 13.7697C37.8114 14.1441 38.1729 14.4456 38.5922 14.6466C39.1492 14.8979 39.7586 15.0158 40.3707 14.9908C41.2471 15.0292 42.1123 14.7846 42.8349 14.2942C43.1254 14.1036 43.3639 13.8454 43.5291 13.5424C43.6944 13.2394 43.7814 12.9008 43.7824 12.5568C43.7924 12.3104 43.7523 12.0646 43.6645 11.8338C43.5768 11.603 43.443 11.3918 43.2712 11.2127C42.9005 10.8505 42.4475 10.5808 41.9498 10.4259C41.3957 10.2456 40.6741 10.0531 39.7848 9.84817C38.7414 9.62326 37.7237 9.29515 36.7471 8.86882C35.9783 8.53136 35.3102 8.00511 34.8065 7.34036C34.3099 6.63607 34.0578 5.79228 34.0876 4.935C34.0744 4.06549 34.339 3.21392 34.8439 2.50095C35.3971 1.75489 36.1599 1.18505 37.038 0.861863C38.1163 0.458479 39.2634 0.263706 40.4164 0.288184C41.325 0.269862 42.2304 0.398597 43.0967 0.66927C43.7813 0.886359 44.4184 1.2283 44.975 1.67731C45.4258 2.03995 45.7975 2.48877 46.0679 2.99677C46.2865 3.41401 46.4045 3.87537 46.4128 4.34493C46.4169 4.74419 46.2686 5.13038 45.9972 5.42673C45.8658 5.58012 45.7015 5.70273 45.516 5.78566C45.3306 5.86859 45.1287 5.90975 44.9251 5.90616C44.6022 5.92802 44.2833 5.82516 44.0358 5.61933C43.7689 5.33812 43.5462 5.01905 43.3751 4.67275C43.1163 4.10167 42.7349 3.59277 42.2573 3.18118C41.8279 2.82877 41.1353 2.65257 40.1796 2.65257C39.4252 2.61578 38.6786 2.8167 38.0478 3.22624C37.8029 3.3682 37.5984 3.56882 37.4531 3.8095C37.3078 4.05019 37.2265 4.32315 37.2167 4.60309C37.2091 4.91194 37.3056 5.21455 37.491 5.46361C37.6944 5.72271 37.9524 5.93521 38.2473 6.08646C38.5578 6.25541 38.885 6.39272 39.2238 6.49623C39.5521 6.59458 40.0964 6.73801 40.8527 6.9265C41.7238 7.12392 42.5837 7.36601 43.4291 7.65179C44.1263 7.88172 44.7878 8.20579 45.3947 8.61476C45.9214 8.98674 46.3491 9.47879 46.6413 10.049C46.9844 10.7134 47.1571 11.4507 47.1441 12.1962Z" fill="#234CA1"/>
<path id="Vector_4" d="M62.4528 10.6999H59.3279V15.4C59.3671 15.9511 59.195 16.4965 58.8458 16.9285C58.6875 17.0925 58.497 17.2231 58.2859 17.3123C58.0748 17.4015 57.8475 17.4475 57.6179 17.4475C57.3882 17.4475 57.161 17.4015 56.9499 17.3123C56.7388 17.2231 56.5483 17.0925 56.3899 16.9285C56.0474 16.5 55.8799 15.9606 55.9204 15.4164V2.62332C55.8919 2.33831 55.923 2.05057 56.0116 1.77784C56.1002 1.50511 56.2445 1.25315 56.4356 1.03749C56.9033 0.682221 57.4889 0.512624 58.0771 0.562157H62.4528C63.4575 0.531057 64.4621 0.630251 65.4406 0.857194C66.1009 1.03184 66.712 1.35278 67.2274 1.79558C67.7299 2.23607 68.1212 2.78609 68.3702 3.40189C68.64 4.08314 68.7726 4.80966 68.7608 5.5409C68.7608 7.23189 68.2331 8.51312 67.1776 9.38457C66.1138 10.2656 64.543 10.6999 62.4528 10.6999ZM61.6217 3.09046H59.3237V8.16344H61.6217C62.3024 8.18006 62.9818 8.09579 63.6371 7.91347C64.132 7.78133 64.5697 7.49359 64.8838 7.09393C65.1797 6.65606 65.3253 6.13612 65.2993 5.61056C65.3282 4.95168 65.0922 4.30819 64.6427 3.81985C64.1565 3.33632 63.1468 3.09046 61.6259 3.09046H61.6217Z" fill="#234CA1"/>
<path id="Vector_5" d="M74.4999 12.9904V15.572C74.54 16.0813 74.3792 16.5863 74.0511 16.9816C73.9061 17.1353 73.7296 17.2569 73.5332 17.3381C73.3369 17.4194 73.1253 17.4585 72.9125 17.4529C72.7029 17.4585 72.4947 17.4188 72.3023 17.3367C72.1099 17.2546 71.9381 17.132 71.7988 16.9775C71.4821 16.5784 71.3266 16.0776 71.3625 15.572V6.96678C71.3625 5.57902 71.8722 4.88377 72.8917 4.88104C73.1058 4.86253 73.3213 4.8975 73.5181 4.98272C73.7149 5.06795 73.8868 5.20068 74.0178 5.36867C74.2793 5.8032 74.4104 6.30193 74.396 6.80698C74.6942 6.26554 75.0851 5.77895 75.5512 5.36867C76.0021 5.02618 76.5619 4.8533 77.1303 4.88104C77.8012 4.88533 78.4606 5.05282 79.0501 5.36867C79.3152 5.47214 79.5441 5.64911 79.7093 5.87819C79.8745 6.10726 79.9689 6.37862 79.981 6.65945C79.9862 6.83389 79.9537 7.00743 79.8856 7.16852C79.8176 7.32961 79.7155 7.47456 79.5862 7.59373C79.3601 7.82143 79.0532 7.95366 78.7302 7.96254C78.4462 7.92301 78.1675 7.85293 77.8991 7.75355C77.523 7.62515 77.1292 7.55465 76.7314 7.54456C76.3249 7.52698 75.9254 7.65344 75.6052 7.90106C75.2847 8.18498 75.0503 8.55093 74.9279 8.95828C74.752 9.50104 74.6404 10.0621 74.5955 10.6301C74.529 11.2735 74.4999 12.0603 74.4999 12.9904Z" fill="#234CA1"/>
<path id="Vector_6" d="M89.854 11.925H83.7205C83.7095 12.5674 83.8518 13.2032 84.136 13.7813C84.3807 14.2875 84.7671 14.714 85.2497 15.0106C85.7123 15.2849 86.2433 15.4268 86.7831 15.4204C87.131 15.4232 87.4778 15.3791 87.8136 15.2893C88.1339 15.1996 88.4382 15.0614 88.7154 14.8795C88.9979 14.7004 89.2673 14.5018 89.5215 14.2853C89.7667 14.0763 90.0825 13.7854 90.4731 13.4248C90.6708 13.2772 90.9155 13.2045 91.1629 13.2199C91.4477 13.2063 91.727 13.3001 91.9442 13.4822C92.0464 13.5755 92.1263 13.6901 92.178 13.8177C92.2298 13.9453 92.2521 14.0826 92.2434 14.2198C92.2192 14.5689 92.1047 14.906 91.9109 15.1991C91.6482 15.6181 91.3069 15.9839 90.9053 16.2768C90.3945 16.6519 89.8245 16.9412 89.2182 17.1332C88.4622 17.371 87.672 17.4859 86.8786 17.4734C84.8618 17.4734 83.2966 16.9065 82.1829 15.7728C81.0693 14.6391 80.5152 13.1025 80.5207 11.1629C80.5141 10.2977 80.6545 9.43754 80.9363 8.61817C81.1904 7.87159 81.601 7.18608 82.1414 6.60619C82.6846 6.03631 83.3526 5.59625 84.0945 5.31951C84.9157 5.01239 85.7884 4.86085 86.6667 4.87286C87.7691 4.84146 88.8593 5.10634 89.8207 5.63913C90.6522 6.10229 91.3347 6.78672 91.7904 7.61424C92.2124 8.36752 92.438 9.21236 92.447 10.0729C92.447 10.8514 92.2226 11.3555 91.7696 11.5849C91.1667 11.8442 90.5107 11.9607 89.854 11.925ZM83.7205 10.1671H89.4052C89.4029 9.30096 89.096 8.46242 88.5367 7.79454C88.2816 7.53249 87.973 7.32683 87.6313 7.1912C87.2896 7.05557 86.9226 6.99305 86.5545 7.00777C86.1927 6.99849 85.8332 7.06699 85.5009 7.20852C85.1687 7.35004 84.8717 7.5612 84.6305 7.82732C84.079 8.48993 83.7597 9.31076 83.7205 10.1671Z" fill="#234CA1"/>
<path id="Vector_7" d="M106.323 13.6219C106.309 14.0534 106.189 14.4752 105.974 14.8512C105.704 15.3329 105.341 15.7576 104.906 16.101C104.37 16.5301 103.757 16.8542 103.098 17.0558C102.303 17.3071 101.472 17.4289 100.638 17.4164C98.6986 17.4164 97.186 16.8591 96.1001 15.7445C95.0072 14.6299 94.4711 13.1383 94.4711 11.2657C94.4485 10.1023 94.7033 8.94993 95.215 7.90144C95.6909 6.95193 96.4452 6.16533 97.38 5.6436C98.4144 5.0867 99.5803 4.81092 100.758 4.84454C101.518 4.83695 102.274 4.9561 102.994 5.19695C103.616 5.40222 104.199 5.70828 104.719 6.10255C105.149 6.42879 105.515 6.83018 105.799 7.28678C106.027 7.63769 106.156 8.04224 106.173 8.45874C106.176 8.63541 106.141 8.81068 106.069 8.97261C105.997 9.13455 105.891 9.27935 105.757 9.39712C105.482 9.65198 105.117 9.79026 104.739 9.78229C104.507 9.79139 104.278 9.72201 104.091 9.58561C103.869 9.39931 103.673 9.18429 103.509 8.94637C103.196 8.4448 102.788 8.00673 102.308 7.65559C101.7 7.28648 100.976 7.14783 100.271 7.2654C99.5662 7.38297 98.9288 7.74876 98.477 8.29483C97.8744 9.15029 97.5817 10.181 97.6459 11.2206C97.639 11.7624 97.7133 12.3023 97.8662 12.8228C97.9965 13.2681 98.2108 13.6851 98.4978 14.0521C98.7625 14.3874 99.1044 14.6557 99.4951 14.8348C99.8998 15.0148 100.339 15.1057 100.783 15.1011C101.352 15.1162 101.912 14.9667 102.396 14.6709C102.892 14.3316 103.299 13.8807 103.584 13.3555C103.742 13.0498 103.951 12.7727 104.203 12.536C104.431 12.3345 104.729 12.2286 105.034 12.2409C105.216 12.2372 105.395 12.2739 105.56 12.3484C105.725 12.423 105.871 12.5333 105.986 12.6712C106.212 12.9368 106.332 13.275 106.323 13.6219Z" fill="#234CA1"/>
<path id="Vector_8" d="M110.644 3.44335C110.233 3.45019 109.834 3.30389 109.527 3.03358C109.369 2.89276 109.245 2.71875 109.164 2.52441C109.084 2.33008 109.048 2.12037 109.061 1.91079C109.055 1.7069 109.095 1.50421 109.177 1.31721C109.26 1.1302 109.383 0.963492 109.539 0.829001C109.842 0.558151 110.239 0.411606 110.648 0.419228C111.044 0.414719 111.428 0.551545 111.729 0.804415C111.889 0.943505 112.015 1.11711 112.096 1.3118C112.178 1.5065 112.213 1.71706 112.198 1.92719C112.21 2.13506 112.175 2.34289 112.095 2.53564C112.015 2.7284 111.893 2.90127 111.737 3.04177C111.437 3.30682 111.047 3.45027 110.644 3.44335ZM112.194 6.63547V15.5726C112.232 16.0804 112.071 16.583 111.746 16.9781C111.601 17.133 111.425 17.2556 111.229 17.3376C111.032 17.4196 110.82 17.4591 110.607 17.4535C110.395 17.4599 110.185 17.4194 109.992 17.335C109.798 17.2506 109.627 17.1245 109.489 16.9658C109.183 16.567 109.035 16.0715 109.074 15.5726V6.72562C109.032 6.23022 109.18 5.73737 109.489 5.34469C109.63 5.19188 109.803 5.07127 109.996 4.99129C110.189 4.91131 110.398 4.87389 110.607 4.88164C110.819 4.87601 111.03 4.91432 111.226 4.99408C111.422 5.07384 111.599 5.19327 111.746 5.34469C112.062 5.6999 112.223 6.16372 112.194 6.63547Z" fill="#234CA1"/>
<path id="Vector_9" d="M125.524 13.4252C125.562 14.2076 125.338 14.9805 124.888 15.6257C124.438 16.271 123.785 16.7531 123.031 16.9984C122.067 17.3344 121.049 17.4941 120.027 17.4696C119.032 17.4954 118.043 17.3226 117.118 16.9615C116.421 16.6999 115.807 16.2601 115.339 15.6871C114.983 15.2505 114.782 14.7107 114.766 14.1505C114.763 13.9881 114.794 13.8268 114.857 13.6767C114.92 13.5266 115.013 13.3908 115.131 13.2777C115.253 13.1575 115.398 13.0634 115.559 13.0013C115.719 12.9392 115.89 12.9106 116.062 12.9171C116.336 12.898 116.607 12.983 116.819 13.1547C117.022 13.3501 117.193 13.5754 117.326 13.8227C117.6 14.3218 117.997 14.7446 118.481 15.052C119.042 15.3508 119.676 15.4925 120.313 15.4618C120.859 15.4847 121.399 15.3416 121.859 15.052C122.033 14.9573 122.179 14.8209 122.284 14.6553C122.39 14.4898 122.451 14.3006 122.462 14.1054C122.478 13.8696 122.429 13.6337 122.318 13.424C122.207 13.2143 122.04 13.0389 121.834 12.9171C121.18 12.5822 120.48 12.342 119.757 12.2041C118.858 12.0008 117.977 11.7268 117.122 11.3845C116.497 11.1314 115.941 10.7386 115.497 10.2372C115.086 9.74466 114.87 9.12122 114.89 8.48334C114.893 7.85618 115.089 7.24454 115.451 6.72952C115.867 6.1432 116.444 5.68559 117.114 5.41005C117.95 5.06172 118.853 4.89405 119.761 4.91832C120.497 4.9088 121.232 4.99281 121.946 5.16829C122.519 5.30411 123.067 5.52962 123.567 5.83622C123.958 6.0766 124.294 6.39313 124.556 6.7664C124.766 7.05837 124.884 7.40453 124.897 7.76214C124.903 7.92458 124.874 8.0864 124.811 8.23687C124.749 8.38734 124.655 8.52303 124.535 8.63496C124.251 8.87589 123.883 8.99793 123.509 8.97508C123.208 8.98438 122.914 8.88859 122.678 8.70463C122.391 8.45853 122.131 8.1839 121.901 7.88508C121.676 7.59054 121.393 7.34382 121.07 7.15978C120.664 6.96045 120.213 6.86732 119.761 6.88932C119.265 6.87102 118.774 6.99486 118.348 7.24584C118.183 7.33194 118.044 7.45959 117.946 7.61579C117.847 7.77199 117.792 7.95115 117.787 8.13504C117.782 8.29493 117.817 8.45358 117.889 8.59667C117.962 8.73975 118.07 8.86276 118.202 8.95458C118.539 9.19223 118.916 9.36722 119.316 9.4709C119.781 9.60612 120.426 9.77413 121.244 9.97082C122.07 10.1473 122.871 10.4225 123.629 10.7904C124.181 11.0609 124.661 11.4553 125.03 11.9418C125.351 12.3717 125.524 12.8914 125.524 13.4252Z" fill="#234CA1"/>
<path id="Vector_10" d="M129.763 3.44335C129.352 3.45019 128.953 3.30389 128.646 3.03358C128.488 2.89276 128.364 2.71875 128.283 2.52441C128.203 2.33008 128.168 2.12037 128.18 1.91079C128.174 1.7069 128.214 1.50421 128.297 1.31721C128.379 1.1302 128.503 0.963492 128.658 0.829001C128.962 0.558151 129.358 0.411606 129.768 0.419228C130.163 0.414719 130.547 0.551545 130.848 0.804415C131.008 0.943505 131.134 1.11711 131.216 1.3118C131.297 1.5065 131.332 1.71706 131.318 1.92719C131.329 2.13506 131.294 2.34289 131.214 2.53564C131.134 2.7284 131.012 2.90127 130.856 3.04177C130.557 3.30717 130.166 3.45068 129.763 3.44335ZM131.313 6.63547V15.5726C131.351 16.0804 131.19 16.583 130.865 16.9781C130.72 17.133 130.544 17.2556 130.348 17.3376C130.151 17.4196 129.939 17.4591 129.726 17.4535C129.515 17.4599 129.304 17.4194 129.111 17.335C128.917 17.2506 128.746 17.1245 128.608 16.9658C128.302 16.567 128.154 16.0715 128.193 15.5726V6.72562C128.151 6.23022 128.299 5.73737 128.608 5.34469C128.749 5.19188 128.922 5.07127 129.115 4.99129C129.308 4.91131 129.517 4.87389 129.726 4.88164C129.938 4.87601 130.149 4.91432 130.345 4.99408C130.541 5.07384 130.718 5.19327 130.865 5.34469C131.181 5.6999 131.342 6.16372 131.313 6.63547Z" fill="#234CA1"/>
<path id="Vector_11" d="M146.29 11.1674C146.299 12.0358 146.151 12.8989 145.854 13.7162C145.585 14.46 145.156 15.1379 144.598 15.7036C144.039 16.2694 143.363 16.7096 142.616 16.9944C141.791 17.3033 140.914 17.4549 140.032 17.441C139.157 17.4547 138.287 17.3003 137.472 16.9862C136.731 16.694 136.061 16.253 135.502 15.6913C134.948 15.1222 134.523 14.4433 134.256 13.6998C133.677 12.043 133.677 10.2427 134.256 8.58586C134.523 7.84217 134.948 7.16323 135.502 6.59436C136.06 6.03531 136.733 5.60075 137.476 5.31997C139.137 4.72017 140.96 4.72017 142.621 5.31997C143.369 5.60375 144.046 6.04357 144.607 6.60935C145.167 7.17513 145.596 7.85353 145.866 8.59815C146.164 9.42211 146.308 10.2927 146.29 11.1674ZM143.144 11.1674C143.211 10.1211 142.918 9.08306 142.313 8.22115C142.047 7.88037 141.702 7.60707 141.308 7.42392C140.913 7.24077 140.48 7.15305 140.044 7.16805C139.468 7.1574 138.902 7.32192 138.424 7.63928C137.93 7.98499 137.554 8.46899 137.343 9.02841C136.842 10.4045 136.842 11.9099 137.343 13.2859C137.556 13.8407 137.927 14.323 138.411 14.6751C138.892 15.0003 139.465 15.1681 140.048 15.1545C140.485 15.169 140.918 15.0807 141.313 14.8968C141.707 14.7129 142.052 14.4388 142.317 14.0973C142.918 13.2398 143.21 12.2079 143.144 11.1674Z" fill="#234CA1"/>
<path id="Vector_12" d="M151.609 6.58976V6.96265C152.086 6.31046 152.703 5.77032 153.416 5.38092C154.116 5.03462 154.89 4.86163 155.673 4.87691C156.445 4.86278 157.208 5.0463 157.888 5.40961C158.523 5.74736 159.034 6.27535 159.346 6.91757C159.559 7.29913 159.7 7.71567 159.762 8.14689C159.83 8.70289 159.861 9.26281 159.853 9.82285V15.5597C159.895 16.0626 159.747 16.5631 159.438 16.9652C159.297 17.1208 159.124 17.244 158.93 17.3261C158.736 17.4083 158.527 17.4473 158.316 17.4405C158.101 17.4471 157.888 17.4068 157.691 17.3225C157.494 17.2382 157.319 17.112 157.177 16.9529C156.863 16.557 156.708 16.0611 156.741 15.5597V10.417C156.789 9.61584 156.646 8.81467 156.325 8.07723C156.048 7.53087 155.476 7.25769 154.609 7.25769C154.059 7.25473 153.522 7.4272 153.08 7.74941C152.611 8.0876 152.258 8.55961 152.07 9.10166C151.876 9.94814 151.8 10.8165 151.841 11.6832V15.5556C151.882 16.0636 151.724 16.5676 151.401 16.9652C151.255 17.1194 151.078 17.2413 150.881 17.3225C150.684 17.4038 150.472 17.4426 150.258 17.4364C150.048 17.4417 149.838 17.4006 149.646 17.3163C149.453 17.2319 149.282 17.1064 149.145 16.9488C148.831 16.5529 148.675 16.057 148.708 15.5556V6.62663C148.671 6.15452 148.81 5.68516 149.099 5.30717C149.233 5.16139 149.399 5.04681 149.583 4.9717C149.768 4.89659 149.967 4.86282 150.167 4.87281C150.429 4.8703 150.687 4.93678 150.915 5.0654C151.146 5.20367 151.332 5.40414 151.451 5.64318C151.579 5.94194 151.633 6.26635 151.609 6.58976Z" fill="#234CA1"/>
<path id="Vector_13" d="M176.255 17.1665H171.11C170.825 17.194 170.537 17.1646 170.264 17.0801C169.99 16.9957 169.737 16.8578 169.519 16.6747C169.161 16.2316 168.99 15.6696 169.041 15.1053V2.62366C168.987 2.05475 169.16 1.48766 169.523 1.04193C169.965 0.68376 170.532 0.511531 171.102 0.562495H176.558C177.253 0.555988 177.948 0.605331 178.636 0.71002C179.195 0.797352 179.733 0.98929 180.219 1.27551C180.62 1.50871 180.976 1.8097 181.27 2.16471C181.573 2.51723 181.811 2.91946 181.973 3.35306C182.139 3.79349 182.222 4.26006 182.218 4.72989C182.218 6.38946 181.387 7.59829 179.687 8.37686C181.906 9.07347 183.011 10.4257 183.011 12.4295C183.024 13.3171 182.772 14.1889 182.288 14.9373C181.822 15.667 181.14 16.2388 180.335 16.5764C179.768 16.8036 179.173 16.9539 178.565 17.0231C177.799 17.1242 177.027 17.1722 176.255 17.1665ZM172.452 3.0908V7.38111H175.577C176.243 7.40612 176.908 7.32588 177.547 7.14345C178.006 6.98758 178.387 6.66328 178.611 6.23784C178.803 5.91521 178.902 5.54673 178.898 5.17243C178.898 4.3365 178.596 3.77921 177.992 3.50057C177.107 3.18062 176.165 3.04121 175.224 3.0908H172.452ZM176.001 9.79468H172.452V14.6546H176.118C178.425 14.6546 179.578 13.835 179.575 12.1959C179.604 11.8407 179.536 11.4843 179.378 11.1637C179.22 10.8431 178.978 10.57 178.677 10.3724C178.084 9.98726 177.192 9.79468 176.001 9.79468Z" fill="#234CA1"/>
<path id="Vector_14" d="M187.35 3.44335C186.939 3.45019 186.54 3.30389 186.233 3.03358C186.075 2.89276 185.951 2.71875 185.87 2.52441C185.79 2.33008 185.755 2.12037 185.767 1.91079C185.761 1.7069 185.801 1.50421 185.883 1.31721C185.966 1.1302 186.09 0.963492 186.245 0.829001C186.549 0.558151 186.945 0.411606 187.355 0.419228C187.75 0.414719 188.134 0.551545 188.435 0.804415C188.595 0.943505 188.721 1.11711 188.803 1.3118C188.884 1.5065 188.919 1.71706 188.905 1.92719C188.916 2.13506 188.881 2.34289 188.801 2.53564C188.721 2.7284 188.599 2.90127 188.443 3.04177C188.144 3.30717 187.753 3.45068 187.35 3.44335ZM188.9 6.63547V15.5726C188.938 16.0804 188.777 16.583 188.452 16.9781C188.307 17.133 188.131 17.2556 187.935 17.3376C187.738 17.4196 187.526 17.4591 187.313 17.4535C187.102 17.4599 186.891 17.4194 186.698 17.335C186.504 17.2506 186.333 17.1245 186.195 16.9658C185.889 16.567 185.741 16.0715 185.78 15.5726V6.72562C185.738 6.23022 185.886 5.73737 186.195 5.34469C186.336 5.19188 186.509 5.07127 186.702 4.99129C186.895 4.91131 187.104 4.87389 187.313 4.88164C187.525 4.87601 187.736 4.91432 187.932 4.99408C188.128 5.07384 188.305 5.19327 188.452 5.34469C188.768 5.6999 188.929 6.16372 188.9 6.63547Z" fill="#234CA1"/>
<path id="Vector_15" d="M192.137 15.5721V2.16435C192.101 1.66188 192.248 1.16311 192.553 0.758836C192.693 0.60149 192.868 0.477143 193.063 0.394895C193.259 0.312647 193.471 0.274581 193.683 0.283498C193.898 0.275058 194.111 0.312856 194.309 0.394245C194.508 0.475634 194.685 0.598653 194.83 0.754734C195.148 1.15497 195.303 1.65738 195.266 2.16435V15.5721C195.305 16.0799 195.147 16.5832 194.826 16.9817C194.681 17.1364 194.504 17.2585 194.307 17.3398C194.109 17.4211 193.897 17.4597 193.683 17.453C193.472 17.4594 193.262 17.4189 193.068 17.3345C192.875 17.2501 192.703 17.124 192.565 16.9653C192.255 16.5683 192.102 16.0725 192.137 15.5721Z" fill="#234CA1"/>
<path id="Vector_16" d="M198.504 15.5721V2.16435C198.467 1.66188 198.614 1.16311 198.919 0.758836C199.06 0.60149 199.234 0.477143 199.43 0.394895C199.625 0.312647 199.837 0.274581 200.049 0.283498C200.264 0.275335 200.477 0.313261 200.675 0.394633C200.874 0.476004 201.051 0.598873 201.196 0.754734C201.514 1.15497 201.67 1.65738 201.633 2.16435V15.5721C201.671 16.0799 201.514 16.5832 201.192 16.9817C201.047 17.1364 200.87 17.2585 200.673 17.3398C200.476 17.4211 200.263 17.4597 200.049 17.453C199.838 17.4594 199.628 17.4189 199.434 17.3345C199.241 17.2501 199.069 17.124 198.932 16.9653C198.621 16.5683 198.468 16.0725 198.504 15.5721Z" fill="#234CA1"/>
<path id="Vector_17" d="M206.47 3.44335C206.058 3.45019 205.659 3.30389 205.352 3.03358C205.194 2.89276 205.07 2.71875 204.989 2.52441C204.909 2.33008 204.874 2.12037 204.886 1.91079C204.88 1.7069 204.92 1.50421 205.003 1.31721C205.085 1.1302 205.209 0.963492 205.364 0.829001C205.668 0.558151 206.064 0.411606 206.474 0.419228C206.869 0.414719 207.253 0.551545 207.554 0.804415C207.715 0.943505 207.84 1.11711 207.922 1.3118C208.003 1.5065 208.038 1.71706 208.024 1.92719C208.035 2.13506 208 2.34289 207.92 2.53564C207.84 2.7284 207.718 2.90127 207.562 3.04177C207.263 3.30789 206.872 3.4515 206.47 3.44335ZM208.024 6.63547V15.5726C208.061 16.0804 207.9 16.583 207.575 16.9781C207.431 17.133 207.254 17.2556 207.058 17.3376C206.861 17.4196 206.65 17.4591 206.436 17.4535C206.225 17.4599 206.015 17.4194 205.821 17.335C205.628 17.2506 205.456 17.1245 205.318 16.9658C205.012 16.567 204.864 16.0715 204.903 15.5726V6.72562C204.861 6.23022 205.009 5.73737 205.318 5.34469C205.459 5.19188 205.632 5.07127 205.825 4.99129C206.019 4.91131 206.227 4.87389 206.436 4.88164C206.648 4.87601 206.859 4.91432 207.055 4.99408C207.252 5.07384 207.429 5.19327 207.575 5.34469C207.891 5.6999 208.052 6.16372 208.024 6.63547Z" fill="#234CA1"/>
<path id="Vector_18" d="M214.107 6.58976V6.96265C214.584 6.31046 215.201 5.77032 215.915 5.38092C216.614 5.03462 217.389 4.86163 218.171 4.87691C218.944 4.86278 219.707 5.0463 220.386 5.40961C221.022 5.74736 221.533 6.27535 221.845 6.91757C222.058 7.29913 222.198 7.71567 222.26 8.14689C222.329 8.70289 222.359 9.26281 222.352 9.82285V15.5597C222.393 16.0626 222.245 16.5631 221.936 16.9652C221.796 17.1208 221.623 17.244 221.429 17.3261C221.235 17.4083 221.025 17.4473 220.814 17.4405C220.6 17.4471 220.386 17.4068 220.189 17.3225C219.993 17.2382 219.817 17.112 219.676 16.9529C219.369 16.5541 219.221 16.0585 219.26 15.5597V10.417C219.308 9.61584 219.166 8.81467 218.844 8.07723C218.567 7.53087 217.995 7.25769 217.128 7.25769C216.578 7.25473 216.042 7.4272 215.599 7.74941C215.13 8.0876 214.778 8.55961 214.589 9.10166C214.396 9.94814 214.319 10.8165 214.361 11.6832V15.5556C214.401 16.0636 214.243 16.5676 213.92 16.9652C213.775 17.1194 213.598 17.2413 213.4 17.3225C213.203 17.4038 212.991 17.4426 212.777 17.4364C212.567 17.4417 212.358 17.4006 212.165 17.3163C211.972 17.2319 211.801 17.1064 211.664 16.9488C211.357 16.55 211.21 16.0544 211.248 15.5556V6.62663C211.211 6.15452 211.35 5.68516 211.639 5.30717C211.773 5.16139 211.939 5.04681 212.123 4.9717C212.308 4.89659 212.507 4.86282 212.707 4.87281C212.969 4.8703 213.227 4.93678 213.455 5.0654C213.686 5.20367 213.872 5.40414 213.991 5.64318C214.105 5.94529 214.144 6.2696 214.107 6.58976Z" fill="#234CA1"/>
<path id="Vector_19" d="M237.001 7.14347V16.1257C237.017 17.0204 236.905 17.913 236.668 18.7769C236.476 19.4684 236.109 20.1002 235.6 20.6127C235.06 21.1239 234.398 21.4943 233.676 21.6904C232.712 21.9461 231.716 22.0648 230.717 22.0428C229.729 22.0607 228.745 21.9096 227.809 21.5961C227.072 21.3642 226.4 20.9689 225.843 20.4406C225.427 20.0648 225.179 19.5417 225.153 18.9859C225.147 18.8135 225.178 18.6418 225.246 18.4826C225.313 18.3234 225.415 18.1806 225.544 18.0639C225.799 17.8281 226.138 17.7001 226.487 17.7074C226.721 17.7108 226.951 17.7664 227.159 17.87C227.368 17.9737 227.55 18.1226 227.692 18.3057C227.863 18.5105 228.033 18.7154 228.216 18.9244C228.39 19.1283 228.591 19.3075 228.814 19.4571C229.053 19.614 229.319 19.7252 229.6 19.7849C229.946 19.8597 230.3 19.8955 230.655 19.8915C231.313 19.9336 231.972 19.8242 232.579 19.5719C232.996 19.3807 233.33 19.0496 233.522 18.6376C233.704 18.2305 233.811 17.7948 233.838 17.3509C233.867 16.896 233.892 16.1585 233.909 15.1463C233.477 15.7678 232.909 16.2859 232.247 16.6625C231.552 17.0242 230.775 17.2034 229.99 17.1829C229.013 17.204 228.052 16.9279 227.239 16.392C226.433 15.8378 225.806 15.0669 225.432 14.1711C224.995 13.1326 224.78 12.0168 224.8 10.8929C224.788 10.039 224.919 9.18896 225.187 8.37687C225.417 7.67827 225.79 7.03385 226.284 6.48373C226.743 5.98021 227.311 5.58407 227.946 5.32408C228.594 5.05967 229.289 4.92725 229.99 4.93479C230.789 4.91462 231.581 5.08767 232.297 5.43881C233.011 5.82997 233.631 6.36967 234.113 7.02053V6.61075C234.091 6.1642 234.239 5.72569 234.528 5.38144C234.657 5.23718 234.816 5.12273 234.995 5.04623C235.174 4.96974 235.368 4.93309 235.563 4.93889C235.799 4.90826 236.04 4.94712 236.254 5.05062C236.469 5.15412 236.647 5.31765 236.768 5.52076C236.959 6.03973 237.039 6.59248 237.001 7.14347ZM227.917 11.065C227.917 12.3189 228.194 13.2668 228.748 13.9088C229.009 14.2202 229.338 14.4688 229.711 14.6356C230.084 14.8025 230.491 14.8833 230.9 14.8718C231.421 14.8722 231.932 14.7304 232.376 14.462C232.86 14.1632 233.252 13.7376 233.506 13.2327C233.804 12.6012 233.947 11.9088 233.921 11.2125C233.99 10.166 233.697 9.12731 233.09 8.26624C232.832 7.92933 232.496 7.65804 232.11 7.47488C231.724 7.29172 231.299 7.20198 230.871 7.21312C230.457 7.19988 230.045 7.28445 229.671 7.4598C229.297 7.63514 228.97 7.89617 228.719 8.22116C228.183 8.8686 227.917 9.82746 227.917 11.065Z" fill="#234CA1"/>
</g>
<defs>
<clipPath id="clip0_1_4696">
<rect width="237" height="21.763" fill="white" transform="translate(0 0.279297)"/>
</clipPath>
</defs>
</svg>
