<svg width="196" height="20" viewBox="0 0 196 20" fill="none" xmlns="http://www.w3.org/2000/svg">
<g id="text 1" clip-path="url(#clip0_11_136)">
<path id="Vector" d="M3.80742 9.40657H2.82111V14.0573C2.85931 14.5439 2.72074 15.0278 2.43277 15.4132C2.30141 15.5591 2.14123 15.6737 1.96325 15.7491C1.78527 15.8244 1.59372 15.8587 1.40179 15.8496C1.20821 15.8592 1.01504 15.8234 0.836579 15.7447C0.658115 15.6661 0.498929 15.5466 0.37081 15.3953C0.0989874 15.0104 -0.0325602 14.5374 -0.000343313 14.0609V2.91345C-0.0437518 2.41727 0.103277 1.92337 0.408613 1.5397C0.777181 1.22185 1.25163 1.06879 1.72827 1.11398H6.31614C6.85903 1.1098 7.40172 1.13727 7.94165 1.19626C8.3615 1.24403 8.7718 1.35865 9.15821 1.53612C9.59335 1.72516 9.98728 2.00383 10.3164 2.35536C10.6519 2.70922 10.9129 3.13201 11.0827 3.59675C11.2587 4.0751 11.3473 4.58348 11.3439 5.09571C11.391 6.04726 11.0747 6.97959 10.4641 7.68939C9.72727 8.41413 8.79812 8.89151 7.79732 9.05956C8.34324 9.37365 8.82901 9.7896 9.23038 10.2866C9.68418 10.8236 10.0924 11.4006 10.4504 12.011C10.7678 12.5395 11.047 13.092 11.2855 13.6638C11.4373 13.9821 11.5383 14.3241 11.5845 14.6762C11.5803 14.8795 11.5194 15.0771 11.4092 15.245C11.2903 15.4355 11.124 15.5888 10.9281 15.6886C10.7144 15.7986 10.4791 15.855 10.2407 15.8532C9.95834 15.8628 9.67994 15.7816 9.44345 15.6207C9.22412 15.4632 9.03524 15.2642 8.88672 15.034C8.73207 14.7978 8.52244 14.4473 8.25439 13.9858L7.11 12.0289C6.79744 11.4478 6.43391 10.8981 6.02403 10.3868C5.75939 10.0553 5.42559 9.79102 5.04803 9.61407C4.65026 9.46613 4.22969 9.39578 3.80742 9.40657ZM5.41919 3.32486H2.81767V7.31018H5.34358C5.92134 7.32213 6.49834 7.26086 7.06188 7.12772C7.46804 7.03913 7.83784 6.82166 8.12036 6.50524C8.38189 6.15914 8.5116 5.72478 8.48464 5.28532C8.49269 4.90469 8.38963 4.53046 8.18909 4.21208C7.99036 3.90142 7.70489 3.66168 7.37118 3.5252C6.73655 3.34115 6.07645 3.27099 5.41919 3.31771V3.32486Z" fill="white"/>
<path id="Vector_2" d="M15.7537 1.11385H19.4308C20.2588 1.09949 21.0853 1.19202 21.8914 1.38932C22.5827 1.57608 23.2213 1.93173 23.7541 2.42679C25.2043 3.71707 25.9295 5.68111 25.9295 8.3189C25.9366 9.11893 25.8629 9.91753 25.7095 10.7015C25.5738 11.3808 25.3422 12.0355 25.0222 12.6441C24.7161 13.2231 24.3215 13.7463 23.8537 14.1931C23.489 14.536 23.0765 14.8194 22.6303 15.0338C22.1751 15.2478 21.6942 15.397 21.2007 15.4774C20.6321 15.5676 20.0575 15.6107 19.4824 15.6062H15.8121C15.4123 15.6315 15.013 15.5477 14.6539 15.363C14.4044 15.214 14.2216 14.9684 14.1453 14.6797C14.0567 14.3065 14.0162 13.9227 14.025 13.5384V2.90975C13.9816 2.41357 14.1287 1.91967 14.434 1.53599C14.8035 1.22012 15.2776 1.06846 15.7537 1.11385ZM16.8465 3.43563V13.2737H18.9841C19.4515 13.2737 19.8192 13.2737 20.0872 13.2344C20.369 13.2049 20.6461 13.1388 20.912 13.0376C21.184 12.9396 21.4358 12.7891 21.6543 12.594C22.6005 11.764 23.0725 10.333 23.0702 8.30101C23.0702 6.87002 22.8629 5.79677 22.4482 5.08128C22.1208 4.44266 21.5731 3.9569 20.9154 3.72184C20.1989 3.51247 19.4567 3.41364 18.7126 3.42848H16.8465V3.43563Z" fill="white"/>
<path id="Vector_3" d="M38.9883 11.2668C38.9993 12.1032 38.7734 12.9245 38.3387 13.628C37.8705 14.3559 37.209 14.9264 36.4349 15.27C35.4964 15.6877 34.4825 15.8902 33.4622 15.8639C32.2802 15.9114 31.1072 15.6311 30.0634 15.0518C29.4372 14.6686 28.9081 14.135 28.5204 13.4956C28.1522 12.937 27.9459 12.2802 27.9258 11.6031C27.9244 11.4308 27.9563 11.26 28.0196 11.1008C28.0829 10.9416 28.1763 10.7972 28.2943 10.6764C28.4123 10.5556 28.5525 10.4607 28.7065 10.3974C28.8604 10.3341 29.025 10.3038 29.1905 10.3081C29.4699 10.3014 29.741 10.4078 29.9466 10.605C30.184 10.8527 30.3639 11.1538 30.4724 11.4851C30.6219 11.8912 30.8144 12.2788 31.0463 12.6406C31.27 12.9674 31.569 13.2307 31.9157 13.4062C32.3764 13.6255 32.8804 13.7285 33.3866 13.7067C34.1114 13.7402 34.8269 13.5267 35.4245 13.0985C35.6648 12.9322 35.862 12.7067 35.9986 12.4422C36.1353 12.1776 36.2072 11.8821 36.208 11.5817C36.2163 11.3666 36.1832 11.152 36.1106 10.9505C36.038 10.749 35.9274 10.5646 35.7853 10.4083C35.4788 10.092 35.1041 9.85653 34.6925 9.72137C34.2343 9.56396 33.6375 9.39582 32.902 9.21694C32.0392 9.02059 31.1975 8.73414 30.3899 8.36193C29.7541 8.06732 29.2015 7.60788 28.785 7.02753C28.3743 6.41265 28.1658 5.67599 28.1904 4.92755C28.1795 4.16843 28.3983 3.42497 28.8159 2.80252C29.2734 2.15118 29.9043 1.65369 30.6304 1.37153C31.5222 1.01936 32.4708 0.849317 33.4244 0.870688C34.1758 0.854692 34.9246 0.967082 35.641 1.20339C36.2072 1.39292 36.7341 1.69144 37.1944 2.08345C37.5672 2.40005 37.8746 2.79189 38.0982 3.2354C38.279 3.59966 38.3766 4.00244 38.3834 4.41239C38.3869 4.76096 38.2642 5.09812 38.0398 5.35685C37.9311 5.49077 37.7951 5.59781 37.6418 5.67021C37.4884 5.74261 37.3215 5.77855 37.1531 5.77541C36.886 5.7945 36.6223 5.7047 36.4177 5.52499C36.1969 5.27948 36.0127 5.00093 35.8713 4.6986C35.6572 4.20002 35.3418 3.75572 34.9468 3.39639C34.5917 3.08872 34.0189 2.93489 33.2285 2.93489C32.6047 2.90277 31.9872 3.07819 31.4655 3.43573C31.263 3.55966 31.0939 3.73481 30.9737 3.94494C30.8536 4.15507 30.7863 4.39338 30.7782 4.63777C30.772 4.90741 30.8517 5.17161 31.005 5.38905C31.1733 5.61525 31.3867 5.80077 31.6305 5.93282C31.8873 6.08033 32.1579 6.20019 32.4381 6.29057C32.7096 6.37643 33.1598 6.50165 33.7852 6.66621C34.5056 6.83856 35.2168 7.04992 35.9159 7.29942C36.4925 7.50015 37.0395 7.78308 37.5415 8.14013C37.9771 8.46488 38.3308 8.89446 38.5724 9.39225C38.8562 9.97234 38.9989 10.616 38.9883 11.2668Z" fill="white"/>
<path id="Vector_4" d="M51.6491 9.9611H49.0647V14.0645C49.0971 14.5455 48.9549 15.0218 48.6661 15.3989C48.5351 15.5421 48.3776 15.6561 48.203 15.734C48.0285 15.8119 47.8405 15.852 47.6506 15.852C47.4606 15.852 47.2727 15.8119 47.0981 15.734C46.9236 15.6561 46.766 15.5421 46.6351 15.3989C46.3518 15.0248 46.2132 14.5538 46.2467 14.0788V2.90988C46.2232 2.66106 46.2489 2.40985 46.3222 2.17175C46.3955 1.93364 46.5148 1.71367 46.6729 1.52539C47.0596 1.21522 47.5439 1.06716 48.0303 1.1104H51.6491C52.48 1.08325 53.3107 1.16985 54.12 1.36798C54.666 1.52045 55.1714 1.80065 55.5977 2.18723C56.0132 2.5718 56.3368 3.05199 56.5428 3.5896C56.7659 4.18436 56.8756 4.81864 56.8658 5.45705C56.8658 6.93336 56.4294 8.05192 55.5565 8.81273C54.6767 9.58189 53.3777 9.9611 51.6491 9.9611ZM50.9618 3.31771H49.0613V7.74663H50.9618C51.5247 7.76114 52.0865 7.68757 52.6285 7.5284C53.0378 7.41303 53.3998 7.16183 53.6595 6.81291C53.9042 6.43063 54.0247 5.9767 54.0031 5.51786C54.027 4.94263 53.8319 4.38084 53.4602 3.9545C53.0581 3.53236 52.223 3.31771 50.9652 3.31771H50.9618Z" fill="white"/>
<path id="Vector_5" d="M61.6115 11.9608V14.2146C61.6447 14.6592 61.5117 15.1001 61.2404 15.4452C61.1204 15.5794 60.9745 15.6855 60.8121 15.7565C60.6498 15.8274 60.4748 15.8615 60.2987 15.8566C60.1254 15.8615 59.9532 15.8269 59.7941 15.7552C59.635 15.6836 59.4929 15.5765 59.3777 15.4416C59.1158 15.0932 58.9872 14.656 59.0169 14.2146V6.70186C59.0169 5.49028 59.4384 4.8833 60.2816 4.88092C60.4586 4.86476 60.6368 4.89529 60.7996 4.96969C60.9623 5.04409 61.1045 5.15998 61.2129 5.30664C61.4291 5.686 61.5375 6.12141 61.5256 6.56234C61.7723 6.08964 62.0955 5.66483 62.481 5.30664C62.8538 5.00763 63.3168 4.8567 63.7869 4.88092C64.3417 4.88466 64.8871 5.03089 65.3746 5.30664C65.5938 5.39697 65.7831 5.55148 65.9198 5.75147C66.0564 5.95146 66.1344 6.18837 66.1444 6.43354C66.1487 6.58584 66.1218 6.73734 66.0656 6.87798C66.0093 7.01862 65.9248 7.14516 65.8179 7.24921C65.631 7.448 65.3771 7.56344 65.11 7.57119C64.8752 7.53668 64.6447 7.47549 64.4227 7.38874C64.1117 7.27663 63.786 7.21509 63.457 7.20628C63.1208 7.19093 62.7904 7.30133 62.5257 7.51752C62.2606 7.76539 62.0667 8.08488 61.9655 8.44052C61.82 8.91437 61.7277 9.40416 61.6906 9.90012C61.6356 10.4618 61.6115 11.1487 61.6115 11.9608Z" fill="white"/>
<path id="Vector_6" d="M74.3096 11.0306H69.2372C69.2281 11.5914 69.3459 12.1465 69.5809 12.6512C69.7832 13.0931 70.1028 13.4655 70.5019 13.7244C70.8845 13.9639 71.3236 14.0877 71.77 14.0822C72.0577 14.0846 72.3445 14.0461 72.6223 13.9677C72.8872 13.8895 73.1388 13.7688 73.368 13.61C73.6017 13.4536 73.8245 13.2803 74.0347 13.0912C74.2375 12.9088 74.4986 12.6548 74.8217 12.34C74.9851 12.2111 75.1876 12.1477 75.3922 12.1611C75.6276 12.1492 75.8586 12.2311 76.0382 12.3901C76.1228 12.4716 76.1889 12.5716 76.2317 12.683C76.2745 12.7944 76.2929 12.9143 76.2857 13.034C76.2657 13.3388 76.171 13.6331 76.0107 13.889C75.7935 14.2548 75.5112 14.5741 75.1791 14.8299C74.7567 15.1573 74.2853 15.4099 73.7838 15.5776C73.1586 15.7852 72.5052 15.8855 71.849 15.8745C70.1811 15.8745 68.8867 15.3796 67.9657 14.3899C67.0446 13.4001 66.5864 12.0585 66.591 10.3652C66.5855 9.60987 66.7017 8.85892 66.9347 8.14358C67.1448 7.49177 67.4844 6.8933 67.9313 6.38703C68.3805 5.88951 68.933 5.50531 69.5465 5.26371C70.2257 4.99557 70.9474 4.86328 71.6737 4.87376C72.5854 4.84635 73.4871 5.0776 74.2821 5.54275C74.9697 5.9471 75.5342 6.54464 75.9111 7.2671C76.26 7.92475 76.4466 8.66232 76.4541 9.41359C76.4541 10.0933 76.2685 10.5333 75.8939 10.7337C75.3953 10.96 74.8527 11.0617 74.3096 11.0306ZM69.2372 9.49586H73.9385C73.9366 8.73967 73.6828 8.00759 73.2202 7.42451C73.0093 7.19573 72.7541 7.01618 72.4715 6.89777C72.1889 6.77936 71.8853 6.72477 71.581 6.73763C71.2818 6.72952 70.9844 6.78933 70.7097 6.91289C70.4349 7.03645 70.1893 7.22079 69.9898 7.45312C69.5337 8.03162 69.2697 8.74823 69.2372 9.49586Z" fill="white"/>
<path id="Vector_7" d="M87.9293 12.5118C87.9178 12.8886 87.8187 13.2568 87.6406 13.585C87.4179 14.0056 87.1178 14.3764 86.7574 14.6762C86.3148 15.0508 85.8074 15.3338 85.2625 15.5097C84.6053 15.7292 83.9181 15.8355 83.228 15.8245C81.6243 15.8245 80.3734 15.338 79.4753 14.3649C78.5714 13.3919 78.1281 12.0897 78.1281 10.4547C78.1094 9.43907 78.3201 8.43301 78.7433 7.51763C79.1369 6.68867 79.7607 6.00194 80.5337 5.54644C81.3892 5.06024 82.3534 4.81948 83.3277 4.84883C83.9562 4.8422 84.5813 4.94623 85.1766 5.1565C85.6909 5.33571 86.1729 5.60291 86.6028 5.94712C86.9589 6.23195 87.2617 6.58238 87.4963 6.98101C87.685 7.28736 87.7917 7.64056 87.8056 8.00417C87.8082 8.15841 87.7789 8.31143 87.7196 8.45281C87.6603 8.59418 87.5724 8.7206 87.4619 8.82342C87.2344 9.04592 86.9321 9.16665 86.62 9.15969C86.4277 9.16763 86.2386 9.10706 86.0838 8.98798C85.9001 8.82533 85.7382 8.63761 85.6027 8.42989C85.3434 7.992 85.0064 7.60955 84.6095 7.30299C84.1061 6.98074 83.5073 6.85969 82.9245 6.96234C82.3418 7.06498 81.8146 7.38434 81.441 7.86107C80.9427 8.60792 80.7005 9.50774 80.7537 10.4154C80.748 10.8884 80.8094 11.3598 80.9358 11.8142C81.0436 12.2029 81.2208 12.567 81.4582 12.8874C81.6771 13.1801 81.9598 13.4144 82.283 13.5707C82.6176 13.7279 82.9812 13.8073 83.3483 13.8033C83.8185 13.8164 84.2821 13.6859 84.6817 13.4276C85.0922 13.1314 85.4291 12.7378 85.6646 12.2793C85.7953 12.0124 85.9684 11.7705 86.1766 11.5638C86.3647 11.3879 86.6114 11.2954 86.864 11.3062C87.0139 11.3029 87.1625 11.335 87.2988 11.4C87.4351 11.4651 87.5555 11.5614 87.6509 11.6818C87.8382 11.9137 87.9372 12.209 87.9293 12.5118Z" fill="white"/>
<path id="Vector_8" d="M91.5028 3.62529C91.1624 3.63127 90.8324 3.50354 90.5784 3.26754C90.4478 3.1446 90.3454 2.99269 90.2788 2.82302C90.2122 2.65336 90.183 2.47027 90.1935 2.28731C90.1885 2.1093 90.2213 1.93235 90.2896 1.76908C90.358 1.60582 90.4601 1.46028 90.5887 1.34286C90.8397 1.1064 91.1678 0.978456 91.5063 0.98511C91.8333 0.981173 92.1507 1.10063 92.3998 1.32139C92.5324 1.44283 92.6364 1.59439 92.7038 1.76437C92.7711 1.93434 92.8 2.11817 92.7881 2.30162C92.7977 2.4831 92.7685 2.66454 92.7025 2.83283C92.6366 3.00111 92.5355 3.15203 92.4067 3.2747C92.1587 3.50609 91.8358 3.63134 91.5028 3.62529ZM92.7847 6.41214V14.2146C92.8155 14.6579 92.6828 15.0968 92.4135 15.4417C92.2942 15.5769 92.1484 15.6839 91.986 15.7555C91.8235 15.8271 91.6482 15.8616 91.4719 15.8567C91.297 15.8623 91.1232 15.827 90.9632 15.7533C90.8032 15.6796 90.6611 15.5695 90.5475 15.431C90.2941 15.0828 90.1718 14.6502 90.2038 14.2146V6.49085C90.1692 6.05834 90.2918 5.62807 90.5475 5.28524C90.664 5.15184 90.8071 5.04653 90.9667 4.97671C91.1264 4.90688 91.2988 4.87421 91.4719 4.88098C91.6473 4.87606 91.8217 4.90951 91.9839 4.97914C92.1461 5.04877 92.2925 5.15305 92.4135 5.28524C92.6749 5.59536 92.8083 6.00029 92.7847 6.41214Z" fill="white"/>
<path id="Vector_9" d="M103.81 12.34C103.84 13.0231 103.656 13.6978 103.283 14.2611C102.911 14.8245 102.372 15.2454 101.748 15.4596C100.95 15.7529 100.108 15.8923 99.263 15.871C98.4406 15.8935 97.6223 15.7426 96.8574 15.4274C96.2809 15.199 95.7732 14.815 95.3865 14.3148C95.0919 13.9335 94.9253 13.4623 94.9123 12.9732C94.91 12.8314 94.9356 12.6907 94.9876 12.5596C95.0396 12.4285 95.1169 12.31 95.2147 12.2112C95.3152 12.1063 95.4354 12.0241 95.5679 11.9699C95.7004 11.9157 95.8422 11.8907 95.9845 11.8964C96.2108 11.8797 96.4346 11.954 96.6099 12.1039C96.7779 12.2744 96.9194 12.4712 97.0292 12.687C97.2558 13.1228 97.5844 13.4919 97.9846 13.7603C98.449 14.0211 98.9731 14.1448 99.5001 14.118C99.9514 14.138 100.398 14.0131 100.779 13.7603C100.922 13.6776 101.043 13.5585 101.13 13.4139C101.217 13.2694 101.268 13.1042 101.277 12.9339C101.291 12.7279 101.249 12.5221 101.158 12.339C101.066 12.1559 100.928 12.0027 100.758 11.8964C100.217 11.604 99.6382 11.3943 99.0396 11.2739C98.2961 11.0965 97.5675 10.8572 96.8608 10.5584C96.3444 10.3375 95.8844 9.99453 95.5171 9.55672C95.1767 9.12673 94.9984 8.58245 95.0154 8.02556C95.0173 7.47802 95.1791 6.94403 95.4793 6.4944C95.8233 5.98251 96.3001 5.583 96.8539 5.34245C97.5459 5.03834 98.2923 4.89195 99.0431 4.91314C99.6521 4.90483 100.26 4.97818 100.851 5.13138C101.325 5.24996 101.777 5.44683 102.191 5.71451C102.514 5.92437 102.792 6.20072 103.009 6.52659C103.182 6.78149 103.28 7.08371 103.291 7.39592C103.296 7.53773 103.271 7.679 103.22 7.81037C103.168 7.94174 103.091 8.0602 102.992 8.15792C102.757 8.36827 102.452 8.47481 102.143 8.45486C101.894 8.46298 101.651 8.37935 101.456 8.21874C101.218 8.0039 101.003 7.76413 100.813 7.50325C100.627 7.2461 100.393 7.0307 100.126 6.87003C99.7902 6.69601 99.4174 6.6147 99.0431 6.63391C98.6329 6.61794 98.227 6.72605 97.8746 6.94516C97.7383 7.02034 97.6235 7.13178 97.542 7.26815C97.4605 7.40452 97.4152 7.56093 97.4107 7.72147C97.4064 7.86106 97.4355 7.99957 97.4955 8.12449C97.5555 8.24941 97.6445 8.35681 97.7543 8.43697C98.0324 8.64444 98.3445 8.79721 98.6753 8.88773C99.0602 9.00579 99.5929 9.15247 100.27 9.32418C100.953 9.47827 101.615 9.71855 102.243 10.0397C102.699 10.2759 103.095 10.6202 103.401 11.045C103.666 11.4202 103.809 11.874 103.81 12.34Z" fill="white"/>
<path id="Vector_10" d="M107.315 3.62529C106.975 3.63127 106.645 3.50354 106.391 3.26754C106.26 3.1446 106.158 2.99269 106.091 2.82302C106.025 2.65336 105.996 2.47027 106.006 2.28731C106.001 2.1093 106.034 1.93235 106.102 1.76908C106.17 1.60582 106.273 1.46028 106.401 1.34286C106.652 1.1064 106.98 0.978456 107.319 0.98511C107.646 0.981173 107.963 1.10063 108.212 1.32139C108.345 1.44283 108.449 1.59439 108.516 1.76437C108.584 1.93434 108.612 2.11817 108.601 2.30162C108.61 2.4831 108.581 2.66454 108.515 2.83283C108.449 3.00111 108.348 3.15203 108.219 3.2747C107.971 3.5064 107.648 3.63169 107.315 3.62529ZM108.597 6.41214V14.2146C108.628 14.6579 108.495 15.0968 108.226 15.4417C108.107 15.5769 107.961 15.6839 107.798 15.7555C107.636 15.8271 107.461 15.8616 107.284 15.8567C107.11 15.8623 106.936 15.827 106.776 15.7533C106.616 15.6796 106.474 15.5695 106.36 15.431C106.107 15.0828 105.984 14.6502 106.016 14.2146V6.49085C105.982 6.05834 106.104 5.62807 106.36 5.28524C106.476 5.15184 106.62 5.04653 106.779 4.97671C106.939 4.90688 107.111 4.87421 107.284 4.88098C107.46 4.87606 107.634 4.90951 107.796 4.97914C107.959 5.04877 108.105 5.15305 108.226 5.28524C108.487 5.59536 108.621 6.00029 108.597 6.41214Z" fill="white"/>
<path id="Vector_11" d="M120.982 10.3689C120.99 11.127 120.868 11.8805 120.622 12.5941C120.399 13.2435 120.045 13.8353 119.583 14.3292C119.121 14.8231 118.562 15.2075 117.945 15.4561C117.262 15.7258 116.537 15.8581 115.807 15.846C115.083 15.858 114.364 15.7231 113.69 15.4489C113.078 15.1939 112.523 14.8089 112.061 14.3184C111.603 13.8216 111.251 13.2289 111.03 12.5798C110.551 11.1333 110.551 9.56157 111.03 8.11509C111.251 7.46582 111.603 6.87308 112.061 6.37643C112.523 5.88836 113.079 5.50897 113.693 5.26383C115.067 4.74018 116.574 4.74018 117.948 5.26383C118.567 5.51158 119.127 5.89556 119.59 6.38952C120.054 6.88347 120.409 7.47573 120.632 8.12582C120.879 8.84517 120.997 9.60525 120.982 10.3689ZM118.381 10.3689C118.436 9.45541 118.194 8.54917 117.694 7.79669C117.474 7.49917 117.189 7.26057 116.862 7.10067C116.536 6.94077 116.178 6.86419 115.817 6.87728C115.341 6.86799 114.873 7.01162 114.477 7.28869C114.069 7.5905 113.758 8.01305 113.583 8.50145C113.169 9.70283 113.169 11.0171 113.583 12.2185C113.76 12.7028 114.066 13.1239 114.467 13.4312C114.865 13.7152 115.338 13.8616 115.821 13.8498C116.181 13.8625 116.54 13.7853 116.866 13.6248C117.193 13.4643 117.477 13.225 117.697 12.9268C118.194 12.1782 118.435 11.2772 118.381 10.3689Z" fill="white"/>
<path id="Vector_12" d="M125.381 6.37278V6.69833C125.776 6.12894 126.286 5.65738 126.876 5.31742C127.455 5.01508 128.095 4.86405 128.742 4.87739C129.381 4.86505 130.012 5.02528 130.574 5.34246C131.1 5.63733 131.522 6.09829 131.78 6.65897C131.956 6.99209 132.073 7.35575 132.124 7.73221C132.181 8.21763 132.206 8.70646 132.2 9.1954V14.2039C132.234 14.643 132.112 15.08 131.856 15.431C131.74 15.5668 131.597 15.6744 131.436 15.7461C131.276 15.8178 131.102 15.8519 130.928 15.8459C130.751 15.8517 130.574 15.8165 130.411 15.7429C130.249 15.6693 130.103 15.5591 129.986 15.4202C129.727 15.0746 129.598 14.6417 129.625 14.2039V9.71414C129.665 9.01467 129.547 8.31522 129.282 7.6714C129.053 7.19441 128.58 6.95591 127.863 6.95591C127.408 6.95332 126.964 7.1039 126.598 7.3852C126.21 7.68046 125.918 8.09254 125.763 8.56577C125.603 9.30479 125.539 10.0629 125.574 10.8196V14.2003C125.607 14.6438 125.477 15.0839 125.209 15.431C125.089 15.5656 124.943 15.672 124.78 15.7429C124.617 15.8139 124.441 15.8478 124.264 15.8424C124.09 15.8469 123.917 15.8111 123.758 15.7375C123.599 15.6638 123.457 15.5543 123.343 15.4166C123.084 15.071 122.955 14.6381 122.983 14.2003V6.40497C122.951 5.9928 123.066 5.58303 123.306 5.25302C123.417 5.12575 123.554 5.02572 123.706 4.96015C123.859 4.89457 124.024 4.86509 124.189 4.87381C124.406 4.87162 124.619 4.92966 124.807 5.04195C124.998 5.16267 125.152 5.33769 125.251 5.54638C125.356 5.80721 125.401 6.09043 125.381 6.37278Z" fill="white"/>
<path id="Vector_13" d="M145.764 15.6064H141.509C141.273 15.6304 141.035 15.6048 140.809 15.531C140.583 15.4573 140.374 15.3369 140.193 15.1771C139.897 14.7902 139.756 14.2996 139.798 13.8069V2.90994C139.754 2.41325 139.897 1.91816 140.197 1.52902C140.562 1.21632 141.031 1.06596 141.502 1.11045H146.015C146.59 1.10477 147.165 1.14785 147.733 1.23925C148.196 1.31549 148.64 1.48306 149.042 1.73294C149.374 1.93653 149.668 2.19932 149.912 2.50925C150.162 2.81701 150.359 3.16818 150.493 3.54673C150.63 3.93124 150.699 4.33858 150.695 4.74875C150.695 6.19763 150.008 7.25299 148.602 7.93271C150.438 8.54088 151.352 9.72146 151.352 11.4708C151.362 12.2458 151.154 13.0068 150.754 13.6603C150.368 14.2973 149.804 14.7965 149.139 15.0913C148.67 15.2896 148.177 15.4208 147.675 15.4812C147.041 15.5695 146.403 15.6114 145.764 15.6064ZM142.619 3.31776V7.06339H145.204C145.754 7.08522 146.304 7.01517 146.833 6.8559C147.213 6.71981 147.528 6.43669 147.712 6.06527C147.872 5.78359 147.954 5.46189 147.949 5.13512C147.949 4.40531 147.7 3.91878 147.2 3.67551C146.469 3.39618 145.69 3.27447 144.912 3.31776H142.619ZM145.554 9.17053H142.619V13.4134H145.65C147.559 13.4134 148.512 12.6979 148.51 11.2669C148.533 10.9568 148.477 10.6457 148.347 10.3658C148.216 10.0859 148.016 9.84737 147.767 9.67494C147.277 9.33866 146.539 9.17053 145.554 9.17053Z" fill="white"/>
<path id="Vector_14" d="M154.939 3.62529C154.599 3.63127 154.269 3.50354 154.015 3.26754C153.884 3.1446 153.782 2.99269 153.715 2.82302C153.649 2.65336 153.62 2.47027 153.63 2.28731C153.625 2.1093 153.658 1.93235 153.726 1.76908C153.794 1.60582 153.897 1.46028 154.025 1.34286C154.276 1.1064 154.604 0.978456 154.943 0.98511C155.27 0.981173 155.587 1.10063 155.836 1.32139C155.969 1.44283 156.073 1.59439 156.14 1.76437C156.208 1.93434 156.236 2.11817 156.225 2.30162C156.234 2.4831 156.205 2.66454 156.139 2.83283C156.073 3.00111 155.972 3.15203 155.843 3.2747C155.595 3.5064 155.272 3.63169 154.939 3.62529ZM156.221 6.41214V14.2146C156.252 14.6579 156.119 15.0968 155.85 15.4417C155.731 15.5769 155.585 15.6839 155.422 15.7555C155.26 15.8271 155.085 15.8616 154.908 15.8567C154.734 15.8623 154.56 15.827 154.4 15.7533C154.24 15.6796 154.098 15.5695 153.984 15.431C153.731 15.0828 153.608 14.6502 153.64 14.2146V6.49085C153.606 6.05834 153.728 5.62807 153.984 5.28524C154.1 5.15184 154.244 5.04653 154.403 4.97671C154.563 4.90688 154.735 4.87421 154.908 4.88098C155.084 4.87606 155.258 4.90951 155.42 4.97914C155.583 5.04877 155.729 5.15305 155.85 5.28524C156.111 5.59536 156.245 6.00029 156.221 6.41214Z" fill="white"/>
<path id="Vector_15" d="M158.898 14.2147V2.50914C158.868 2.07046 158.99 1.63501 159.242 1.28207C159.358 1.1447 159.502 1.03614 159.664 0.964331C159.826 0.892525 160.001 0.859292 160.177 0.867077C160.354 0.859708 160.531 0.892707 160.694 0.963763C160.858 1.03482 161.005 1.14222 161.125 1.27849C161.388 1.62791 161.516 2.06653 161.486 2.50914V14.2147C161.517 14.658 161.387 15.0974 161.122 15.4453C161.002 15.5803 160.855 15.687 160.692 15.7579C160.529 15.8289 160.353 15.8626 160.177 15.8567C160.002 15.8623 159.828 15.827 159.668 15.7533C159.508 15.6796 159.366 15.5695 159.252 15.431C158.995 15.0843 158.869 14.6515 158.898 14.2147Z" fill="white"/>
<path id="Vector_16" d="M164.164 14.2147V2.50914C164.133 2.07046 164.255 1.63501 164.507 1.28207C164.624 1.1447 164.768 1.03614 164.93 0.964331C165.091 0.892525 165.266 0.859292 165.442 0.867077C165.619 0.859951 165.796 0.893061 165.96 0.964102C166.124 1.03514 166.271 1.14241 166.391 1.27849C166.653 1.62791 166.782 2.06653 166.752 2.50914V14.2147C166.783 14.658 166.653 15.0974 166.387 15.4453C166.267 15.5803 166.121 15.687 165.958 15.7579C165.795 15.8289 165.619 15.8626 165.442 15.8567C165.267 15.8623 165.093 15.827 164.933 15.7533C164.773 15.6796 164.631 15.5695 164.518 15.431C164.261 15.0843 164.135 14.6515 164.164 14.2147Z" fill="white"/>
<path id="Vector_17" d="M170.751 3.62529C170.41 3.63127 170.08 3.50354 169.826 3.26754C169.696 3.1446 169.593 2.99269 169.527 2.82302C169.46 2.65336 169.431 2.47027 169.442 2.28731C169.437 2.1093 169.469 1.93235 169.538 1.76908C169.606 1.60582 169.708 1.46028 169.837 1.34286C170.088 1.1064 170.416 0.978456 170.754 0.98511C171.081 0.981173 171.399 1.10063 171.648 1.32139C171.78 1.44283 171.884 1.59439 171.952 1.76437C172.019 1.93434 172.048 2.11817 172.036 2.30162C172.046 2.4831 172.017 2.66454 171.951 2.83283C171.885 3.00111 171.784 3.15203 171.655 3.2747C171.407 3.50703 171.084 3.63241 170.751 3.62529ZM172.036 6.41214V14.2146C172.067 14.6579 171.934 15.0968 171.665 15.4417C171.546 15.5769 171.4 15.6839 171.237 15.7555C171.075 15.8271 170.9 15.8616 170.723 15.8567C170.549 15.8623 170.375 15.827 170.215 15.7533C170.055 15.6796 169.913 15.5695 169.799 15.431C169.546 15.0828 169.423 14.6502 169.455 14.2146V6.49085C169.421 6.05834 169.543 5.62807 169.799 5.28524C169.915 5.15184 170.059 5.04653 170.218 4.97671C170.378 4.90688 170.55 4.87421 170.723 4.88098C170.899 4.87606 171.073 4.90951 171.235 4.97914C171.398 5.04877 171.544 5.15305 171.665 5.28524C171.926 5.59536 172.06 6.00029 172.036 6.41214Z" fill="white"/>
<path id="Vector_18" d="M177.068 6.37278V6.69833C177.462 6.12894 177.973 5.65738 178.563 5.31742C179.141 5.01508 179.782 4.86405 180.429 4.87739C181.068 4.86505 181.699 5.02528 182.26 5.34246C182.786 5.63733 183.208 6.09829 183.467 6.65897C183.643 6.99209 183.759 7.35575 183.81 7.73221C183.867 8.21763 183.892 8.70646 183.886 9.1954V14.2039C183.92 14.643 183.798 15.08 183.542 15.431C183.426 15.5668 183.283 15.6744 183.123 15.7461C182.962 15.8178 182.789 15.8519 182.614 15.8459C182.437 15.8517 182.26 15.8165 182.098 15.7429C181.935 15.6693 181.79 15.5591 181.673 15.4202C181.419 15.072 181.297 14.6394 181.329 14.2039V9.71414C181.369 9.01467 181.251 8.31522 180.985 7.6714C180.756 7.19441 180.283 6.95591 179.566 6.95591C179.111 6.95332 178.667 7.1039 178.301 7.3852C177.913 7.68046 177.622 8.09254 177.466 8.56577C177.306 9.30479 177.243 10.0629 177.277 10.8196V14.2003C177.311 14.6438 177.18 15.0839 176.913 15.431C176.793 15.5656 176.646 15.672 176.483 15.7429C176.32 15.8139 176.144 15.8478 175.968 15.8424C175.794 15.8469 175.621 15.8111 175.461 15.7375C175.302 15.6638 175.16 15.5543 175.047 15.4166C174.794 15.0685 174.671 14.6358 174.703 14.2003V6.40497C174.672 5.9928 174.787 5.58303 175.026 5.25302C175.137 5.12575 175.274 5.02572 175.427 4.96015C175.58 4.89457 175.745 4.86509 175.909 4.87381C176.126 4.87162 176.34 4.92966 176.528 5.04195C176.719 5.16267 176.873 5.33769 176.971 5.54638C177.065 5.81013 177.098 6.09327 177.068 6.37278Z" fill="white"/>
<path id="Vector_19" d="M196 6.85569V14.6975C196.014 15.4787 195.921 16.258 195.725 17.0122C195.566 17.6159 195.262 18.1675 194.842 18.6149C194.395 19.0612 193.848 19.3846 193.251 19.5557C192.453 19.779 191.629 19.8826 190.804 19.8634C189.986 19.8791 189.173 19.7471 188.398 19.4735C187.789 19.271 187.233 18.9259 186.773 18.4646C186.429 18.1365 186.224 17.6799 186.202 17.1946C186.197 17.0441 186.223 16.8942 186.279 16.7552C186.335 16.6162 186.419 16.4915 186.525 16.3897C186.736 16.1838 187.016 16.0721 187.305 16.0784C187.499 16.0814 187.689 16.13 187.861 16.2204C188.034 16.3109 188.185 16.4409 188.302 16.6007C188.443 16.7796 188.584 16.9585 188.735 17.1409C188.879 17.3189 189.045 17.4754 189.23 17.606C189.427 17.743 189.648 17.8401 189.879 17.8922C190.166 17.9575 190.459 17.9887 190.752 17.9852C191.296 18.022 191.841 17.9265 192.344 17.7062C192.688 17.5393 192.965 17.2502 193.124 16.8905C193.274 16.5351 193.362 16.1548 193.385 15.7672C193.409 15.3701 193.429 14.7261 193.443 13.8425C193.086 14.3851 192.616 14.8374 192.069 15.1662C191.494 15.482 190.852 15.6384 190.203 15.6205C189.394 15.639 188.6 15.3979 187.927 14.9301C187.261 14.4462 186.742 13.7731 186.433 12.9911C186.072 12.0845 185.894 11.1103 185.91 10.1291C185.9 9.3836 186.008 8.64149 186.23 7.9325C186.42 7.3226 186.729 6.75999 187.137 6.27971C187.517 5.84012 187.987 5.49427 188.512 5.26729C189.048 5.03646 189.623 4.92085 190.203 4.92742C190.863 4.90982 191.518 5.0609 192.11 5.36746C192.701 5.70895 193.213 6.18014 193.612 6.74836V6.39061C193.593 6.00075 193.716 5.61791 193.955 5.31737C194.062 5.19143 194.194 5.0915 194.342 5.02472C194.49 4.95794 194.65 4.92594 194.811 4.931C195.007 4.90426 195.206 4.93819 195.383 5.02855C195.56 5.11891 195.708 5.26168 195.808 5.439C195.966 5.89208 196.032 6.37466 196 6.85569ZM188.488 10.2793C188.488 11.374 188.717 12.2016 189.175 12.7621C189.391 13.0339 189.663 13.251 189.972 13.3967C190.28 13.5423 190.617 13.6129 190.955 13.6028C191.386 13.6032 191.808 13.4794 192.175 13.2451C192.576 12.9842 192.9 12.6127 193.11 12.1718C193.357 11.6205 193.475 11.016 193.454 10.4081C193.511 9.49447 193.268 8.58767 192.766 7.83592C192.553 7.54178 192.275 7.30493 191.956 7.14503C191.636 6.98513 191.285 6.90678 190.931 6.9165C190.588 6.90494 190.248 6.97878 189.939 7.13186C189.629 7.28495 189.359 7.51284 189.151 7.79656C188.708 8.3618 188.488 9.19893 188.488 10.2793Z" fill="white"/>
</g>
<defs>
<clipPath id="clip0_11_136">
<rect width="196" height="19" fill="white" transform="translate(0 0.863525)"/>
</clipPath>
</defs>
</svg>
