<svg width="213" height="229" viewBox="0 0 213 229" fill="none" xmlns="http://www.w3.org/2000/svg">
<path id="Vector" d="M45.7757 1.54235C45.7757 1.11572 45.4279 0.768555 45.0004 0.768555H38.0399C37.6124 0.768555 37.2646 1.11572 37.2646 1.54235C37.2646 1.96899 37.6124 2.31615 38.0399 2.31615H45.0004C45.4279 2.31615 45.7757 1.96899 45.7757 1.54235ZM50.2513 226.68H43.2907C42.8632 226.68 42.5154 227.027 42.5154 227.454C42.5154 227.88 42.8632 228.227 43.2907 228.227H50.2513C50.6787 228.227 51.0265 227.88 51.0265 227.454C51.0265 227.027 50.6787 226.68 50.2513 226.68ZM36.3343 226.68H29.3737C28.9463 226.68 28.5984 227.027 28.5984 227.454C28.5984 227.88 28.9463 228.227 29.3737 228.227H36.3343C36.7617 228.227 37.1095 227.88 37.1095 227.454C37.1095 227.027 36.7617 226.68 36.3343 226.68ZM18.0172 2.37052C17.8873 1.9648 17.4514 1.73894 17.0408 1.8686C14.7527 2.59639 12.5945 3.66716 10.625 5.05581C10.2729 5.30259 10.1933 5.78778 10.4406 6.13494C10.5914 6.34826 10.8303 6.46119 11.0733 6.46119C11.2284 6.46119 11.3835 6.41518 11.5217 6.31898C13.3614 5.02235 15.3771 4.02269 17.5143 3.34091C17.9208 3.21124 18.1471 2.77625 18.0172 2.36634V2.37052ZM105.919 226.68H98.9586C98.5311 226.68 98.1833 227.027 98.1833 227.454C98.1833 227.88 98.5311 228.227 98.9586 228.227H105.919C106.347 228.227 106.694 227.88 106.694 227.454C106.694 227.027 106.347 226.68 105.919 226.68ZM31.8587 1.54235C31.8587 1.11572 31.5109 0.768555 31.0835 0.768555H24.1229C23.6954 0.768555 23.3476 1.11572 23.3476 1.54235C23.3476 1.96899 23.6954 2.31615 24.1229 2.31615H31.0835C31.5109 2.31615 31.8587 1.96899 31.8587 1.54235ZM59.6927 1.54235C59.6927 1.11572 59.3449 0.768555 58.9174 0.768555H51.961C51.5336 0.768555 51.1858 1.11572 51.1858 1.54235C51.1858 1.96899 51.5336 2.31615 51.961 2.31615H58.9174C59.3449 2.31615 59.6927 1.96899 59.6927 1.54235ZM92.0022 226.68H85.0416C84.6142 226.68 84.2663 227.027 84.2663 227.454C84.2663 227.88 84.6142 228.227 85.0416 228.227H92.0022C92.4296 228.227 92.7775 227.88 92.7775 227.454C92.7775 227.027 92.4296 226.68 92.0022 226.68ZM101.444 1.54235C101.444 1.11572 101.096 0.768555 100.668 0.768555H93.7078C93.2803 0.768555 92.9325 1.11572 92.9325 1.54235C92.9325 1.96899 93.2803 2.31615 93.7078 2.31615H100.668C101.096 2.31615 101.444 1.96899 101.444 1.54235ZM5.75967 216.696C5.525 216.336 5.04727 216.236 4.68688 216.466C4.32648 216.7 4.22591 217.181 4.46058 217.536C5.76805 219.548 7.37305 221.343 9.22949 222.873C9.37616 222.995 9.54797 223.049 9.72398 223.049C9.94608 223.049 10.1682 222.953 10.3232 222.769C10.5956 222.438 10.5495 221.949 10.2185 221.677C8.48356 220.247 6.98332 218.569 5.76386 216.691L5.75967 216.696ZM87.5266 1.54235C87.5266 1.11572 87.1788 0.768555 86.7514 0.768555H79.795C79.3675 0.768555 79.0197 1.11572 79.0197 1.54235C79.0197 1.96899 79.3675 2.31615 79.795 2.31615H86.7514C87.1788 2.31615 87.5266 1.96899 87.5266 1.54235ZM78.0852 226.68H71.1288C70.7014 226.68 70.3536 227.027 70.3536 227.454C70.3536 227.88 70.7014 228.227 71.1288 228.227H78.0852C78.5127 228.227 78.8605 227.88 78.8605 227.454C78.8605 227.027 78.5127 226.68 78.0852 226.68ZM64.1682 226.68H57.2118C56.7844 226.68 56.4366 227.027 56.4366 227.454C56.4366 227.88 56.7844 228.227 57.2118 228.227H64.1682C64.5957 228.227 64.9435 227.88 64.9435 227.454C64.9435 227.027 64.5957 226.68 64.1682 226.68ZM73.6096 1.54235C73.6096 1.11572 73.2618 0.768555 72.8344 0.768555H65.878C65.4506 0.768555 65.1027 1.11572 65.1027 1.54235C65.1027 1.96899 65.4506 2.31615 65.878 2.31615H72.8344C73.2618 2.31615 73.6096 1.96899 73.6096 1.54235ZM22.4802 226.617C20.234 226.445 18.0423 225.935 15.9638 225.099C15.5657 224.94 15.1131 225.132 14.9538 225.525C14.7946 225.923 14.9874 226.374 15.3813 226.533C17.6065 227.433 19.9574 227.976 22.3628 228.16C22.3838 228.16 22.4047 228.16 22.4215 228.16C22.8238 228.16 23.1632 227.851 23.1967 227.445C23.2303 227.019 22.9076 226.646 22.4802 226.613V226.617ZM1.45592 86.6433C1.88337 86.6433 2.23119 86.2962 2.23119 85.8695V78.9221C2.23119 78.4954 1.88337 78.1483 1.45592 78.1483C1.02848 78.1483 0.680664 78.4954 0.680664 78.9221V85.8695C0.680664 86.2962 1.02848 86.6433 1.45592 86.6433ZM1.45592 100.534C1.88337 100.534 2.23119 100.187 2.23119 99.7602V92.817C2.23119 92.3903 1.88337 92.0432 1.45592 92.0432C1.02848 92.0432 0.680664 92.3903 0.680664 92.817V99.7602C0.680664 100.187 1.02848 100.534 1.45592 100.534ZM1.45592 72.7526C1.88337 72.7526 2.23119 72.4054 2.23119 71.9788V65.0314C2.23119 64.6047 1.88337 64.2576 1.45592 64.2576C1.02848 64.2576 0.680664 64.6047 0.680664 65.0314V71.9788C0.680664 72.4054 1.02848 72.7526 1.45592 72.7526ZM1.45592 31.0805C1.88337 31.0805 2.23119 30.7333 2.23119 30.3067V24.2167C2.23119 23.9406 2.23538 23.6646 2.24795 23.3927C2.26471 22.9661 1.92946 22.6064 1.50202 22.5896C1.07877 22.5729 0.714188 22.9075 0.697426 23.3342C0.684854 23.6269 0.680664 23.9197 0.680664 24.2167V30.3067C0.680664 30.7333 1.02848 31.0805 1.45592 31.0805ZM1.45592 58.8619C1.88337 58.8619 2.23119 58.5147 2.23119 58.0881V51.1449C2.23119 50.7182 1.88337 50.3711 1.45592 50.3711C1.02848 50.3711 0.680664 50.7182 0.680664 51.1449V58.0881C0.680664 58.5147 1.02848 58.8619 1.45592 58.8619ZM1.45592 114.425C1.88337 114.425 2.23119 114.078 2.23119 113.651V106.703C2.23119 106.277 1.88337 105.93 1.45592 105.93C1.02848 105.93 0.680664 106.277 0.680664 106.703V113.651C0.680664 114.078 1.02848 114.425 1.45592 114.425ZM1.45592 44.9712C1.88337 44.9712 2.23119 44.624 2.23119 44.1974V37.25C2.23119 36.8233 1.88337 36.4762 1.45592 36.4762C1.02848 36.4762 0.680664 36.8233 0.680664 37.25V44.1974C0.680664 44.624 1.02848 44.9712 1.45592 44.9712ZM1.45592 156.097C1.88337 156.097 2.23119 155.75 2.23119 155.323V148.376C2.23119 147.949 1.88337 147.602 1.45592 147.602C1.02848 147.602 0.680664 147.949 0.680664 148.376V155.323C0.680664 155.75 1.02848 156.097 1.45592 156.097ZM1.45592 197.769C1.88337 197.769 2.23119 197.422 2.23119 196.995V190.048C2.23119 189.621 1.88337 189.274 1.45592 189.274C1.02848 189.274 0.680664 189.621 0.680664 190.048V196.995C0.680664 197.422 1.02848 197.769 1.45592 197.769ZM1.45592 183.878C1.88337 183.878 2.23119 183.531 2.23119 183.104V176.157C2.23119 175.73 1.88337 175.383 1.45592 175.383C1.02848 175.383 0.680664 175.73 0.680664 176.157V183.104C0.680664 183.531 1.02848 183.878 1.45592 183.878ZM2.23119 204.788V203.938C2.23119 203.512 1.88337 203.165 1.45592 203.165C1.02848 203.165 0.680664 203.512 0.680664 203.938V204.788C0.680664 206.9 0.961433 208.995 1.51878 211.016C1.61517 211.359 1.92527 211.584 2.2689 211.584C2.33595 211.584 2.40719 211.576 2.47424 211.555C2.88911 211.442 3.13216 211.016 3.01902 210.601C2.49938 208.715 2.23538 206.758 2.23538 204.783L2.23119 204.788ZM6.56007 9.87427C6.22064 9.61494 5.73033 9.68186 5.47052 10.0207C4.008 11.9363 2.85977 14.0486 2.05099 16.3072C1.90432 16.7088 2.11804 17.1521 2.52034 17.2985C2.60834 17.3278 2.69634 17.3445 2.78015 17.3445C3.09864 17.3445 3.39617 17.148 3.50932 16.8301C4.26363 14.722 5.34061 12.7478 6.70255 10.9618C6.96237 10.623 6.89532 10.1336 6.55588 9.87427H6.56007ZM1.45592 169.988C1.88337 169.988 2.23119 169.64 2.23119 169.214V162.271C2.23119 161.844 1.88337 161.497 1.45592 161.497C1.02848 161.497 0.680664 161.844 0.680664 162.271V169.214C0.680664 169.64 1.02848 169.988 1.45592 169.988ZM1.45592 142.206C1.88337 142.206 2.23119 141.859 2.23119 141.432V134.485C2.23119 134.058 1.88337 133.711 1.45592 133.711C1.02848 133.711 0.680664 134.058 0.680664 134.485V141.432C0.680664 141.859 1.02848 142.206 1.45592 142.206ZM1.45592 128.315C1.88337 128.315 2.23119 127.968 2.23119 127.542V120.594C2.23119 120.168 1.88337 119.82 1.45592 119.82C1.02848 119.82 0.680664 120.168 0.680664 120.594V127.542C0.680664 127.968 1.02848 128.315 1.45592 128.315ZM212.134 142.315C211.707 142.315 211.359 142.662 211.359 143.089V150.032C211.359 150.459 211.707 150.806 212.134 150.806C212.562 150.806 212.909 150.459 212.909 150.032V143.089C212.909 142.662 212.562 142.315 212.134 142.315ZM115.361 1.54235C115.361 1.11572 115.013 0.768555 114.585 0.768555H107.629C107.201 0.768555 106.854 1.11572 106.854 1.54235C106.854 1.96899 107.201 2.31615 107.629 2.31615H114.585C115.013 2.31615 115.361 1.96899 115.361 1.54235ZM212.134 156.201C211.707 156.201 211.359 156.549 211.359 156.975V163.918C211.359 164.345 211.707 164.692 212.134 164.692C212.562 164.692 212.909 164.345 212.909 163.918V156.975C212.909 156.549 212.562 156.201 212.134 156.201ZM212.134 170.092C211.707 170.092 211.359 170.439 211.359 170.866V177.813C211.359 178.24 211.707 178.587 212.134 178.587C212.562 178.587 212.909 178.24 212.909 177.813V170.866C212.909 170.439 212.562 170.092 212.134 170.092ZM212.134 197.874C211.707 197.874 211.359 198.221 211.359 198.647V204.783C211.359 205.047 211.355 205.306 211.346 205.566C211.329 205.992 211.665 206.352 212.096 206.369C212.105 206.369 212.113 206.369 212.126 206.369C212.541 206.369 212.888 206.038 212.901 205.62C212.909 205.344 212.918 205.064 212.918 204.783V198.647C212.918 198.221 212.57 197.874 212.142 197.874H212.134ZM212.134 183.983C211.707 183.983 211.359 184.33 211.359 184.757V191.7C211.359 192.127 211.707 192.474 212.134 192.474C212.562 192.474 212.909 192.127 212.909 191.7V184.757C212.909 184.33 212.562 183.983 212.134 183.983ZM212.134 114.529C211.707 114.529 211.359 114.876 211.359 115.303V122.246C211.359 122.673 211.707 123.02 212.134 123.02C212.562 123.02 212.909 122.673 212.909 122.246V115.303C212.909 114.876 212.562 114.529 212.134 114.529ZM212.134 100.639C211.707 100.639 211.359 100.986 211.359 101.412V108.36C211.359 108.786 211.707 109.134 212.134 109.134C212.562 109.134 212.909 108.786 212.909 108.36V101.412C212.909 100.986 212.562 100.639 212.134 100.639ZM212.134 45.0758C211.707 45.0758 211.359 45.4229 211.359 45.8496V52.797C211.359 53.2236 211.707 53.5708 212.134 53.5708C212.562 53.5708 212.909 53.2236 212.909 52.797V45.8496C212.909 45.4229 212.562 45.0758 212.134 45.0758ZM212.134 31.1851C211.707 31.1851 211.359 31.5322 211.359 31.9589V38.9021C211.359 39.3288 211.707 39.6759 212.134 39.6759C212.562 39.6759 212.909 39.3288 212.909 38.9021V31.9589C212.909 31.5322 212.562 31.1851 212.134 31.1851ZM212.059 17.9385C211.945 17.5244 211.518 17.2818 211.103 17.3989C210.688 17.5119 210.449 17.9385 210.563 18.3526C211.091 20.2515 211.355 22.2216 211.355 24.2083V25.0156C211.355 25.4422 211.702 25.7894 212.13 25.7894C212.557 25.7894 212.905 25.4422 212.905 25.0156V24.2083C212.905 22.0793 212.62 19.9713 212.054 17.9385H212.059ZM212.134 86.7479C211.707 86.7479 211.359 87.0951 211.359 87.5217V94.4691C211.359 94.8958 211.707 95.2429 212.134 95.2429C212.562 95.2429 212.909 94.8958 212.909 94.4691V87.5217C212.909 87.0951 212.562 86.7479 212.134 86.7479ZM211.086 211.656C210.684 211.509 210.24 211.722 210.093 212.124C209.343 214.232 208.27 216.21 206.908 218.001C206.649 218.344 206.716 218.829 207.059 219.088C207.202 219.193 207.365 219.247 207.529 219.247C207.763 219.247 207.994 219.143 208.149 218.942C209.607 217.026 210.751 214.91 211.56 212.651C211.702 212.249 211.493 211.806 211.091 211.66L211.086 211.656ZM212.134 72.8572C211.707 72.8572 211.359 73.2043 211.359 73.631V80.5742C211.359 81.0009 211.707 81.348 212.134 81.348C212.562 81.348 212.909 81.0009 212.909 80.5742V73.631C212.909 73.2043 212.562 72.8572 212.134 72.8572ZM212.134 58.9665C211.707 58.9665 211.359 59.3136 211.359 59.7403V66.6877C211.359 67.1144 211.707 67.4615 212.134 67.4615C212.562 67.4615 212.909 67.1144 212.909 66.6877V59.7403C212.909 59.3136 212.562 58.9665 212.134 58.9665ZM212.134 128.42C211.707 128.42 211.359 128.767 211.359 129.194V136.141C211.359 136.568 211.707 136.915 212.134 136.915C212.562 136.915 212.909 136.568 212.909 136.141V129.194C212.909 128.767 212.562 128.42 212.134 128.42ZM208.459 12.6181C208.606 12.6181 208.752 12.5763 208.882 12.4926C209.243 12.2584 209.343 11.7774 209.108 11.4219C207.797 9.41417 206.188 7.6198 204.327 6.09312C203.996 5.82124 203.506 5.86725 203.233 6.19768C202.961 6.52812 203.007 7.01749 203.338 7.28937C205.073 8.71566 206.577 10.3887 207.805 12.2668C207.956 12.4926 208.203 12.6181 208.455 12.6181H208.459ZM143.195 1.54235C143.195 1.11572 142.847 0.768555 142.419 0.768555H135.463C135.035 0.768555 134.688 1.11572 134.688 1.54235C134.688 1.96899 135.035 2.31615 135.463 2.31615H142.419C142.847 2.31615 143.195 1.96899 143.195 1.54235ZM157.112 1.54235C157.112 1.11572 156.764 0.768555 156.336 0.768555H149.376C148.948 0.768555 148.6 1.11572 148.6 1.54235C148.6 1.96899 148.948 2.31615 149.376 2.31615H156.336C156.764 2.31615 157.112 1.96899 157.112 1.54235ZM147.67 226.68H140.71C140.282 226.68 139.934 227.027 139.934 227.454C139.934 227.88 140.282 228.227 140.71 228.227H147.67C148.098 228.227 148.445 227.88 148.445 227.454C148.445 227.027 148.098 226.68 147.67 226.68ZM119.836 226.68H112.88C112.452 226.68 112.104 227.027 112.104 227.454C112.104 227.88 112.452 228.227 112.88 228.227H119.836C120.264 228.227 120.611 227.88 120.611 227.454C120.611 227.027 120.264 226.68 119.836 226.68ZM133.753 226.68H126.797C126.369 226.68 126.021 227.027 126.021 227.454C126.021 227.88 126.369 228.227 126.797 228.227H133.753C134.181 228.227 134.528 227.88 134.528 227.454C134.528 227.027 134.181 226.68 133.753 226.68ZM129.278 1.54235C129.278 1.11572 128.93 0.768555 128.502 0.768555H121.546C121.118 0.768555 120.771 1.11572 120.771 1.54235C120.771 1.96899 121.118 2.31615 121.546 2.31615H128.502C128.93 2.31615 129.278 1.96899 129.278 1.54235ZM161.587 226.68H154.626C154.199 226.68 153.851 227.027 153.851 227.454C153.851 227.88 154.199 228.227 154.626 228.227H161.587C162.015 228.227 162.362 227.88 162.362 227.454C162.362 227.027 162.015 226.68 161.587 226.68ZM197.878 3.93903C198.184 3.93903 198.477 3.75499 198.598 3.45384C198.758 3.05648 198.565 2.60475 198.167 2.44581C195.937 1.5549 193.591 1.01115 191.185 0.831295C190.758 0.802016 190.385 1.1199 190.356 1.54653C190.322 1.97317 190.645 2.34543 191.072 2.37471C193.318 2.54201 195.51 3.04812 197.593 3.88047C197.689 3.91812 197.785 3.93485 197.882 3.93485L197.878 3.93903ZM189.509 226.68H182.465C182.037 226.68 181.689 227.027 181.689 227.454C181.689 227.88 182.037 228.227 182.465 228.227H189.509C189.936 228.227 190.284 227.88 190.284 227.454C190.284 227.027 189.936 226.68 189.509 226.68ZM171.029 1.54235C171.029 1.11572 170.681 0.768555 170.253 0.768555H163.297C162.869 0.768555 162.522 1.11572 162.522 1.54235C162.522 1.96899 162.869 2.31615 163.297 2.31615H170.253C170.681 2.31615 171.029 1.96899 171.029 1.54235ZM202.102 222.656C200.266 223.957 198.251 224.961 196.118 225.642C195.711 225.772 195.485 226.207 195.615 226.617C195.719 226.947 196.025 227.157 196.352 227.157C196.432 227.157 196.512 227.144 196.591 227.119C198.879 226.387 201.037 225.312 203.003 223.919C203.351 223.672 203.434 223.187 203.187 222.84C202.94 222.493 202.454 222.409 202.106 222.656H202.102ZM184.945 1.54235C184.945 1.11572 184.598 0.768555 184.17 0.768555H177.214C176.786 0.768555 176.439 1.11572 176.439 1.54235C176.439 1.96899 176.786 2.31615 177.214 2.31615H184.17C184.598 2.31615 184.945 1.96899 184.945 1.54235ZM175.504 226.68H168.548C168.12 226.68 167.772 227.027 167.772 227.454C167.772 227.88 168.12 228.227 168.548 228.227H175.504C175.932 228.227 176.279 227.88 176.279 227.454C176.279 227.027 175.932 226.68 175.504 226.68Z" fill="#4D4D4D"/>
</svg>
