<svg width="40" height="40" viewBox="0 0 40 40" fill="none" xmlns="http://www.w3.org/2000/svg">
<g id="ri:live-fill">
<path id="Vector" d="M26.6667 6.66669C27.1088 6.66669 27.5327 6.84228 27.8453 7.15484C28.1578 7.4674 28.3334 7.89133 28.3334 8.33335V15.3334L37.0217 9.25002C37.1467 9.16245 37.2933 9.11085 37.4455 9.10086C37.5977 9.09086 37.7498 9.12285 37.8851 9.19334C38.0204 9.26383 38.1338 9.37012 38.2128 9.50061C38.2919 9.6311 38.3336 9.78079 38.3334 9.93335V30.0667C38.3336 30.2193 38.2919 30.3689 38.2128 30.4994C38.1338 30.6299 38.0204 30.7362 37.8851 30.8067C37.7498 30.8772 37.5977 30.9092 37.4455 30.8992C37.2933 30.8892 37.1467 30.8376 37.0217 30.75L28.3334 24.6667V31.6667C28.3334 32.1087 28.1578 32.5326 27.8453 32.8452C27.5327 33.1578 27.1088 33.3334 26.6667 33.3334H3.33341C2.89139 33.3334 2.46746 33.1578 2.1549 32.8452C1.84234 32.5326 1.66675 32.1087 1.66675 31.6667V8.33335C1.66675 7.89133 1.84234 7.4674 2.1549 7.15484C2.46746 6.84228 2.89139 6.66669 3.33341 6.66669H26.6667ZM12.3334 14.715C12.1797 14.715 12.0308 14.7681 11.9117 14.8652C11.7926 14.9624 11.7108 15.0978 11.6801 15.2484L11.6667 15.38V24.6167C11.6667 24.7246 11.6929 24.831 11.7431 24.9266C11.7933 25.0222 11.8659 25.1042 11.9548 25.1655C12.0436 25.2268 12.1461 25.2656 12.2532 25.2786C12.3604 25.2916 12.4692 25.2783 12.5701 25.24L12.6917 25.18L19.9501 20.5617C20.0351 20.5075 20.1067 20.4348 20.1595 20.349C20.2123 20.2632 20.245 20.1666 20.2551 20.0663C20.2653 19.9661 20.2525 19.8648 20.2178 19.7702C20.1832 19.6756 20.1275 19.59 20.0551 19.52L19.9501 19.4367L12.6917 14.8167C12.5842 14.75 12.4599 14.7137 12.3334 14.715Z" fill="#076AFF"/>
</g>
</svg>
